solid OpenSCAD_Model
  facet normal 1 -0 0
    outer loop
      vertex 16.4 0 40
      vertex 16.4 1.79999 0
      vertex 16.4 1.79999 40
    endloop
  endfacet
  facet normal 1 0 0
    outer loop
      vertex 16.4 1.79999 0
      vertex 16.4 0 40
      vertex 16.4 0 0
    endloop
  endfacet
  facet normal 0 0 1
    outer loop
      vertex 1.79999 4.4 40
      vertex 0 4.4 40
      vertex 1.79999 2.4 40
    endloop
  endfacet
  facet normal 0 0 1
    outer loop
      vertex 25.4 60 40
      vertex 23.4 58.2 40
      vertex 25.4 58.2 40
    endloop
  endfacet
  facet normal 0 0 1
    outer loop
      vertex 23.4 58.2 40
      vertex 16.6 58.2 40
      vertex 23.4 56 40
    endloop
  endfacet
  facet normal 0 0 1
    outer loop
      vertex 25.4 60 40
      vertex 16.6 58.2 40
      vertex 23.4 58.2 40
    endloop
  endfacet
  facet normal -0 0 1
    outer loop
      vertex 14.6 60 40
      vertex 16.6 58.2 40
      vertex 25.4 60 40
    endloop
  endfacet
  facet normal 0 0 1
    outer loop
      vertex 16.6 58.2 40
      vertex 14.6 60 40
      vertex 14.6 58.2 40
    endloop
  endfacet
  facet normal 0 0 1
    outer loop
      vertex 53.4 60 40
      vertex 51.4 58.2 40
      vertex 53.4 58.2 40
    endloop
  endfacet
  facet normal 0 0 1
    outer loop
      vertex 51.4 58.2 40
      vertex 44.6 58.2 40
      vertex 51.4 56 40
    endloop
  endfacet
  facet normal 0 0 1
    outer loop
      vertex 53.4 60 40
      vertex 44.6 58.2 40
      vertex 51.4 58.2 40
    endloop
  endfacet
  facet normal -0 0 1
    outer loop
      vertex 42.6 60 40
      vertex 44.6 58.2 40
      vertex 53.4 60 40
    endloop
  endfacet
  facet normal 0 0 1
    outer loop
      vertex 44.6 58.2 40
      vertex 42.6 60 40
      vertex 42.6 58.2 40
    endloop
  endfacet
  facet normal 0 0 1
    outer loop
      vertex 81.4 60 40
      vertex 79.4 58.2 40
      vertex 81.4 58.2 40
    endloop
  endfacet
  facet normal 0 0 1
    outer loop
      vertex 79.4 58.2 40
      vertex 72.6 58.2 40
      vertex 79.4 56 40
    endloop
  endfacet
  facet normal 0 0 1
    outer loop
      vertex 81.4 60 40
      vertex 72.6 58.2 40
      vertex 79.4 58.2 40
    endloop
  endfacet
  facet normal -0 0 1
    outer loop
      vertex 70.6 60 40
      vertex 72.6 58.2 40
      vertex 81.4 60 40
    endloop
  endfacet
  facet normal 0 0 1
    outer loop
      vertex 72.6 58.2 40
      vertex 70.6 60 40
      vertex 70.6 58.2 40
    endloop
  endfacet
  facet normal 0 0 1
    outer loop
      vertex 84 56 40
      vertex 82.2 53.6 40
      vertex 84 51.6 40
    endloop
  endfacet
  facet normal -0 0 1
    outer loop
      vertex 79.4 56 40
      vertex 82.2 53.6 40
      vertex 84 56 40
    endloop
  endfacet
  facet normal -0 0 1
    outer loop
      vertex 69.6 52 40
      vertex 80 42.4 40
      vertex 80 53.6 40
    endloop
  endfacet
  facet normal -0 0 1
    outer loop
      vertex 58.4 52 40
      vertex 80 42.4 40
      vertex 69.6 52 40
    endloop
  endfacet
  facet normal -0 0 1
    outer loop
      vertex 72.6 56 40
      vertex 80 53.6 40
      vertex 79.4 56 40
    endloop
  endfacet
  facet normal 0 0 1
    outer loop
      vertex 82.2 53.6 40
      vertex 79.4 56 40
      vertex 80 53.6 40
    endloop
  endfacet
  facet normal 0 0 1
    outer loop
      vertex 84 51.6 40
      vertex 82.2 53.6 40
      vertex 82.2 51.6 40
    endloop
  endfacet
  facet normal 0 0 1
    outer loop
      vertex 80 25.6 40
      vertex 84 32.6 40
      vertex 80 42.4 40
    endloop
  endfacet
  facet normal 0 0 1
    outer loop
      vertex 84 32.6 40
      vertex 80 25.6 40
      vertex 82.2 25.6 40
    endloop
  endfacet
  facet normal -0 0 1
    outer loop
      vertex 82.2 42.4 40
      vertex 84 39.4 40
      vertex 84 44.4 40
    endloop
  endfacet
  facet normal -0 0 1
    outer loop
      vertex 80 42.4 40
      vertex 84 39.4 40
      vertex 82.2 42.4 40
    endloop
  endfacet
  facet normal 0 0 1
    outer loop
      vertex 82.2 42.4 40
      vertex 84 44.4 40
      vertex 82.2 44.4 40
    endloop
  endfacet
  facet normal 0 0 1
    outer loop
      vertex 84 39.4 40
      vertex 80 42.4 40
      vertex 84 32.6 40
    endloop
  endfacet
  facet normal 0 0 1
    outer loop
      vertex 84 32.6 40
      vertex 82.2 25.6 40
      vertex 84 23.6 40
    endloop
  endfacet
  facet normal 0 0 1
    outer loop
      vertex 84 23.6 40
      vertex 82.2 25.6 40
      vertex 82.2 23.6 40
    endloop
  endfacet
  facet normal -0 0 1
    outer loop
      vertex 84 39.4 40
      vertex 86.2 32.6 40
      vertex 86.2 39.4 40
    endloop
  endfacet
  facet normal 0 0 1
    outer loop
      vertex 86.2 32.6 40
      vertex 84 39.4 40
      vertex 84 32.6 40
    endloop
  endfacet
  facet normal 0 0 1
    outer loop
      vertex 86.2 39.4 40
      vertex 88 41.4 40
      vertex 86.2 41.4 40
    endloop
  endfacet
  facet normal 0 0 1
    outer loop
      vertex 88 41.4 40
      vertex 86.2 39.4 40
      vertex 88 30.6 40
    endloop
  endfacet
  facet normal -0 0 1
    outer loop
      vertex 86.2 32.6 40
      vertex 88 30.6 40
      vertex 86.2 39.4 40
    endloop
  endfacet
  facet normal 0 0 1
    outer loop
      vertex 88 30.6 40
      vertex 86.2 32.6 40
      vertex 86.2 30.6 40
    endloop
  endfacet
  facet normal 0 0 1
    outer loop
      vertex 84 11.4 40
      vertex 80 14.4 40
      vertex 81.6 3.99999 40
    endloop
  endfacet
  facet normal 0 0 1
    outer loop
      vertex 72.6 56 40
      vertex 79.4 56 40
      vertex 72.6 58.2 40
    endloop
  endfacet
  facet normal 0 0 1
    outer loop
      vertex 80 53.6 40
      vertex 72.6 56 40
      vertex 69.6 52 40
    endloop
  endfacet
  facet normal 0 0 1
    outer loop
      vertex 80 42.4 40
      vertex 58.4 52 40
      vertex 80 25.6 40
    endloop
  endfacet
  facet normal 0 0 1
    outer loop
      vertex 53.6 3.99999 40
      vertex 80 25.6 40
      vertex 58.4 52 40
    endloop
  endfacet
  facet normal 0 0 1
    outer loop
      vertex 80 14.4 40
      vertex 70.4 3.99999 40
      vertex 81.6 3.99999 40
    endloop
  endfacet
  facet normal 0 0 1
    outer loop
      vertex 69.6 52 40
      vertex 72.6 56 40
      vertex 69.6 54.2 40
    endloop
  endfacet
  facet normal -0 0 1
    outer loop
      vertex 67.6 56 40
      vertex 69.6 54.2 40
      vertex 72.6 56 40
    endloop
  endfacet
  facet normal 0 0 1
    outer loop
      vertex 69.6 54.2 40
      vertex 67.6 56 40
      vertex 67.6 54.2 40
    endloop
  endfacet
  facet normal -0 0 1
    outer loop
      vertex 82.2 14.4 40
      vertex 84 11.4 40
      vertex 84 16.4 40
    endloop
  endfacet
  facet normal -0 0 1
    outer loop
      vertex 80 14.4 40
      vertex 84 11.4 40
      vertex 82.2 14.4 40
    endloop
  endfacet
  facet normal 0 0 1
    outer loop
      vertex 82.2 14.4 40
      vertex 84 16.4 40
      vertex 82.2 16.4 40
    endloop
  endfacet
  facet normal 0 0 1
    outer loop
      vertex 84 11.4 40
      vertex 81.6 3.99999 40
      vertex 84 4.6 40
    endloop
  endfacet
  facet normal 0 0 1
    outer loop
      vertex 81.6 1.79999 40
      vertex 84 4.6 40
      vertex 81.6 3.99999 40
    endloop
  endfacet
  facet normal 0 0 1
    outer loop
      vertex 84 4.6 40
      vertex 81.6 1.79999 40
      vertex 84 0 40
    endloop
  endfacet
  facet normal 0 0 1
    outer loop
      vertex 79.6 0 40
      vertex 81.6 1.79999 40
      vertex 79.6 1.79999 40
    endloop
  endfacet
  facet normal 0 0 1
    outer loop
      vertex 81.6 1.79999 40
      vertex 79.6 0 40
      vertex 84 0 40
    endloop
  endfacet
  facet normal -0 0 1
    outer loop
      vertex 84 11.4 40
      vertex 86.2 4.6 40
      vertex 86.2 11.4 40
    endloop
  endfacet
  facet normal 0 0 1
    outer loop
      vertex 86.2 4.6 40
      vertex 84 11.4 40
      vertex 84 4.6 40
    endloop
  endfacet
  facet normal 0 0 1
    outer loop
      vertex 86.2 11.4 40
      vertex 88 13.4 40
      vertex 86.2 13.4 40
    endloop
  endfacet
  facet normal 0 0 1
    outer loop
      vertex 88 13.4 40
      vertex 86.2 11.4 40
      vertex 88 2.6 40
    endloop
  endfacet
  facet normal -0 0 1
    outer loop
      vertex 86.2 4.6 40
      vertex 88 2.6 40
      vertex 86.2 11.4 40
    endloop
  endfacet
  facet normal 0 0 1
    outer loop
      vertex 88 2.6 40
      vertex 86.2 4.6 40
      vertex 86.2 2.6 40
    endloop
  endfacet
  facet normal -0 0 1
    outer loop
      vertex 70.4 1.79999 40
      vertex 72.4 0 40
      vertex 72.4 1.79999 40
    endloop
  endfacet
  facet normal 0 -0 1
    outer loop
      vertex 70.4 3.99999 40
      vertex 80 25.6 40
      vertex 53.6 3.99999 40
    endloop
  endfacet
  facet normal 0 0 1
    outer loop
      vertex 70.4 1.79999 40
      vertex 67.4 0 40
      vertex 72.4 0 40
    endloop
  endfacet
  facet normal 0 -0 1
    outer loop
      vertex 60.6 0 40
      vertex 70.4 3.99999 40
      vertex 53.6 3.99999 40
    endloop
  endfacet
  facet normal 0 0 1
    outer loop
      vertex 67.4 0 40
      vertex 60.6 0 40
      vertex 67.4 -2.19999 40
    endloop
  endfacet
  facet normal 0 -0 1
    outer loop
      vertex 67.4 0 40
      vertex 70.4 3.99999 40
      vertex 60.6 0 40
    endloop
  endfacet
  facet normal 0 0 1
    outer loop
      vertex 80 25.6 40
      vertex 70.4 3.99999 40
      vertex 80 14.4 40
    endloop
  endfacet
  facet normal 0 0 1
    outer loop
      vertex 70.4 3.99999 40
      vertex 67.4 0 40
      vertex 70.4 1.79999 40
    endloop
  endfacet
  facet normal -0 0 1
    outer loop
      vertex 53.6 1.79999 40
      vertex 60.6 0 40
      vertex 53.6 3.99999 40
    endloop
  endfacet
  facet normal 0 0 1
    outer loop
      vertex 51.6 0 40
      vertex 53.6 1.79999 40
      vertex 51.6 1.79999 40
    endloop
  endfacet
  facet normal 0 0 1
    outer loop
      vertex 53.6 1.79999 40
      vertex 51.6 0 40
      vertex 60.6 0 40
    endloop
  endfacet
  facet normal -0 0 1
    outer loop
      vertex 67.4 -2.19999 40
      vertex 69.4 -3.99999 40
      vertex 69.4 -2.19999 40
    endloop
  endfacet
  facet normal 0 0 1
    outer loop
      vertex 60.6 -2.19999 40
      vertex 67.4 -2.19999 40
      vertex 60.6 0 40
    endloop
  endfacet
  facet normal 0 0 1
    outer loop
      vertex 67.4 -2.19999 40
      vertex 60.6 -2.19999 40
      vertex 69.4 -3.99999 40
    endloop
  endfacet
  facet normal 0 0 1
    outer loop
      vertex 58.6 -3.99999 40
      vertex 60.6 -2.19999 40
      vertex 58.6 -2.19999 40
    endloop
  endfacet
  facet normal 0 0 1
    outer loop
      vertex 60.6 -2.19999 40
      vertex 58.6 -3.99999 40
      vertex 69.4 -3.99999 40
    endloop
  endfacet
  facet normal 0 0 1
    outer loop
      vertex 60.4 56 40
      vertex 58.4 54.2 40
      vertex 60.4 54.2 40
    endloop
  endfacet
  facet normal 0 0 1
    outer loop
      vertex 51.4 56 40
      vertex 58.4 52 40
      vertex 58.4 54.2 40
    endloop
  endfacet
  facet normal -0 0 1
    outer loop
      vertex 51.4 56 40
      vertex 58.4 54.2 40
      vertex 60.4 56 40
    endloop
  endfacet
  facet normal 0 0 1
    outer loop
      vertex 58.4 52 40
      vertex 51.4 56 40
      vertex 41.6 52 40
    endloop
  endfacet
  facet normal 0 0 1
    outer loop
      vertex 44.6 56 40
      vertex 51.4 56 40
      vertex 44.6 58.2 40
    endloop
  endfacet
  facet normal 0 0 1
    outer loop
      vertex 41.6 52 40
      vertex 51.4 56 40
      vertex 44.6 56 40
    endloop
  endfacet
  facet normal 0 0 1
    outer loop
      vertex 58.4 52 40
      vertex 41.6 52 40
      vertex 53.6 3.99999 40
    endloop
  endfacet
  facet normal 0 0 1
    outer loop
      vertex 53.6 3.99999 40
      vertex 41.6 52 40
      vertex 42.4 3.99999 40
    endloop
  endfacet
  facet normal 0 0 1
    outer loop
      vertex 41.6 52 40
      vertex 44.6 56 40
      vertex 41.6 54.2 40
    endloop
  endfacet
  facet normal -0 0 1
    outer loop
      vertex 39.6 56 40
      vertex 41.6 54.2 40
      vertex 44.6 56 40
    endloop
  endfacet
  facet normal 0 0 1
    outer loop
      vertex 41.6 54.2 40
      vertex 39.6 56 40
      vertex 39.6 54.2 40
    endloop
  endfacet
  facet normal -0 0 1
    outer loop
      vertex 42.4 1.79999 40
      vertex 44.4 0 40
      vertex 44.4 1.79999 40
    endloop
  endfacet
  facet normal -0 0 1
    outer loop
      vertex 30.4 52 40
      vertex 42.4 3.99999 40
      vertex 41.6 52 40
    endloop
  endfacet
  facet normal 0 0 1
    outer loop
      vertex 42.4 1.79999 40
      vertex 39.4 0 40
      vertex 44.4 0 40
    endloop
  endfacet
  facet normal 0 -0 1
    outer loop
      vertex 32.6 0 40
      vertex 42.4 3.99999 40
      vertex 25.6 3.99999 40
    endloop
  endfacet
  facet normal 0 0 1
    outer loop
      vertex 39.4 0 40
      vertex 32.6 0 40
      vertex 39.4 -2.19999 40
    endloop
  endfacet
  facet normal 0 -0 1
    outer loop
      vertex 39.4 0 40
      vertex 42.4 3.99999 40
      vertex 32.6 0 40
    endloop
  endfacet
  facet normal 0 0 1
    outer loop
      vertex 42.4 3.99999 40
      vertex 30.4 52 40
      vertex 25.6 3.99999 40
    endloop
  endfacet
  facet normal 0 0 1
    outer loop
      vertex 42.4 3.99999 40
      vertex 39.4 0 40
      vertex 42.4 1.79999 40
    endloop
  endfacet
  facet normal -0 0 1
    outer loop
      vertex 25.6 1.79999 40
      vertex 32.6 0 40
      vertex 25.6 3.99999 40
    endloop
  endfacet
  facet normal 0 0 1
    outer loop
      vertex 23.6 0 40
      vertex 25.6 1.79999 40
      vertex 23.6 1.79999 40
    endloop
  endfacet
  facet normal 0 0 1
    outer loop
      vertex 25.6 1.79999 40
      vertex 23.6 0 40
      vertex 32.6 0 40
    endloop
  endfacet
  facet normal -0 0 1
    outer loop
      vertex 39.4 -2.19999 40
      vertex 41.4 -3.99999 40
      vertex 41.4 -2.19999 40
    endloop
  endfacet
  facet normal 0 0 1
    outer loop
      vertex 32.6 -2.19999 40
      vertex 39.4 -2.19999 40
      vertex 32.6 0 40
    endloop
  endfacet
  facet normal 0 0 1
    outer loop
      vertex 39.4 -2.19999 40
      vertex 32.6 -2.19999 40
      vertex 41.4 -3.99999 40
    endloop
  endfacet
  facet normal 0 0 1
    outer loop
      vertex 30.6 -3.99999 40
      vertex 32.6 -2.19999 40
      vertex 30.6 -2.19999 40
    endloop
  endfacet
  facet normal 0 0 1
    outer loop
      vertex 32.6 -2.19999 40
      vertex 30.6 -3.99999 40
      vertex 41.4 -3.99999 40
    endloop
  endfacet
  facet normal 0 0 1
    outer loop
      vertex 32.4 56 40
      vertex 30.4 54.2 40
      vertex 32.4 54.2 40
    endloop
  endfacet
  facet normal 0 0 1
    outer loop
      vertex 23.4 56 40
      vertex 30.4 52 40
      vertex 30.4 54.2 40
    endloop
  endfacet
  facet normal -0 0 1
    outer loop
      vertex 23.4 56 40
      vertex 30.4 54.2 40
      vertex 32.4 56 40
    endloop
  endfacet
  facet normal 0 0 1
    outer loop
      vertex 30.4 52 40
      vertex 23.4 56 40
      vertex 13.6 52 40
    endloop
  endfacet
  facet normal 0 0 1
    outer loop
      vertex 16.6 56 40
      vertex 23.4 56 40
      vertex 16.6 58.2 40
    endloop
  endfacet
  facet normal 0 0 1
    outer loop
      vertex 13.6 52 40
      vertex 23.4 56 40
      vertex 16.6 56 40
    endloop
  endfacet
  facet normal 0 0 1
    outer loop
      vertex 30.4 52 40
      vertex 13.6 52 40
      vertex 3.99999 30.4 40
    endloop
  endfacet
  facet normal 0 0 1
    outer loop
      vertex 30.4 52 40
      vertex 3.99999 30.4 40
      vertex 25.6 3.99999 40
    endloop
  endfacet
  facet normal 0 0 1
    outer loop
      vertex 13.6 52 40
      vertex 16.6 56 40
      vertex 13.6 54.2 40
    endloop
  endfacet
  facet normal -0 0 1
    outer loop
      vertex 11.6 56 40
      vertex 13.6 54.2 40
      vertex 16.6 56 40
    endloop
  endfacet
  facet normal 0 0 1
    outer loop
      vertex 13.6 54.2 40
      vertex 11.6 56 40
      vertex 11.6 54.2 40
    endloop
  endfacet
  facet normal -0 0 1
    outer loop
      vertex 14.4 1.79999 40
      vertex 16.4 0 40
      vertex 16.4 1.79999 40
    endloop
  endfacet
  facet normal -0 0 1
    outer loop
      vertex 3.99999 13.6 40
      vertex 25.6 3.99999 40
      vertex 3.99999 30.4 40
    endloop
  endfacet
  facet normal 0 0 1
    outer loop
      vertex 14.4 1.79999 40
      vertex 11.4 0 40
      vertex 16.4 0 40
    endloop
  endfacet
  facet normal 0 0 1
    outer loop
      vertex 25.6 3.99999 40
      vertex 3.99999 13.6 40
      vertex 14.4 3.99999 40
    endloop
  endfacet
  facet normal 0 0 1
    outer loop
      vertex 11.4 0 40
      vertex 4.6 0 40
      vertex 11.4 -2.19999 40
    endloop
  endfacet
  facet normal 0 0 1
    outer loop
      vertex 3.99999 2.4 40
      vertex 14.4 3.99999 40
      vertex 3.99999 13.6 40
    endloop
  endfacet
  facet normal 0 0 1
    outer loop
      vertex 3.99999 30.4 40
      vertex 13.6 52 40
      vertex 3.99999 41.6 40
    endloop
  endfacet
  facet normal -0 0 1
    outer loop
      vertex 2.4 52 40
      vertex 3.99999 41.6 40
      vertex 13.6 52 40
    endloop
  endfacet
  facet normal -0 0 1
    outer loop
      vertex 0 44.6 40
      vertex 3.99999 41.6 40
      vertex 2.4 52 40
    endloop
  endfacet
  facet normal -0 0 1
    outer loop
      vertex 0 32.4 40
      vertex 1.79999 30.4 40
      vertex 1.79999 32.4 40
    endloop
  endfacet
  facet normal 0 0 1
    outer loop
      vertex 1.79999 30.4 40
      vertex 0 23.4 40
      vertex 1.79999 13.6 40
    endloop
  endfacet
  facet normal 0 0 1
    outer loop
      vertex 1.79999 30.4 40
      vertex 0 32.4 40
      vertex 0 23.4 40
    endloop
  endfacet
  facet normal -0 0 1
    outer loop
      vertex 0 16.6 40
      vertex 1.79999 13.6 40
      vertex 0 23.4 40
    endloop
  endfacet
  facet normal 0 0 1
    outer loop
      vertex 0 11.6 40
      vertex 1.79999 13.6 40
      vertex 0 16.6 40
    endloop
  endfacet
  facet normal 0 0 1
    outer loop
      vertex 1.79999 13.6 40
      vertex 0 11.6 40
      vertex 1.79999 11.6 40
    endloop
  endfacet
  facet normal 0 0 1
    outer loop
      vertex 4.4 56 40
      vertex 2.4 54.2 40
      vertex 4.4 54.2 40
    endloop
  endfacet
  facet normal 0 0 1
    outer loop
      vertex 0 51.4 40
      vertex 2.4 52 40
      vertex 2.4 54.2 40
    endloop
  endfacet
  facet normal -0 0 1
    outer loop
      vertex 0 56 40
      vertex 2.4 54.2 40
      vertex 4.4 56 40
    endloop
  endfacet
  facet normal 0 0 1
    outer loop
      vertex 0 51.4 40
      vertex 2.4 54.2 40
      vertex 0 56 40
    endloop
  endfacet
  facet normal 0 0 1
    outer loop
      vertex 2.4 52 40
      vertex 0 51.4 40
      vertex 0 44.6 40
    endloop
  endfacet
  facet normal 0 0 1
    outer loop
      vertex 3.99999 41.6 40
      vertex 0 44.6 40
      vertex 1.79999 41.6 40
    endloop
  endfacet
  facet normal 0 0 1
    outer loop
      vertex 0 39.6 40
      vertex 1.79999 41.6 40
      vertex 0 44.6 40
    endloop
  endfacet
  facet normal 0 0 1
    outer loop
      vertex 1.79999 41.6 40
      vertex 0 39.6 40
      vertex 1.79999 39.6 40
    endloop
  endfacet
  facet normal -0 0 1
    outer loop
      vertex 1.79999 30.4 40
      vertex 3.99999 13.6 40
      vertex 3.99999 30.4 40
    endloop
  endfacet
  facet normal 0 0 1
    outer loop
      vertex 3.99999 13.6 40
      vertex 1.79999 30.4 40
      vertex 1.79999 13.6 40
    endloop
  endfacet
  facet normal -0 0 1
    outer loop
      vertex 11.4 -2.19999 40
      vertex 13.4 -3.99999 40
      vertex 13.4 -2.19999 40
    endloop
  endfacet
  facet normal 0 0 1
    outer loop
      vertex 4.6 -2.19999 40
      vertex 11.4 -2.19999 40
      vertex 4.6 0 40
    endloop
  endfacet
  facet normal 0 0 1
    outer loop
      vertex 11.4 -2.19999 40
      vertex 4.6 -2.19999 40
      vertex 13.4 -3.99999 40
    endloop
  endfacet
  facet normal 0 0 1
    outer loop
      vertex 2.6 -3.99999 40
      vertex 4.6 -2.19999 40
      vertex 2.6 -2.19999 40
    endloop
  endfacet
  facet normal 0 0 1
    outer loop
      vertex 4.6 -2.19999 40
      vertex 2.6 -3.99999 40
      vertex 13.4 -3.99999 40
    endloop
  endfacet
  facet normal 0 -0 1
    outer loop
      vertex 11.4 0 40
      vertex 14.4 3.99999 40
      vertex 3.99999 2.4 40
    endloop
  endfacet
  facet normal 0 0 1
    outer loop
      vertex 14.4 3.99999 40
      vertex 11.4 0 40
      vertex 14.4 1.79999 40
    endloop
  endfacet
  facet normal 0 0 1
    outer loop
      vertex 11.4 0 40
      vertex 3.99999 2.4 40
      vertex 4.6 0 40
    endloop
  endfacet
  facet normal -0 0 1
    outer loop
      vertex 1.79999 2.4 40
      vertex 4.6 0 40
      vertex 3.99999 2.4 40
    endloop
  endfacet
  facet normal 0 0 1
    outer loop
      vertex 1.79999 2.4 40
      vertex 0 0 40
      vertex 4.6 0 40
    endloop
  endfacet
  facet normal 0 0 1
    outer loop
      vertex 0 0 40
      vertex 1.79999 2.4 40
      vertex 0 4.4 40
    endloop
  endfacet
  facet normal -0 0 1
    outer loop
      vertex -3.99999 25.4 40
      vertex -2.19999 23.4 40
      vertex -2.19999 25.4 40
    endloop
  endfacet
  facet normal 0 0 1
    outer loop
      vertex -2.19999 23.4 40
      vertex -3.99999 25.4 40
      vertex -2.19999 16.6 40
    endloop
  endfacet
  facet normal 0 0 1
    outer loop
      vertex -3.99999 14.6 40
      vertex -2.19999 16.6 40
      vertex -3.99999 25.4 40
    endloop
  endfacet
  facet normal 0 0 1
    outer loop
      vertex -2.19999 16.6 40
      vertex -3.99999 14.6 40
      vertex -2.19999 14.6 40
    endloop
  endfacet
  facet normal -0 0 1
    outer loop
      vertex -3.99999 53.4 40
      vertex -2.19999 51.4 40
      vertex -2.19999 53.4 40
    endloop
  endfacet
  facet normal 0 0 1
    outer loop
      vertex -2.19999 51.4 40
      vertex -3.99999 53.4 40
      vertex -2.19999 44.6 40
    endloop
  endfacet
  facet normal 0 0 1
    outer loop
      vertex -3.99999 42.6 40
      vertex -2.19999 44.6 40
      vertex -3.99999 53.4 40
    endloop
  endfacet
  facet normal 0 0 1
    outer loop
      vertex -2.19999 44.6 40
      vertex -3.99999 42.6 40
      vertex -2.19999 42.6 40
    endloop
  endfacet
  facet normal -0 0 1
    outer loop
      vertex -2.19999 23.4 40
      vertex 0 16.6 40
      vertex 0 23.4 40
    endloop
  endfacet
  facet normal 0 0 1
    outer loop
      vertex 0 16.6 40
      vertex -2.19999 23.4 40
      vertex -2.19999 16.6 40
    endloop
  endfacet
  facet normal -0 0 1
    outer loop
      vertex -2.19999 51.4 40
      vertex 0 44.6 40
      vertex 0 51.4 40
    endloop
  endfacet
  facet normal 0 0 1
    outer loop
      vertex 0 44.6 40
      vertex -2.19999 51.4 40
      vertex -2.19999 44.6 40
    endloop
  endfacet
  facet normal -1 0 0
    outer loop
      vertex 23.6 0 0
      vertex 23.6 1.79999 40
      vertex 23.6 1.79999 0
    endloop
  endfacet
  facet normal -1 -0 0
    outer loop
      vertex 23.6 1.79999 40
      vertex 23.6 0 0
      vertex 23.6 0 40
    endloop
  endfacet
  facet normal 0 0 -1
    outer loop
      vertex 0 16.6 0
      vertex 3.99999 13.6 0
      vertex 1.79999 13.6 0
    endloop
  endfacet
  facet normal 0 0 -1
    outer loop
      vertex 3.99999 13.6 0
      vertex 0 23.4 0
      vertex 3.99999 30.4 0
    endloop
  endfacet
  facet normal 0 0 -1
    outer loop
      vertex 4.6 0 0
      vertex 1.79999 2.4 0
      vertex 3.99999 2.4 0
    endloop
  endfacet
  facet normal 0 0 -1
    outer loop
      vertex 0 0 0
      vertex 1.79999 2.4 0
      vertex 4.6 0 0
    endloop
  endfacet
  facet normal 0 0 -1
    outer loop
      vertex 0 4.4 0
      vertex 1.79999 2.4 0
      vertex 0 0 0
    endloop
  endfacet
  facet normal 0 0 -1
    outer loop
      vertex 1.79999 2.4 0
      vertex 0 4.4 0
      vertex 1.79999 4.4 0
    endloop
  endfacet
  facet normal 0 0 -1
    outer loop
      vertex 13.4 -3.99999 0
      vertex 11.4 -2.19999 0
      vertex 13.4 -2.19999 0
    endloop
  endfacet
  facet normal 0 0 -1
    outer loop
      vertex 11.4 -2.19999 0
      vertex 4.6 -2.19999 0
      vertex 11.4 0 0
    endloop
  endfacet
  facet normal 0 0 -1
    outer loop
      vertex 13.4 -3.99999 0
      vertex 4.6 -2.19999 0
      vertex 11.4 -2.19999 0
    endloop
  endfacet
  facet normal 0 0 -1
    outer loop
      vertex 2.6 -3.99999 0
      vertex 4.6 -2.19999 0
      vertex 13.4 -3.99999 0
    endloop
  endfacet
  facet normal -0 0 -1
    outer loop
      vertex 4.6 -2.19999 0
      vertex 2.6 -3.99999 0
      vertex 2.6 -2.19999 0
    endloop
  endfacet
  facet normal 0 0 -1
    outer loop
      vertex 41.4 -3.99999 0
      vertex 39.4 -2.19999 0
      vertex 41.4 -2.19999 0
    endloop
  endfacet
  facet normal 0 0 -1
    outer loop
      vertex 39.4 -2.19999 0
      vertex 32.6 -2.19999 0
      vertex 39.4 0 0
    endloop
  endfacet
  facet normal 0 0 -1
    outer loop
      vertex 41.4 -3.99999 0
      vertex 32.6 -2.19999 0
      vertex 39.4 -2.19999 0
    endloop
  endfacet
  facet normal 0 0 -1
    outer loop
      vertex 30.6 -3.99999 0
      vertex 32.6 -2.19999 0
      vertex 41.4 -3.99999 0
    endloop
  endfacet
  facet normal -0 0 -1
    outer loop
      vertex 32.6 -2.19999 0
      vertex 30.6 -3.99999 0
      vertex 30.6 -2.19999 0
    endloop
  endfacet
  facet normal 0 0 -1
    outer loop
      vertex 69.4 -3.99999 0
      vertex 67.4 -2.19999 0
      vertex 69.4 -2.19999 0
    endloop
  endfacet
  facet normal 0 0 -1
    outer loop
      vertex 67.4 -2.19999 0
      vertex 60.6 -2.19999 0
      vertex 67.4 0 0
    endloop
  endfacet
  facet normal 0 0 -1
    outer loop
      vertex 69.4 -3.99999 0
      vertex 60.6 -2.19999 0
      vertex 67.4 -2.19999 0
    endloop
  endfacet
  facet normal 0 0 -1
    outer loop
      vertex 58.6 -3.99999 0
      vertex 60.6 -2.19999 0
      vertex 69.4 -3.99999 0
    endloop
  endfacet
  facet normal -0 0 -1
    outer loop
      vertex 60.6 -2.19999 0
      vertex 58.6 -3.99999 0
      vertex 58.6 -2.19999 0
    endloop
  endfacet
  facet normal 0 0 -1
    outer loop
      vertex 81.6 1.79999 0
      vertex 84 4.6 0
      vertex 84 0 0
    endloop
  endfacet
  facet normal -0 0 -1
    outer loop
      vertex 84 4.6 0
      vertex 81.6 3.99999 0
      vertex 84 11.4 0
    endloop
  endfacet
  facet normal 0 0 -1
    outer loop
      vertex 80 14.4 0
      vertex 84 11.4 0
      vertex 81.6 3.99999 0
    endloop
  endfacet
  facet normal 0 0 -1
    outer loop
      vertex 84 4.6 0
      vertex 81.6 1.79999 0
      vertex 81.6 3.99999 0
    endloop
  endfacet
  facet normal 0 0 -1
    outer loop
      vertex 79.6 0 0
      vertex 81.6 1.79999 0
      vertex 84 0 0
    endloop
  endfacet
  facet normal -0 0 -1
    outer loop
      vertex 81.6 1.79999 0
      vertex 79.6 0 0
      vertex 79.6 1.79999 0
    endloop
  endfacet
  facet normal 0 0 -1
    outer loop
      vertex 84 4.6 0
      vertex 86.2 11.4 0
      vertex 86.2 4.6 0
    endloop
  endfacet
  facet normal -0 0 -1
    outer loop
      vertex 86.2 11.4 0
      vertex 84 4.6 0
      vertex 84 11.4 0
    endloop
  endfacet
  facet normal 0 0 -1
    outer loop
      vertex 86.2 4.6 0
      vertex 88 2.6 0
      vertex 86.2 2.6 0
    endloop
  endfacet
  facet normal 0 0 -1
    outer loop
      vertex 88 2.6 0
      vertex 86.2 4.6 0
      vertex 88 13.4 0
    endloop
  endfacet
  facet normal 0 0 -1
    outer loop
      vertex 86.2 11.4 0
      vertex 88 13.4 0
      vertex 86.2 4.6 0
    endloop
  endfacet
  facet normal -0 0 -1
    outer loop
      vertex 88 13.4 0
      vertex 86.2 11.4 0
      vertex 86.2 13.4 0
    endloop
  endfacet
  facet normal -0 0 -1
    outer loop
      vertex 84 16.4 0
      vertex 82.2 14.4 0
      vertex 82.2 16.4 0
    endloop
  endfacet
  facet normal 0 0 -1
    outer loop
      vertex 84 11.4 0
      vertex 82.2 14.4 0
      vertex 84 16.4 0
    endloop
  endfacet
  facet normal 0 0 -1
    outer loop
      vertex 84 11.4 0
      vertex 80 14.4 0
      vertex 82.2 14.4 0
    endloop
  endfacet
  facet normal 0 0 -1
    outer loop
      vertex 70.4 3.99999 0
      vertex 80 25.6 0
      vertex 80 14.4 0
    endloop
  endfacet
  facet normal 0 0 -1
    outer loop
      vertex 80 25.6 0
      vertex 58.4 52 0
      vertex 80 42.4 0
    endloop
  endfacet
  facet normal 0 0 -1
    outer loop
      vertex 80 42.4 0
      vertex 69.6 52 0
      vertex 80 53.6 0
    endloop
  endfacet
  facet normal 0 0 -1
    outer loop
      vertex 79.4 56 0
      vertex 72.6 56 0
      vertex 79.4 58.2 0
    endloop
  endfacet
  facet normal 0 -0 -1
    outer loop
      vertex 72.6 56 0
      vertex 80 53.6 0
      vertex 69.6 52 0
    endloop
  endfacet
  facet normal 0 0 -1
    outer loop
      vertex 70.4 3.99999 0
      vertex 80 14.4 0
      vertex 81.6 3.99999 0
    endloop
  endfacet
  facet normal 0 0 -1
    outer loop
      vertex 80 25.6 0
      vertex 70.4 3.99999 0
      vertex 53.6 3.99999 0
    endloop
  endfacet
  facet normal 0 0 -1
    outer loop
      vertex 80 53.6 0
      vertex 72.6 56 0
      vertex 79.4 56 0
    endloop
  endfacet
  facet normal 0 0 -1
    outer loop
      vertex 69.6 54.2 0
      vertex 72.6 56 0
      vertex 69.6 52 0
    endloop
  endfacet
  facet normal 0 0 -1
    outer loop
      vertex 67.6 56 0
      vertex 69.6 54.2 0
      vertex 67.6 54.2 0
    endloop
  endfacet
  facet normal 0 0 -1
    outer loop
      vertex 69.6 54.2 0
      vertex 67.6 56 0
      vertex 72.6 56 0
    endloop
  endfacet
  facet normal 0 0 -1
    outer loop
      vertex 80 42.4 0
      vertex 84 32.6 0
      vertex 80 25.6 0
    endloop
  endfacet
  facet normal 0 0 -1
    outer loop
      vertex 84 32.6 0
      vertex 80 42.4 0
      vertex 82.2 42.4 0
    endloop
  endfacet
  facet normal 0 0 -1
    outer loop
      vertex 82.2 25.6 0
      vertex 84 32.6 0
      vertex 84 23.6 0
    endloop
  endfacet
  facet normal 0 0 -1
    outer loop
      vertex 80 25.6 0
      vertex 84 32.6 0
      vertex 82.2 25.6 0
    endloop
  endfacet
  facet normal 0 0 -1
    outer loop
      vertex 82.2 25.6 0
      vertex 84 23.6 0
      vertex 82.2 23.6 0
    endloop
  endfacet
  facet normal 0 0 -1
    outer loop
      vertex 84 32.6 0
      vertex 82.2 42.4 0
      vertex 84 39.4 0
    endloop
  endfacet
  facet normal 0 0 -1
    outer loop
      vertex 84 39.4 0
      vertex 82.2 42.4 0
      vertex 84 44.4 0
    endloop
  endfacet
  facet normal -0 0 -1
    outer loop
      vertex 84 44.4 0
      vertex 82.2 42.4 0
      vertex 82.2 44.4 0
    endloop
  endfacet
  facet normal 0 0 -1
    outer loop
      vertex 84 32.6 0
      vertex 86.2 39.4 0
      vertex 86.2 32.6 0
    endloop
  endfacet
  facet normal -0 0 -1
    outer loop
      vertex 86.2 39.4 0
      vertex 84 32.6 0
      vertex 84 39.4 0
    endloop
  endfacet
  facet normal 0 0 -1
    outer loop
      vertex 86.2 32.6 0
      vertex 88 30.6 0
      vertex 86.2 30.6 0
    endloop
  endfacet
  facet normal 0 0 -1
    outer loop
      vertex 88 30.6 0
      vertex 86.2 32.6 0
      vertex 88 41.4 0
    endloop
  endfacet
  facet normal 0 0 -1
    outer loop
      vertex 86.2 39.4 0
      vertex 88 41.4 0
      vertex 86.2 32.6 0
    endloop
  endfacet
  facet normal -0 0 -1
    outer loop
      vertex 88 41.4 0
      vertex 86.2 39.4 0
      vertex 86.2 41.4 0
    endloop
  endfacet
  facet normal 0 0 -1
    outer loop
      vertex 82.2 53.6 0
      vertex 84 51.6 0
      vertex 82.2 51.6 0
    endloop
  endfacet
  facet normal 0 0 -1
    outer loop
      vertex 84 51.6 0
      vertex 82.2 53.6 0
      vertex 84 56 0
    endloop
  endfacet
  facet normal 0 0 -1
    outer loop
      vertex 79.4 56 0
      vertex 82.2 53.6 0
      vertex 80 53.6 0
    endloop
  endfacet
  facet normal 0 0 -1
    outer loop
      vertex 82.2 53.6 0
      vertex 79.4 56 0
      vertex 84 56 0
    endloop
  endfacet
  facet normal 0 0 -1
    outer loop
      vertex 79.4 58.2 0
      vertex 81.4 60 0
      vertex 81.4 58.2 0
    endloop
  endfacet
  facet normal 0 0 -1
    outer loop
      vertex 72.6 58.2 0
      vertex 79.4 58.2 0
      vertex 72.6 56 0
    endloop
  endfacet
  facet normal 0 0 -1
    outer loop
      vertex 79.4 58.2 0
      vertex 72.6 58.2 0
      vertex 81.4 60 0
    endloop
  endfacet
  facet normal 0 0 -1
    outer loop
      vertex 70.6 60 0
      vertex 72.6 58.2 0
      vertex 70.6 58.2 0
    endloop
  endfacet
  facet normal 0 0 -1
    outer loop
      vertex 72.6 58.2 0
      vertex 70.6 60 0
      vertex 81.4 60 0
    endloop
  endfacet
  facet normal 0 0 -1
    outer loop
      vertex 72.4 0 0
      vertex 70.4 1.79999 0
      vertex 72.4 1.79999 0
    endloop
  endfacet
  facet normal 0 0 -1
    outer loop
      vertex 67.4 0 0
      vertex 70.4 3.99999 0
      vertex 70.4 1.79999 0
    endloop
  endfacet
  facet normal 0 0 -1
    outer loop
      vertex 67.4 0 0
      vertex 70.4 1.79999 0
      vertex 72.4 0 0
    endloop
  endfacet
  facet normal 0 0 -1
    outer loop
      vertex 70.4 3.99999 0
      vertex 67.4 0 0
      vertex 60.6 0 0
    endloop
  endfacet
  facet normal 0 0 -1
    outer loop
      vertex 60.6 0 0
      vertex 67.4 0 0
      vertex 60.6 -2.19999 0
    endloop
  endfacet
  facet normal -0 0 -1
    outer loop
      vertex 70.4 3.99999 0
      vertex 60.6 0 0
      vertex 53.6 3.99999 0
    endloop
  endfacet
  facet normal -0 0 -1
    outer loop
      vertex 80 25.6 0
      vertex 53.6 3.99999 0
      vertex 58.4 52 0
    endloop
  endfacet
  facet normal 0 0 -1
    outer loop
      vertex 80 42.4 0
      vertex 58.4 52 0
      vertex 69.6 52 0
    endloop
  endfacet
  facet normal 0 0 -1
    outer loop
      vertex 53.6 3.99999 0
      vertex 60.6 0 0
      vertex 53.6 1.79999 0
    endloop
  endfacet
  facet normal 0 0 -1
    outer loop
      vertex 51.6 0 0
      vertex 53.6 1.79999 0
      vertex 60.6 0 0
    endloop
  endfacet
  facet normal -0 0 -1
    outer loop
      vertex 53.6 1.79999 0
      vertex 51.6 0 0
      vertex 51.6 1.79999 0
    endloop
  endfacet
  facet normal 0 0 -1
    outer loop
      vertex 58.4 54.2 0
      vertex 60.4 56 0
      vertex 60.4 54.2 0
    endloop
  endfacet
  facet normal 0 0 -1
    outer loop
      vertex 41.6 52 0
      vertex 58.4 52 0
      vertex 53.6 3.99999 0
    endloop
  endfacet
  facet normal 0 0 -1
    outer loop
      vertex 58.4 54.2 0
      vertex 51.4 56 0
      vertex 60.4 56 0
    endloop
  endfacet
  facet normal 0 -0 -1
    outer loop
      vertex 51.4 56 0
      vertex 58.4 52 0
      vertex 41.6 52 0
    endloop
  endfacet
  facet normal 0 0 -1
    outer loop
      vertex 51.4 56 0
      vertex 44.6 56 0
      vertex 51.4 58.2 0
    endloop
  endfacet
  facet normal 0 0 -1
    outer loop
      vertex 58.4 52 0
      vertex 51.4 56 0
      vertex 58.4 54.2 0
    endloop
  endfacet
  facet normal 0 0 -1
    outer loop
      vertex 41.6 52 0
      vertex 53.6 3.99999 0
      vertex 42.4 3.99999 0
    endloop
  endfacet
  facet normal -0 0 -1
    outer loop
      vertex 51.4 56 0
      vertex 41.6 52 0
      vertex 44.6 56 0
    endloop
  endfacet
  facet normal 0 0 -1
    outer loop
      vertex 41.6 54.2 0
      vertex 44.6 56 0
      vertex 41.6 52 0
    endloop
  endfacet
  facet normal 0 0 -1
    outer loop
      vertex 39.6 56 0
      vertex 41.6 54.2 0
      vertex 39.6 54.2 0
    endloop
  endfacet
  facet normal 0 0 -1
    outer loop
      vertex 41.6 54.2 0
      vertex 39.6 56 0
      vertex 44.6 56 0
    endloop
  endfacet
  facet normal 0 0 -1
    outer loop
      vertex 51.4 58.2 0
      vertex 53.4 60 0
      vertex 53.4 58.2 0
    endloop
  endfacet
  facet normal 0 0 -1
    outer loop
      vertex 44.6 58.2 0
      vertex 51.4 58.2 0
      vertex 44.6 56 0
    endloop
  endfacet
  facet normal 0 0 -1
    outer loop
      vertex 51.4 58.2 0
      vertex 44.6 58.2 0
      vertex 53.4 60 0
    endloop
  endfacet
  facet normal 0 0 -1
    outer loop
      vertex 42.6 60 0
      vertex 44.6 58.2 0
      vertex 42.6 58.2 0
    endloop
  endfacet
  facet normal 0 0 -1
    outer loop
      vertex 44.6 58.2 0
      vertex 42.6 60 0
      vertex 53.4 60 0
    endloop
  endfacet
  facet normal 0 0 -1
    outer loop
      vertex 44.4 0 0
      vertex 42.4 1.79999 0
      vertex 44.4 1.79999 0
    endloop
  endfacet
  facet normal 0 0 -1
    outer loop
      vertex 39.4 0 0
      vertex 42.4 3.99999 0
      vertex 42.4 1.79999 0
    endloop
  endfacet
  facet normal 0 0 -1
    outer loop
      vertex 39.4 0 0
      vertex 42.4 1.79999 0
      vertex 44.4 0 0
    endloop
  endfacet
  facet normal 0 0 -1
    outer loop
      vertex 42.4 3.99999 0
      vertex 39.4 0 0
      vertex 32.6 0 0
    endloop
  endfacet
  facet normal 0 0 -1
    outer loop
      vertex 32.6 0 0
      vertex 39.4 0 0
      vertex 32.6 -2.19999 0
    endloop
  endfacet
  facet normal -0 0 -1
    outer loop
      vertex 42.4 3.99999 0
      vertex 32.6 0 0
      vertex 25.6 3.99999 0
    endloop
  endfacet
  facet normal 0 -0 -1
    outer loop
      vertex 30.4 52 0
      vertex 42.4 3.99999 0
      vertex 25.6 3.99999 0
    endloop
  endfacet
  facet normal 0 0 -1
    outer loop
      vertex 42.4 3.99999 0
      vertex 30.4 52 0
      vertex 41.6 52 0
    endloop
  endfacet
  facet normal 0 0 -1
    outer loop
      vertex 25.6 3.99999 0
      vertex 32.6 0 0
      vertex 25.6 1.79999 0
    endloop
  endfacet
  facet normal 0 0 -1
    outer loop
      vertex 23.6 0 0
      vertex 25.6 1.79999 0
      vertex 32.6 0 0
    endloop
  endfacet
  facet normal -0 0 -1
    outer loop
      vertex 25.6 1.79999 0
      vertex 23.6 0 0
      vertex 23.6 1.79999 0
    endloop
  endfacet
  facet normal 0 0 -1
    outer loop
      vertex 30.4 54.2 0
      vertex 32.4 56 0
      vertex 32.4 54.2 0
    endloop
  endfacet
  facet normal 0 0 -1
    outer loop
      vertex 3.99999 30.4 0
      vertex 30.4 52 0
      vertex 25.6 3.99999 0
    endloop
  endfacet
  facet normal 0 0 -1
    outer loop
      vertex 30.4 54.2 0
      vertex 23.4 56 0
      vertex 32.4 56 0
    endloop
  endfacet
  facet normal 0 -0 -1
    outer loop
      vertex 13.6 52 0
      vertex 30.4 52 0
      vertex 3.99999 30.4 0
    endloop
  endfacet
  facet normal 0 0 -1
    outer loop
      vertex 23.4 56 0
      vertex 16.6 56 0
      vertex 23.4 58.2 0
    endloop
  endfacet
  facet normal 0 -0 -1
    outer loop
      vertex 23.4 56 0
      vertex 30.4 52 0
      vertex 13.6 52 0
    endloop
  endfacet
  facet normal 0 0 -1
    outer loop
      vertex 3.99999 13.6 0
      vertex 25.6 3.99999 0
      vertex 14.4 3.99999 0
    endloop
  endfacet
  facet normal -0 0 -1
    outer loop
      vertex 23.4 56 0
      vertex 13.6 52 0
      vertex 16.6 56 0
    endloop
  endfacet
  facet normal 0 0 -1
    outer loop
      vertex 13.6 54.2 0
      vertex 16.6 56 0
      vertex 13.6 52 0
    endloop
  endfacet
  facet normal 0 0 -1
    outer loop
      vertex 11.6 56 0
      vertex 13.6 54.2 0
      vertex 11.6 54.2 0
    endloop
  endfacet
  facet normal 0 0 -1
    outer loop
      vertex 13.6 54.2 0
      vertex 11.6 56 0
      vertex 16.6 56 0
    endloop
  endfacet
  facet normal 0 0 -1
    outer loop
      vertex 23.4 58.2 0
      vertex 25.4 60 0
      vertex 25.4 58.2 0
    endloop
  endfacet
  facet normal 0 0 -1
    outer loop
      vertex 16.6 58.2 0
      vertex 23.4 58.2 0
      vertex 16.6 56 0
    endloop
  endfacet
  facet normal 0 0 -1
    outer loop
      vertex 23.4 58.2 0
      vertex 16.6 58.2 0
      vertex 25.4 60 0
    endloop
  endfacet
  facet normal 0 0 -1
    outer loop
      vertex 14.6 60 0
      vertex 16.6 58.2 0
      vertex 14.6 58.2 0
    endloop
  endfacet
  facet normal 0 0 -1
    outer loop
      vertex 16.6 58.2 0
      vertex 14.6 60 0
      vertex 25.4 60 0
    endloop
  endfacet
  facet normal 0 0 -1
    outer loop
      vertex 16.4 0 0
      vertex 14.4 1.79999 0
      vertex 16.4 1.79999 0
    endloop
  endfacet
  facet normal 0 0 -1
    outer loop
      vertex 11.4 0 0
      vertex 14.4 3.99999 0
      vertex 14.4 1.79999 0
    endloop
  endfacet
  facet normal 0 0 -1
    outer loop
      vertex 11.4 0 0
      vertex 14.4 1.79999 0
      vertex 16.4 0 0
    endloop
  endfacet
  facet normal 0 0 -1
    outer loop
      vertex 14.4 3.99999 0
      vertex 11.4 0 0
      vertex 3.99999 2.4 0
    endloop
  endfacet
  facet normal 0 0 -1
    outer loop
      vertex 4.6 0 0
      vertex 11.4 0 0
      vertex 4.6 -2.19999 0
    endloop
  endfacet
  facet normal 0 0 -1
    outer loop
      vertex 3.99999 2.4 0
      vertex 11.4 0 0
      vertex 4.6 0 0
    endloop
  endfacet
  facet normal -0 0 -1
    outer loop
      vertex 14.4 3.99999 0
      vertex 3.99999 2.4 0
      vertex 3.99999 13.6 0
    endloop
  endfacet
  facet normal 0 0 -1
    outer loop
      vertex 25.6 3.99999 0
      vertex 3.99999 13.6 0
      vertex 3.99999 30.4 0
    endloop
  endfacet
  facet normal 0 0 -1
    outer loop
      vertex 30.4 52 0
      vertex 23.4 56 0
      vertex 30.4 54.2 0
    endloop
  endfacet
  facet normal 0 0 -1
    outer loop
      vertex 3.99999 41.6 0
      vertex 13.6 52 0
      vertex 3.99999 30.4 0
    endloop
  endfacet
  facet normal 0 0 -1
    outer loop
      vertex 3.99999 41.6 0
      vertex 2.4 52 0
      vertex 13.6 52 0
    endloop
  endfacet
  facet normal 0 0 -1
    outer loop
      vertex 3.99999 41.6 0
      vertex 0 44.6 0
      vertex 2.4 52 0
    endloop
  endfacet
  facet normal 0 0 -1
    outer loop
      vertex 0 44.6 0
      vertex 3.99999 41.6 0
      vertex 1.79999 41.6 0
    endloop
  endfacet
  facet normal 0 0 -1
    outer loop
      vertex 2.4 54.2 0
      vertex 4.4 56 0
      vertex 4.4 54.2 0
    endloop
  endfacet
  facet normal 0 0 -1
    outer loop
      vertex 0 44.6 0
      vertex 1.79999 41.6 0
      vertex 0 39.6 0
    endloop
  endfacet
  facet normal 0 0 -1
    outer loop
      vertex 0 51.4 0
      vertex 2.4 52 0
      vertex 0 44.6 0
    endloop
  endfacet
  facet normal -0 0 -1
    outer loop
      vertex 2.4 52 0
      vertex 0 51.4 0
      vertex 2.4 54.2 0
    endloop
  endfacet
  facet normal 0 0 -1
    outer loop
      vertex 2.4 54.2 0
      vertex 0 56 0
      vertex 4.4 56 0
    endloop
  endfacet
  facet normal 0 0 -1
    outer loop
      vertex 0 56 0
      vertex 2.4 54.2 0
      vertex 0 51.4 0
    endloop
  endfacet
  facet normal 0 0 -1
    outer loop
      vertex 1.79999 39.6 0
      vertex 0 39.6 0
      vertex 1.79999 41.6 0
    endloop
  endfacet
  facet normal 0 0 -1
    outer loop
      vertex 0 11.6 0
      vertex 1.79999 13.6 0
      vertex 1.79999 11.6 0
    endloop
  endfacet
  facet normal -0 0 -1
    outer loop
      vertex 3.99999 30.4 0
      vertex 0 23.4 0
      vertex 1.79999 30.4 0
    endloop
  endfacet
  facet normal -0 0 -1
    outer loop
      vertex 1.79999 13.6 0
      vertex 0 11.6 0
      vertex 0 16.6 0
    endloop
  endfacet
  facet normal 0 0 -1
    outer loop
      vertex 3.99999 13.6 0
      vertex 0 16.6 0
      vertex 0 23.4 0
    endloop
  endfacet
  facet normal 0 0 -1
    outer loop
      vertex 0 32.4 0
      vertex 1.79999 30.4 0
      vertex 0 23.4 0
    endloop
  endfacet
  facet normal 0 0 -1
    outer loop
      vertex 1.79999 30.4 0
      vertex 0 32.4 0
      vertex 1.79999 32.4 0
    endloop
  endfacet
  facet normal 0 0 -1
    outer loop
      vertex -3.99999 42.6 0
      vertex -2.19999 44.6 0
      vertex -2.19999 42.6 0
    endloop
  endfacet
  facet normal -0 0 -1
    outer loop
      vertex -2.19999 44.6 0
      vertex -3.99999 42.6 0
      vertex -2.19999 51.4 0
    endloop
  endfacet
  facet normal 0 0 -1
    outer loop
      vertex -3.99999 53.4 0
      vertex -2.19999 51.4 0
      vertex -3.99999 42.6 0
    endloop
  endfacet
  facet normal 0 0 -1
    outer loop
      vertex -2.19999 51.4 0
      vertex -3.99999 53.4 0
      vertex -2.19999 53.4 0
    endloop
  endfacet
  facet normal 0 0 -1
    outer loop
      vertex -3.99999 14.6 0
      vertex -2.19999 16.6 0
      vertex -2.19999 14.6 0
    endloop
  endfacet
  facet normal -0 0 -1
    outer loop
      vertex -2.19999 16.6 0
      vertex -3.99999 14.6 0
      vertex -2.19999 23.4 0
    endloop
  endfacet
  facet normal 0 0 -1
    outer loop
      vertex -3.99999 25.4 0
      vertex -2.19999 23.4 0
      vertex -3.99999 14.6 0
    endloop
  endfacet
  facet normal 0 0 -1
    outer loop
      vertex -2.19999 23.4 0
      vertex -3.99999 25.4 0
      vertex -2.19999 25.4 0
    endloop
  endfacet
  facet normal 0 0 -1
    outer loop
      vertex -2.19999 44.6 0
      vertex 0 51.4 0
      vertex 0 44.6 0
    endloop
  endfacet
  facet normal -0 0 -1
    outer loop
      vertex 0 51.4 0
      vertex -2.19999 44.6 0
      vertex -2.19999 51.4 0
    endloop
  endfacet
  facet normal 0 0 -1
    outer loop
      vertex -2.19999 16.6 0
      vertex 0 23.4 0
      vertex 0 16.6 0
    endloop
  endfacet
  facet normal -0 0 -1
    outer loop
      vertex 0 23.4 0
      vertex -2.19999 16.6 0
      vertex -2.19999 23.4 0
    endloop
  endfacet
  facet normal 0 1 -0
    outer loop
      vertex 16.4 1.79999 0
      vertex 14.4 1.79999 40
      vertex 16.4 1.79999 40
    endloop
  endfacet
  facet normal 0 1 0
    outer loop
      vertex 14.4 1.79999 40
      vertex 16.4 1.79999 0
      vertex 14.4 1.79999 0
    endloop
  endfacet
  facet normal 0 1 -0
    outer loop
      vertex 25.6 1.79999 0
      vertex 23.6 1.79999 40
      vertex 25.6 1.79999 40
    endloop
  endfacet
  facet normal 0 1 0
    outer loop
      vertex 23.6 1.79999 40
      vertex 25.6 1.79999 0
      vertex 23.6 1.79999 0
    endloop
  endfacet
  facet normal 1 -0 0
    outer loop
      vertex 14.4 1.79999 40
      vertex 14.4 3.99999 0
      vertex 14.4 3.99999 40
    endloop
  endfacet
  facet normal 1 0 0
    outer loop
      vertex 14.4 3.99999 0
      vertex 14.4 1.79999 40
      vertex 14.4 1.79999 0
    endloop
  endfacet
  facet normal -1 0 0
    outer loop
      vertex 25.6 1.79999 0
      vertex 25.6 3.99999 40
      vertex 25.6 3.99999 0
    endloop
  endfacet
  facet normal -1 -0 0
    outer loop
      vertex 25.6 3.99999 40
      vertex 25.6 1.79999 0
      vertex 25.6 1.79999 40
    endloop
  endfacet
  facet normal 0 -1 0
    outer loop
      vertex 14.4 3.99999 0
      vertex 25.6 3.99999 40
      vertex 14.4 3.99999 40
    endloop
  endfacet
  facet normal 0 -1 -0
    outer loop
      vertex 25.6 3.99999 40
      vertex 14.4 3.99999 0
      vertex 25.6 3.99999 0
    endloop
  endfacet
  facet normal 1 -0 0
    outer loop
      vertex 44.4 0 40
      vertex 44.4 1.79999 0
      vertex 44.4 1.79999 40
    endloop
  endfacet
  facet normal 1 0 0
    outer loop
      vertex 44.4 1.79999 0
      vertex 44.4 0 40
      vertex 44.4 0 0
    endloop
  endfacet
  facet normal -1 0 0
    outer loop
      vertex 51.6 0 0
      vertex 51.6 1.79999 40
      vertex 51.6 1.79999 0
    endloop
  endfacet
  facet normal -1 -0 0
    outer loop
      vertex 51.6 1.79999 40
      vertex 51.6 0 0
      vertex 51.6 0 40
    endloop
  endfacet
  facet normal 0 1 -0
    outer loop
      vertex 44.4 1.79999 0
      vertex 42.4 1.79999 40
      vertex 44.4 1.79999 40
    endloop
  endfacet
  facet normal 0 1 0
    outer loop
      vertex 42.4 1.79999 40
      vertex 44.4 1.79999 0
      vertex 42.4 1.79999 0
    endloop
  endfacet
  facet normal 0 1 -0
    outer loop
      vertex 53.6 1.79999 0
      vertex 51.6 1.79999 40
      vertex 53.6 1.79999 40
    endloop
  endfacet
  facet normal 0 1 0
    outer loop
      vertex 51.6 1.79999 40
      vertex 53.6 1.79999 0
      vertex 51.6 1.79999 0
    endloop
  endfacet
  facet normal 1 -0 0
    outer loop
      vertex 42.4 1.79999 40
      vertex 42.4 3.99999 0
      vertex 42.4 3.99999 40
    endloop
  endfacet
  facet normal 1 0 0
    outer loop
      vertex 42.4 3.99999 0
      vertex 42.4 1.79999 40
      vertex 42.4 1.79999 0
    endloop
  endfacet
  facet normal -1 0 0
    outer loop
      vertex 53.6 1.79999 0
      vertex 53.6 3.99999 40
      vertex 53.6 3.99999 0
    endloop
  endfacet
  facet normal -1 -0 0
    outer loop
      vertex 53.6 3.99999 40
      vertex 53.6 1.79999 0
      vertex 53.6 1.79999 40
    endloop
  endfacet
  facet normal 0 -1 0
    outer loop
      vertex 42.4 3.99999 0
      vertex 53.6 3.99999 40
      vertex 42.4 3.99999 40
    endloop
  endfacet
  facet normal 0 -1 -0
    outer loop
      vertex 53.6 3.99999 40
      vertex 42.4 3.99999 0
      vertex 53.6 3.99999 0
    endloop
  endfacet
  facet normal 1 -0 0
    outer loop
      vertex 72.4 0 40
      vertex 72.4 1.79999 0
      vertex 72.4 1.79999 40
    endloop
  endfacet
  facet normal 1 0 0
    outer loop
      vertex 72.4 1.79999 0
      vertex 72.4 0 40
      vertex 72.4 0 0
    endloop
  endfacet
  facet normal -1 0 0
    outer loop
      vertex 79.6 0 0
      vertex 79.6 1.79999 40
      vertex 79.6 1.79999 0
    endloop
  endfacet
  facet normal -1 -0 0
    outer loop
      vertex 79.6 1.79999 40
      vertex 79.6 0 0
      vertex 79.6 0 40
    endloop
  endfacet
  facet normal 0 1 -0
    outer loop
      vertex 72.4 1.79999 0
      vertex 70.4 1.79999 40
      vertex 72.4 1.79999 40
    endloop
  endfacet
  facet normal 0 1 0
    outer loop
      vertex 70.4 1.79999 40
      vertex 72.4 1.79999 0
      vertex 70.4 1.79999 0
    endloop
  endfacet
  facet normal 0 1 -0
    outer loop
      vertex 81.6 1.79999 0
      vertex 79.6 1.79999 40
      vertex 81.6 1.79999 40
    endloop
  endfacet
  facet normal 0 1 0
    outer loop
      vertex 79.6 1.79999 40
      vertex 81.6 1.79999 0
      vertex 79.6 1.79999 0
    endloop
  endfacet
  facet normal 1 -0 0
    outer loop
      vertex 70.4 1.79999 40
      vertex 70.4 3.99999 0
      vertex 70.4 3.99999 40
    endloop
  endfacet
  facet normal 1 0 0
    outer loop
      vertex 70.4 3.99999 0
      vertex 70.4 1.79999 40
      vertex 70.4 1.79999 0
    endloop
  endfacet
  facet normal -1 0 0
    outer loop
      vertex 81.6 1.79999 0
      vertex 81.6 3.99999 40
      vertex 81.6 3.99999 0
    endloop
  endfacet
  facet normal -1 -0 0
    outer loop
      vertex 81.6 3.99999 40
      vertex 81.6 1.79999 0
      vertex 81.6 1.79999 40
    endloop
  endfacet
  facet normal 0 -1 0
    outer loop
      vertex 70.4 3.99999 0
      vertex 81.6 3.99999 40
      vertex 70.4 3.99999 40
    endloop
  endfacet
  facet normal 0 -1 -0
    outer loop
      vertex 81.6 3.99999 40
      vertex 70.4 3.99999 0
      vertex 81.6 3.99999 0
    endloop
  endfacet
  facet normal 0 1 -0
    outer loop
      vertex 84 16.4 0
      vertex 82.2 16.4 40
      vertex 84 16.4 40
    endloop
  endfacet
  facet normal 0 1 0
    outer loop
      vertex 82.2 16.4 40
      vertex 84 16.4 0
      vertex 82.2 16.4 0
    endloop
  endfacet
  facet normal 0 -1 0
    outer loop
      vertex 82.2 23.6 0
      vertex 84 23.6 40
      vertex 82.2 23.6 40
    endloop
  endfacet
  facet normal 0 -1 -0
    outer loop
      vertex 84 23.6 40
      vertex 82.2 23.6 0
      vertex 84 23.6 0
    endloop
  endfacet
  facet normal -1 0 0
    outer loop
      vertex 82.2 14.4 0
      vertex 82.2 16.4 40
      vertex 82.2 16.4 0
    endloop
  endfacet
  facet normal -1 -0 0
    outer loop
      vertex 82.2 16.4 40
      vertex 82.2 14.4 0
      vertex 82.2 14.4 40
    endloop
  endfacet
  facet normal -1 0 0
    outer loop
      vertex 82.2 23.6 0
      vertex 82.2 25.6 40
      vertex 82.2 25.6 0
    endloop
  endfacet
  facet normal -1 -0 0
    outer loop
      vertex 82.2 25.6 40
      vertex 82.2 23.6 0
      vertex 82.2 23.6 40
    endloop
  endfacet
  facet normal 0 1 -0
    outer loop
      vertex 82.2 14.4 0
      vertex 80 14.4 40
      vertex 82.2 14.4 40
    endloop
  endfacet
  facet normal 0 1 0
    outer loop
      vertex 80 14.4 40
      vertex 82.2 14.4 0
      vertex 80 14.4 0
    endloop
  endfacet
  facet normal 0 -1 0
    outer loop
      vertex 80 25.6 0
      vertex 82.2 25.6 40
      vertex 80 25.6 40
    endloop
  endfacet
  facet normal 0 -1 -0
    outer loop
      vertex 82.2 25.6 40
      vertex 80 25.6 0
      vertex 82.2 25.6 0
    endloop
  endfacet
  facet normal 1 -0 0
    outer loop
      vertex 80 14.4 40
      vertex 80 25.6 0
      vertex 80 25.6 40
    endloop
  endfacet
  facet normal 1 0 0
    outer loop
      vertex 80 25.6 0
      vertex 80 14.4 40
      vertex 80 14.4 0
    endloop
  endfacet
  facet normal 0 1 -0
    outer loop
      vertex 84 44.4 0
      vertex 82.2 44.4 40
      vertex 84 44.4 40
    endloop
  endfacet
  facet normal 0 1 0
    outer loop
      vertex 82.2 44.4 40
      vertex 84 44.4 0
      vertex 82.2 44.4 0
    endloop
  endfacet
  facet normal 0 -1 0
    outer loop
      vertex 82.2 51.6 0
      vertex 84 51.6 40
      vertex 82.2 51.6 40
    endloop
  endfacet
  facet normal 0 -1 -0
    outer loop
      vertex 84 51.6 40
      vertex 82.2 51.6 0
      vertex 84 51.6 0
    endloop
  endfacet
  facet normal -1 0 0
    outer loop
      vertex 82.2 42.4 0
      vertex 82.2 44.4 40
      vertex 82.2 44.4 0
    endloop
  endfacet
  facet normal -1 -0 0
    outer loop
      vertex 82.2 44.4 40
      vertex 82.2 42.4 0
      vertex 82.2 42.4 40
    endloop
  endfacet
  facet normal -1 0 0
    outer loop
      vertex 82.2 51.6 0
      vertex 82.2 53.6 40
      vertex 82.2 53.6 0
    endloop
  endfacet
  facet normal -1 -0 0
    outer loop
      vertex 82.2 53.6 40
      vertex 82.2 51.6 0
      vertex 82.2 51.6 40
    endloop
  endfacet
  facet normal 0 1 -0
    outer loop
      vertex 82.2 42.4 0
      vertex 80 42.4 40
      vertex 82.2 42.4 40
    endloop
  endfacet
  facet normal 0 1 0
    outer loop
      vertex 80 42.4 40
      vertex 82.2 42.4 0
      vertex 80 42.4 0
    endloop
  endfacet
  facet normal 0 -1 0
    outer loop
      vertex 80 53.6 0
      vertex 82.2 53.6 40
      vertex 80 53.6 40
    endloop
  endfacet
  facet normal 0 -1 -0
    outer loop
      vertex 82.2 53.6 40
      vertex 80 53.6 0
      vertex 82.2 53.6 0
    endloop
  endfacet
  facet normal 1 -0 0
    outer loop
      vertex 80 42.4 40
      vertex 80 53.6 0
      vertex 80 53.6 40
    endloop
  endfacet
  facet normal 1 0 0
    outer loop
      vertex 80 53.6 0
      vertex 80 42.4 40
      vertex 80 42.4 0
    endloop
  endfacet
  facet normal -1 0 0
    outer loop
      vertex 67.6 54.2 0
      vertex 67.6 56 40
      vertex 67.6 56 0
    endloop
  endfacet
  facet normal -1 -0 0
    outer loop
      vertex 67.6 56 40
      vertex 67.6 54.2 0
      vertex 67.6 54.2 40
    endloop
  endfacet
  facet normal 1 -0 0
    outer loop
      vertex 60.4 54.2 40
      vertex 60.4 56 0
      vertex 60.4 56 40
    endloop
  endfacet
  facet normal 1 0 0
    outer loop
      vertex 60.4 56 0
      vertex 60.4 54.2 40
      vertex 60.4 54.2 0
    endloop
  endfacet
  facet normal 0 -1 0
    outer loop
      vertex 67.6 54.2 0
      vertex 69.6 54.2 40
      vertex 67.6 54.2 40
    endloop
  endfacet
  facet normal 0 -1 -0
    outer loop
      vertex 69.6 54.2 40
      vertex 67.6 54.2 0
      vertex 69.6 54.2 0
    endloop
  endfacet
  facet normal 0 -1 0
    outer loop
      vertex 58.4 54.2 0
      vertex 60.4 54.2 40
      vertex 58.4 54.2 40
    endloop
  endfacet
  facet normal 0 -1 -0
    outer loop
      vertex 60.4 54.2 40
      vertex 58.4 54.2 0
      vertex 60.4 54.2 0
    endloop
  endfacet
  facet normal -1 0 0
    outer loop
      vertex 69.6 52 0
      vertex 69.6 54.2 40
      vertex 69.6 54.2 0
    endloop
  endfacet
  facet normal -1 -0 0
    outer loop
      vertex 69.6 54.2 40
      vertex 69.6 52 0
      vertex 69.6 52 40
    endloop
  endfacet
  facet normal 1 -0 0
    outer loop
      vertex 58.4 52 40
      vertex 58.4 54.2 0
      vertex 58.4 54.2 40
    endloop
  endfacet
  facet normal 1 0 0
    outer loop
      vertex 58.4 54.2 0
      vertex 58.4 52 40
      vertex 58.4 52 0
    endloop
  endfacet
  facet normal 0 1 -0
    outer loop
      vertex 69.6 52 0
      vertex 58.4 52 40
      vertex 69.6 52 40
    endloop
  endfacet
  facet normal 0 1 0
    outer loop
      vertex 58.4 52 40
      vertex 69.6 52 0
      vertex 58.4 52 0
    endloop
  endfacet
  facet normal -1 0 0
    outer loop
      vertex 39.6 54.2 0
      vertex 39.6 56 40
      vertex 39.6 56 0
    endloop
  endfacet
  facet normal -1 -0 0
    outer loop
      vertex 39.6 56 40
      vertex 39.6 54.2 0
      vertex 39.6 54.2 40
    endloop
  endfacet
  facet normal 1 -0 0
    outer loop
      vertex 32.4 54.2 40
      vertex 32.4 56 0
      vertex 32.4 56 40
    endloop
  endfacet
  facet normal 1 0 0
    outer loop
      vertex 32.4 56 0
      vertex 32.4 54.2 40
      vertex 32.4 54.2 0
    endloop
  endfacet
  facet normal 0 -1 0
    outer loop
      vertex 39.6 54.2 0
      vertex 41.6 54.2 40
      vertex 39.6 54.2 40
    endloop
  endfacet
  facet normal 0 -1 -0
    outer loop
      vertex 41.6 54.2 40
      vertex 39.6 54.2 0
      vertex 41.6 54.2 0
    endloop
  endfacet
  facet normal 0 -1 0
    outer loop
      vertex 30.4 54.2 0
      vertex 32.4 54.2 40
      vertex 30.4 54.2 40
    endloop
  endfacet
  facet normal 0 -1 -0
    outer loop
      vertex 32.4 54.2 40
      vertex 30.4 54.2 0
      vertex 32.4 54.2 0
    endloop
  endfacet
  facet normal -1 0 0
    outer loop
      vertex 41.6 52 0
      vertex 41.6 54.2 40
      vertex 41.6 54.2 0
    endloop
  endfacet
  facet normal -1 -0 0
    outer loop
      vertex 41.6 54.2 40
      vertex 41.6 52 0
      vertex 41.6 52 40
    endloop
  endfacet
  facet normal 1 -0 0
    outer loop
      vertex 30.4 52 40
      vertex 30.4 54.2 0
      vertex 30.4 54.2 40
    endloop
  endfacet
  facet normal 1 0 0
    outer loop
      vertex 30.4 54.2 0
      vertex 30.4 52 40
      vertex 30.4 52 0
    endloop
  endfacet
  facet normal 0 1 -0
    outer loop
      vertex 41.6 52 0
      vertex 30.4 52 40
      vertex 41.6 52 40
    endloop
  endfacet
  facet normal 0 1 0
    outer loop
      vertex 30.4 52 40
      vertex 41.6 52 0
      vertex 30.4 52 0
    endloop
  endfacet
  facet normal -1 0 0
    outer loop
      vertex 11.6 54.2 0
      vertex 11.6 56 40
      vertex 11.6 56 0
    endloop
  endfacet
  facet normal -1 -0 0
    outer loop
      vertex 11.6 56 40
      vertex 11.6 54.2 0
      vertex 11.6 54.2 40
    endloop
  endfacet
  facet normal 1 -0 0
    outer loop
      vertex 4.4 54.2 40
      vertex 4.4 56 0
      vertex 4.4 56 40
    endloop
  endfacet
  facet normal 1 0 0
    outer loop
      vertex 4.4 56 0
      vertex 4.4 54.2 40
      vertex 4.4 54.2 0
    endloop
  endfacet
  facet normal 0 -1 0
    outer loop
      vertex 11.6 54.2 0
      vertex 13.6 54.2 40
      vertex 11.6 54.2 40
    endloop
  endfacet
  facet normal 0 -1 -0
    outer loop
      vertex 13.6 54.2 40
      vertex 11.6 54.2 0
      vertex 13.6 54.2 0
    endloop
  endfacet
  facet normal 0 -1 0
    outer loop
      vertex 2.4 54.2 0
      vertex 4.4 54.2 40
      vertex 2.4 54.2 40
    endloop
  endfacet
  facet normal 0 -1 -0
    outer loop
      vertex 4.4 54.2 40
      vertex 2.4 54.2 0
      vertex 4.4 54.2 0
    endloop
  endfacet
  facet normal -1 0 0
    outer loop
      vertex 13.6 52 0
      vertex 13.6 54.2 40
      vertex 13.6 54.2 0
    endloop
  endfacet
  facet normal -1 -0 0
    outer loop
      vertex 13.6 54.2 40
      vertex 13.6 52 0
      vertex 13.6 52 40
    endloop
  endfacet
  facet normal 1 -0 0
    outer loop
      vertex 2.4 52 40
      vertex 2.4 54.2 0
      vertex 2.4 54.2 40
    endloop
  endfacet
  facet normal 1 0 0
    outer loop
      vertex 2.4 54.2 0
      vertex 2.4 52 40
      vertex 2.4 52 0
    endloop
  endfacet
  facet normal 0 1 -0
    outer loop
      vertex 13.6 52 0
      vertex 2.4 52 40
      vertex 13.6 52 40
    endloop
  endfacet
  facet normal 0 1 0
    outer loop
      vertex 2.4 52 40
      vertex 13.6 52 0
      vertex 2.4 52 0
    endloop
  endfacet
  facet normal 0 -1 0
    outer loop
      vertex 0 39.6 0
      vertex 1.79999 39.6 40
      vertex 0 39.6 40
    endloop
  endfacet
  facet normal 0 -1 -0
    outer loop
      vertex 1.79999 39.6 40
      vertex 0 39.6 0
      vertex 1.79999 39.6 0
    endloop
  endfacet
  facet normal 0 1 -0
    outer loop
      vertex 1.79999 32.4 0
      vertex 0 32.4 40
      vertex 1.79999 32.4 40
    endloop
  endfacet
  facet normal 0 1 0
    outer loop
      vertex 0 32.4 40
      vertex 1.79999 32.4 0
      vertex 0 32.4 0
    endloop
  endfacet
  facet normal 1 -0 0
    outer loop
      vertex 1.79999 39.6 40
      vertex 1.79999 41.6 0
      vertex 1.79999 41.6 40
    endloop
  endfacet
  facet normal 1 0 0
    outer loop
      vertex 1.79999 41.6 0
      vertex 1.79999 39.6 40
      vertex 1.79999 39.6 0
    endloop
  endfacet
  facet normal 1 -0 0
    outer loop
      vertex 1.79999 30.4 40
      vertex 1.79999 32.4 0
      vertex 1.79999 32.4 40
    endloop
  endfacet
  facet normal 1 0 0
    outer loop
      vertex 1.79999 32.4 0
      vertex 1.79999 30.4 40
      vertex 1.79999 30.4 0
    endloop
  endfacet
  facet normal 0 -1 0
    outer loop
      vertex 1.79999 41.6 0
      vertex 3.99999 41.6 40
      vertex 1.79999 41.6 40
    endloop
  endfacet
  facet normal 0 -1 -0
    outer loop
      vertex 3.99999 41.6 40
      vertex 1.79999 41.6 0
      vertex 3.99999 41.6 0
    endloop
  endfacet
  facet normal 0 1 -0
    outer loop
      vertex 3.99999 30.4 0
      vertex 1.79999 30.4 40
      vertex 3.99999 30.4 40
    endloop
  endfacet
  facet normal 0 1 0
    outer loop
      vertex 1.79999 30.4 40
      vertex 3.99999 30.4 0
      vertex 1.79999 30.4 0
    endloop
  endfacet
  facet normal -1 0 0
    outer loop
      vertex 3.99999 30.4 0
      vertex 3.99999 41.6 40
      vertex 3.99999 41.6 0
    endloop
  endfacet
  facet normal -1 -0 0
    outer loop
      vertex 3.99999 41.6 40
      vertex 3.99999 30.4 0
      vertex 3.99999 30.4 40
    endloop
  endfacet
  facet normal 0 -1 0
    outer loop
      vertex 0 11.6 0
      vertex 1.79999 11.6 40
      vertex 0 11.6 40
    endloop
  endfacet
  facet normal 0 -1 -0
    outer loop
      vertex 1.79999 11.6 40
      vertex 0 11.6 0
      vertex 1.79999 11.6 0
    endloop
  endfacet
  facet normal 0 1 -0
    outer loop
      vertex 1.79999 4.4 0
      vertex 0 4.4 40
      vertex 1.79999 4.4 40
    endloop
  endfacet
  facet normal 0 1 0
    outer loop
      vertex 0 4.4 40
      vertex 1.79999 4.4 0
      vertex 0 4.4 0
    endloop
  endfacet
  facet normal 1 -0 0
    outer loop
      vertex 1.79999 11.6 40
      vertex 1.79999 13.6 0
      vertex 1.79999 13.6 40
    endloop
  endfacet
  facet normal 1 0 0
    outer loop
      vertex 1.79999 13.6 0
      vertex 1.79999 11.6 40
      vertex 1.79999 11.6 0
    endloop
  endfacet
  facet normal 1 -0 0
    outer loop
      vertex 1.79999 2.4 40
      vertex 1.79999 4.4 0
      vertex 1.79999 4.4 40
    endloop
  endfacet
  facet normal 1 0 0
    outer loop
      vertex 1.79999 4.4 0
      vertex 1.79999 2.4 40
      vertex 1.79999 2.4 0
    endloop
  endfacet
  facet normal 0 -1 0
    outer loop
      vertex 1.79999 13.6 0
      vertex 3.99999 13.6 40
      vertex 1.79999 13.6 40
    endloop
  endfacet
  facet normal 0 -1 -0
    outer loop
      vertex 3.99999 13.6 40
      vertex 1.79999 13.6 0
      vertex 3.99999 13.6 0
    endloop
  endfacet
  facet normal 0 1 -0
    outer loop
      vertex 3.99999 2.4 0
      vertex 1.79999 2.4 40
      vertex 3.99999 2.4 40
    endloop
  endfacet
  facet normal 0 1 0
    outer loop
      vertex 1.79999 2.4 40
      vertex 3.99999 2.4 0
      vertex 1.79999 2.4 0
    endloop
  endfacet
  facet normal -1 0 0
    outer loop
      vertex 3.99999 2.4 0
      vertex 3.99999 13.6 40
      vertex 3.99999 13.6 0
    endloop
  endfacet
  facet normal -1 -0 0
    outer loop
      vertex 3.99999 13.6 40
      vertex 3.99999 2.4 0
      vertex 3.99999 2.4 40
    endloop
  endfacet
  facet normal -1 0 0
    outer loop
      vertex 0 0 0
      vertex 0 4.4 40
      vertex 0 4.4 0
    endloop
  endfacet
  facet normal -1 -0 0
    outer loop
      vertex 0 4.4 40
      vertex 0 0 0
      vertex 0 0 40
    endloop
  endfacet
  facet normal -1 0 0
    outer loop
      vertex 0 51.4 0
      vertex 0 56 40
      vertex 0 56 0
    endloop
  endfacet
  facet normal -1 -0 0
    outer loop
      vertex 0 56 40
      vertex 0 51.4 0
      vertex 0 51.4 40
    endloop
  endfacet
  facet normal -1 0 0
    outer loop
      vertex 0 11.6 0
      vertex 0 16.6 40
      vertex 0 16.6 0
    endloop
  endfacet
  facet normal -1 -0 0
    outer loop
      vertex 0 16.6 40
      vertex 0 11.6 0
      vertex 0 11.6 40
    endloop
  endfacet
  facet normal -1 0 0
    outer loop
      vertex 0 23.4 0
      vertex 0 32.4 40
      vertex 0 32.4 0
    endloop
  endfacet
  facet normal -1 -0 0
    outer loop
      vertex 0 32.4 40
      vertex 0 23.4 0
      vertex 0 23.4 40
    endloop
  endfacet
  facet normal -1 0 0
    outer loop
      vertex 0 39.6 0
      vertex 0 44.6 40
      vertex 0 44.6 0
    endloop
  endfacet
  facet normal -1 -0 0
    outer loop
      vertex 0 44.6 40
      vertex 0 39.6 0
      vertex 0 39.6 40
    endloop
  endfacet
  facet normal 1 -0 0
    outer loop
      vertex 84 0 40
      vertex 84 4.6 0
      vertex 84 4.6 40
    endloop
  endfacet
  facet normal 1 0 0
    outer loop
      vertex 84 4.6 0
      vertex 84 0 40
      vertex 84 0 0
    endloop
  endfacet
  facet normal 1 -0 0
    outer loop
      vertex 84 51.6 40
      vertex 84 56 0
      vertex 84 56 40
    endloop
  endfacet
  facet normal 1 0 0
    outer loop
      vertex 84 56 0
      vertex 84 51.6 40
      vertex 84 51.6 0
    endloop
  endfacet
  facet normal 1 -0 0
    outer loop
      vertex 84 39.4 40
      vertex 84 44.4 0
      vertex 84 44.4 40
    endloop
  endfacet
  facet normal 1 0 0
    outer loop
      vertex 84 44.4 0
      vertex 84 39.4 40
      vertex 84 39.4 0
    endloop
  endfacet
  facet normal 1 -0 0
    outer loop
      vertex 84 23.6 40
      vertex 84 32.6 0
      vertex 84 32.6 40
    endloop
  endfacet
  facet normal 1 0 0
    outer loop
      vertex 84 32.6 0
      vertex 84 23.6 40
      vertex 84 23.6 0
    endloop
  endfacet
  facet normal 1 -0 0
    outer loop
      vertex 84 11.4 40
      vertex 84 16.4 0
      vertex 84 16.4 40
    endloop
  endfacet
  facet normal 1 0 0
    outer loop
      vertex 84 16.4 0
      vertex 84 11.4 40
      vertex 84 11.4 0
    endloop
  endfacet
  facet normal 0 1 -0
    outer loop
      vertex 84 56 0
      vertex 79.4 56 40
      vertex 84 56 40
    endloop
  endfacet
  facet normal 0 1 0
    outer loop
      vertex 79.4 56 40
      vertex 84 56 0
      vertex 79.4 56 0
    endloop
  endfacet
  facet normal 0 1 -0
    outer loop
      vertex 4.4 56 0
      vertex 0 56 40
      vertex 4.4 56 40
    endloop
  endfacet
  facet normal 0 1 0
    outer loop
      vertex 0 56 40
      vertex 4.4 56 0
      vertex 0 56 0
    endloop
  endfacet
  facet normal 0 1 -0
    outer loop
      vertex 16.6 56 0
      vertex 11.6 56 40
      vertex 16.6 56 40
    endloop
  endfacet
  facet normal 0 1 0
    outer loop
      vertex 11.6 56 40
      vertex 16.6 56 0
      vertex 11.6 56 0
    endloop
  endfacet
  facet normal 0 1 -0
    outer loop
      vertex 32.4 56 0
      vertex 23.4 56 40
      vertex 32.4 56 40
    endloop
  endfacet
  facet normal 0 1 0
    outer loop
      vertex 23.4 56 40
      vertex 32.4 56 0
      vertex 23.4 56 0
    endloop
  endfacet
  facet normal 0 1 -0
    outer loop
      vertex 44.6 56 0
      vertex 39.6 56 40
      vertex 44.6 56 40
    endloop
  endfacet
  facet normal 0 1 0
    outer loop
      vertex 39.6 56 40
      vertex 44.6 56 0
      vertex 39.6 56 0
    endloop
  endfacet
  facet normal 0 1 -0
    outer loop
      vertex 60.4 56 0
      vertex 51.4 56 40
      vertex 60.4 56 40
    endloop
  endfacet
  facet normal 0 1 0
    outer loop
      vertex 51.4 56 40
      vertex 60.4 56 0
      vertex 51.4 56 0
    endloop
  endfacet
  facet normal 0 1 -0
    outer loop
      vertex 72.6 56 0
      vertex 67.6 56 40
      vertex 72.6 56 40
    endloop
  endfacet
  facet normal 0 1 0
    outer loop
      vertex 67.6 56 40
      vertex 72.6 56 0
      vertex 67.6 56 0
    endloop
  endfacet
  facet normal 0 -1 0
    outer loop
      vertex 0 0 0
      vertex 4.6 0 40
      vertex 0 0 40
    endloop
  endfacet
  facet normal 0 -1 -0
    outer loop
      vertex 4.6 0 40
      vertex 0 0 0
      vertex 4.6 0 0
    endloop
  endfacet
  facet normal 0 -1 0
    outer loop
      vertex 79.6 0 0
      vertex 84 0 40
      vertex 79.6 0 40
    endloop
  endfacet
  facet normal 0 -1 -0
    outer loop
      vertex 84 0 40
      vertex 79.6 0 0
      vertex 84 0 0
    endloop
  endfacet
  facet normal 0 -1 0
    outer loop
      vertex 11.4 0 0
      vertex 16.4 0 40
      vertex 11.4 0 40
    endloop
  endfacet
  facet normal 0 -1 -0
    outer loop
      vertex 16.4 0 40
      vertex 11.4 0 0
      vertex 16.4 0 0
    endloop
  endfacet
  facet normal 0 -1 0
    outer loop
      vertex 23.6 0 0
      vertex 32.6 0 40
      vertex 23.6 0 40
    endloop
  endfacet
  facet normal 0 -1 -0
    outer loop
      vertex 32.6 0 40
      vertex 23.6 0 0
      vertex 32.6 0 0
    endloop
  endfacet
  facet normal 0 -1 0
    outer loop
      vertex 39.4 0 0
      vertex 44.4 0 40
      vertex 39.4 0 40
    endloop
  endfacet
  facet normal 0 -1 -0
    outer loop
      vertex 44.4 0 40
      vertex 39.4 0 0
      vertex 44.4 0 0
    endloop
  endfacet
  facet normal 0 -1 0
    outer loop
      vertex 51.6 0 0
      vertex 60.6 0 40
      vertex 51.6 0 40
    endloop
  endfacet
  facet normal 0 -1 -0
    outer loop
      vertex 60.6 0 40
      vertex 51.6 0 0
      vertex 60.6 0 0
    endloop
  endfacet
  facet normal 0 -1 0
    outer loop
      vertex 67.4 0 0
      vertex 72.4 0 40
      vertex 67.4 0 40
    endloop
  endfacet
  facet normal 0 -1 -0
    outer loop
      vertex 72.4 0 40
      vertex 67.4 0 0
      vertex 72.4 0 0
    endloop
  endfacet
  facet normal -1 0 0
    outer loop
      vertex 2.6 -3.99999 0
      vertex 2.6 -2.19999 40
      vertex 2.6 -2.19999 0
    endloop
  endfacet
  facet normal -1 -0 0
    outer loop
      vertex 2.6 -2.19999 40
      vertex 2.6 -3.99999 0
      vertex 2.6 -3.99999 40
    endloop
  endfacet
  facet normal 1 -0 0
    outer loop
      vertex 13.4 -3.99999 40
      vertex 13.4 -2.19999 0
      vertex 13.4 -2.19999 40
    endloop
  endfacet
  facet normal 1 0 0
    outer loop
      vertex 13.4 -2.19999 0
      vertex 13.4 -3.99999 40
      vertex 13.4 -3.99999 0
    endloop
  endfacet
  facet normal 0 1 -0
    outer loop
      vertex 4.6 -2.19999 0
      vertex 2.6 -2.19999 40
      vertex 4.6 -2.19999 40
    endloop
  endfacet
  facet normal 0 1 0
    outer loop
      vertex 2.6 -2.19999 40
      vertex 4.6 -2.19999 0
      vertex 2.6 -2.19999 0
    endloop
  endfacet
  facet normal 0 1 -0
    outer loop
      vertex 13.4 -2.19999 0
      vertex 11.4 -2.19999 40
      vertex 13.4 -2.19999 40
    endloop
  endfacet
  facet normal 0 1 0
    outer loop
      vertex 11.4 -2.19999 40
      vertex 13.4 -2.19999 0
      vertex 11.4 -2.19999 0
    endloop
  endfacet
  facet normal 0 -1 0
    outer loop
      vertex 2.6 -3.99999 0
      vertex 13.4 -3.99999 40
      vertex 2.6 -3.99999 40
    endloop
  endfacet
  facet normal 0 -1 -0
    outer loop
      vertex 13.4 -3.99999 40
      vertex 2.6 -3.99999 0
      vertex 13.4 -3.99999 0
    endloop
  endfacet
  facet normal -1 0 0
    outer loop
      vertex 4.6 -2.19999 0
      vertex 4.6 0 40
      vertex 4.6 0 0
    endloop
  endfacet
  facet normal -1 -0 0
    outer loop
      vertex 4.6 0 40
      vertex 4.6 -2.19999 0
      vertex 4.6 -2.19999 40
    endloop
  endfacet
  facet normal 1 -0 0
    outer loop
      vertex 11.4 -2.19999 40
      vertex 11.4 0 0
      vertex 11.4 0 40
    endloop
  endfacet
  facet normal 1 0 0
    outer loop
      vertex 11.4 0 0
      vertex 11.4 -2.19999 40
      vertex 11.4 -2.19999 0
    endloop
  endfacet
  facet normal -1 0 0
    outer loop
      vertex 30.6 -3.99999 0
      vertex 30.6 -2.19999 40
      vertex 30.6 -2.19999 0
    endloop
  endfacet
  facet normal -1 -0 0
    outer loop
      vertex 30.6 -2.19999 40
      vertex 30.6 -3.99999 0
      vertex 30.6 -3.99999 40
    endloop
  endfacet
  facet normal 1 -0 0
    outer loop
      vertex 41.4 -3.99999 40
      vertex 41.4 -2.19999 0
      vertex 41.4 -2.19999 40
    endloop
  endfacet
  facet normal 1 0 0
    outer loop
      vertex 41.4 -2.19999 0
      vertex 41.4 -3.99999 40
      vertex 41.4 -3.99999 0
    endloop
  endfacet
  facet normal 0 1 -0
    outer loop
      vertex 32.6 -2.19999 0
      vertex 30.6 -2.19999 40
      vertex 32.6 -2.19999 40
    endloop
  endfacet
  facet normal 0 1 0
    outer loop
      vertex 30.6 -2.19999 40
      vertex 32.6 -2.19999 0
      vertex 30.6 -2.19999 0
    endloop
  endfacet
  facet normal 0 1 -0
    outer loop
      vertex 41.4 -2.19999 0
      vertex 39.4 -2.19999 40
      vertex 41.4 -2.19999 40
    endloop
  endfacet
  facet normal 0 1 0
    outer loop
      vertex 39.4 -2.19999 40
      vertex 41.4 -2.19999 0
      vertex 39.4 -2.19999 0
    endloop
  endfacet
  facet normal 0 -1 0
    outer loop
      vertex 30.6 -3.99999 0
      vertex 41.4 -3.99999 40
      vertex 30.6 -3.99999 40
    endloop
  endfacet
  facet normal 0 -1 -0
    outer loop
      vertex 41.4 -3.99999 40
      vertex 30.6 -3.99999 0
      vertex 41.4 -3.99999 0
    endloop
  endfacet
  facet normal -1 0 0
    outer loop
      vertex 32.6 -2.19999 0
      vertex 32.6 0 40
      vertex 32.6 0 0
    endloop
  endfacet
  facet normal -1 -0 0
    outer loop
      vertex 32.6 0 40
      vertex 32.6 -2.19999 0
      vertex 32.6 -2.19999 40
    endloop
  endfacet
  facet normal 1 -0 0
    outer loop
      vertex 39.4 -2.19999 40
      vertex 39.4 0 0
      vertex 39.4 0 40
    endloop
  endfacet
  facet normal 1 0 0
    outer loop
      vertex 39.4 0 0
      vertex 39.4 -2.19999 40
      vertex 39.4 -2.19999 0
    endloop
  endfacet
  facet normal -1 0 0
    outer loop
      vertex 58.6 -3.99999 0
      vertex 58.6 -2.19999 40
      vertex 58.6 -2.19999 0
    endloop
  endfacet
  facet normal -1 -0 0
    outer loop
      vertex 58.6 -2.19999 40
      vertex 58.6 -3.99999 0
      vertex 58.6 -3.99999 40
    endloop
  endfacet
  facet normal 1 -0 0
    outer loop
      vertex 69.4 -3.99999 40
      vertex 69.4 -2.19999 0
      vertex 69.4 -2.19999 40
    endloop
  endfacet
  facet normal 1 0 0
    outer loop
      vertex 69.4 -2.19999 0
      vertex 69.4 -3.99999 40
      vertex 69.4 -3.99999 0
    endloop
  endfacet
  facet normal 0 1 -0
    outer loop
      vertex 60.6 -2.19999 0
      vertex 58.6 -2.19999 40
      vertex 60.6 -2.19999 40
    endloop
  endfacet
  facet normal 0 1 0
    outer loop
      vertex 58.6 -2.19999 40
      vertex 60.6 -2.19999 0
      vertex 58.6 -2.19999 0
    endloop
  endfacet
  facet normal 0 1 -0
    outer loop
      vertex 69.4 -2.19999 0
      vertex 67.4 -2.19999 40
      vertex 69.4 -2.19999 40
    endloop
  endfacet
  facet normal 0 1 0
    outer loop
      vertex 67.4 -2.19999 40
      vertex 69.4 -2.19999 0
      vertex 67.4 -2.19999 0
    endloop
  endfacet
  facet normal 0 -1 0
    outer loop
      vertex 58.6 -3.99999 0
      vertex 69.4 -3.99999 40
      vertex 58.6 -3.99999 40
    endloop
  endfacet
  facet normal 0 -1 -0
    outer loop
      vertex 69.4 -3.99999 40
      vertex 58.6 -3.99999 0
      vertex 69.4 -3.99999 0
    endloop
  endfacet
  facet normal -1 0 0
    outer loop
      vertex 60.6 -2.19999 0
      vertex 60.6 0 40
      vertex 60.6 0 0
    endloop
  endfacet
  facet normal -1 -0 0
    outer loop
      vertex 60.6 0 40
      vertex 60.6 -2.19999 0
      vertex 60.6 -2.19999 40
    endloop
  endfacet
  facet normal 1 -0 0
    outer loop
      vertex 67.4 -2.19999 40
      vertex 67.4 0 0
      vertex 67.4 0 40
    endloop
  endfacet
  facet normal 1 0 0
    outer loop
      vertex 67.4 0 0
      vertex 67.4 -2.19999 40
      vertex 67.4 -2.19999 0
    endloop
  endfacet
  facet normal 0 -1 0
    outer loop
      vertex 86.2 2.6 0
      vertex 88 2.6 40
      vertex 86.2 2.6 40
    endloop
  endfacet
  facet normal 0 -1 -0
    outer loop
      vertex 88 2.6 40
      vertex 86.2 2.6 0
      vertex 88 2.6 0
    endloop
  endfacet
  facet normal 0 1 -0
    outer loop
      vertex 88 13.4 0
      vertex 86.2 13.4 40
      vertex 88 13.4 40
    endloop
  endfacet
  facet normal 0 1 0
    outer loop
      vertex 86.2 13.4 40
      vertex 88 13.4 0
      vertex 86.2 13.4 0
    endloop
  endfacet
  facet normal -1 0 0
    outer loop
      vertex 86.2 2.6 0
      vertex 86.2 4.6 40
      vertex 86.2 4.6 0
    endloop
  endfacet
  facet normal -1 -0 0
    outer loop
      vertex 86.2 4.6 40
      vertex 86.2 2.6 0
      vertex 86.2 2.6 40
    endloop
  endfacet
  facet normal -1 0 0
    outer loop
      vertex 86.2 11.4 0
      vertex 86.2 13.4 40
      vertex 86.2 13.4 0
    endloop
  endfacet
  facet normal -1 -0 0
    outer loop
      vertex 86.2 13.4 40
      vertex 86.2 11.4 0
      vertex 86.2 11.4 40
    endloop
  endfacet
  facet normal 1 -0 0
    outer loop
      vertex 88 2.6 40
      vertex 88 13.4 0
      vertex 88 13.4 40
    endloop
  endfacet
  facet normal 1 0 0
    outer loop
      vertex 88 13.4 0
      vertex 88 2.6 40
      vertex 88 2.6 0
    endloop
  endfacet
  facet normal 0 -1 0
    outer loop
      vertex 84 4.6 0
      vertex 86.2 4.6 40
      vertex 84 4.6 40
    endloop
  endfacet
  facet normal 0 -1 -0
    outer loop
      vertex 86.2 4.6 40
      vertex 84 4.6 0
      vertex 86.2 4.6 0
    endloop
  endfacet
  facet normal 0 1 -0
    outer loop
      vertex 86.2 11.4 0
      vertex 84 11.4 40
      vertex 86.2 11.4 40
    endloop
  endfacet
  facet normal 0 1 0
    outer loop
      vertex 84 11.4 40
      vertex 86.2 11.4 0
      vertex 84 11.4 0
    endloop
  endfacet
  facet normal 0 -1 0
    outer loop
      vertex 86.2 30.6 0
      vertex 88 30.6 40
      vertex 86.2 30.6 40
    endloop
  endfacet
  facet normal 0 -1 -0
    outer loop
      vertex 88 30.6 40
      vertex 86.2 30.6 0
      vertex 88 30.6 0
    endloop
  endfacet
  facet normal 0 1 -0
    outer loop
      vertex 88 41.4 0
      vertex 86.2 41.4 40
      vertex 88 41.4 40
    endloop
  endfacet
  facet normal 0 1 0
    outer loop
      vertex 86.2 41.4 40
      vertex 88 41.4 0
      vertex 86.2 41.4 0
    endloop
  endfacet
  facet normal -1 0 0
    outer loop
      vertex 86.2 30.6 0
      vertex 86.2 32.6 40
      vertex 86.2 32.6 0
    endloop
  endfacet
  facet normal -1 -0 0
    outer loop
      vertex 86.2 32.6 40
      vertex 86.2 30.6 0
      vertex 86.2 30.6 40
    endloop
  endfacet
  facet normal -1 0 0
    outer loop
      vertex 86.2 39.4 0
      vertex 86.2 41.4 40
      vertex 86.2 41.4 0
    endloop
  endfacet
  facet normal -1 -0 0
    outer loop
      vertex 86.2 41.4 40
      vertex 86.2 39.4 0
      vertex 86.2 39.4 40
    endloop
  endfacet
  facet normal 1 -0 0
    outer loop
      vertex 88 30.6 40
      vertex 88 41.4 0
      vertex 88 41.4 40
    endloop
  endfacet
  facet normal 1 0 0
    outer loop
      vertex 88 41.4 0
      vertex 88 30.6 40
      vertex 88 30.6 0
    endloop
  endfacet
  facet normal 0 -1 0
    outer loop
      vertex 84 32.6 0
      vertex 86.2 32.6 40
      vertex 84 32.6 40
    endloop
  endfacet
  facet normal 0 -1 -0
    outer loop
      vertex 86.2 32.6 40
      vertex 84 32.6 0
      vertex 86.2 32.6 0
    endloop
  endfacet
  facet normal 0 1 -0
    outer loop
      vertex 86.2 39.4 0
      vertex 84 39.4 40
      vertex 86.2 39.4 40
    endloop
  endfacet
  facet normal 0 1 0
    outer loop
      vertex 84 39.4 40
      vertex 86.2 39.4 0
      vertex 84 39.4 0
    endloop
  endfacet
  facet normal 1 -0 0
    outer loop
      vertex 81.4 58.2 40
      vertex 81.4 60 0
      vertex 81.4 60 40
    endloop
  endfacet
  facet normal 1 0 0
    outer loop
      vertex 81.4 60 0
      vertex 81.4 58.2 40
      vertex 81.4 58.2 0
    endloop
  endfacet
  facet normal -1 0 0
    outer loop
      vertex 70.6 58.2 0
      vertex 70.6 60 40
      vertex 70.6 60 0
    endloop
  endfacet
  facet normal -1 -0 0
    outer loop
      vertex 70.6 60 40
      vertex 70.6 58.2 0
      vertex 70.6 58.2 40
    endloop
  endfacet
  facet normal 0 -1 0
    outer loop
      vertex 79.4 58.2 0
      vertex 81.4 58.2 40
      vertex 79.4 58.2 40
    endloop
  endfacet
  facet normal 0 -1 -0
    outer loop
      vertex 81.4 58.2 40
      vertex 79.4 58.2 0
      vertex 81.4 58.2 0
    endloop
  endfacet
  facet normal 0 -1 0
    outer loop
      vertex 70.6 58.2 0
      vertex 72.6 58.2 40
      vertex 70.6 58.2 40
    endloop
  endfacet
  facet normal 0 -1 -0
    outer loop
      vertex 72.6 58.2 40
      vertex 70.6 58.2 0
      vertex 72.6 58.2 0
    endloop
  endfacet
  facet normal 0 1 -0
    outer loop
      vertex 81.4 60 0
      vertex 70.6 60 40
      vertex 81.4 60 40
    endloop
  endfacet
  facet normal 0 1 0
    outer loop
      vertex 70.6 60 40
      vertex 81.4 60 0
      vertex 70.6 60 0
    endloop
  endfacet
  facet normal 1 -0 0
    outer loop
      vertex 79.4 56 40
      vertex 79.4 58.2 0
      vertex 79.4 58.2 40
    endloop
  endfacet
  facet normal 1 0 0
    outer loop
      vertex 79.4 58.2 0
      vertex 79.4 56 40
      vertex 79.4 56 0
    endloop
  endfacet
  facet normal -1 0 0
    outer loop
      vertex 72.6 56 0
      vertex 72.6 58.2 40
      vertex 72.6 58.2 0
    endloop
  endfacet
  facet normal -1 -0 0
    outer loop
      vertex 72.6 58.2 40
      vertex 72.6 56 0
      vertex 72.6 56 40
    endloop
  endfacet
  facet normal 1 -0 0
    outer loop
      vertex 53.4 58.2 40
      vertex 53.4 60 0
      vertex 53.4 60 40
    endloop
  endfacet
  facet normal 1 0 0
    outer loop
      vertex 53.4 60 0
      vertex 53.4 58.2 40
      vertex 53.4 58.2 0
    endloop
  endfacet
  facet normal -1 0 0
    outer loop
      vertex 42.6 58.2 0
      vertex 42.6 60 40
      vertex 42.6 60 0
    endloop
  endfacet
  facet normal -1 -0 0
    outer loop
      vertex 42.6 60 40
      vertex 42.6 58.2 0
      vertex 42.6 58.2 40
    endloop
  endfacet
  facet normal 0 -1 0
    outer loop
      vertex 51.4 58.2 0
      vertex 53.4 58.2 40
      vertex 51.4 58.2 40
    endloop
  endfacet
  facet normal 0 -1 -0
    outer loop
      vertex 53.4 58.2 40
      vertex 51.4 58.2 0
      vertex 53.4 58.2 0
    endloop
  endfacet
  facet normal 0 -1 0
    outer loop
      vertex 42.6 58.2 0
      vertex 44.6 58.2 40
      vertex 42.6 58.2 40
    endloop
  endfacet
  facet normal 0 -1 -0
    outer loop
      vertex 44.6 58.2 40
      vertex 42.6 58.2 0
      vertex 44.6 58.2 0
    endloop
  endfacet
  facet normal 0 1 -0
    outer loop
      vertex 53.4 60 0
      vertex 42.6 60 40
      vertex 53.4 60 40
    endloop
  endfacet
  facet normal 0 1 0
    outer loop
      vertex 42.6 60 40
      vertex 53.4 60 0
      vertex 42.6 60 0
    endloop
  endfacet
  facet normal 1 -0 0
    outer loop
      vertex 51.4 56 40
      vertex 51.4 58.2 0
      vertex 51.4 58.2 40
    endloop
  endfacet
  facet normal 1 0 0
    outer loop
      vertex 51.4 58.2 0
      vertex 51.4 56 40
      vertex 51.4 56 0
    endloop
  endfacet
  facet normal -1 0 0
    outer loop
      vertex 44.6 56 0
      vertex 44.6 58.2 40
      vertex 44.6 58.2 0
    endloop
  endfacet
  facet normal -1 -0 0
    outer loop
      vertex 44.6 58.2 40
      vertex 44.6 56 0
      vertex 44.6 56 40
    endloop
  endfacet
  facet normal 1 -0 0
    outer loop
      vertex 25.4 58.2 40
      vertex 25.4 60 0
      vertex 25.4 60 40
    endloop
  endfacet
  facet normal 1 0 0
    outer loop
      vertex 25.4 60 0
      vertex 25.4 58.2 40
      vertex 25.4 58.2 0
    endloop
  endfacet
  facet normal -1 0 0
    outer loop
      vertex 14.6 58.2 0
      vertex 14.6 60 40
      vertex 14.6 60 0
    endloop
  endfacet
  facet normal -1 -0 0
    outer loop
      vertex 14.6 60 40
      vertex 14.6 58.2 0
      vertex 14.6 58.2 40
    endloop
  endfacet
  facet normal 0 -1 0
    outer loop
      vertex 23.4 58.2 0
      vertex 25.4 58.2 40
      vertex 23.4 58.2 40
    endloop
  endfacet
  facet normal 0 -1 -0
    outer loop
      vertex 25.4 58.2 40
      vertex 23.4 58.2 0
      vertex 25.4 58.2 0
    endloop
  endfacet
  facet normal 0 -1 0
    outer loop
      vertex 14.6 58.2 0
      vertex 16.6 58.2 40
      vertex 14.6 58.2 40
    endloop
  endfacet
  facet normal 0 -1 -0
    outer loop
      vertex 16.6 58.2 40
      vertex 14.6 58.2 0
      vertex 16.6 58.2 0
    endloop
  endfacet
  facet normal 0 1 -0
    outer loop
      vertex 25.4 60 0
      vertex 14.6 60 40
      vertex 25.4 60 40
    endloop
  endfacet
  facet normal 0 1 0
    outer loop
      vertex 14.6 60 40
      vertex 25.4 60 0
      vertex 14.6 60 0
    endloop
  endfacet
  facet normal 1 -0 0
    outer loop
      vertex 23.4 56 40
      vertex 23.4 58.2 0
      vertex 23.4 58.2 40
    endloop
  endfacet
  facet normal 1 0 0
    outer loop
      vertex 23.4 58.2 0
      vertex 23.4 56 40
      vertex 23.4 56 0
    endloop
  endfacet
  facet normal -1 0 0
    outer loop
      vertex 16.6 56 0
      vertex 16.6 58.2 40
      vertex 16.6 58.2 0
    endloop
  endfacet
  facet normal -1 -0 0
    outer loop
      vertex 16.6 58.2 40
      vertex 16.6 56 0
      vertex 16.6 56 40
    endloop
  endfacet
  facet normal 0 1 -0
    outer loop
      vertex -2.19999 53.4 0
      vertex -3.99999 53.4 40
      vertex -2.19999 53.4 40
    endloop
  endfacet
  facet normal 0 1 0
    outer loop
      vertex -3.99999 53.4 40
      vertex -2.19999 53.4 0
      vertex -3.99999 53.4 0
    endloop
  endfacet
  facet normal 0 -1 0
    outer loop
      vertex -3.99999 42.6 0
      vertex -2.19999 42.6 40
      vertex -3.99999 42.6 40
    endloop
  endfacet
  facet normal 0 -1 -0
    outer loop
      vertex -2.19999 42.6 40
      vertex -3.99999 42.6 0
      vertex -2.19999 42.6 0
    endloop
  endfacet
  facet normal 1 -0 0
    outer loop
      vertex -2.19999 51.4 40
      vertex -2.19999 53.4 0
      vertex -2.19999 53.4 40
    endloop
  endfacet
  facet normal 1 0 0
    outer loop
      vertex -2.19999 53.4 0
      vertex -2.19999 51.4 40
      vertex -2.19999 51.4 0
    endloop
  endfacet
  facet normal 1 -0 0
    outer loop
      vertex -2.19999 42.6 40
      vertex -2.19999 44.6 0
      vertex -2.19999 44.6 40
    endloop
  endfacet
  facet normal 1 0 0
    outer loop
      vertex -2.19999 44.6 0
      vertex -2.19999 42.6 40
      vertex -2.19999 42.6 0
    endloop
  endfacet
  facet normal -1 0 0
    outer loop
      vertex -3.99999 42.6 0
      vertex -3.99999 53.4 40
      vertex -3.99999 53.4 0
    endloop
  endfacet
  facet normal -1 -0 0
    outer loop
      vertex -3.99999 53.4 40
      vertex -3.99999 42.6 0
      vertex -3.99999 42.6 40
    endloop
  endfacet
  facet normal 0 1 -0
    outer loop
      vertex 0 51.4 0
      vertex -2.19999 51.4 40
      vertex 0 51.4 40
    endloop
  endfacet
  facet normal 0 1 0
    outer loop
      vertex -2.19999 51.4 40
      vertex 0 51.4 0
      vertex -2.19999 51.4 0
    endloop
  endfacet
  facet normal 0 -1 0
    outer loop
      vertex -2.19999 44.6 0
      vertex 0 44.6 40
      vertex -2.19999 44.6 40
    endloop
  endfacet
  facet normal 0 -1 -0
    outer loop
      vertex 0 44.6 40
      vertex -2.19999 44.6 0
      vertex 0 44.6 0
    endloop
  endfacet
  facet normal 0 1 -0
    outer loop
      vertex -2.19999 25.4 0
      vertex -3.99999 25.4 40
      vertex -2.19999 25.4 40
    endloop
  endfacet
  facet normal 0 1 0
    outer loop
      vertex -3.99999 25.4 40
      vertex -2.19999 25.4 0
      vertex -3.99999 25.4 0
    endloop
  endfacet
  facet normal 0 -1 0
    outer loop
      vertex -3.99999 14.6 0
      vertex -2.19999 14.6 40
      vertex -3.99999 14.6 40
    endloop
  endfacet
  facet normal 0 -1 -0
    outer loop
      vertex -2.19999 14.6 40
      vertex -3.99999 14.6 0
      vertex -2.19999 14.6 0
    endloop
  endfacet
  facet normal 1 -0 0
    outer loop
      vertex -2.19999 23.4 40
      vertex -2.19999 25.4 0
      vertex -2.19999 25.4 40
    endloop
  endfacet
  facet normal 1 0 0
    outer loop
      vertex -2.19999 25.4 0
      vertex -2.19999 23.4 40
      vertex -2.19999 23.4 0
    endloop
  endfacet
  facet normal 1 -0 0
    outer loop
      vertex -2.19999 14.6 40
      vertex -2.19999 16.6 0
      vertex -2.19999 16.6 40
    endloop
  endfacet
  facet normal 1 0 0
    outer loop
      vertex -2.19999 16.6 0
      vertex -2.19999 14.6 40
      vertex -2.19999 14.6 0
    endloop
  endfacet
  facet normal -1 0 0
    outer loop
      vertex -3.99999 14.6 0
      vertex -3.99999 25.4 40
      vertex -3.99999 25.4 0
    endloop
  endfacet
  facet normal -1 -0 0
    outer loop
      vertex -3.99999 25.4 40
      vertex -3.99999 14.6 0
      vertex -3.99999 14.6 40
    endloop
  endfacet
  facet normal 0 1 -0
    outer loop
      vertex 0 23.4 0
      vertex -2.19999 23.4 40
      vertex 0 23.4 40
    endloop
  endfacet
  facet normal 0 1 0
    outer loop
      vertex -2.19999 23.4 40
      vertex 0 23.4 0
      vertex -2.19999 23.4 0
    endloop
  endfacet
  facet normal 0 -1 0
    outer loop
      vertex -2.19999 16.6 0
      vertex 0 16.6 40
      vertex -2.19999 16.6 40
    endloop
  endfacet
  facet normal 0 -1 -0
    outer loop
      vertex 0 16.6 40
      vertex -2.19999 16.6 0
      vertex 0 16.6 0
    endloop
  endfacet
endsolid OpenSCAD_Model
