solid OpenSCAD_Model
  facet normal 1 -0 0
    outer loop
      vertex 16.4 0 20
      vertex 16.4 1.79999 0
      vertex 16.4 1.79999 20
    endloop
  endfacet
  facet normal 1 0 0
    outer loop
      vertex 16.4 1.79999 0
      vertex 16.4 0 20
      vertex 16.4 0 0
    endloop
  endfacet
  facet normal 0 0 1
    outer loop
      vertex 1.79999 4.4 20
      vertex 0 4.4 20
      vertex 1.79999 2.4 20
    endloop
  endfacet
  facet normal 0 0 1
    outer loop
      vertex 25.4 60 20
      vertex 23.4 58.2 20
      vertex 25.4 58.2 20
    endloop
  endfacet
  facet normal 0 0 1
    outer loop
      vertex 23.4 58.2 20
      vertex 16.6 58.2 20
      vertex 23.4 56 20
    endloop
  endfacet
  facet normal 0 0 1
    outer loop
      vertex 25.4 60 20
      vertex 16.6 58.2 20
      vertex 23.4 58.2 20
    endloop
  endfacet
  facet normal -0 0 1
    outer loop
      vertex 14.6 60 20
      vertex 16.6 58.2 20
      vertex 25.4 60 20
    endloop
  endfacet
  facet normal 0 0 1
    outer loop
      vertex 16.6 58.2 20
      vertex 14.6 60 20
      vertex 14.6 58.2 20
    endloop
  endfacet
  facet normal 0 0 1
    outer loop
      vertex 28 56 20
      vertex 26.2 53.6 20
      vertex 28 51.6 20
    endloop
  endfacet
  facet normal -0 0 1
    outer loop
      vertex 23.4 56 20
      vertex 26.2 53.6 20
      vertex 28 56 20
    endloop
  endfacet
  facet normal -0 0 1
    outer loop
      vertex 13.6 52 20
      vertex 24 42.4 20
      vertex 24 53.6 20
    endloop
  endfacet
  facet normal 0 0 1
    outer loop
      vertex 3.99999 41.6 20
      vertex 24 42.4 20
      vertex 13.6 52 20
    endloop
  endfacet
  facet normal -0 0 1
    outer loop
      vertex 16.6 56 20
      vertex 24 53.6 20
      vertex 23.4 56 20
    endloop
  endfacet
  facet normal 0 0 1
    outer loop
      vertex 26.2 53.6 20
      vertex 23.4 56 20
      vertex 24 53.6 20
    endloop
  endfacet
  facet normal 0 0 1
    outer loop
      vertex 28 51.6 20
      vertex 26.2 53.6 20
      vertex 26.2 51.6 20
    endloop
  endfacet
  facet normal 0 0 1
    outer loop
      vertex 24 25.6 20
      vertex 28 32.6 20
      vertex 24 42.4 20
    endloop
  endfacet
  facet normal 0 0 1
    outer loop
      vertex 28 32.6 20
      vertex 24 25.6 20
      vertex 26.2 25.6 20
    endloop
  endfacet
  facet normal -0 0 1
    outer loop
      vertex 26.2 42.4 20
      vertex 28 39.4 20
      vertex 28 44.4 20
    endloop
  endfacet
  facet normal -0 0 1
    outer loop
      vertex 24 42.4 20
      vertex 28 39.4 20
      vertex 26.2 42.4 20
    endloop
  endfacet
  facet normal 0 0 1
    outer loop
      vertex 26.2 42.4 20
      vertex 28 44.4 20
      vertex 26.2 44.4 20
    endloop
  endfacet
  facet normal 0 0 1
    outer loop
      vertex 28 39.4 20
      vertex 24 42.4 20
      vertex 28 32.6 20
    endloop
  endfacet
  facet normal 0 0 1
    outer loop
      vertex 28 32.6 20
      vertex 26.2 25.6 20
      vertex 28 23.6 20
    endloop
  endfacet
  facet normal 0 0 1
    outer loop
      vertex 28 23.6 20
      vertex 26.2 25.6 20
      vertex 26.2 23.6 20
    endloop
  endfacet
  facet normal -0 0 1
    outer loop
      vertex 28 39.4 20
      vertex 30.2 32.6 20
      vertex 30.2 39.4 20
    endloop
  endfacet
  facet normal 0 0 1
    outer loop
      vertex 30.2 32.6 20
      vertex 28 39.4 20
      vertex 28 32.6 20
    endloop
  endfacet
  facet normal 0 0 1
    outer loop
      vertex 30.2 39.4 20
      vertex 32 41.4 20
      vertex 30.2 41.4 20
    endloop
  endfacet
  facet normal 0 0 1
    outer loop
      vertex 32 41.4 20
      vertex 30.2 39.4 20
      vertex 32 30.6 20
    endloop
  endfacet
  facet normal -0 0 1
    outer loop
      vertex 30.2 32.6 20
      vertex 32 30.6 20
      vertex 30.2 39.4 20
    endloop
  endfacet
  facet normal 0 0 1
    outer loop
      vertex 32 30.6 20
      vertex 30.2 32.6 20
      vertex 30.2 30.6 20
    endloop
  endfacet
  facet normal 0 0 1
    outer loop
      vertex 28 11.4 20
      vertex 24 14.4 20
      vertex 25.6 3.99999 20
    endloop
  endfacet
  facet normal 0 0 1
    outer loop
      vertex 16.6 56 20
      vertex 23.4 56 20
      vertex 16.6 58.2 20
    endloop
  endfacet
  facet normal 0 0 1
    outer loop
      vertex 24 53.6 20
      vertex 16.6 56 20
      vertex 13.6 52 20
    endloop
  endfacet
  facet normal 0 0 1
    outer loop
      vertex 3.99999 30.4 20
      vertex 24 42.4 20
      vertex 3.99999 41.6 20
    endloop
  endfacet
  facet normal 0 0 1
    outer loop
      vertex 3.99999 13.6 20
      vertex 24 25.6 20
      vertex 3.99999 30.4 20
    endloop
  endfacet
  facet normal 0 0 1
    outer loop
      vertex 24 25.6 20
      vertex 3.99999 13.6 20
      vertex 24 14.4 20
    endloop
  endfacet
  facet normal 0 0 1
    outer loop
      vertex 13.6 52 20
      vertex 16.6 56 20
      vertex 13.6 54.2 20
    endloop
  endfacet
  facet normal -0 0 1
    outer loop
      vertex 11.6 56 20
      vertex 13.6 54.2 20
      vertex 16.6 56 20
    endloop
  endfacet
  facet normal 0 0 1
    outer loop
      vertex 13.6 54.2 20
      vertex 11.6 56 20
      vertex 11.6 54.2 20
    endloop
  endfacet
  facet normal -0 0 1
    outer loop
      vertex 26.2 14.4 20
      vertex 28 11.4 20
      vertex 28 16.4 20
    endloop
  endfacet
  facet normal -0 0 1
    outer loop
      vertex 24 14.4 20
      vertex 28 11.4 20
      vertex 26.2 14.4 20
    endloop
  endfacet
  facet normal 0 0 1
    outer loop
      vertex 26.2 14.4 20
      vertex 28 16.4 20
      vertex 26.2 16.4 20
    endloop
  endfacet
  facet normal 0 0 1
    outer loop
      vertex 28 11.4 20
      vertex 25.6 3.99999 20
      vertex 28 4.6 20
    endloop
  endfacet
  facet normal 0 0 1
    outer loop
      vertex 25.6 1.79999 20
      vertex 28 4.6 20
      vertex 25.6 3.99999 20
    endloop
  endfacet
  facet normal 0 0 1
    outer loop
      vertex 28 4.6 20
      vertex 25.6 1.79999 20
      vertex 28 0 20
    endloop
  endfacet
  facet normal 0 0 1
    outer loop
      vertex 23.6 0 20
      vertex 25.6 1.79999 20
      vertex 23.6 1.79999 20
    endloop
  endfacet
  facet normal 0 0 1
    outer loop
      vertex 25.6 1.79999 20
      vertex 23.6 0 20
      vertex 28 0 20
    endloop
  endfacet
  facet normal -0 0 1
    outer loop
      vertex 28 11.4 20
      vertex 30.2 4.6 20
      vertex 30.2 11.4 20
    endloop
  endfacet
  facet normal 0 0 1
    outer loop
      vertex 30.2 4.6 20
      vertex 28 11.4 20
      vertex 28 4.6 20
    endloop
  endfacet
  facet normal 0 0 1
    outer loop
      vertex 30.2 11.4 20
      vertex 32 13.4 20
      vertex 30.2 13.4 20
    endloop
  endfacet
  facet normal 0 0 1
    outer loop
      vertex 32 13.4 20
      vertex 30.2 11.4 20
      vertex 32 2.6 20
    endloop
  endfacet
  facet normal -0 0 1
    outer loop
      vertex 30.2 4.6 20
      vertex 32 2.6 20
      vertex 30.2 11.4 20
    endloop
  endfacet
  facet normal 0 0 1
    outer loop
      vertex 32 2.6 20
      vertex 30.2 4.6 20
      vertex 30.2 2.6 20
    endloop
  endfacet
  facet normal -0 0 1
    outer loop
      vertex 14.4 1.79999 20
      vertex 16.4 0 20
      vertex 16.4 1.79999 20
    endloop
  endfacet
  facet normal 0 -0 1
    outer loop
      vertex 14.4 3.99999 20
      vertex 24 14.4 20
      vertex 3.99999 13.6 20
    endloop
  endfacet
  facet normal 0 0 1
    outer loop
      vertex 14.4 1.79999 20
      vertex 11.4 0 20
      vertex 16.4 0 20
    endloop
  endfacet
  facet normal 0 0 1
    outer loop
      vertex 24 14.4 20
      vertex 14.4 3.99999 20
      vertex 25.6 3.99999 20
    endloop
  endfacet
  facet normal 0 0 1
    outer loop
      vertex 11.4 0 20
      vertex 4.6 0 20
      vertex 11.4 -2.19999 20
    endloop
  endfacet
  facet normal 0 0 1
    outer loop
      vertex 3.99999 2.4 20
      vertex 14.4 3.99999 20
      vertex 3.99999 13.6 20
    endloop
  endfacet
  facet normal 0 0 1
    outer loop
      vertex 24 42.4 20
      vertex 3.99999 30.4 20
      vertex 24 25.6 20
    endloop
  endfacet
  facet normal -0 0 1
    outer loop
      vertex 2.4 52 20
      vertex 3.99999 41.6 20
      vertex 13.6 52 20
    endloop
  endfacet
  facet normal -0 0 1
    outer loop
      vertex 0 44.6 20
      vertex 3.99999 41.6 20
      vertex 2.4 52 20
    endloop
  endfacet
  facet normal -0 0 1
    outer loop
      vertex 0 32.4 20
      vertex 1.79999 30.4 20
      vertex 1.79999 32.4 20
    endloop
  endfacet
  facet normal 0 0 1
    outer loop
      vertex 1.79999 30.4 20
      vertex 0 23.4 20
      vertex 1.79999 13.6 20
    endloop
  endfacet
  facet normal 0 0 1
    outer loop
      vertex 1.79999 30.4 20
      vertex 0 32.4 20
      vertex 0 23.4 20
    endloop
  endfacet
  facet normal -0 0 1
    outer loop
      vertex 0 16.6 20
      vertex 1.79999 13.6 20
      vertex 0 23.4 20
    endloop
  endfacet
  facet normal 0 0 1
    outer loop
      vertex 0 11.6 20
      vertex 1.79999 13.6 20
      vertex 0 16.6 20
    endloop
  endfacet
  facet normal 0 0 1
    outer loop
      vertex 1.79999 13.6 20
      vertex 0 11.6 20
      vertex 1.79999 11.6 20
    endloop
  endfacet
  facet normal 0 0 1
    outer loop
      vertex 4.4 56 20
      vertex 2.4 54.2 20
      vertex 4.4 54.2 20
    endloop
  endfacet
  facet normal 0 0 1
    outer loop
      vertex 0 51.4 20
      vertex 2.4 52 20
      vertex 2.4 54.2 20
    endloop
  endfacet
  facet normal -0 0 1
    outer loop
      vertex 0 56 20
      vertex 2.4 54.2 20
      vertex 4.4 56 20
    endloop
  endfacet
  facet normal 0 0 1
    outer loop
      vertex 0 51.4 20
      vertex 2.4 54.2 20
      vertex 0 56 20
    endloop
  endfacet
  facet normal 0 0 1
    outer loop
      vertex 2.4 52 20
      vertex 0 51.4 20
      vertex 0 44.6 20
    endloop
  endfacet
  facet normal 0 0 1
    outer loop
      vertex 3.99999 41.6 20
      vertex 0 44.6 20
      vertex 1.79999 41.6 20
    endloop
  endfacet
  facet normal 0 0 1
    outer loop
      vertex 0 39.6 20
      vertex 1.79999 41.6 20
      vertex 0 44.6 20
    endloop
  endfacet
  facet normal 0 0 1
    outer loop
      vertex 1.79999 41.6 20
      vertex 0 39.6 20
      vertex 1.79999 39.6 20
    endloop
  endfacet
  facet normal -0 0 1
    outer loop
      vertex 1.79999 30.4 20
      vertex 3.99999 13.6 20
      vertex 3.99999 30.4 20
    endloop
  endfacet
  facet normal 0 0 1
    outer loop
      vertex 3.99999 13.6 20
      vertex 1.79999 30.4 20
      vertex 1.79999 13.6 20
    endloop
  endfacet
  facet normal -0 0 1
    outer loop
      vertex 11.4 -2.19999 20
      vertex 13.4 -3.99999 20
      vertex 13.4 -2.19999 20
    endloop
  endfacet
  facet normal 0 0 1
    outer loop
      vertex 4.6 -2.19999 20
      vertex 11.4 -2.19999 20
      vertex 4.6 0 20
    endloop
  endfacet
  facet normal 0 0 1
    outer loop
      vertex 11.4 -2.19999 20
      vertex 4.6 -2.19999 20
      vertex 13.4 -3.99999 20
    endloop
  endfacet
  facet normal 0 0 1
    outer loop
      vertex 2.6 -3.99999 20
      vertex 4.6 -2.19999 20
      vertex 2.6 -2.19999 20
    endloop
  endfacet
  facet normal 0 0 1
    outer loop
      vertex 4.6 -2.19999 20
      vertex 2.6 -3.99999 20
      vertex 13.4 -3.99999 20
    endloop
  endfacet
  facet normal 0 -0 1
    outer loop
      vertex 11.4 0 20
      vertex 14.4 3.99999 20
      vertex 3.99999 2.4 20
    endloop
  endfacet
  facet normal 0 0 1
    outer loop
      vertex 14.4 3.99999 20
      vertex 11.4 0 20
      vertex 14.4 1.79999 20
    endloop
  endfacet
  facet normal 0 0 1
    outer loop
      vertex 11.4 0 20
      vertex 3.99999 2.4 20
      vertex 4.6 0 20
    endloop
  endfacet
  facet normal -0 0 1
    outer loop
      vertex 1.79999 2.4 20
      vertex 4.6 0 20
      vertex 3.99999 2.4 20
    endloop
  endfacet
  facet normal 0 0 1
    outer loop
      vertex 1.79999 2.4 20
      vertex 0 0 20
      vertex 4.6 0 20
    endloop
  endfacet
  facet normal 0 0 1
    outer loop
      vertex 0 0 20
      vertex 1.79999 2.4 20
      vertex 0 4.4 20
    endloop
  endfacet
  facet normal -0 0 1
    outer loop
      vertex -3.99999 25.4 20
      vertex -2.19999 23.4 20
      vertex -2.19999 25.4 20
    endloop
  endfacet
  facet normal 0 0 1
    outer loop
      vertex -2.19999 23.4 20
      vertex -3.99999 25.4 20
      vertex -2.19999 16.6 20
    endloop
  endfacet
  facet normal 0 0 1
    outer loop
      vertex -3.99999 14.6 20
      vertex -2.19999 16.6 20
      vertex -3.99999 25.4 20
    endloop
  endfacet
  facet normal 0 0 1
    outer loop
      vertex -2.19999 16.6 20
      vertex -3.99999 14.6 20
      vertex -2.19999 14.6 20
    endloop
  endfacet
  facet normal -0 0 1
    outer loop
      vertex -3.99999 53.4 20
      vertex -2.19999 51.4 20
      vertex -2.19999 53.4 20
    endloop
  endfacet
  facet normal 0 0 1
    outer loop
      vertex -2.19999 51.4 20
      vertex -3.99999 53.4 20
      vertex -2.19999 44.6 20
    endloop
  endfacet
  facet normal 0 0 1
    outer loop
      vertex -3.99999 42.6 20
      vertex -2.19999 44.6 20
      vertex -3.99999 53.4 20
    endloop
  endfacet
  facet normal 0 0 1
    outer loop
      vertex -2.19999 44.6 20
      vertex -3.99999 42.6 20
      vertex -2.19999 42.6 20
    endloop
  endfacet
  facet normal -0 0 1
    outer loop
      vertex -2.19999 23.4 20
      vertex 0 16.6 20
      vertex 0 23.4 20
    endloop
  endfacet
  facet normal 0 0 1
    outer loop
      vertex 0 16.6 20
      vertex -2.19999 23.4 20
      vertex -2.19999 16.6 20
    endloop
  endfacet
  facet normal -0 0 1
    outer loop
      vertex -2.19999 51.4 20
      vertex 0 44.6 20
      vertex 0 51.4 20
    endloop
  endfacet
  facet normal 0 0 1
    outer loop
      vertex 0 44.6 20
      vertex -2.19999 51.4 20
      vertex -2.19999 44.6 20
    endloop
  endfacet
  facet normal -1 0 0
    outer loop
      vertex 23.6 0 0
      vertex 23.6 1.79999 20
      vertex 23.6 1.79999 0
    endloop
  endfacet
  facet normal -1 -0 0
    outer loop
      vertex 23.6 1.79999 20
      vertex 23.6 0 0
      vertex 23.6 0 20
    endloop
  endfacet
  facet normal 0 0 -1
    outer loop
      vertex 0 16.6 0
      vertex 3.99999 13.6 0
      vertex 1.79999 13.6 0
    endloop
  endfacet
  facet normal 0 0 -1
    outer loop
      vertex 3.99999 13.6 0
      vertex 0 23.4 0
      vertex 3.99999 30.4 0
    endloop
  endfacet
  facet normal 0 0 -1
    outer loop
      vertex 4.6 0 0
      vertex 1.79999 2.4 0
      vertex 3.99999 2.4 0
    endloop
  endfacet
  facet normal 0 0 -1
    outer loop
      vertex 0 0 0
      vertex 1.79999 2.4 0
      vertex 4.6 0 0
    endloop
  endfacet
  facet normal 0 0 -1
    outer loop
      vertex 0 4.4 0
      vertex 1.79999 2.4 0
      vertex 0 0 0
    endloop
  endfacet
  facet normal 0 0 -1
    outer loop
      vertex 1.79999 2.4 0
      vertex 0 4.4 0
      vertex 1.79999 4.4 0
    endloop
  endfacet
  facet normal 0 0 -1
    outer loop
      vertex 13.4 -3.99999 0
      vertex 11.4 -2.19999 0
      vertex 13.4 -2.19999 0
    endloop
  endfacet
  facet normal 0 0 -1
    outer loop
      vertex 11.4 -2.19999 0
      vertex 4.6 -2.19999 0
      vertex 11.4 0 0
    endloop
  endfacet
  facet normal 0 0 -1
    outer loop
      vertex 13.4 -3.99999 0
      vertex 4.6 -2.19999 0
      vertex 11.4 -2.19999 0
    endloop
  endfacet
  facet normal 0 0 -1
    outer loop
      vertex 2.6 -3.99999 0
      vertex 4.6 -2.19999 0
      vertex 13.4 -3.99999 0
    endloop
  endfacet
  facet normal -0 0 -1
    outer loop
      vertex 4.6 -2.19999 0
      vertex 2.6 -3.99999 0
      vertex 2.6 -2.19999 0
    endloop
  endfacet
  facet normal 0 0 -1
    outer loop
      vertex 25.6 1.79999 0
      vertex 28 4.6 0
      vertex 28 0 0
    endloop
  endfacet
  facet normal -0 0 -1
    outer loop
      vertex 28 4.6 0
      vertex 25.6 3.99999 0
      vertex 28 11.4 0
    endloop
  endfacet
  facet normal 0 0 -1
    outer loop
      vertex 24 14.4 0
      vertex 28 11.4 0
      vertex 25.6 3.99999 0
    endloop
  endfacet
  facet normal 0 0 -1
    outer loop
      vertex 28 4.6 0
      vertex 25.6 1.79999 0
      vertex 25.6 3.99999 0
    endloop
  endfacet
  facet normal 0 0 -1
    outer loop
      vertex 23.6 0 0
      vertex 25.6 1.79999 0
      vertex 28 0 0
    endloop
  endfacet
  facet normal -0 0 -1
    outer loop
      vertex 25.6 1.79999 0
      vertex 23.6 0 0
      vertex 23.6 1.79999 0
    endloop
  endfacet
  facet normal 0 0 -1
    outer loop
      vertex 28 4.6 0
      vertex 30.2 11.4 0
      vertex 30.2 4.6 0
    endloop
  endfacet
  facet normal -0 0 -1
    outer loop
      vertex 30.2 11.4 0
      vertex 28 4.6 0
      vertex 28 11.4 0
    endloop
  endfacet
  facet normal 0 0 -1
    outer loop
      vertex 30.2 4.6 0
      vertex 32 2.6 0
      vertex 30.2 2.6 0
    endloop
  endfacet
  facet normal 0 0 -1
    outer loop
      vertex 32 2.6 0
      vertex 30.2 4.6 0
      vertex 32 13.4 0
    endloop
  endfacet
  facet normal 0 0 -1
    outer loop
      vertex 30.2 11.4 0
      vertex 32 13.4 0
      vertex 30.2 4.6 0
    endloop
  endfacet
  facet normal -0 0 -1
    outer loop
      vertex 32 13.4 0
      vertex 30.2 11.4 0
      vertex 30.2 13.4 0
    endloop
  endfacet
  facet normal -0 0 -1
    outer loop
      vertex 28 16.4 0
      vertex 26.2 14.4 0
      vertex 26.2 16.4 0
    endloop
  endfacet
  facet normal 0 0 -1
    outer loop
      vertex 28 11.4 0
      vertex 26.2 14.4 0
      vertex 28 16.4 0
    endloop
  endfacet
  facet normal 0 0 -1
    outer loop
      vertex 28 11.4 0
      vertex 24 14.4 0
      vertex 26.2 14.4 0
    endloop
  endfacet
  facet normal 0 0 -1
    outer loop
      vertex 3.99999 13.6 0
      vertex 24 25.6 0
      vertex 24 14.4 0
    endloop
  endfacet
  facet normal 0 0 -1
    outer loop
      vertex 24 25.6 0
      vertex 3.99999 30.4 0
      vertex 24 42.4 0
    endloop
  endfacet
  facet normal 0 0 -1
    outer loop
      vertex 3.99999 41.6 0
      vertex 24 42.4 0
      vertex 3.99999 30.4 0
    endloop
  endfacet
  facet normal 0 0 -1
    outer loop
      vertex 23.4 56 0
      vertex 16.6 56 0
      vertex 23.4 58.2 0
    endloop
  endfacet
  facet normal 0 -0 -1
    outer loop
      vertex 16.6 56 0
      vertex 24 53.6 0
      vertex 13.6 52 0
    endloop
  endfacet
  facet normal 0 0 -1
    outer loop
      vertex 14.4 3.99999 0
      vertex 24 14.4 0
      vertex 25.6 3.99999 0
    endloop
  endfacet
  facet normal 0 0 -1
    outer loop
      vertex 24 14.4 0
      vertex 14.4 3.99999 0
      vertex 3.99999 13.6 0
    endloop
  endfacet
  facet normal 0 0 -1
    outer loop
      vertex 24 53.6 0
      vertex 16.6 56 0
      vertex 23.4 56 0
    endloop
  endfacet
  facet normal 0 0 -1
    outer loop
      vertex 13.6 54.2 0
      vertex 16.6 56 0
      vertex 13.6 52 0
    endloop
  endfacet
  facet normal 0 0 -1
    outer loop
      vertex 11.6 56 0
      vertex 13.6 54.2 0
      vertex 11.6 54.2 0
    endloop
  endfacet
  facet normal 0 0 -1
    outer loop
      vertex 13.6 54.2 0
      vertex 11.6 56 0
      vertex 16.6 56 0
    endloop
  endfacet
  facet normal 0 0 -1
    outer loop
      vertex 24 42.4 0
      vertex 28 32.6 0
      vertex 24 25.6 0
    endloop
  endfacet
  facet normal 0 0 -1
    outer loop
      vertex 28 32.6 0
      vertex 24 42.4 0
      vertex 26.2 42.4 0
    endloop
  endfacet
  facet normal 0 0 -1
    outer loop
      vertex 26.2 25.6 0
      vertex 28 32.6 0
      vertex 28 23.6 0
    endloop
  endfacet
  facet normal 0 0 -1
    outer loop
      vertex 24 25.6 0
      vertex 28 32.6 0
      vertex 26.2 25.6 0
    endloop
  endfacet
  facet normal 0 0 -1
    outer loop
      vertex 26.2 25.6 0
      vertex 28 23.6 0
      vertex 26.2 23.6 0
    endloop
  endfacet
  facet normal 0 0 -1
    outer loop
      vertex 28 32.6 0
      vertex 26.2 42.4 0
      vertex 28 39.4 0
    endloop
  endfacet
  facet normal 0 0 -1
    outer loop
      vertex 28 39.4 0
      vertex 26.2 42.4 0
      vertex 28 44.4 0
    endloop
  endfacet
  facet normal -0 0 -1
    outer loop
      vertex 28 44.4 0
      vertex 26.2 42.4 0
      vertex 26.2 44.4 0
    endloop
  endfacet
  facet normal 0 0 -1
    outer loop
      vertex 28 32.6 0
      vertex 30.2 39.4 0
      vertex 30.2 32.6 0
    endloop
  endfacet
  facet normal -0 0 -1
    outer loop
      vertex 30.2 39.4 0
      vertex 28 32.6 0
      vertex 28 39.4 0
    endloop
  endfacet
  facet normal 0 0 -1
    outer loop
      vertex 30.2 32.6 0
      vertex 32 30.6 0
      vertex 30.2 30.6 0
    endloop
  endfacet
  facet normal 0 0 -1
    outer loop
      vertex 32 30.6 0
      vertex 30.2 32.6 0
      vertex 32 41.4 0
    endloop
  endfacet
  facet normal 0 0 -1
    outer loop
      vertex 30.2 39.4 0
      vertex 32 41.4 0
      vertex 30.2 32.6 0
    endloop
  endfacet
  facet normal -0 0 -1
    outer loop
      vertex 32 41.4 0
      vertex 30.2 39.4 0
      vertex 30.2 41.4 0
    endloop
  endfacet
  facet normal 0 0 -1
    outer loop
      vertex 26.2 53.6 0
      vertex 28 51.6 0
      vertex 26.2 51.6 0
    endloop
  endfacet
  facet normal 0 0 -1
    outer loop
      vertex 28 51.6 0
      vertex 26.2 53.6 0
      vertex 28 56 0
    endloop
  endfacet
  facet normal 0 0 -1
    outer loop
      vertex 23.4 56 0
      vertex 26.2 53.6 0
      vertex 24 53.6 0
    endloop
  endfacet
  facet normal 0 0 -1
    outer loop
      vertex 26.2 53.6 0
      vertex 23.4 56 0
      vertex 28 56 0
    endloop
  endfacet
  facet normal 0 0 -1
    outer loop
      vertex 23.4 58.2 0
      vertex 25.4 60 0
      vertex 25.4 58.2 0
    endloop
  endfacet
  facet normal 0 0 -1
    outer loop
      vertex 16.6 58.2 0
      vertex 23.4 58.2 0
      vertex 16.6 56 0
    endloop
  endfacet
  facet normal 0 0 -1
    outer loop
      vertex 23.4 58.2 0
      vertex 16.6 58.2 0
      vertex 25.4 60 0
    endloop
  endfacet
  facet normal 0 0 -1
    outer loop
      vertex 14.6 60 0
      vertex 16.6 58.2 0
      vertex 14.6 58.2 0
    endloop
  endfacet
  facet normal 0 0 -1
    outer loop
      vertex 16.6 58.2 0
      vertex 14.6 60 0
      vertex 25.4 60 0
    endloop
  endfacet
  facet normal 0 0 -1
    outer loop
      vertex 16.4 0 0
      vertex 14.4 1.79999 0
      vertex 16.4 1.79999 0
    endloop
  endfacet
  facet normal 0 0 -1
    outer loop
      vertex 11.4 0 0
      vertex 14.4 3.99999 0
      vertex 14.4 1.79999 0
    endloop
  endfacet
  facet normal 0 0 -1
    outer loop
      vertex 11.4 0 0
      vertex 14.4 1.79999 0
      vertex 16.4 0 0
    endloop
  endfacet
  facet normal 0 0 -1
    outer loop
      vertex 14.4 3.99999 0
      vertex 11.4 0 0
      vertex 3.99999 2.4 0
    endloop
  endfacet
  facet normal 0 0 -1
    outer loop
      vertex 4.6 0 0
      vertex 11.4 0 0
      vertex 4.6 -2.19999 0
    endloop
  endfacet
  facet normal 0 0 -1
    outer loop
      vertex 3.99999 2.4 0
      vertex 11.4 0 0
      vertex 4.6 0 0
    endloop
  endfacet
  facet normal -0 0 -1
    outer loop
      vertex 14.4 3.99999 0
      vertex 3.99999 2.4 0
      vertex 3.99999 13.6 0
    endloop
  endfacet
  facet normal -0 0 -1
    outer loop
      vertex 24 25.6 0
      vertex 3.99999 13.6 0
      vertex 3.99999 30.4 0
    endloop
  endfacet
  facet normal 0 0 -1
    outer loop
      vertex 24 42.4 0
      vertex 13.6 52 0
      vertex 24 53.6 0
    endloop
  endfacet
  facet normal -0 0 -1
    outer loop
      vertex 24 42.4 0
      vertex 3.99999 41.6 0
      vertex 13.6 52 0
    endloop
  endfacet
  facet normal 0 0 -1
    outer loop
      vertex 3.99999 41.6 0
      vertex 2.4 52 0
      vertex 13.6 52 0
    endloop
  endfacet
  facet normal 0 0 -1
    outer loop
      vertex 3.99999 41.6 0
      vertex 0 44.6 0
      vertex 2.4 52 0
    endloop
  endfacet
  facet normal 0 0 -1
    outer loop
      vertex 0 44.6 0
      vertex 3.99999 41.6 0
      vertex 1.79999 41.6 0
    endloop
  endfacet
  facet normal 0 0 -1
    outer loop
      vertex 2.4 54.2 0
      vertex 4.4 56 0
      vertex 4.4 54.2 0
    endloop
  endfacet
  facet normal 0 0 -1
    outer loop
      vertex 0 44.6 0
      vertex 1.79999 41.6 0
      vertex 0 39.6 0
    endloop
  endfacet
  facet normal 0 0 -1
    outer loop
      vertex 0 51.4 0
      vertex 2.4 52 0
      vertex 0 44.6 0
    endloop
  endfacet
  facet normal -0 0 -1
    outer loop
      vertex 2.4 52 0
      vertex 0 51.4 0
      vertex 2.4 54.2 0
    endloop
  endfacet
  facet normal 0 0 -1
    outer loop
      vertex 2.4 54.2 0
      vertex 0 56 0
      vertex 4.4 56 0
    endloop
  endfacet
  facet normal 0 0 -1
    outer loop
      vertex 0 56 0
      vertex 2.4 54.2 0
      vertex 0 51.4 0
    endloop
  endfacet
  facet normal 0 0 -1
    outer loop
      vertex 1.79999 39.6 0
      vertex 0 39.6 0
      vertex 1.79999 41.6 0
    endloop
  endfacet
  facet normal 0 0 -1
    outer loop
      vertex 0 11.6 0
      vertex 1.79999 13.6 0
      vertex 1.79999 11.6 0
    endloop
  endfacet
  facet normal -0 0 -1
    outer loop
      vertex 3.99999 30.4 0
      vertex 0 23.4 0
      vertex 1.79999 30.4 0
    endloop
  endfacet
  facet normal -0 0 -1
    outer loop
      vertex 1.79999 13.6 0
      vertex 0 11.6 0
      vertex 0 16.6 0
    endloop
  endfacet
  facet normal 0 0 -1
    outer loop
      vertex 3.99999 13.6 0
      vertex 0 16.6 0
      vertex 0 23.4 0
    endloop
  endfacet
  facet normal 0 0 -1
    outer loop
      vertex 0 32.4 0
      vertex 1.79999 30.4 0
      vertex 0 23.4 0
    endloop
  endfacet
  facet normal 0 0 -1
    outer loop
      vertex 1.79999 30.4 0
      vertex 0 32.4 0
      vertex 1.79999 32.4 0
    endloop
  endfacet
  facet normal 0 0 -1
    outer loop
      vertex -3.99999 42.6 0
      vertex -2.19999 44.6 0
      vertex -2.19999 42.6 0
    endloop
  endfacet
  facet normal -0 0 -1
    outer loop
      vertex -2.19999 44.6 0
      vertex -3.99999 42.6 0
      vertex -2.19999 51.4 0
    endloop
  endfacet
  facet normal 0 0 -1
    outer loop
      vertex -3.99999 53.4 0
      vertex -2.19999 51.4 0
      vertex -3.99999 42.6 0
    endloop
  endfacet
  facet normal 0 0 -1
    outer loop
      vertex -2.19999 51.4 0
      vertex -3.99999 53.4 0
      vertex -2.19999 53.4 0
    endloop
  endfacet
  facet normal 0 0 -1
    outer loop
      vertex -3.99999 14.6 0
      vertex -2.19999 16.6 0
      vertex -2.19999 14.6 0
    endloop
  endfacet
  facet normal -0 0 -1
    outer loop
      vertex -2.19999 16.6 0
      vertex -3.99999 14.6 0
      vertex -2.19999 23.4 0
    endloop
  endfacet
  facet normal 0 0 -1
    outer loop
      vertex -3.99999 25.4 0
      vertex -2.19999 23.4 0
      vertex -3.99999 14.6 0
    endloop
  endfacet
  facet normal 0 0 -1
    outer loop
      vertex -2.19999 23.4 0
      vertex -3.99999 25.4 0
      vertex -2.19999 25.4 0
    endloop
  endfacet
  facet normal 0 0 -1
    outer loop
      vertex -2.19999 44.6 0
      vertex 0 51.4 0
      vertex 0 44.6 0
    endloop
  endfacet
  facet normal -0 0 -1
    outer loop
      vertex 0 51.4 0
      vertex -2.19999 44.6 0
      vertex -2.19999 51.4 0
    endloop
  endfacet
  facet normal 0 0 -1
    outer loop
      vertex -2.19999 16.6 0
      vertex 0 23.4 0
      vertex 0 16.6 0
    endloop
  endfacet
  facet normal -0 0 -1
    outer loop
      vertex 0 23.4 0
      vertex -2.19999 16.6 0
      vertex -2.19999 23.4 0
    endloop
  endfacet
  facet normal 0 1 -0
    outer loop
      vertex 16.4 1.79999 0
      vertex 14.4 1.79999 20
      vertex 16.4 1.79999 20
    endloop
  endfacet
  facet normal 0 1 0
    outer loop
      vertex 14.4 1.79999 20
      vertex 16.4 1.79999 0
      vertex 14.4 1.79999 0
    endloop
  endfacet
  facet normal 0 1 -0
    outer loop
      vertex 25.6 1.79999 0
      vertex 23.6 1.79999 20
      vertex 25.6 1.79999 20
    endloop
  endfacet
  facet normal 0 1 0
    outer loop
      vertex 23.6 1.79999 20
      vertex 25.6 1.79999 0
      vertex 23.6 1.79999 0
    endloop
  endfacet
  facet normal 1 -0 0
    outer loop
      vertex 14.4 1.79999 20
      vertex 14.4 3.99999 0
      vertex 14.4 3.99999 20
    endloop
  endfacet
  facet normal 1 0 0
    outer loop
      vertex 14.4 3.99999 0
      vertex 14.4 1.79999 20
      vertex 14.4 1.79999 0
    endloop
  endfacet
  facet normal -1 0 0
    outer loop
      vertex 25.6 1.79999 0
      vertex 25.6 3.99999 20
      vertex 25.6 3.99999 0
    endloop
  endfacet
  facet normal -1 -0 0
    outer loop
      vertex 25.6 3.99999 20
      vertex 25.6 1.79999 0
      vertex 25.6 1.79999 20
    endloop
  endfacet
  facet normal 0 -1 0
    outer loop
      vertex 14.4 3.99999 0
      vertex 25.6 3.99999 20
      vertex 14.4 3.99999 20
    endloop
  endfacet
  facet normal 0 -1 -0
    outer loop
      vertex 25.6 3.99999 20
      vertex 14.4 3.99999 0
      vertex 25.6 3.99999 0
    endloop
  endfacet
  facet normal 0 1 -0
    outer loop
      vertex 28 16.4 0
      vertex 26.2 16.4 20
      vertex 28 16.4 20
    endloop
  endfacet
  facet normal 0 1 0
    outer loop
      vertex 26.2 16.4 20
      vertex 28 16.4 0
      vertex 26.2 16.4 0
    endloop
  endfacet
  facet normal 0 -1 0
    outer loop
      vertex 26.2 23.6 0
      vertex 28 23.6 20
      vertex 26.2 23.6 20
    endloop
  endfacet
  facet normal 0 -1 -0
    outer loop
      vertex 28 23.6 20
      vertex 26.2 23.6 0
      vertex 28 23.6 0
    endloop
  endfacet
  facet normal -1 0 0
    outer loop
      vertex 26.2 14.4 0
      vertex 26.2 16.4 20
      vertex 26.2 16.4 0
    endloop
  endfacet
  facet normal -1 -0 0
    outer loop
      vertex 26.2 16.4 20
      vertex 26.2 14.4 0
      vertex 26.2 14.4 20
    endloop
  endfacet
  facet normal -1 0 0
    outer loop
      vertex 26.2 23.6 0
      vertex 26.2 25.6 20
      vertex 26.2 25.6 0
    endloop
  endfacet
  facet normal -1 -0 0
    outer loop
      vertex 26.2 25.6 20
      vertex 26.2 23.6 0
      vertex 26.2 23.6 20
    endloop
  endfacet
  facet normal 0 1 -0
    outer loop
      vertex 26.2 14.4 0
      vertex 24 14.4 20
      vertex 26.2 14.4 20
    endloop
  endfacet
  facet normal 0 1 0
    outer loop
      vertex 24 14.4 20
      vertex 26.2 14.4 0
      vertex 24 14.4 0
    endloop
  endfacet
  facet normal 0 -1 0
    outer loop
      vertex 24 25.6 0
      vertex 26.2 25.6 20
      vertex 24 25.6 20
    endloop
  endfacet
  facet normal 0 -1 -0
    outer loop
      vertex 26.2 25.6 20
      vertex 24 25.6 0
      vertex 26.2 25.6 0
    endloop
  endfacet
  facet normal 1 -0 0
    outer loop
      vertex 24 14.4 20
      vertex 24 25.6 0
      vertex 24 25.6 20
    endloop
  endfacet
  facet normal 1 0 0
    outer loop
      vertex 24 25.6 0
      vertex 24 14.4 20
      vertex 24 14.4 0
    endloop
  endfacet
  facet normal 0 1 -0
    outer loop
      vertex 28 44.4 0
      vertex 26.2 44.4 20
      vertex 28 44.4 20
    endloop
  endfacet
  facet normal 0 1 0
    outer loop
      vertex 26.2 44.4 20
      vertex 28 44.4 0
      vertex 26.2 44.4 0
    endloop
  endfacet
  facet normal 0 -1 0
    outer loop
      vertex 26.2 51.6 0
      vertex 28 51.6 20
      vertex 26.2 51.6 20
    endloop
  endfacet
  facet normal 0 -1 -0
    outer loop
      vertex 28 51.6 20
      vertex 26.2 51.6 0
      vertex 28 51.6 0
    endloop
  endfacet
  facet normal -1 0 0
    outer loop
      vertex 26.2 42.4 0
      vertex 26.2 44.4 20
      vertex 26.2 44.4 0
    endloop
  endfacet
  facet normal -1 -0 0
    outer loop
      vertex 26.2 44.4 20
      vertex 26.2 42.4 0
      vertex 26.2 42.4 20
    endloop
  endfacet
  facet normal -1 0 0
    outer loop
      vertex 26.2 51.6 0
      vertex 26.2 53.6 20
      vertex 26.2 53.6 0
    endloop
  endfacet
  facet normal -1 -0 0
    outer loop
      vertex 26.2 53.6 20
      vertex 26.2 51.6 0
      vertex 26.2 51.6 20
    endloop
  endfacet
  facet normal 0 1 -0
    outer loop
      vertex 26.2 42.4 0
      vertex 24 42.4 20
      vertex 26.2 42.4 20
    endloop
  endfacet
  facet normal 0 1 0
    outer loop
      vertex 24 42.4 20
      vertex 26.2 42.4 0
      vertex 24 42.4 0
    endloop
  endfacet
  facet normal 0 -1 0
    outer loop
      vertex 24 53.6 0
      vertex 26.2 53.6 20
      vertex 24 53.6 20
    endloop
  endfacet
  facet normal 0 -1 -0
    outer loop
      vertex 26.2 53.6 20
      vertex 24 53.6 0
      vertex 26.2 53.6 0
    endloop
  endfacet
  facet normal 1 -0 0
    outer loop
      vertex 24 42.4 20
      vertex 24 53.6 0
      vertex 24 53.6 20
    endloop
  endfacet
  facet normal 1 0 0
    outer loop
      vertex 24 53.6 0
      vertex 24 42.4 20
      vertex 24 42.4 0
    endloop
  endfacet
  facet normal -1 0 0
    outer loop
      vertex 11.6 54.2 0
      vertex 11.6 56 20
      vertex 11.6 56 0
    endloop
  endfacet
  facet normal -1 -0 0
    outer loop
      vertex 11.6 56 20
      vertex 11.6 54.2 0
      vertex 11.6 54.2 20
    endloop
  endfacet
  facet normal 1 -0 0
    outer loop
      vertex 4.4 54.2 20
      vertex 4.4 56 0
      vertex 4.4 56 20
    endloop
  endfacet
  facet normal 1 0 0
    outer loop
      vertex 4.4 56 0
      vertex 4.4 54.2 20
      vertex 4.4 54.2 0
    endloop
  endfacet
  facet normal 0 -1 0
    outer loop
      vertex 11.6 54.2 0
      vertex 13.6 54.2 20
      vertex 11.6 54.2 20
    endloop
  endfacet
  facet normal 0 -1 -0
    outer loop
      vertex 13.6 54.2 20
      vertex 11.6 54.2 0
      vertex 13.6 54.2 0
    endloop
  endfacet
  facet normal 0 -1 0
    outer loop
      vertex 2.4 54.2 0
      vertex 4.4 54.2 20
      vertex 2.4 54.2 20
    endloop
  endfacet
  facet normal 0 -1 -0
    outer loop
      vertex 4.4 54.2 20
      vertex 2.4 54.2 0
      vertex 4.4 54.2 0
    endloop
  endfacet
  facet normal -1 0 0
    outer loop
      vertex 13.6 52 0
      vertex 13.6 54.2 20
      vertex 13.6 54.2 0
    endloop
  endfacet
  facet normal -1 -0 0
    outer loop
      vertex 13.6 54.2 20
      vertex 13.6 52 0
      vertex 13.6 52 20
    endloop
  endfacet
  facet normal 1 -0 0
    outer loop
      vertex 2.4 52 20
      vertex 2.4 54.2 0
      vertex 2.4 54.2 20
    endloop
  endfacet
  facet normal 1 0 0
    outer loop
      vertex 2.4 54.2 0
      vertex 2.4 52 20
      vertex 2.4 52 0
    endloop
  endfacet
  facet normal 0 1 -0
    outer loop
      vertex 13.6 52 0
      vertex 2.4 52 20
      vertex 13.6 52 20
    endloop
  endfacet
  facet normal 0 1 0
    outer loop
      vertex 2.4 52 20
      vertex 13.6 52 0
      vertex 2.4 52 0
    endloop
  endfacet
  facet normal 0 -1 0
    outer loop
      vertex 0 39.6 0
      vertex 1.79999 39.6 20
      vertex 0 39.6 20
    endloop
  endfacet
  facet normal 0 -1 -0
    outer loop
      vertex 1.79999 39.6 20
      vertex 0 39.6 0
      vertex 1.79999 39.6 0
    endloop
  endfacet
  facet normal 0 1 -0
    outer loop
      vertex 1.79999 32.4 0
      vertex 0 32.4 20
      vertex 1.79999 32.4 20
    endloop
  endfacet
  facet normal 0 1 0
    outer loop
      vertex 0 32.4 20
      vertex 1.79999 32.4 0
      vertex 0 32.4 0
    endloop
  endfacet
  facet normal 1 -0 0
    outer loop
      vertex 1.79999 39.6 20
      vertex 1.79999 41.6 0
      vertex 1.79999 41.6 20
    endloop
  endfacet
  facet normal 1 0 0
    outer loop
      vertex 1.79999 41.6 0
      vertex 1.79999 39.6 20
      vertex 1.79999 39.6 0
    endloop
  endfacet
  facet normal 1 -0 0
    outer loop
      vertex 1.79999 30.4 20
      vertex 1.79999 32.4 0
      vertex 1.79999 32.4 20
    endloop
  endfacet
  facet normal 1 0 0
    outer loop
      vertex 1.79999 32.4 0
      vertex 1.79999 30.4 20
      vertex 1.79999 30.4 0
    endloop
  endfacet
  facet normal 0 -1 0
    outer loop
      vertex 1.79999 41.6 0
      vertex 3.99999 41.6 20
      vertex 1.79999 41.6 20
    endloop
  endfacet
  facet normal 0 -1 -0
    outer loop
      vertex 3.99999 41.6 20
      vertex 1.79999 41.6 0
      vertex 3.99999 41.6 0
    endloop
  endfacet
  facet normal 0 1 -0
    outer loop
      vertex 3.99999 30.4 0
      vertex 1.79999 30.4 20
      vertex 3.99999 30.4 20
    endloop
  endfacet
  facet normal 0 1 0
    outer loop
      vertex 1.79999 30.4 20
      vertex 3.99999 30.4 0
      vertex 1.79999 30.4 0
    endloop
  endfacet
  facet normal -1 0 0
    outer loop
      vertex 3.99999 30.4 0
      vertex 3.99999 41.6 20
      vertex 3.99999 41.6 0
    endloop
  endfacet
  facet normal -1 -0 0
    outer loop
      vertex 3.99999 41.6 20
      vertex 3.99999 30.4 0
      vertex 3.99999 30.4 20
    endloop
  endfacet
  facet normal 0 -1 0
    outer loop
      vertex 0 11.6 0
      vertex 1.79999 11.6 20
      vertex 0 11.6 20
    endloop
  endfacet
  facet normal 0 -1 -0
    outer loop
      vertex 1.79999 11.6 20
      vertex 0 11.6 0
      vertex 1.79999 11.6 0
    endloop
  endfacet
  facet normal 0 1 -0
    outer loop
      vertex 1.79999 4.4 0
      vertex 0 4.4 20
      vertex 1.79999 4.4 20
    endloop
  endfacet
  facet normal 0 1 0
    outer loop
      vertex 0 4.4 20
      vertex 1.79999 4.4 0
      vertex 0 4.4 0
    endloop
  endfacet
  facet normal 1 -0 0
    outer loop
      vertex 1.79999 11.6 20
      vertex 1.79999 13.6 0
      vertex 1.79999 13.6 20
    endloop
  endfacet
  facet normal 1 0 0
    outer loop
      vertex 1.79999 13.6 0
      vertex 1.79999 11.6 20
      vertex 1.79999 11.6 0
    endloop
  endfacet
  facet normal 1 -0 0
    outer loop
      vertex 1.79999 2.4 20
      vertex 1.79999 4.4 0
      vertex 1.79999 4.4 20
    endloop
  endfacet
  facet normal 1 0 0
    outer loop
      vertex 1.79999 4.4 0
      vertex 1.79999 2.4 20
      vertex 1.79999 2.4 0
    endloop
  endfacet
  facet normal 0 -1 0
    outer loop
      vertex 1.79999 13.6 0
      vertex 3.99999 13.6 20
      vertex 1.79999 13.6 20
    endloop
  endfacet
  facet normal 0 -1 -0
    outer loop
      vertex 3.99999 13.6 20
      vertex 1.79999 13.6 0
      vertex 3.99999 13.6 0
    endloop
  endfacet
  facet normal 0 1 -0
    outer loop
      vertex 3.99999 2.4 0
      vertex 1.79999 2.4 20
      vertex 3.99999 2.4 20
    endloop
  endfacet
  facet normal 0 1 0
    outer loop
      vertex 1.79999 2.4 20
      vertex 3.99999 2.4 0
      vertex 1.79999 2.4 0
    endloop
  endfacet
  facet normal -1 0 0
    outer loop
      vertex 3.99999 2.4 0
      vertex 3.99999 13.6 20
      vertex 3.99999 13.6 0
    endloop
  endfacet
  facet normal -1 -0 0
    outer loop
      vertex 3.99999 13.6 20
      vertex 3.99999 2.4 0
      vertex 3.99999 2.4 20
    endloop
  endfacet
  facet normal -1 0 0
    outer loop
      vertex 0 0 0
      vertex 0 4.4 20
      vertex 0 4.4 0
    endloop
  endfacet
  facet normal -1 -0 0
    outer loop
      vertex 0 4.4 20
      vertex 0 0 0
      vertex 0 0 20
    endloop
  endfacet
  facet normal -1 0 0
    outer loop
      vertex 0 51.4 0
      vertex 0 56 20
      vertex 0 56 0
    endloop
  endfacet
  facet normal -1 -0 0
    outer loop
      vertex 0 56 20
      vertex 0 51.4 0
      vertex 0 51.4 20
    endloop
  endfacet
  facet normal -1 0 0
    outer loop
      vertex 0 11.6 0
      vertex 0 16.6 20
      vertex 0 16.6 0
    endloop
  endfacet
  facet normal -1 -0 0
    outer loop
      vertex 0 16.6 20
      vertex 0 11.6 0
      vertex 0 11.6 20
    endloop
  endfacet
  facet normal -1 0 0
    outer loop
      vertex 0 23.4 0
      vertex 0 32.4 20
      vertex 0 32.4 0
    endloop
  endfacet
  facet normal -1 -0 0
    outer loop
      vertex 0 32.4 20
      vertex 0 23.4 0
      vertex 0 23.4 20
    endloop
  endfacet
  facet normal -1 0 0
    outer loop
      vertex 0 39.6 0
      vertex 0 44.6 20
      vertex 0 44.6 0
    endloop
  endfacet
  facet normal -1 -0 0
    outer loop
      vertex 0 44.6 20
      vertex 0 39.6 0
      vertex 0 39.6 20
    endloop
  endfacet
  facet normal 1 -0 0
    outer loop
      vertex 28 0 20
      vertex 28 4.6 0
      vertex 28 4.6 20
    endloop
  endfacet
  facet normal 1 0 0
    outer loop
      vertex 28 4.6 0
      vertex 28 0 20
      vertex 28 0 0
    endloop
  endfacet
  facet normal 1 -0 0
    outer loop
      vertex 28 51.6 20
      vertex 28 56 0
      vertex 28 56 20
    endloop
  endfacet
  facet normal 1 0 0
    outer loop
      vertex 28 56 0
      vertex 28 51.6 20
      vertex 28 51.6 0
    endloop
  endfacet
  facet normal 1 -0 0
    outer loop
      vertex 28 11.4 20
      vertex 28 16.4 0
      vertex 28 16.4 20
    endloop
  endfacet
  facet normal 1 0 0
    outer loop
      vertex 28 16.4 0
      vertex 28 11.4 20
      vertex 28 11.4 0
    endloop
  endfacet
  facet normal 1 -0 0
    outer loop
      vertex 28 23.6 20
      vertex 28 32.6 0
      vertex 28 32.6 20
    endloop
  endfacet
  facet normal 1 0 0
    outer loop
      vertex 28 32.6 0
      vertex 28 23.6 20
      vertex 28 23.6 0
    endloop
  endfacet
  facet normal 1 -0 0
    outer loop
      vertex 28 39.4 20
      vertex 28 44.4 0
      vertex 28 44.4 20
    endloop
  endfacet
  facet normal 1 0 0
    outer loop
      vertex 28 44.4 0
      vertex 28 39.4 20
      vertex 28 39.4 0
    endloop
  endfacet
  facet normal 0 -1 0
    outer loop
      vertex 0 0 0
      vertex 4.6 0 20
      vertex 0 0 20
    endloop
  endfacet
  facet normal 0 -1 -0
    outer loop
      vertex 4.6 0 20
      vertex 0 0 0
      vertex 4.6 0 0
    endloop
  endfacet
  facet normal 0 -1 0
    outer loop
      vertex 23.6 0 0
      vertex 28 0 20
      vertex 23.6 0 20
    endloop
  endfacet
  facet normal 0 -1 -0
    outer loop
      vertex 28 0 20
      vertex 23.6 0 0
      vertex 28 0 0
    endloop
  endfacet
  facet normal 0 -1 0
    outer loop
      vertex 11.4 0 0
      vertex 16.4 0 20
      vertex 11.4 0 20
    endloop
  endfacet
  facet normal 0 -1 -0
    outer loop
      vertex 16.4 0 20
      vertex 11.4 0 0
      vertex 16.4 0 0
    endloop
  endfacet
  facet normal 0 1 -0
    outer loop
      vertex 28 56 0
      vertex 23.4 56 20
      vertex 28 56 20
    endloop
  endfacet
  facet normal 0 1 0
    outer loop
      vertex 23.4 56 20
      vertex 28 56 0
      vertex 23.4 56 0
    endloop
  endfacet
  facet normal 0 1 -0
    outer loop
      vertex 4.4 56 0
      vertex 0 56 20
      vertex 4.4 56 20
    endloop
  endfacet
  facet normal 0 1 0
    outer loop
      vertex 0 56 20
      vertex 4.4 56 0
      vertex 0 56 0
    endloop
  endfacet
  facet normal 0 1 -0
    outer loop
      vertex 16.6 56 0
      vertex 11.6 56 20
      vertex 16.6 56 20
    endloop
  endfacet
  facet normal 0 1 0
    outer loop
      vertex 11.6 56 20
      vertex 16.6 56 0
      vertex 11.6 56 0
    endloop
  endfacet
  facet normal -1 0 0
    outer loop
      vertex 2.6 -3.99999 0
      vertex 2.6 -2.19999 20
      vertex 2.6 -2.19999 0
    endloop
  endfacet
  facet normal -1 -0 0
    outer loop
      vertex 2.6 -2.19999 20
      vertex 2.6 -3.99999 0
      vertex 2.6 -3.99999 20
    endloop
  endfacet
  facet normal 1 -0 0
    outer loop
      vertex 13.4 -3.99999 20
      vertex 13.4 -2.19999 0
      vertex 13.4 -2.19999 20
    endloop
  endfacet
  facet normal 1 0 0
    outer loop
      vertex 13.4 -2.19999 0
      vertex 13.4 -3.99999 20
      vertex 13.4 -3.99999 0
    endloop
  endfacet
  facet normal 0 -1 0
    outer loop
      vertex 2.6 -3.99999 0
      vertex 13.4 -3.99999 20
      vertex 2.6 -3.99999 20
    endloop
  endfacet
  facet normal 0 -1 -0
    outer loop
      vertex 13.4 -3.99999 20
      vertex 2.6 -3.99999 0
      vertex 13.4 -3.99999 0
    endloop
  endfacet
  facet normal 0 1 -0
    outer loop
      vertex 4.6 -2.19999 0
      vertex 2.6 -2.19999 20
      vertex 4.6 -2.19999 20
    endloop
  endfacet
  facet normal 0 1 0
    outer loop
      vertex 2.6 -2.19999 20
      vertex 4.6 -2.19999 0
      vertex 2.6 -2.19999 0
    endloop
  endfacet
  facet normal 0 1 -0
    outer loop
      vertex 13.4 -2.19999 0
      vertex 11.4 -2.19999 20
      vertex 13.4 -2.19999 20
    endloop
  endfacet
  facet normal 0 1 0
    outer loop
      vertex 11.4 -2.19999 20
      vertex 13.4 -2.19999 0
      vertex 11.4 -2.19999 0
    endloop
  endfacet
  facet normal -1 0 0
    outer loop
      vertex 4.6 -2.19999 0
      vertex 4.6 0 20
      vertex 4.6 0 0
    endloop
  endfacet
  facet normal -1 -0 0
    outer loop
      vertex 4.6 0 20
      vertex 4.6 -2.19999 0
      vertex 4.6 -2.19999 20
    endloop
  endfacet
  facet normal 1 -0 0
    outer loop
      vertex 11.4 -2.19999 20
      vertex 11.4 0 0
      vertex 11.4 0 20
    endloop
  endfacet
  facet normal 1 0 0
    outer loop
      vertex 11.4 0 0
      vertex 11.4 -2.19999 20
      vertex 11.4 -2.19999 0
    endloop
  endfacet
  facet normal 0 -1 0
    outer loop
      vertex 30.2 2.6 0
      vertex 32 2.6 20
      vertex 30.2 2.6 20
    endloop
  endfacet
  facet normal 0 -1 -0
    outer loop
      vertex 32 2.6 20
      vertex 30.2 2.6 0
      vertex 32 2.6 0
    endloop
  endfacet
  facet normal 0 1 -0
    outer loop
      vertex 32 13.4 0
      vertex 30.2 13.4 20
      vertex 32 13.4 20
    endloop
  endfacet
  facet normal 0 1 0
    outer loop
      vertex 30.2 13.4 20
      vertex 32 13.4 0
      vertex 30.2 13.4 0
    endloop
  endfacet
  facet normal 1 -0 0
    outer loop
      vertex 32 2.6 20
      vertex 32 13.4 0
      vertex 32 13.4 20
    endloop
  endfacet
  facet normal 1 0 0
    outer loop
      vertex 32 13.4 0
      vertex 32 2.6 20
      vertex 32 2.6 0
    endloop
  endfacet
  facet normal -1 0 0
    outer loop
      vertex 30.2 2.6 0
      vertex 30.2 4.6 20
      vertex 30.2 4.6 0
    endloop
  endfacet
  facet normal -1 -0 0
    outer loop
      vertex 30.2 4.6 20
      vertex 30.2 2.6 0
      vertex 30.2 2.6 20
    endloop
  endfacet
  facet normal -1 0 0
    outer loop
      vertex 30.2 11.4 0
      vertex 30.2 13.4 20
      vertex 30.2 13.4 0
    endloop
  endfacet
  facet normal -1 -0 0
    outer loop
      vertex 30.2 13.4 20
      vertex 30.2 11.4 0
      vertex 30.2 11.4 20
    endloop
  endfacet
  facet normal 0 -1 0
    outer loop
      vertex 28 4.6 0
      vertex 30.2 4.6 20
      vertex 28 4.6 20
    endloop
  endfacet
  facet normal 0 -1 -0
    outer loop
      vertex 30.2 4.6 20
      vertex 28 4.6 0
      vertex 30.2 4.6 0
    endloop
  endfacet
  facet normal 0 1 -0
    outer loop
      vertex 30.2 11.4 0
      vertex 28 11.4 20
      vertex 30.2 11.4 20
    endloop
  endfacet
  facet normal 0 1 0
    outer loop
      vertex 28 11.4 20
      vertex 30.2 11.4 0
      vertex 28 11.4 0
    endloop
  endfacet
  facet normal 0 -1 0
    outer loop
      vertex 30.2 30.6 0
      vertex 32 30.6 20
      vertex 30.2 30.6 20
    endloop
  endfacet
  facet normal 0 -1 -0
    outer loop
      vertex 32 30.6 20
      vertex 30.2 30.6 0
      vertex 32 30.6 0
    endloop
  endfacet
  facet normal 0 1 -0
    outer loop
      vertex 32 41.4 0
      vertex 30.2 41.4 20
      vertex 32 41.4 20
    endloop
  endfacet
  facet normal 0 1 0
    outer loop
      vertex 30.2 41.4 20
      vertex 32 41.4 0
      vertex 30.2 41.4 0
    endloop
  endfacet
  facet normal 1 -0 0
    outer loop
      vertex 32 30.6 20
      vertex 32 41.4 0
      vertex 32 41.4 20
    endloop
  endfacet
  facet normal 1 0 0
    outer loop
      vertex 32 41.4 0
      vertex 32 30.6 20
      vertex 32 30.6 0
    endloop
  endfacet
  facet normal -1 0 0
    outer loop
      vertex 30.2 30.6 0
      vertex 30.2 32.6 20
      vertex 30.2 32.6 0
    endloop
  endfacet
  facet normal -1 -0 0
    outer loop
      vertex 30.2 32.6 20
      vertex 30.2 30.6 0
      vertex 30.2 30.6 20
    endloop
  endfacet
  facet normal -1 0 0
    outer loop
      vertex 30.2 39.4 0
      vertex 30.2 41.4 20
      vertex 30.2 41.4 0
    endloop
  endfacet
  facet normal -1 -0 0
    outer loop
      vertex 30.2 41.4 20
      vertex 30.2 39.4 0
      vertex 30.2 39.4 20
    endloop
  endfacet
  facet normal 0 -1 0
    outer loop
      vertex 28 32.6 0
      vertex 30.2 32.6 20
      vertex 28 32.6 20
    endloop
  endfacet
  facet normal 0 -1 -0
    outer loop
      vertex 30.2 32.6 20
      vertex 28 32.6 0
      vertex 30.2 32.6 0
    endloop
  endfacet
  facet normal 0 1 -0
    outer loop
      vertex 30.2 39.4 0
      vertex 28 39.4 20
      vertex 30.2 39.4 20
    endloop
  endfacet
  facet normal 0 1 0
    outer loop
      vertex 28 39.4 20
      vertex 30.2 39.4 0
      vertex 28 39.4 0
    endloop
  endfacet
  facet normal 1 -0 0
    outer loop
      vertex 25.4 58.2 20
      vertex 25.4 60 0
      vertex 25.4 60 20
    endloop
  endfacet
  facet normal 1 0 0
    outer loop
      vertex 25.4 60 0
      vertex 25.4 58.2 20
      vertex 25.4 58.2 0
    endloop
  endfacet
  facet normal -1 0 0
    outer loop
      vertex 14.6 58.2 0
      vertex 14.6 60 20
      vertex 14.6 60 0
    endloop
  endfacet
  facet normal -1 -0 0
    outer loop
      vertex 14.6 60 20
      vertex 14.6 58.2 0
      vertex 14.6 58.2 20
    endloop
  endfacet
  facet normal 0 1 -0
    outer loop
      vertex 25.4 60 0
      vertex 14.6 60 20
      vertex 25.4 60 20
    endloop
  endfacet
  facet normal 0 1 0
    outer loop
      vertex 14.6 60 20
      vertex 25.4 60 0
      vertex 14.6 60 0
    endloop
  endfacet
  facet normal 0 -1 0
    outer loop
      vertex 23.4 58.2 0
      vertex 25.4 58.2 20
      vertex 23.4 58.2 20
    endloop
  endfacet
  facet normal 0 -1 -0
    outer loop
      vertex 25.4 58.2 20
      vertex 23.4 58.2 0
      vertex 25.4 58.2 0
    endloop
  endfacet
  facet normal 0 -1 0
    outer loop
      vertex 14.6 58.2 0
      vertex 16.6 58.2 20
      vertex 14.6 58.2 20
    endloop
  endfacet
  facet normal 0 -1 -0
    outer loop
      vertex 16.6 58.2 20
      vertex 14.6 58.2 0
      vertex 16.6 58.2 0
    endloop
  endfacet
  facet normal 1 -0 0
    outer loop
      vertex 23.4 56 20
      vertex 23.4 58.2 0
      vertex 23.4 58.2 20
    endloop
  endfacet
  facet normal 1 0 0
    outer loop
      vertex 23.4 58.2 0
      vertex 23.4 56 20
      vertex 23.4 56 0
    endloop
  endfacet
  facet normal -1 0 0
    outer loop
      vertex 16.6 56 0
      vertex 16.6 58.2 20
      vertex 16.6 58.2 0
    endloop
  endfacet
  facet normal -1 -0 0
    outer loop
      vertex 16.6 58.2 20
      vertex 16.6 56 0
      vertex 16.6 56 20
    endloop
  endfacet
  facet normal 0 1 -0
    outer loop
      vertex -2.19999 53.4 0
      vertex -3.99999 53.4 20
      vertex -2.19999 53.4 20
    endloop
  endfacet
  facet normal 0 1 0
    outer loop
      vertex -3.99999 53.4 20
      vertex -2.19999 53.4 0
      vertex -3.99999 53.4 0
    endloop
  endfacet
  facet normal 0 -1 0
    outer loop
      vertex -3.99999 42.6 0
      vertex -2.19999 42.6 20
      vertex -3.99999 42.6 20
    endloop
  endfacet
  facet normal 0 -1 -0
    outer loop
      vertex -2.19999 42.6 20
      vertex -3.99999 42.6 0
      vertex -2.19999 42.6 0
    endloop
  endfacet
  facet normal -1 0 0
    outer loop
      vertex -3.99999 42.6 0
      vertex -3.99999 53.4 20
      vertex -3.99999 53.4 0
    endloop
  endfacet
  facet normal -1 -0 0
    outer loop
      vertex -3.99999 53.4 20
      vertex -3.99999 42.6 0
      vertex -3.99999 42.6 20
    endloop
  endfacet
  facet normal 1 -0 0
    outer loop
      vertex -2.19999 51.4 20
      vertex -2.19999 53.4 0
      vertex -2.19999 53.4 20
    endloop
  endfacet
  facet normal 1 0 0
    outer loop
      vertex -2.19999 53.4 0
      vertex -2.19999 51.4 20
      vertex -2.19999 51.4 0
    endloop
  endfacet
  facet normal 1 -0 0
    outer loop
      vertex -2.19999 42.6 20
      vertex -2.19999 44.6 0
      vertex -2.19999 44.6 20
    endloop
  endfacet
  facet normal 1 0 0
    outer loop
      vertex -2.19999 44.6 0
      vertex -2.19999 42.6 20
      vertex -2.19999 42.6 0
    endloop
  endfacet
  facet normal 0 1 -0
    outer loop
      vertex 0 51.4 0
      vertex -2.19999 51.4 20
      vertex 0 51.4 20
    endloop
  endfacet
  facet normal 0 1 0
    outer loop
      vertex -2.19999 51.4 20
      vertex 0 51.4 0
      vertex -2.19999 51.4 0
    endloop
  endfacet
  facet normal 0 -1 0
    outer loop
      vertex -2.19999 44.6 0
      vertex 0 44.6 20
      vertex -2.19999 44.6 20
    endloop
  endfacet
  facet normal 0 -1 -0
    outer loop
      vertex 0 44.6 20
      vertex -2.19999 44.6 0
      vertex 0 44.6 0
    endloop
  endfacet
  facet normal 0 1 -0
    outer loop
      vertex -2.19999 25.4 0
      vertex -3.99999 25.4 20
      vertex -2.19999 25.4 20
    endloop
  endfacet
  facet normal 0 1 0
    outer loop
      vertex -3.99999 25.4 20
      vertex -2.19999 25.4 0
      vertex -3.99999 25.4 0
    endloop
  endfacet
  facet normal 0 -1 0
    outer loop
      vertex -3.99999 14.6 0
      vertex -2.19999 14.6 20
      vertex -3.99999 14.6 20
    endloop
  endfacet
  facet normal 0 -1 -0
    outer loop
      vertex -2.19999 14.6 20
      vertex -3.99999 14.6 0
      vertex -2.19999 14.6 0
    endloop
  endfacet
  facet normal -1 0 0
    outer loop
      vertex -3.99999 14.6 0
      vertex -3.99999 25.4 20
      vertex -3.99999 25.4 0
    endloop
  endfacet
  facet normal -1 -0 0
    outer loop
      vertex -3.99999 25.4 20
      vertex -3.99999 14.6 0
      vertex -3.99999 14.6 20
    endloop
  endfacet
  facet normal 1 -0 0
    outer loop
      vertex -2.19999 23.4 20
      vertex -2.19999 25.4 0
      vertex -2.19999 25.4 20
    endloop
  endfacet
  facet normal 1 0 0
    outer loop
      vertex -2.19999 25.4 0
      vertex -2.19999 23.4 20
      vertex -2.19999 23.4 0
    endloop
  endfacet
  facet normal 1 -0 0
    outer loop
      vertex -2.19999 14.6 20
      vertex -2.19999 16.6 0
      vertex -2.19999 16.6 20
    endloop
  endfacet
  facet normal 1 0 0
    outer loop
      vertex -2.19999 16.6 0
      vertex -2.19999 14.6 20
      vertex -2.19999 14.6 0
    endloop
  endfacet
  facet normal 0 1 -0
    outer loop
      vertex 0 23.4 0
      vertex -2.19999 23.4 20
      vertex 0 23.4 20
    endloop
  endfacet
  facet normal 0 1 0
    outer loop
      vertex -2.19999 23.4 20
      vertex 0 23.4 0
      vertex -2.19999 23.4 0
    endloop
  endfacet
  facet normal 0 -1 0
    outer loop
      vertex -2.19999 16.6 0
      vertex 0 16.6 20
      vertex -2.19999 16.6 20
    endloop
  endfacet
  facet normal 0 -1 -0
    outer loop
      vertex 0 16.6 20
      vertex -2.19999 16.6 0
      vertex 0 16.6 0
    endloop
  endfacet
endsolid OpenSCAD_Model
