solid OpenSCAD_Model
  facet normal 1 -0 0
    outer loop
      vertex 16.4 0 20
      vertex 16.4 1.79999 0
      vertex 16.4 1.79999 20
    endloop
  endfacet
  facet normal 1 0 0
    outer loop
      vertex 16.4 1.79999 0
      vertex 16.4 0 20
      vertex 16.4 0 0
    endloop
  endfacet
  facet normal 0 0 1
    outer loop
      vertex 1.79999 4.4 20
      vertex 0 4.4 20
      vertex 1.79999 2.4 20
    endloop
  endfacet
  facet normal 0 0 1
    outer loop
      vertex 25.4 32 20
      vertex 23.4 30.2 20
      vertex 25.4 30.2 20
    endloop
  endfacet
  facet normal 0 0 1
    outer loop
      vertex 23.4 30.2 20
      vertex 16.6 30.2 20
      vertex 23.4 28 20
    endloop
  endfacet
  facet normal 0 0 1
    outer loop
      vertex 25.4 32 20
      vertex 16.6 30.2 20
      vertex 23.4 30.2 20
    endloop
  endfacet
  facet normal -0 0 1
    outer loop
      vertex 14.6 32 20
      vertex 16.6 30.2 20
      vertex 25.4 32 20
    endloop
  endfacet
  facet normal 0 0 1
    outer loop
      vertex 16.6 30.2 20
      vertex 14.6 32 20
      vertex 14.6 30.2 20
    endloop
  endfacet
  facet normal 0 0 1
    outer loop
      vertex 53.4 32 20
      vertex 51.4 30.2 20
      vertex 53.4 30.2 20
    endloop
  endfacet
  facet normal 0 0 1
    outer loop
      vertex 51.4 30.2 20
      vertex 44.6 30.2 20
      vertex 51.4 28 20
    endloop
  endfacet
  facet normal 0 0 1
    outer loop
      vertex 53.4 32 20
      vertex 44.6 30.2 20
      vertex 51.4 30.2 20
    endloop
  endfacet
  facet normal -0 0 1
    outer loop
      vertex 42.6 32 20
      vertex 44.6 30.2 20
      vertex 53.4 32 20
    endloop
  endfacet
  facet normal 0 0 1
    outer loop
      vertex 44.6 30.2 20
      vertex 42.6 32 20
      vertex 42.6 30.2 20
    endloop
  endfacet
  facet normal 0 0 1
    outer loop
      vertex 81.4 32 20
      vertex 79.4 30.2 20
      vertex 81.4 30.2 20
    endloop
  endfacet
  facet normal 0 0 1
    outer loop
      vertex 79.4 30.2 20
      vertex 72.6 30.2 20
      vertex 79.4 28 20
    endloop
  endfacet
  facet normal 0 0 1
    outer loop
      vertex 81.4 32 20
      vertex 72.6 30.2 20
      vertex 79.4 30.2 20
    endloop
  endfacet
  facet normal -0 0 1
    outer loop
      vertex 70.6 32 20
      vertex 72.6 30.2 20
      vertex 81.4 32 20
    endloop
  endfacet
  facet normal 0 0 1
    outer loop
      vertex 72.6 30.2 20
      vertex 70.6 32 20
      vertex 70.6 30.2 20
    endloop
  endfacet
  facet normal 0 0 1
    outer loop
      vertex 84 28 20
      vertex 82.2 25.6 20
      vertex 84 23.6 20
    endloop
  endfacet
  facet normal -0 0 1
    outer loop
      vertex 79.4 28 20
      vertex 82.2 25.6 20
      vertex 84 28 20
    endloop
  endfacet
  facet normal -0 0 1
    outer loop
      vertex 72.6 28 20
      vertex 80 25.6 20
      vertex 79.4 28 20
    endloop
  endfacet
  facet normal 0 0 1
    outer loop
      vertex 82.2 25.6 20
      vertex 79.4 28 20
      vertex 80 25.6 20
    endloop
  endfacet
  facet normal 0 0 1
    outer loop
      vertex 84 23.6 20
      vertex 82.2 25.6 20
      vertex 82.2 23.6 20
    endloop
  endfacet
  facet normal 0 0 1
    outer loop
      vertex 84 11.4 20
      vertex 80 14.4 20
      vertex 81.6 3.99999 20
    endloop
  endfacet
  facet normal 0 0 1
    outer loop
      vertex 72.6 28 20
      vertex 79.4 28 20
      vertex 72.6 30.2 20
    endloop
  endfacet
  facet normal 0 0 1
    outer loop
      vertex 80 25.6 20
      vertex 72.6 28 20
      vertex 69.6 24 20
    endloop
  endfacet
  facet normal 0 0 1
    outer loop
      vertex 80 25.6 20
      vertex 69.6 24 20
      vertex 80 14.4 20
    endloop
  endfacet
  facet normal 0 -0 1
    outer loop
      vertex 70.4 3.99999 20
      vertex 80 14.4 20
      vertex 69.6 24 20
    endloop
  endfacet
  facet normal 0 0 1
    outer loop
      vertex 80 14.4 20
      vertex 70.4 3.99999 20
      vertex 81.6 3.99999 20
    endloop
  endfacet
  facet normal 0 0 1
    outer loop
      vertex 69.6 24 20
      vertex 72.6 28 20
      vertex 69.6 26.2 20
    endloop
  endfacet
  facet normal -0 0 1
    outer loop
      vertex 67.6 28 20
      vertex 69.6 26.2 20
      vertex 72.6 28 20
    endloop
  endfacet
  facet normal 0 0 1
    outer loop
      vertex 69.6 26.2 20
      vertex 67.6 28 20
      vertex 67.6 26.2 20
    endloop
  endfacet
  facet normal -0 0 1
    outer loop
      vertex 82.2 14.4 20
      vertex 84 11.4 20
      vertex 84 16.4 20
    endloop
  endfacet
  facet normal -0 0 1
    outer loop
      vertex 80 14.4 20
      vertex 84 11.4 20
      vertex 82.2 14.4 20
    endloop
  endfacet
  facet normal 0 0 1
    outer loop
      vertex 82.2 14.4 20
      vertex 84 16.4 20
      vertex 82.2 16.4 20
    endloop
  endfacet
  facet normal 0 0 1
    outer loop
      vertex 84 11.4 20
      vertex 81.6 3.99999 20
      vertex 84 4.6 20
    endloop
  endfacet
  facet normal 0 0 1
    outer loop
      vertex 81.6 1.79999 20
      vertex 84 4.6 20
      vertex 81.6 3.99999 20
    endloop
  endfacet
  facet normal 0 0 1
    outer loop
      vertex 84 4.6 20
      vertex 81.6 1.79999 20
      vertex 84 0 20
    endloop
  endfacet
  facet normal 0 0 1
    outer loop
      vertex 79.6 0 20
      vertex 81.6 1.79999 20
      vertex 79.6 1.79999 20
    endloop
  endfacet
  facet normal 0 0 1
    outer loop
      vertex 81.6 1.79999 20
      vertex 79.6 0 20
      vertex 84 0 20
    endloop
  endfacet
  facet normal -0 0 1
    outer loop
      vertex 84 11.4 20
      vertex 86.2 4.6 20
      vertex 86.2 11.4 20
    endloop
  endfacet
  facet normal 0 0 1
    outer loop
      vertex 86.2 4.6 20
      vertex 84 11.4 20
      vertex 84 4.6 20
    endloop
  endfacet
  facet normal 0 0 1
    outer loop
      vertex 86.2 11.4 20
      vertex 88 13.4 20
      vertex 86.2 13.4 20
    endloop
  endfacet
  facet normal 0 0 1
    outer loop
      vertex 88 13.4 20
      vertex 86.2 11.4 20
      vertex 88 2.6 20
    endloop
  endfacet
  facet normal -0 0 1
    outer loop
      vertex 86.2 4.6 20
      vertex 88 2.6 20
      vertex 86.2 11.4 20
    endloop
  endfacet
  facet normal 0 0 1
    outer loop
      vertex 88 2.6 20
      vertex 86.2 4.6 20
      vertex 86.2 2.6 20
    endloop
  endfacet
  facet normal -0 0 1
    outer loop
      vertex 70.4 1.79999 20
      vertex 72.4 0 20
      vertex 72.4 1.79999 20
    endloop
  endfacet
  facet normal -0 0 1
    outer loop
      vertex 58.4 24 20
      vertex 70.4 3.99999 20
      vertex 69.6 24 20
    endloop
  endfacet
  facet normal 0 0 1
    outer loop
      vertex 70.4 1.79999 20
      vertex 67.4 0 20
      vertex 72.4 0 20
    endloop
  endfacet
  facet normal 0 0 1
    outer loop
      vertex 53.6 3.99999 20
      vertex 70.4 3.99999 20
      vertex 58.4 24 20
    endloop
  endfacet
  facet normal 0 0 1
    outer loop
      vertex 67.4 0 20
      vertex 60.6 0 20
      vertex 67.4 -2.19999 20
    endloop
  endfacet
  facet normal 0 0 1
    outer loop
      vertex 70.4 3.99999 20
      vertex 67.4 0 20
      vertex 70.4 1.79999 20
    endloop
  endfacet
  facet normal 0 -0 1
    outer loop
      vertex 67.4 0 20
      vertex 70.4 3.99999 20
      vertex 60.6 0 20
    endloop
  endfacet
  facet normal 0 0 1
    outer loop
      vertex 70.4 3.99999 20
      vertex 53.6 3.99999 20
      vertex 60.6 0 20
    endloop
  endfacet
  facet normal -0 0 1
    outer loop
      vertex 53.6 1.79999 20
      vertex 60.6 0 20
      vertex 53.6 3.99999 20
    endloop
  endfacet
  facet normal 0 0 1
    outer loop
      vertex 51.6 0 20
      vertex 53.6 1.79999 20
      vertex 51.6 1.79999 20
    endloop
  endfacet
  facet normal 0 0 1
    outer loop
      vertex 53.6 1.79999 20
      vertex 51.6 0 20
      vertex 60.6 0 20
    endloop
  endfacet
  facet normal -0 0 1
    outer loop
      vertex 67.4 -2.19999 20
      vertex 69.4 -3.99999 20
      vertex 69.4 -2.19999 20
    endloop
  endfacet
  facet normal 0 0 1
    outer loop
      vertex 60.6 -2.19999 20
      vertex 67.4 -2.19999 20
      vertex 60.6 0 20
    endloop
  endfacet
  facet normal 0 0 1
    outer loop
      vertex 67.4 -2.19999 20
      vertex 60.6 -2.19999 20
      vertex 69.4 -3.99999 20
    endloop
  endfacet
  facet normal 0 0 1
    outer loop
      vertex 58.6 -3.99999 20
      vertex 60.6 -2.19999 20
      vertex 58.6 -2.19999 20
    endloop
  endfacet
  facet normal 0 0 1
    outer loop
      vertex 60.6 -2.19999 20
      vertex 58.6 -3.99999 20
      vertex 69.4 -3.99999 20
    endloop
  endfacet
  facet normal 0 0 1
    outer loop
      vertex 60.4 28 20
      vertex 58.4 26.2 20
      vertex 60.4 26.2 20
    endloop
  endfacet
  facet normal 0 0 1
    outer loop
      vertex 51.4 28 20
      vertex 58.4 24 20
      vertex 58.4 26.2 20
    endloop
  endfacet
  facet normal -0 0 1
    outer loop
      vertex 51.4 28 20
      vertex 58.4 26.2 20
      vertex 60.4 28 20
    endloop
  endfacet
  facet normal 0 0 1
    outer loop
      vertex 41.6 24 20
      vertex 58.4 24 20
      vertex 51.4 28 20
    endloop
  endfacet
  facet normal 0 0 1
    outer loop
      vertex 44.6 28 20
      vertex 51.4 28 20
      vertex 44.6 30.2 20
    endloop
  endfacet
  facet normal 0 0 1
    outer loop
      vertex 41.6 24 20
      vertex 51.4 28 20
      vertex 44.6 28 20
    endloop
  endfacet
  facet normal 0 0 1
    outer loop
      vertex 58.4 24 20
      vertex 41.6 24 20
      vertex 53.6 3.99999 20
    endloop
  endfacet
  facet normal 0 0 1
    outer loop
      vertex 53.6 3.99999 20
      vertex 41.6 24 20
      vertex 42.4 3.99999 20
    endloop
  endfacet
  facet normal 0 0 1
    outer loop
      vertex 41.6 24 20
      vertex 44.6 28 20
      vertex 41.6 26.2 20
    endloop
  endfacet
  facet normal -0 0 1
    outer loop
      vertex 39.6 28 20
      vertex 41.6 26.2 20
      vertex 44.6 28 20
    endloop
  endfacet
  facet normal 0 0 1
    outer loop
      vertex 41.6 26.2 20
      vertex 39.6 28 20
      vertex 39.6 26.2 20
    endloop
  endfacet
  facet normal -0 0 1
    outer loop
      vertex 42.4 1.79999 20
      vertex 44.4 0 20
      vertex 44.4 1.79999 20
    endloop
  endfacet
  facet normal -0 0 1
    outer loop
      vertex 30.4 24 20
      vertex 42.4 3.99999 20
      vertex 41.6 24 20
    endloop
  endfacet
  facet normal 0 0 1
    outer loop
      vertex 42.4 1.79999 20
      vertex 39.4 0 20
      vertex 44.4 0 20
    endloop
  endfacet
  facet normal 0 0 1
    outer loop
      vertex 25.6 3.99999 20
      vertex 42.4 3.99999 20
      vertex 30.4 24 20
    endloop
  endfacet
  facet normal 0 0 1
    outer loop
      vertex 39.4 0 20
      vertex 32.6 0 20
      vertex 39.4 -2.19999 20
    endloop
  endfacet
  facet normal 0 0 1
    outer loop
      vertex 42.4 3.99999 20
      vertex 39.4 0 20
      vertex 42.4 1.79999 20
    endloop
  endfacet
  facet normal 0 -0 1
    outer loop
      vertex 39.4 0 20
      vertex 42.4 3.99999 20
      vertex 32.6 0 20
    endloop
  endfacet
  facet normal 0 0 1
    outer loop
      vertex 42.4 3.99999 20
      vertex 25.6 3.99999 20
      vertex 32.6 0 20
    endloop
  endfacet
  facet normal -0 0 1
    outer loop
      vertex 25.6 1.79999 20
      vertex 32.6 0 20
      vertex 25.6 3.99999 20
    endloop
  endfacet
  facet normal 0 0 1
    outer loop
      vertex 23.6 0 20
      vertex 25.6 1.79999 20
      vertex 23.6 1.79999 20
    endloop
  endfacet
  facet normal 0 0 1
    outer loop
      vertex 25.6 1.79999 20
      vertex 23.6 0 20
      vertex 32.6 0 20
    endloop
  endfacet
  facet normal -0 0 1
    outer loop
      vertex 39.4 -2.19999 20
      vertex 41.4 -3.99999 20
      vertex 41.4 -2.19999 20
    endloop
  endfacet
  facet normal 0 0 1
    outer loop
      vertex 32.6 -2.19999 20
      vertex 39.4 -2.19999 20
      vertex 32.6 0 20
    endloop
  endfacet
  facet normal 0 0 1
    outer loop
      vertex 39.4 -2.19999 20
      vertex 32.6 -2.19999 20
      vertex 41.4 -3.99999 20
    endloop
  endfacet
  facet normal 0 0 1
    outer loop
      vertex 30.6 -3.99999 20
      vertex 32.6 -2.19999 20
      vertex 30.6 -2.19999 20
    endloop
  endfacet
  facet normal 0 0 1
    outer loop
      vertex 32.6 -2.19999 20
      vertex 30.6 -3.99999 20
      vertex 41.4 -3.99999 20
    endloop
  endfacet
  facet normal 0 0 1
    outer loop
      vertex 32.4 28 20
      vertex 30.4 26.2 20
      vertex 32.4 26.2 20
    endloop
  endfacet
  facet normal 0 0 1
    outer loop
      vertex 23.4 28 20
      vertex 30.4 24 20
      vertex 30.4 26.2 20
    endloop
  endfacet
  facet normal -0 0 1
    outer loop
      vertex 23.4 28 20
      vertex 30.4 26.2 20
      vertex 32.4 28 20
    endloop
  endfacet
  facet normal 0 0 1
    outer loop
      vertex 13.6 24 20
      vertex 30.4 24 20
      vertex 23.4 28 20
    endloop
  endfacet
  facet normal 0 0 1
    outer loop
      vertex 16.6 28 20
      vertex 23.4 28 20
      vertex 16.6 30.2 20
    endloop
  endfacet
  facet normal 0 0 1
    outer loop
      vertex 13.6 24 20
      vertex 23.4 28 20
      vertex 16.6 28 20
    endloop
  endfacet
  facet normal 0 0 1
    outer loop
      vertex 30.4 24 20
      vertex 13.6 24 20
      vertex 25.6 3.99999 20
    endloop
  endfacet
  facet normal 0 0 1
    outer loop
      vertex 25.6 3.99999 20
      vertex 13.6 24 20
      vertex 14.4 3.99999 20
    endloop
  endfacet
  facet normal 0 0 1
    outer loop
      vertex 13.6 24 20
      vertex 16.6 28 20
      vertex 13.6 26.2 20
    endloop
  endfacet
  facet normal -0 0 1
    outer loop
      vertex 11.6 28 20
      vertex 13.6 26.2 20
      vertex 16.6 28 20
    endloop
  endfacet
  facet normal 0 0 1
    outer loop
      vertex 13.6 26.2 20
      vertex 11.6 28 20
      vertex 11.6 26.2 20
    endloop
  endfacet
  facet normal -0 0 1
    outer loop
      vertex 14.4 1.79999 20
      vertex 16.4 0 20
      vertex 16.4 1.79999 20
    endloop
  endfacet
  facet normal -0 0 1
    outer loop
      vertex 3.99999 13.6 20
      vertex 14.4 3.99999 20
      vertex 13.6 24 20
    endloop
  endfacet
  facet normal 0 0 1
    outer loop
      vertex 14.4 1.79999 20
      vertex 11.4 0 20
      vertex 16.4 0 20
    endloop
  endfacet
  facet normal 0 0 1
    outer loop
      vertex 3.99999 2.4 20
      vertex 14.4 3.99999 20
      vertex 3.99999 13.6 20
    endloop
  endfacet
  facet normal 0 0 1
    outer loop
      vertex 11.4 0 20
      vertex 4.6 0 20
      vertex 11.4 -2.19999 20
    endloop
  endfacet
  facet normal 0 -0 1
    outer loop
      vertex 11.4 0 20
      vertex 14.4 3.99999 20
      vertex 3.99999 2.4 20
    endloop
  endfacet
  facet normal 0 0 1
    outer loop
      vertex 14.4 3.99999 20
      vertex 11.4 0 20
      vertex 14.4 1.79999 20
    endloop
  endfacet
  facet normal -0 0 1
    outer loop
      vertex 2.4 24 20
      vertex 3.99999 13.6 20
      vertex 13.6 24 20
    endloop
  endfacet
  facet normal -0 0 1
    outer loop
      vertex 0 16.6 20
      vertex 3.99999 13.6 20
      vertex 2.4 24 20
    endloop
  endfacet
  facet normal 0 0 1
    outer loop
      vertex 4.4 28 20
      vertex 2.4 26.2 20
      vertex 4.4 26.2 20
    endloop
  endfacet
  facet normal 0 0 1
    outer loop
      vertex 0 23.4 20
      vertex 2.4 24 20
      vertex 2.4 26.2 20
    endloop
  endfacet
  facet normal -0 0 1
    outer loop
      vertex 0 28 20
      vertex 2.4 26.2 20
      vertex 4.4 28 20
    endloop
  endfacet
  facet normal 0 0 1
    outer loop
      vertex 0 23.4 20
      vertex 2.4 26.2 20
      vertex 0 28 20
    endloop
  endfacet
  facet normal 0 0 1
    outer loop
      vertex 2.4 24 20
      vertex 0 23.4 20
      vertex 0 16.6 20
    endloop
  endfacet
  facet normal 0 0 1
    outer loop
      vertex 3.99999 13.6 20
      vertex 0 16.6 20
      vertex 1.79999 13.6 20
    endloop
  endfacet
  facet normal 0 0 1
    outer loop
      vertex 0 11.6 20
      vertex 1.79999 13.6 20
      vertex 0 16.6 20
    endloop
  endfacet
  facet normal 0 0 1
    outer loop
      vertex 1.79999 13.6 20
      vertex 0 11.6 20
      vertex 1.79999 11.6 20
    endloop
  endfacet
  facet normal -0 0 1
    outer loop
      vertex 11.4 -2.19999 20
      vertex 13.4 -3.99999 20
      vertex 13.4 -2.19999 20
    endloop
  endfacet
  facet normal 0 0 1
    outer loop
      vertex 4.6 -2.19999 20
      vertex 11.4 -2.19999 20
      vertex 4.6 0 20
    endloop
  endfacet
  facet normal 0 0 1
    outer loop
      vertex 11.4 -2.19999 20
      vertex 4.6 -2.19999 20
      vertex 13.4 -3.99999 20
    endloop
  endfacet
  facet normal 0 0 1
    outer loop
      vertex 2.6 -3.99999 20
      vertex 4.6 -2.19999 20
      vertex 2.6 -2.19999 20
    endloop
  endfacet
  facet normal 0 0 1
    outer loop
      vertex 4.6 -2.19999 20
      vertex 2.6 -3.99999 20
      vertex 13.4 -3.99999 20
    endloop
  endfacet
  facet normal 0 0 1
    outer loop
      vertex 11.4 0 20
      vertex 3.99999 2.4 20
      vertex 4.6 0 20
    endloop
  endfacet
  facet normal -0 0 1
    outer loop
      vertex 1.79999 2.4 20
      vertex 4.6 0 20
      vertex 3.99999 2.4 20
    endloop
  endfacet
  facet normal 0 0 1
    outer loop
      vertex 1.79999 2.4 20
      vertex 0 0 20
      vertex 4.6 0 20
    endloop
  endfacet
  facet normal 0 0 1
    outer loop
      vertex 0 0 20
      vertex 1.79999 2.4 20
      vertex 0 4.4 20
    endloop
  endfacet
  facet normal -0 0 1
    outer loop
      vertex -3.99999 25.4 20
      vertex -2.19999 23.4 20
      vertex -2.19999 25.4 20
    endloop
  endfacet
  facet normal 0 0 1
    outer loop
      vertex -2.19999 23.4 20
      vertex -3.99999 25.4 20
      vertex -2.19999 16.6 20
    endloop
  endfacet
  facet normal 0 0 1
    outer loop
      vertex -3.99999 14.6 20
      vertex -2.19999 16.6 20
      vertex -3.99999 25.4 20
    endloop
  endfacet
  facet normal 0 0 1
    outer loop
      vertex -2.19999 16.6 20
      vertex -3.99999 14.6 20
      vertex -2.19999 14.6 20
    endloop
  endfacet
  facet normal -0 0 1
    outer loop
      vertex -2.19999 23.4 20
      vertex 0 16.6 20
      vertex 0 23.4 20
    endloop
  endfacet
  facet normal 0 0 1
    outer loop
      vertex 0 16.6 20
      vertex -2.19999 23.4 20
      vertex -2.19999 16.6 20
    endloop
  endfacet
  facet normal -1 0 0
    outer loop
      vertex 23.6 0 0
      vertex 23.6 1.79999 20
      vertex 23.6 1.79999 0
    endloop
  endfacet
  facet normal -1 -0 0
    outer loop
      vertex 23.6 1.79999 20
      vertex 23.6 0 0
      vertex 23.6 0 20
    endloop
  endfacet
  facet normal 0 0 -1
    outer loop
      vertex 1.79999 11.6 0
      vertex 0 11.6 0
      vertex 1.79999 13.6 0
    endloop
  endfacet
  facet normal 0 0 -1
    outer loop
      vertex 4.6 0 0
      vertex 1.79999 2.4 0
      vertex 3.99999 2.4 0
    endloop
  endfacet
  facet normal 0 0 -1
    outer loop
      vertex 0 0 0
      vertex 1.79999 2.4 0
      vertex 4.6 0 0
    endloop
  endfacet
  facet normal 0 0 -1
    outer loop
      vertex 0 4.4 0
      vertex 1.79999 2.4 0
      vertex 0 0 0
    endloop
  endfacet
  facet normal 0 0 -1
    outer loop
      vertex 1.79999 2.4 0
      vertex 0 4.4 0
      vertex 1.79999 4.4 0
    endloop
  endfacet
  facet normal 0 0 -1
    outer loop
      vertex 13.4 -3.99999 0
      vertex 11.4 -2.19999 0
      vertex 13.4 -2.19999 0
    endloop
  endfacet
  facet normal 0 0 -1
    outer loop
      vertex 11.4 -2.19999 0
      vertex 4.6 -2.19999 0
      vertex 11.4 0 0
    endloop
  endfacet
  facet normal 0 0 -1
    outer loop
      vertex 13.4 -3.99999 0
      vertex 4.6 -2.19999 0
      vertex 11.4 -2.19999 0
    endloop
  endfacet
  facet normal 0 0 -1
    outer loop
      vertex 2.6 -3.99999 0
      vertex 4.6 -2.19999 0
      vertex 13.4 -3.99999 0
    endloop
  endfacet
  facet normal -0 0 -1
    outer loop
      vertex 4.6 -2.19999 0
      vertex 2.6 -3.99999 0
      vertex 2.6 -2.19999 0
    endloop
  endfacet
  facet normal 0 0 -1
    outer loop
      vertex 41.4 -3.99999 0
      vertex 39.4 -2.19999 0
      vertex 41.4 -2.19999 0
    endloop
  endfacet
  facet normal 0 0 -1
    outer loop
      vertex 39.4 -2.19999 0
      vertex 32.6 -2.19999 0
      vertex 39.4 0 0
    endloop
  endfacet
  facet normal 0 0 -1
    outer loop
      vertex 41.4 -3.99999 0
      vertex 32.6 -2.19999 0
      vertex 39.4 -2.19999 0
    endloop
  endfacet
  facet normal 0 0 -1
    outer loop
      vertex 30.6 -3.99999 0
      vertex 32.6 -2.19999 0
      vertex 41.4 -3.99999 0
    endloop
  endfacet
  facet normal -0 0 -1
    outer loop
      vertex 32.6 -2.19999 0
      vertex 30.6 -3.99999 0
      vertex 30.6 -2.19999 0
    endloop
  endfacet
  facet normal 0 0 -1
    outer loop
      vertex 69.4 -3.99999 0
      vertex 67.4 -2.19999 0
      vertex 69.4 -2.19999 0
    endloop
  endfacet
  facet normal 0 0 -1
    outer loop
      vertex 67.4 -2.19999 0
      vertex 60.6 -2.19999 0
      vertex 67.4 0 0
    endloop
  endfacet
  facet normal 0 0 -1
    outer loop
      vertex 69.4 -3.99999 0
      vertex 60.6 -2.19999 0
      vertex 67.4 -2.19999 0
    endloop
  endfacet
  facet normal 0 0 -1
    outer loop
      vertex 58.6 -3.99999 0
      vertex 60.6 -2.19999 0
      vertex 69.4 -3.99999 0
    endloop
  endfacet
  facet normal -0 0 -1
    outer loop
      vertex 60.6 -2.19999 0
      vertex 58.6 -3.99999 0
      vertex 58.6 -2.19999 0
    endloop
  endfacet
  facet normal 0 0 -1
    outer loop
      vertex 81.6 1.79999 0
      vertex 84 4.6 0
      vertex 84 0 0
    endloop
  endfacet
  facet normal -0 0 -1
    outer loop
      vertex 84 4.6 0
      vertex 81.6 3.99999 0
      vertex 84 11.4 0
    endloop
  endfacet
  facet normal 0 0 -1
    outer loop
      vertex 80 14.4 0
      vertex 84 11.4 0
      vertex 81.6 3.99999 0
    endloop
  endfacet
  facet normal 0 0 -1
    outer loop
      vertex 84 4.6 0
      vertex 81.6 1.79999 0
      vertex 81.6 3.99999 0
    endloop
  endfacet
  facet normal 0 0 -1
    outer loop
      vertex 79.6 0 0
      vertex 81.6 1.79999 0
      vertex 84 0 0
    endloop
  endfacet
  facet normal -0 0 -1
    outer loop
      vertex 81.6 1.79999 0
      vertex 79.6 0 0
      vertex 79.6 1.79999 0
    endloop
  endfacet
  facet normal 0 0 -1
    outer loop
      vertex 84 4.6 0
      vertex 86.2 11.4 0
      vertex 86.2 4.6 0
    endloop
  endfacet
  facet normal -0 0 -1
    outer loop
      vertex 86.2 11.4 0
      vertex 84 4.6 0
      vertex 84 11.4 0
    endloop
  endfacet
  facet normal 0 0 -1
    outer loop
      vertex 86.2 4.6 0
      vertex 88 2.6 0
      vertex 86.2 2.6 0
    endloop
  endfacet
  facet normal 0 0 -1
    outer loop
      vertex 88 2.6 0
      vertex 86.2 4.6 0
      vertex 88 13.4 0
    endloop
  endfacet
  facet normal 0 0 -1
    outer loop
      vertex 86.2 11.4 0
      vertex 88 13.4 0
      vertex 86.2 4.6 0
    endloop
  endfacet
  facet normal -0 0 -1
    outer loop
      vertex 88 13.4 0
      vertex 86.2 11.4 0
      vertex 86.2 13.4 0
    endloop
  endfacet
  facet normal -0 0 -1
    outer loop
      vertex 84 16.4 0
      vertex 82.2 14.4 0
      vertex 82.2 16.4 0
    endloop
  endfacet
  facet normal 0 0 -1
    outer loop
      vertex 84 11.4 0
      vertex 82.2 14.4 0
      vertex 84 16.4 0
    endloop
  endfacet
  facet normal 0 0 -1
    outer loop
      vertex 84 11.4 0
      vertex 80 14.4 0
      vertex 82.2 14.4 0
    endloop
  endfacet
  facet normal 0 0 -1
    outer loop
      vertex 69.6 24 0
      vertex 80 25.6 0
      vertex 80 14.4 0
    endloop
  endfacet
  facet normal 0 0 -1
    outer loop
      vertex 79.4 28 0
      vertex 72.6 28 0
      vertex 79.4 30.2 0
    endloop
  endfacet
  facet normal 0 -0 -1
    outer loop
      vertex 72.6 28 0
      vertex 80 25.6 0
      vertex 69.6 24 0
    endloop
  endfacet
  facet normal 0 0 -1
    outer loop
      vertex 70.4 3.99999 0
      vertex 80 14.4 0
      vertex 81.6 3.99999 0
    endloop
  endfacet
  facet normal -0 0 -1
    outer loop
      vertex 80 14.4 0
      vertex 70.4 3.99999 0
      vertex 69.6 24 0
    endloop
  endfacet
  facet normal 0 0 -1
    outer loop
      vertex 80 25.6 0
      vertex 72.6 28 0
      vertex 79.4 28 0
    endloop
  endfacet
  facet normal 0 0 -1
    outer loop
      vertex 69.6 26.2 0
      vertex 72.6 28 0
      vertex 69.6 24 0
    endloop
  endfacet
  facet normal 0 0 -1
    outer loop
      vertex 67.6 28 0
      vertex 69.6 26.2 0
      vertex 67.6 26.2 0
    endloop
  endfacet
  facet normal 0 0 -1
    outer loop
      vertex 69.6 26.2 0
      vertex 67.6 28 0
      vertex 72.6 28 0
    endloop
  endfacet
  facet normal 0 0 -1
    outer loop
      vertex 82.2 25.6 0
      vertex 84 23.6 0
      vertex 82.2 23.6 0
    endloop
  endfacet
  facet normal 0 0 -1
    outer loop
      vertex 84 23.6 0
      vertex 82.2 25.6 0
      vertex 84 28 0
    endloop
  endfacet
  facet normal 0 0 -1
    outer loop
      vertex 79.4 28 0
      vertex 82.2 25.6 0
      vertex 80 25.6 0
    endloop
  endfacet
  facet normal 0 0 -1
    outer loop
      vertex 82.2 25.6 0
      vertex 79.4 28 0
      vertex 84 28 0
    endloop
  endfacet
  facet normal 0 0 -1
    outer loop
      vertex 79.4 30.2 0
      vertex 81.4 32 0
      vertex 81.4 30.2 0
    endloop
  endfacet
  facet normal 0 0 -1
    outer loop
      vertex 72.6 30.2 0
      vertex 79.4 30.2 0
      vertex 72.6 28 0
    endloop
  endfacet
  facet normal 0 0 -1
    outer loop
      vertex 79.4 30.2 0
      vertex 72.6 30.2 0
      vertex 81.4 32 0
    endloop
  endfacet
  facet normal 0 0 -1
    outer loop
      vertex 70.6 32 0
      vertex 72.6 30.2 0
      vertex 70.6 30.2 0
    endloop
  endfacet
  facet normal 0 0 -1
    outer loop
      vertex 72.6 30.2 0
      vertex 70.6 32 0
      vertex 81.4 32 0
    endloop
  endfacet
  facet normal 0 0 -1
    outer loop
      vertex 72.4 0 0
      vertex 70.4 1.79999 0
      vertex 72.4 1.79999 0
    endloop
  endfacet
  facet normal 0 0 -1
    outer loop
      vertex 67.4 0 0
      vertex 70.4 3.99999 0
      vertex 70.4 1.79999 0
    endloop
  endfacet
  facet normal 0 0 -1
    outer loop
      vertex 67.4 0 0
      vertex 70.4 1.79999 0
      vertex 72.4 0 0
    endloop
  endfacet
  facet normal 0 0 -1
    outer loop
      vertex 70.4 3.99999 0
      vertex 67.4 0 0
      vertex 60.6 0 0
    endloop
  endfacet
  facet normal 0 0 -1
    outer loop
      vertex 60.6 0 0
      vertex 67.4 0 0
      vertex 60.6 -2.19999 0
    endloop
  endfacet
  facet normal 0 0 -1
    outer loop
      vertex 53.6 3.99999 0
      vertex 70.4 3.99999 0
      vertex 60.6 0 0
    endloop
  endfacet
  facet normal 0 0 -1
    outer loop
      vertex 70.4 3.99999 0
      vertex 58.4 24 0
      vertex 69.6 24 0
    endloop
  endfacet
  facet normal 0 0 -1
    outer loop
      vertex 70.4 3.99999 0
      vertex 53.6 3.99999 0
      vertex 58.4 24 0
    endloop
  endfacet
  facet normal 0 0 -1
    outer loop
      vertex 53.6 3.99999 0
      vertex 60.6 0 0
      vertex 53.6 1.79999 0
    endloop
  endfacet
  facet normal 0 0 -1
    outer loop
      vertex 51.6 0 0
      vertex 53.6 1.79999 0
      vertex 60.6 0 0
    endloop
  endfacet
  facet normal -0 0 -1
    outer loop
      vertex 53.6 1.79999 0
      vertex 51.6 0 0
      vertex 51.6 1.79999 0
    endloop
  endfacet
  facet normal 0 0 -1
    outer loop
      vertex 58.4 26.2 0
      vertex 60.4 28 0
      vertex 60.4 26.2 0
    endloop
  endfacet
  facet normal 0 0 -1
    outer loop
      vertex 41.6 24 0
      vertex 58.4 24 0
      vertex 53.6 3.99999 0
    endloop
  endfacet
  facet normal 0 0 -1
    outer loop
      vertex 58.4 26.2 0
      vertex 51.4 28 0
      vertex 60.4 28 0
    endloop
  endfacet
  facet normal 0 0 -1
    outer loop
      vertex 58.4 24 0
      vertex 51.4 28 0
      vertex 58.4 26.2 0
    endloop
  endfacet
  facet normal 0 0 -1
    outer loop
      vertex 51.4 28 0
      vertex 44.6 28 0
      vertex 51.4 30.2 0
    endloop
  endfacet
  facet normal 0 0 -1
    outer loop
      vertex 58.4 24 0
      vertex 41.6 24 0
      vertex 51.4 28 0
    endloop
  endfacet
  facet normal 0 0 -1
    outer loop
      vertex 41.6 24 0
      vertex 53.6 3.99999 0
      vertex 42.4 3.99999 0
    endloop
  endfacet
  facet normal -0 0 -1
    outer loop
      vertex 51.4 28 0
      vertex 41.6 24 0
      vertex 44.6 28 0
    endloop
  endfacet
  facet normal 0 0 -1
    outer loop
      vertex 41.6 26.2 0
      vertex 44.6 28 0
      vertex 41.6 24 0
    endloop
  endfacet
  facet normal 0 0 -1
    outer loop
      vertex 39.6 28 0
      vertex 41.6 26.2 0
      vertex 39.6 26.2 0
    endloop
  endfacet
  facet normal 0 0 -1
    outer loop
      vertex 41.6 26.2 0
      vertex 39.6 28 0
      vertex 44.6 28 0
    endloop
  endfacet
  facet normal 0 0 -1
    outer loop
      vertex 51.4 30.2 0
      vertex 53.4 32 0
      vertex 53.4 30.2 0
    endloop
  endfacet
  facet normal 0 0 -1
    outer loop
      vertex 44.6 30.2 0
      vertex 51.4 30.2 0
      vertex 44.6 28 0
    endloop
  endfacet
  facet normal 0 0 -1
    outer loop
      vertex 51.4 30.2 0
      vertex 44.6 30.2 0
      vertex 53.4 32 0
    endloop
  endfacet
  facet normal 0 0 -1
    outer loop
      vertex 42.6 32 0
      vertex 44.6 30.2 0
      vertex 42.6 30.2 0
    endloop
  endfacet
  facet normal 0 0 -1
    outer loop
      vertex 44.6 30.2 0
      vertex 42.6 32 0
      vertex 53.4 32 0
    endloop
  endfacet
  facet normal 0 0 -1
    outer loop
      vertex 44.4 0 0
      vertex 42.4 1.79999 0
      vertex 44.4 1.79999 0
    endloop
  endfacet
  facet normal 0 0 -1
    outer loop
      vertex 39.4 0 0
      vertex 42.4 3.99999 0
      vertex 42.4 1.79999 0
    endloop
  endfacet
  facet normal 0 0 -1
    outer loop
      vertex 39.4 0 0
      vertex 42.4 1.79999 0
      vertex 44.4 0 0
    endloop
  endfacet
  facet normal 0 0 -1
    outer loop
      vertex 42.4 3.99999 0
      vertex 39.4 0 0
      vertex 32.6 0 0
    endloop
  endfacet
  facet normal 0 0 -1
    outer loop
      vertex 32.6 0 0
      vertex 39.4 0 0
      vertex 32.6 -2.19999 0
    endloop
  endfacet
  facet normal 0 0 -1
    outer loop
      vertex 25.6 3.99999 0
      vertex 42.4 3.99999 0
      vertex 32.6 0 0
    endloop
  endfacet
  facet normal 0 0 -1
    outer loop
      vertex 42.4 3.99999 0
      vertex 30.4 24 0
      vertex 41.6 24 0
    endloop
  endfacet
  facet normal 0 0 -1
    outer loop
      vertex 42.4 3.99999 0
      vertex 25.6 3.99999 0
      vertex 30.4 24 0
    endloop
  endfacet
  facet normal 0 0 -1
    outer loop
      vertex 25.6 3.99999 0
      vertex 32.6 0 0
      vertex 25.6 1.79999 0
    endloop
  endfacet
  facet normal 0 0 -1
    outer loop
      vertex 23.6 0 0
      vertex 25.6 1.79999 0
      vertex 32.6 0 0
    endloop
  endfacet
  facet normal -0 0 -1
    outer loop
      vertex 25.6 1.79999 0
      vertex 23.6 0 0
      vertex 23.6 1.79999 0
    endloop
  endfacet
  facet normal 0 0 -1
    outer loop
      vertex 30.4 26.2 0
      vertex 32.4 28 0
      vertex 32.4 26.2 0
    endloop
  endfacet
  facet normal 0 0 -1
    outer loop
      vertex 13.6 24 0
      vertex 30.4 24 0
      vertex 25.6 3.99999 0
    endloop
  endfacet
  facet normal 0 0 -1
    outer loop
      vertex 30.4 26.2 0
      vertex 23.4 28 0
      vertex 32.4 28 0
    endloop
  endfacet
  facet normal 0 0 -1
    outer loop
      vertex 30.4 24 0
      vertex 23.4 28 0
      vertex 30.4 26.2 0
    endloop
  endfacet
  facet normal 0 0 -1
    outer loop
      vertex 23.4 28 0
      vertex 16.6 28 0
      vertex 23.4 30.2 0
    endloop
  endfacet
  facet normal 0 0 -1
    outer loop
      vertex 30.4 24 0
      vertex 13.6 24 0
      vertex 23.4 28 0
    endloop
  endfacet
  facet normal 0 0 -1
    outer loop
      vertex 13.6 24 0
      vertex 25.6 3.99999 0
      vertex 14.4 3.99999 0
    endloop
  endfacet
  facet normal -0 0 -1
    outer loop
      vertex 23.4 28 0
      vertex 13.6 24 0
      vertex 16.6 28 0
    endloop
  endfacet
  facet normal 0 0 -1
    outer loop
      vertex 13.6 26.2 0
      vertex 16.6 28 0
      vertex 13.6 24 0
    endloop
  endfacet
  facet normal 0 0 -1
    outer loop
      vertex 11.6 28 0
      vertex 13.6 26.2 0
      vertex 11.6 26.2 0
    endloop
  endfacet
  facet normal 0 0 -1
    outer loop
      vertex 13.6 26.2 0
      vertex 11.6 28 0
      vertex 16.6 28 0
    endloop
  endfacet
  facet normal 0 0 -1
    outer loop
      vertex 23.4 30.2 0
      vertex 25.4 32 0
      vertex 25.4 30.2 0
    endloop
  endfacet
  facet normal 0 0 -1
    outer loop
      vertex 16.6 30.2 0
      vertex 23.4 30.2 0
      vertex 16.6 28 0
    endloop
  endfacet
  facet normal 0 0 -1
    outer loop
      vertex 23.4 30.2 0
      vertex 16.6 30.2 0
      vertex 25.4 32 0
    endloop
  endfacet
  facet normal 0 0 -1
    outer loop
      vertex 14.6 32 0
      vertex 16.6 30.2 0
      vertex 14.6 30.2 0
    endloop
  endfacet
  facet normal 0 0 -1
    outer loop
      vertex 16.6 30.2 0
      vertex 14.6 32 0
      vertex 25.4 32 0
    endloop
  endfacet
  facet normal 0 0 -1
    outer loop
      vertex 16.4 0 0
      vertex 14.4 1.79999 0
      vertex 16.4 1.79999 0
    endloop
  endfacet
  facet normal 0 0 -1
    outer loop
      vertex 11.4 0 0
      vertex 14.4 3.99999 0
      vertex 14.4 1.79999 0
    endloop
  endfacet
  facet normal 0 0 -1
    outer loop
      vertex 11.4 0 0
      vertex 14.4 1.79999 0
      vertex 16.4 0 0
    endloop
  endfacet
  facet normal 0 0 -1
    outer loop
      vertex 14.4 3.99999 0
      vertex 11.4 0 0
      vertex 3.99999 2.4 0
    endloop
  endfacet
  facet normal 0 0 -1
    outer loop
      vertex 4.6 0 0
      vertex 11.4 0 0
      vertex 4.6 -2.19999 0
    endloop
  endfacet
  facet normal 0 0 -1
    outer loop
      vertex 3.99999 2.4 0
      vertex 11.4 0 0
      vertex 4.6 0 0
    endloop
  endfacet
  facet normal -0 0 -1
    outer loop
      vertex 14.4 3.99999 0
      vertex 3.99999 2.4 0
      vertex 3.99999 13.6 0
    endloop
  endfacet
  facet normal 0 0 -1
    outer loop
      vertex 14.4 3.99999 0
      vertex 3.99999 13.6 0
      vertex 13.6 24 0
    endloop
  endfacet
  facet normal 0 0 -1
    outer loop
      vertex 3.99999 13.6 0
      vertex 2.4 24 0
      vertex 13.6 24 0
    endloop
  endfacet
  facet normal 0 0 -1
    outer loop
      vertex 3.99999 13.6 0
      vertex 0 16.6 0
      vertex 2.4 24 0
    endloop
  endfacet
  facet normal 0 0 -1
    outer loop
      vertex 0 16.6 0
      vertex 3.99999 13.6 0
      vertex 1.79999 13.6 0
    endloop
  endfacet
  facet normal 0 0 -1
    outer loop
      vertex 2.4 26.2 0
      vertex 4.4 28 0
      vertex 4.4 26.2 0
    endloop
  endfacet
  facet normal 0 0 -1
    outer loop
      vertex 0 16.6 0
      vertex 1.79999 13.6 0
      vertex 0 11.6 0
    endloop
  endfacet
  facet normal 0 0 -1
    outer loop
      vertex 0 23.4 0
      vertex 2.4 24 0
      vertex 0 16.6 0
    endloop
  endfacet
  facet normal -0 0 -1
    outer loop
      vertex 2.4 24 0
      vertex 0 23.4 0
      vertex 2.4 26.2 0
    endloop
  endfacet
  facet normal 0 0 -1
    outer loop
      vertex 2.4 26.2 0
      vertex 0 28 0
      vertex 4.4 28 0
    endloop
  endfacet
  facet normal 0 0 -1
    outer loop
      vertex 0 28 0
      vertex 2.4 26.2 0
      vertex 0 23.4 0
    endloop
  endfacet
  facet normal 0 0 -1
    outer loop
      vertex -3.99999 14.6 0
      vertex -2.19999 16.6 0
      vertex -2.19999 14.6 0
    endloop
  endfacet
  facet normal -0 0 -1
    outer loop
      vertex -2.19999 16.6 0
      vertex -3.99999 14.6 0
      vertex -2.19999 23.4 0
    endloop
  endfacet
  facet normal 0 0 -1
    outer loop
      vertex -3.99999 25.4 0
      vertex -2.19999 23.4 0
      vertex -3.99999 14.6 0
    endloop
  endfacet
  facet normal 0 0 -1
    outer loop
      vertex -2.19999 23.4 0
      vertex -3.99999 25.4 0
      vertex -2.19999 25.4 0
    endloop
  endfacet
  facet normal 0 0 -1
    outer loop
      vertex -2.19999 16.6 0
      vertex 0 23.4 0
      vertex 0 16.6 0
    endloop
  endfacet
  facet normal -0 0 -1
    outer loop
      vertex 0 23.4 0
      vertex -2.19999 16.6 0
      vertex -2.19999 23.4 0
    endloop
  endfacet
  facet normal 0 1 -0
    outer loop
      vertex 16.4 1.79999 0
      vertex 14.4 1.79999 20
      vertex 16.4 1.79999 20
    endloop
  endfacet
  facet normal 0 1 0
    outer loop
      vertex 14.4 1.79999 20
      vertex 16.4 1.79999 0
      vertex 14.4 1.79999 0
    endloop
  endfacet
  facet normal 0 1 -0
    outer loop
      vertex 25.6 1.79999 0
      vertex 23.6 1.79999 20
      vertex 25.6 1.79999 20
    endloop
  endfacet
  facet normal 0 1 0
    outer loop
      vertex 23.6 1.79999 20
      vertex 25.6 1.79999 0
      vertex 23.6 1.79999 0
    endloop
  endfacet
  facet normal 1 -0 0
    outer loop
      vertex 14.4 1.79999 20
      vertex 14.4 3.99999 0
      vertex 14.4 3.99999 20
    endloop
  endfacet
  facet normal 1 0 0
    outer loop
      vertex 14.4 3.99999 0
      vertex 14.4 1.79999 20
      vertex 14.4 1.79999 0
    endloop
  endfacet
  facet normal -1 0 0
    outer loop
      vertex 25.6 1.79999 0
      vertex 25.6 3.99999 20
      vertex 25.6 3.99999 0
    endloop
  endfacet
  facet normal -1 -0 0
    outer loop
      vertex 25.6 3.99999 20
      vertex 25.6 1.79999 0
      vertex 25.6 1.79999 20
    endloop
  endfacet
  facet normal 0 -1 0
    outer loop
      vertex 14.4 3.99999 0
      vertex 25.6 3.99999 20
      vertex 14.4 3.99999 20
    endloop
  endfacet
  facet normal 0 -1 -0
    outer loop
      vertex 25.6 3.99999 20
      vertex 14.4 3.99999 0
      vertex 25.6 3.99999 0
    endloop
  endfacet
  facet normal 1 -0 0
    outer loop
      vertex 44.4 0 20
      vertex 44.4 1.79999 0
      vertex 44.4 1.79999 20
    endloop
  endfacet
  facet normal 1 0 0
    outer loop
      vertex 44.4 1.79999 0
      vertex 44.4 0 20
      vertex 44.4 0 0
    endloop
  endfacet
  facet normal -1 0 0
    outer loop
      vertex 51.6 0 0
      vertex 51.6 1.79999 20
      vertex 51.6 1.79999 0
    endloop
  endfacet
  facet normal -1 -0 0
    outer loop
      vertex 51.6 1.79999 20
      vertex 51.6 0 0
      vertex 51.6 0 20
    endloop
  endfacet
  facet normal 0 1 -0
    outer loop
      vertex 44.4 1.79999 0
      vertex 42.4 1.79999 20
      vertex 44.4 1.79999 20
    endloop
  endfacet
  facet normal 0 1 0
    outer loop
      vertex 42.4 1.79999 20
      vertex 44.4 1.79999 0
      vertex 42.4 1.79999 0
    endloop
  endfacet
  facet normal 0 1 -0
    outer loop
      vertex 53.6 1.79999 0
      vertex 51.6 1.79999 20
      vertex 53.6 1.79999 20
    endloop
  endfacet
  facet normal 0 1 0
    outer loop
      vertex 51.6 1.79999 20
      vertex 53.6 1.79999 0
      vertex 51.6 1.79999 0
    endloop
  endfacet
  facet normal 1 -0 0
    outer loop
      vertex 42.4 1.79999 20
      vertex 42.4 3.99999 0
      vertex 42.4 3.99999 20
    endloop
  endfacet
  facet normal 1 0 0
    outer loop
      vertex 42.4 3.99999 0
      vertex 42.4 1.79999 20
      vertex 42.4 1.79999 0
    endloop
  endfacet
  facet normal -1 0 0
    outer loop
      vertex 53.6 1.79999 0
      vertex 53.6 3.99999 20
      vertex 53.6 3.99999 0
    endloop
  endfacet
  facet normal -1 -0 0
    outer loop
      vertex 53.6 3.99999 20
      vertex 53.6 1.79999 0
      vertex 53.6 1.79999 20
    endloop
  endfacet
  facet normal 0 -1 0
    outer loop
      vertex 42.4 3.99999 0
      vertex 53.6 3.99999 20
      vertex 42.4 3.99999 20
    endloop
  endfacet
  facet normal 0 -1 -0
    outer loop
      vertex 53.6 3.99999 20
      vertex 42.4 3.99999 0
      vertex 53.6 3.99999 0
    endloop
  endfacet
  facet normal 1 -0 0
    outer loop
      vertex 72.4 0 20
      vertex 72.4 1.79999 0
      vertex 72.4 1.79999 20
    endloop
  endfacet
  facet normal 1 0 0
    outer loop
      vertex 72.4 1.79999 0
      vertex 72.4 0 20
      vertex 72.4 0 0
    endloop
  endfacet
  facet normal -1 0 0
    outer loop
      vertex 79.6 0 0
      vertex 79.6 1.79999 20
      vertex 79.6 1.79999 0
    endloop
  endfacet
  facet normal -1 -0 0
    outer loop
      vertex 79.6 1.79999 20
      vertex 79.6 0 0
      vertex 79.6 0 20
    endloop
  endfacet
  facet normal 0 1 -0
    outer loop
      vertex 72.4 1.79999 0
      vertex 70.4 1.79999 20
      vertex 72.4 1.79999 20
    endloop
  endfacet
  facet normal 0 1 0
    outer loop
      vertex 70.4 1.79999 20
      vertex 72.4 1.79999 0
      vertex 70.4 1.79999 0
    endloop
  endfacet
  facet normal 0 1 -0
    outer loop
      vertex 81.6 1.79999 0
      vertex 79.6 1.79999 20
      vertex 81.6 1.79999 20
    endloop
  endfacet
  facet normal 0 1 0
    outer loop
      vertex 79.6 1.79999 20
      vertex 81.6 1.79999 0
      vertex 79.6 1.79999 0
    endloop
  endfacet
  facet normal 1 -0 0
    outer loop
      vertex 70.4 1.79999 20
      vertex 70.4 3.99999 0
      vertex 70.4 3.99999 20
    endloop
  endfacet
  facet normal 1 0 0
    outer loop
      vertex 70.4 3.99999 0
      vertex 70.4 1.79999 20
      vertex 70.4 1.79999 0
    endloop
  endfacet
  facet normal -1 0 0
    outer loop
      vertex 81.6 1.79999 0
      vertex 81.6 3.99999 20
      vertex 81.6 3.99999 0
    endloop
  endfacet
  facet normal -1 -0 0
    outer loop
      vertex 81.6 3.99999 20
      vertex 81.6 1.79999 0
      vertex 81.6 1.79999 20
    endloop
  endfacet
  facet normal 0 -1 0
    outer loop
      vertex 70.4 3.99999 0
      vertex 81.6 3.99999 20
      vertex 70.4 3.99999 20
    endloop
  endfacet
  facet normal 0 -1 -0
    outer loop
      vertex 81.6 3.99999 20
      vertex 70.4 3.99999 0
      vertex 81.6 3.99999 0
    endloop
  endfacet
  facet normal 0 1 -0
    outer loop
      vertex 84 16.4 0
      vertex 82.2 16.4 20
      vertex 84 16.4 20
    endloop
  endfacet
  facet normal 0 1 0
    outer loop
      vertex 82.2 16.4 20
      vertex 84 16.4 0
      vertex 82.2 16.4 0
    endloop
  endfacet
  facet normal 0 -1 0
    outer loop
      vertex 82.2 23.6 0
      vertex 84 23.6 20
      vertex 82.2 23.6 20
    endloop
  endfacet
  facet normal 0 -1 -0
    outer loop
      vertex 84 23.6 20
      vertex 82.2 23.6 0
      vertex 84 23.6 0
    endloop
  endfacet
  facet normal -1 0 0
    outer loop
      vertex 82.2 14.4 0
      vertex 82.2 16.4 20
      vertex 82.2 16.4 0
    endloop
  endfacet
  facet normal -1 -0 0
    outer loop
      vertex 82.2 16.4 20
      vertex 82.2 14.4 0
      vertex 82.2 14.4 20
    endloop
  endfacet
  facet normal -1 0 0
    outer loop
      vertex 82.2 23.6 0
      vertex 82.2 25.6 20
      vertex 82.2 25.6 0
    endloop
  endfacet
  facet normal -1 -0 0
    outer loop
      vertex 82.2 25.6 20
      vertex 82.2 23.6 0
      vertex 82.2 23.6 20
    endloop
  endfacet
  facet normal 0 1 -0
    outer loop
      vertex 82.2 14.4 0
      vertex 80 14.4 20
      vertex 82.2 14.4 20
    endloop
  endfacet
  facet normal 0 1 0
    outer loop
      vertex 80 14.4 20
      vertex 82.2 14.4 0
      vertex 80 14.4 0
    endloop
  endfacet
  facet normal 0 -1 0
    outer loop
      vertex 80 25.6 0
      vertex 82.2 25.6 20
      vertex 80 25.6 20
    endloop
  endfacet
  facet normal 0 -1 -0
    outer loop
      vertex 82.2 25.6 20
      vertex 80 25.6 0
      vertex 82.2 25.6 0
    endloop
  endfacet
  facet normal 1 -0 0
    outer loop
      vertex 80 14.4 20
      vertex 80 25.6 0
      vertex 80 25.6 20
    endloop
  endfacet
  facet normal 1 0 0
    outer loop
      vertex 80 25.6 0
      vertex 80 14.4 20
      vertex 80 14.4 0
    endloop
  endfacet
  facet normal -1 0 0
    outer loop
      vertex 67.6 26.2 0
      vertex 67.6 28 20
      vertex 67.6 28 0
    endloop
  endfacet
  facet normal -1 -0 0
    outer loop
      vertex 67.6 28 20
      vertex 67.6 26.2 0
      vertex 67.6 26.2 20
    endloop
  endfacet
  facet normal 1 -0 0
    outer loop
      vertex 60.4 26.2 20
      vertex 60.4 28 0
      vertex 60.4 28 20
    endloop
  endfacet
  facet normal 1 0 0
    outer loop
      vertex 60.4 28 0
      vertex 60.4 26.2 20
      vertex 60.4 26.2 0
    endloop
  endfacet
  facet normal 0 -1 0
    outer loop
      vertex 67.6 26.2 0
      vertex 69.6 26.2 20
      vertex 67.6 26.2 20
    endloop
  endfacet
  facet normal 0 -1 -0
    outer loop
      vertex 69.6 26.2 20
      vertex 67.6 26.2 0
      vertex 69.6 26.2 0
    endloop
  endfacet
  facet normal 0 -1 0
    outer loop
      vertex 58.4 26.2 0
      vertex 60.4 26.2 20
      vertex 58.4 26.2 20
    endloop
  endfacet
  facet normal 0 -1 -0
    outer loop
      vertex 60.4 26.2 20
      vertex 58.4 26.2 0
      vertex 60.4 26.2 0
    endloop
  endfacet
  facet normal -1 0 0
    outer loop
      vertex 69.6 24 0
      vertex 69.6 26.2 20
      vertex 69.6 26.2 0
    endloop
  endfacet
  facet normal -1 -0 0
    outer loop
      vertex 69.6 26.2 20
      vertex 69.6 24 0
      vertex 69.6 24 20
    endloop
  endfacet
  facet normal 1 -0 0
    outer loop
      vertex 58.4 24 20
      vertex 58.4 26.2 0
      vertex 58.4 26.2 20
    endloop
  endfacet
  facet normal 1 0 0
    outer loop
      vertex 58.4 26.2 0
      vertex 58.4 24 20
      vertex 58.4 24 0
    endloop
  endfacet
  facet normal 0 1 -0
    outer loop
      vertex 69.6 24 0
      vertex 58.4 24 20
      vertex 69.6 24 20
    endloop
  endfacet
  facet normal 0 1 0
    outer loop
      vertex 58.4 24 20
      vertex 69.6 24 0
      vertex 58.4 24 0
    endloop
  endfacet
  facet normal -1 0 0
    outer loop
      vertex 39.6 26.2 0
      vertex 39.6 28 20
      vertex 39.6 28 0
    endloop
  endfacet
  facet normal -1 -0 0
    outer loop
      vertex 39.6 28 20
      vertex 39.6 26.2 0
      vertex 39.6 26.2 20
    endloop
  endfacet
  facet normal 1 -0 0
    outer loop
      vertex 32.4 26.2 20
      vertex 32.4 28 0
      vertex 32.4 28 20
    endloop
  endfacet
  facet normal 1 0 0
    outer loop
      vertex 32.4 28 0
      vertex 32.4 26.2 20
      vertex 32.4 26.2 0
    endloop
  endfacet
  facet normal 0 -1 0
    outer loop
      vertex 39.6 26.2 0
      vertex 41.6 26.2 20
      vertex 39.6 26.2 20
    endloop
  endfacet
  facet normal 0 -1 -0
    outer loop
      vertex 41.6 26.2 20
      vertex 39.6 26.2 0
      vertex 41.6 26.2 0
    endloop
  endfacet
  facet normal 0 -1 0
    outer loop
      vertex 30.4 26.2 0
      vertex 32.4 26.2 20
      vertex 30.4 26.2 20
    endloop
  endfacet
  facet normal 0 -1 -0
    outer loop
      vertex 32.4 26.2 20
      vertex 30.4 26.2 0
      vertex 32.4 26.2 0
    endloop
  endfacet
  facet normal -1 0 0
    outer loop
      vertex 41.6 24 0
      vertex 41.6 26.2 20
      vertex 41.6 26.2 0
    endloop
  endfacet
  facet normal -1 -0 0
    outer loop
      vertex 41.6 26.2 20
      vertex 41.6 24 0
      vertex 41.6 24 20
    endloop
  endfacet
  facet normal 1 -0 0
    outer loop
      vertex 30.4 24 20
      vertex 30.4 26.2 0
      vertex 30.4 26.2 20
    endloop
  endfacet
  facet normal 1 0 0
    outer loop
      vertex 30.4 26.2 0
      vertex 30.4 24 20
      vertex 30.4 24 0
    endloop
  endfacet
  facet normal 0 1 -0
    outer loop
      vertex 41.6 24 0
      vertex 30.4 24 20
      vertex 41.6 24 20
    endloop
  endfacet
  facet normal 0 1 0
    outer loop
      vertex 30.4 24 20
      vertex 41.6 24 0
      vertex 30.4 24 0
    endloop
  endfacet
  facet normal -1 0 0
    outer loop
      vertex 11.6 26.2 0
      vertex 11.6 28 20
      vertex 11.6 28 0
    endloop
  endfacet
  facet normal -1 -0 0
    outer loop
      vertex 11.6 28 20
      vertex 11.6 26.2 0
      vertex 11.6 26.2 20
    endloop
  endfacet
  facet normal 1 -0 0
    outer loop
      vertex 4.4 26.2 20
      vertex 4.4 28 0
      vertex 4.4 28 20
    endloop
  endfacet
  facet normal 1 0 0
    outer loop
      vertex 4.4 28 0
      vertex 4.4 26.2 20
      vertex 4.4 26.2 0
    endloop
  endfacet
  facet normal 0 -1 0
    outer loop
      vertex 11.6 26.2 0
      vertex 13.6 26.2 20
      vertex 11.6 26.2 20
    endloop
  endfacet
  facet normal 0 -1 -0
    outer loop
      vertex 13.6 26.2 20
      vertex 11.6 26.2 0
      vertex 13.6 26.2 0
    endloop
  endfacet
  facet normal 0 -1 0
    outer loop
      vertex 2.4 26.2 0
      vertex 4.4 26.2 20
      vertex 2.4 26.2 20
    endloop
  endfacet
  facet normal 0 -1 -0
    outer loop
      vertex 4.4 26.2 20
      vertex 2.4 26.2 0
      vertex 4.4 26.2 0
    endloop
  endfacet
  facet normal -1 0 0
    outer loop
      vertex 13.6 24 0
      vertex 13.6 26.2 20
      vertex 13.6 26.2 0
    endloop
  endfacet
  facet normal -1 -0 0
    outer loop
      vertex 13.6 26.2 20
      vertex 13.6 24 0
      vertex 13.6 24 20
    endloop
  endfacet
  facet normal 1 -0 0
    outer loop
      vertex 2.4 24 20
      vertex 2.4 26.2 0
      vertex 2.4 26.2 20
    endloop
  endfacet
  facet normal 1 0 0
    outer loop
      vertex 2.4 26.2 0
      vertex 2.4 24 20
      vertex 2.4 24 0
    endloop
  endfacet
  facet normal 0 1 -0
    outer loop
      vertex 13.6 24 0
      vertex 2.4 24 20
      vertex 13.6 24 20
    endloop
  endfacet
  facet normal 0 1 0
    outer loop
      vertex 2.4 24 20
      vertex 13.6 24 0
      vertex 2.4 24 0
    endloop
  endfacet
  facet normal 0 -1 0
    outer loop
      vertex 0 11.6 0
      vertex 1.79999 11.6 20
      vertex 0 11.6 20
    endloop
  endfacet
  facet normal 0 -1 -0
    outer loop
      vertex 1.79999 11.6 20
      vertex 0 11.6 0
      vertex 1.79999 11.6 0
    endloop
  endfacet
  facet normal 0 1 -0
    outer loop
      vertex 1.79999 4.4 0
      vertex 0 4.4 20
      vertex 1.79999 4.4 20
    endloop
  endfacet
  facet normal 0 1 0
    outer loop
      vertex 0 4.4 20
      vertex 1.79999 4.4 0
      vertex 0 4.4 0
    endloop
  endfacet
  facet normal 1 -0 0
    outer loop
      vertex 1.79999 11.6 20
      vertex 1.79999 13.6 0
      vertex 1.79999 13.6 20
    endloop
  endfacet
  facet normal 1 0 0
    outer loop
      vertex 1.79999 13.6 0
      vertex 1.79999 11.6 20
      vertex 1.79999 11.6 0
    endloop
  endfacet
  facet normal 1 -0 0
    outer loop
      vertex 1.79999 2.4 20
      vertex 1.79999 4.4 0
      vertex 1.79999 4.4 20
    endloop
  endfacet
  facet normal 1 0 0
    outer loop
      vertex 1.79999 4.4 0
      vertex 1.79999 2.4 20
      vertex 1.79999 2.4 0
    endloop
  endfacet
  facet normal 0 -1 0
    outer loop
      vertex 1.79999 13.6 0
      vertex 3.99999 13.6 20
      vertex 1.79999 13.6 20
    endloop
  endfacet
  facet normal 0 -1 -0
    outer loop
      vertex 3.99999 13.6 20
      vertex 1.79999 13.6 0
      vertex 3.99999 13.6 0
    endloop
  endfacet
  facet normal 0 1 -0
    outer loop
      vertex 3.99999 2.4 0
      vertex 1.79999 2.4 20
      vertex 3.99999 2.4 20
    endloop
  endfacet
  facet normal 0 1 0
    outer loop
      vertex 1.79999 2.4 20
      vertex 3.99999 2.4 0
      vertex 1.79999 2.4 0
    endloop
  endfacet
  facet normal -1 0 0
    outer loop
      vertex 3.99999 2.4 0
      vertex 3.99999 13.6 20
      vertex 3.99999 13.6 0
    endloop
  endfacet
  facet normal -1 -0 0
    outer loop
      vertex 3.99999 13.6 20
      vertex 3.99999 2.4 0
      vertex 3.99999 2.4 20
    endloop
  endfacet
  facet normal -1 0 0
    outer loop
      vertex 0 0 0
      vertex 0 4.4 20
      vertex 0 4.4 0
    endloop
  endfacet
  facet normal -1 -0 0
    outer loop
      vertex 0 4.4 20
      vertex 0 0 0
      vertex 0 0 20
    endloop
  endfacet
  facet normal -1 0 0
    outer loop
      vertex 0 23.4 0
      vertex 0 28 20
      vertex 0 28 0
    endloop
  endfacet
  facet normal -1 -0 0
    outer loop
      vertex 0 28 20
      vertex 0 23.4 0
      vertex 0 23.4 20
    endloop
  endfacet
  facet normal -1 0 0
    outer loop
      vertex 0 11.6 0
      vertex 0 16.6 20
      vertex 0 16.6 0
    endloop
  endfacet
  facet normal -1 -0 0
    outer loop
      vertex 0 16.6 20
      vertex 0 11.6 0
      vertex 0 11.6 20
    endloop
  endfacet
  facet normal 1 -0 0
    outer loop
      vertex 84 0 20
      vertex 84 4.6 0
      vertex 84 4.6 20
    endloop
  endfacet
  facet normal 1 0 0
    outer loop
      vertex 84 4.6 0
      vertex 84 0 20
      vertex 84 0 0
    endloop
  endfacet
  facet normal 1 -0 0
    outer loop
      vertex 84 23.6 20
      vertex 84 28 0
      vertex 84 28 20
    endloop
  endfacet
  facet normal 1 0 0
    outer loop
      vertex 84 28 0
      vertex 84 23.6 20
      vertex 84 23.6 0
    endloop
  endfacet
  facet normal 1 -0 0
    outer loop
      vertex 84 11.4 20
      vertex 84 16.4 0
      vertex 84 16.4 20
    endloop
  endfacet
  facet normal 1 0 0
    outer loop
      vertex 84 16.4 0
      vertex 84 11.4 20
      vertex 84 11.4 0
    endloop
  endfacet
  facet normal 0 1 -0
    outer loop
      vertex 84 28 0
      vertex 79.4 28 20
      vertex 84 28 20
    endloop
  endfacet
  facet normal 0 1 0
    outer loop
      vertex 79.4 28 20
      vertex 84 28 0
      vertex 79.4 28 0
    endloop
  endfacet
  facet normal 0 1 -0
    outer loop
      vertex 4.4 28 0
      vertex 0 28 20
      vertex 4.4 28 20
    endloop
  endfacet
  facet normal 0 1 0
    outer loop
      vertex 0 28 20
      vertex 4.4 28 0
      vertex 0 28 0
    endloop
  endfacet
  facet normal 0 1 -0
    outer loop
      vertex 16.6 28 0
      vertex 11.6 28 20
      vertex 16.6 28 20
    endloop
  endfacet
  facet normal 0 1 0
    outer loop
      vertex 11.6 28 20
      vertex 16.6 28 0
      vertex 11.6 28 0
    endloop
  endfacet
  facet normal 0 1 -0
    outer loop
      vertex 32.4 28 0
      vertex 23.4 28 20
      vertex 32.4 28 20
    endloop
  endfacet
  facet normal 0 1 0
    outer loop
      vertex 23.4 28 20
      vertex 32.4 28 0
      vertex 23.4 28 0
    endloop
  endfacet
  facet normal 0 1 -0
    outer loop
      vertex 44.6 28 0
      vertex 39.6 28 20
      vertex 44.6 28 20
    endloop
  endfacet
  facet normal 0 1 0
    outer loop
      vertex 39.6 28 20
      vertex 44.6 28 0
      vertex 39.6 28 0
    endloop
  endfacet
  facet normal 0 1 -0
    outer loop
      vertex 60.4 28 0
      vertex 51.4 28 20
      vertex 60.4 28 20
    endloop
  endfacet
  facet normal 0 1 0
    outer loop
      vertex 51.4 28 20
      vertex 60.4 28 0
      vertex 51.4 28 0
    endloop
  endfacet
  facet normal 0 1 -0
    outer loop
      vertex 72.6 28 0
      vertex 67.6 28 20
      vertex 72.6 28 20
    endloop
  endfacet
  facet normal 0 1 0
    outer loop
      vertex 67.6 28 20
      vertex 72.6 28 0
      vertex 67.6 28 0
    endloop
  endfacet
  facet normal 0 -1 0
    outer loop
      vertex 0 0 0
      vertex 4.6 0 20
      vertex 0 0 20
    endloop
  endfacet
  facet normal 0 -1 -0
    outer loop
      vertex 4.6 0 20
      vertex 0 0 0
      vertex 4.6 0 0
    endloop
  endfacet
  facet normal 0 -1 0
    outer loop
      vertex 79.6 0 0
      vertex 84 0 20
      vertex 79.6 0 20
    endloop
  endfacet
  facet normal 0 -1 -0
    outer loop
      vertex 84 0 20
      vertex 79.6 0 0
      vertex 84 0 0
    endloop
  endfacet
  facet normal 0 -1 0
    outer loop
      vertex 11.4 0 0
      vertex 16.4 0 20
      vertex 11.4 0 20
    endloop
  endfacet
  facet normal 0 -1 -0
    outer loop
      vertex 16.4 0 20
      vertex 11.4 0 0
      vertex 16.4 0 0
    endloop
  endfacet
  facet normal 0 -1 0
    outer loop
      vertex 23.6 0 0
      vertex 32.6 0 20
      vertex 23.6 0 20
    endloop
  endfacet
  facet normal 0 -1 -0
    outer loop
      vertex 32.6 0 20
      vertex 23.6 0 0
      vertex 32.6 0 0
    endloop
  endfacet
  facet normal 0 -1 0
    outer loop
      vertex 39.4 0 0
      vertex 44.4 0 20
      vertex 39.4 0 20
    endloop
  endfacet
  facet normal 0 -1 -0
    outer loop
      vertex 44.4 0 20
      vertex 39.4 0 0
      vertex 44.4 0 0
    endloop
  endfacet
  facet normal 0 -1 0
    outer loop
      vertex 51.6 0 0
      vertex 60.6 0 20
      vertex 51.6 0 20
    endloop
  endfacet
  facet normal 0 -1 -0
    outer loop
      vertex 60.6 0 20
      vertex 51.6 0 0
      vertex 60.6 0 0
    endloop
  endfacet
  facet normal 0 -1 0
    outer loop
      vertex 67.4 0 0
      vertex 72.4 0 20
      vertex 67.4 0 20
    endloop
  endfacet
  facet normal 0 -1 -0
    outer loop
      vertex 72.4 0 20
      vertex 67.4 0 0
      vertex 72.4 0 0
    endloop
  endfacet
  facet normal -1 0 0
    outer loop
      vertex 2.6 -3.99999 0
      vertex 2.6 -2.19999 20
      vertex 2.6 -2.19999 0
    endloop
  endfacet
  facet normal -1 -0 0
    outer loop
      vertex 2.6 -2.19999 20
      vertex 2.6 -3.99999 0
      vertex 2.6 -3.99999 20
    endloop
  endfacet
  facet normal 1 -0 0
    outer loop
      vertex 13.4 -3.99999 20
      vertex 13.4 -2.19999 0
      vertex 13.4 -2.19999 20
    endloop
  endfacet
  facet normal 1 0 0
    outer loop
      vertex 13.4 -2.19999 0
      vertex 13.4 -3.99999 20
      vertex 13.4 -3.99999 0
    endloop
  endfacet
  facet normal 0 -1 0
    outer loop
      vertex 2.6 -3.99999 0
      vertex 13.4 -3.99999 20
      vertex 2.6 -3.99999 20
    endloop
  endfacet
  facet normal 0 -1 -0
    outer loop
      vertex 13.4 -3.99999 20
      vertex 2.6 -3.99999 0
      vertex 13.4 -3.99999 0
    endloop
  endfacet
  facet normal 0 1 -0
    outer loop
      vertex 4.6 -2.19999 0
      vertex 2.6 -2.19999 20
      vertex 4.6 -2.19999 20
    endloop
  endfacet
  facet normal 0 1 0
    outer loop
      vertex 2.6 -2.19999 20
      vertex 4.6 -2.19999 0
      vertex 2.6 -2.19999 0
    endloop
  endfacet
  facet normal 0 1 -0
    outer loop
      vertex 13.4 -2.19999 0
      vertex 11.4 -2.19999 20
      vertex 13.4 -2.19999 20
    endloop
  endfacet
  facet normal 0 1 0
    outer loop
      vertex 11.4 -2.19999 20
      vertex 13.4 -2.19999 0
      vertex 11.4 -2.19999 0
    endloop
  endfacet
  facet normal -1 0 0
    outer loop
      vertex 4.6 -2.19999 0
      vertex 4.6 0 20
      vertex 4.6 0 0
    endloop
  endfacet
  facet normal -1 -0 0
    outer loop
      vertex 4.6 0 20
      vertex 4.6 -2.19999 0
      vertex 4.6 -2.19999 20
    endloop
  endfacet
  facet normal 1 -0 0
    outer loop
      vertex 11.4 -2.19999 20
      vertex 11.4 0 0
      vertex 11.4 0 20
    endloop
  endfacet
  facet normal 1 0 0
    outer loop
      vertex 11.4 0 0
      vertex 11.4 -2.19999 20
      vertex 11.4 -2.19999 0
    endloop
  endfacet
  facet normal -1 0 0
    outer loop
      vertex 30.6 -3.99999 0
      vertex 30.6 -2.19999 20
      vertex 30.6 -2.19999 0
    endloop
  endfacet
  facet normal -1 -0 0
    outer loop
      vertex 30.6 -2.19999 20
      vertex 30.6 -3.99999 0
      vertex 30.6 -3.99999 20
    endloop
  endfacet
  facet normal 1 -0 0
    outer loop
      vertex 41.4 -3.99999 20
      vertex 41.4 -2.19999 0
      vertex 41.4 -2.19999 20
    endloop
  endfacet
  facet normal 1 0 0
    outer loop
      vertex 41.4 -2.19999 0
      vertex 41.4 -3.99999 20
      vertex 41.4 -3.99999 0
    endloop
  endfacet
  facet normal 0 -1 0
    outer loop
      vertex 30.6 -3.99999 0
      vertex 41.4 -3.99999 20
      vertex 30.6 -3.99999 20
    endloop
  endfacet
  facet normal 0 -1 -0
    outer loop
      vertex 41.4 -3.99999 20
      vertex 30.6 -3.99999 0
      vertex 41.4 -3.99999 0
    endloop
  endfacet
  facet normal 0 1 -0
    outer loop
      vertex 32.6 -2.19999 0
      vertex 30.6 -2.19999 20
      vertex 32.6 -2.19999 20
    endloop
  endfacet
  facet normal 0 1 0
    outer loop
      vertex 30.6 -2.19999 20
      vertex 32.6 -2.19999 0
      vertex 30.6 -2.19999 0
    endloop
  endfacet
  facet normal 0 1 -0
    outer loop
      vertex 41.4 -2.19999 0
      vertex 39.4 -2.19999 20
      vertex 41.4 -2.19999 20
    endloop
  endfacet
  facet normal 0 1 0
    outer loop
      vertex 39.4 -2.19999 20
      vertex 41.4 -2.19999 0
      vertex 39.4 -2.19999 0
    endloop
  endfacet
  facet normal -1 0 0
    outer loop
      vertex 32.6 -2.19999 0
      vertex 32.6 0 20
      vertex 32.6 0 0
    endloop
  endfacet
  facet normal -1 -0 0
    outer loop
      vertex 32.6 0 20
      vertex 32.6 -2.19999 0
      vertex 32.6 -2.19999 20
    endloop
  endfacet
  facet normal 1 -0 0
    outer loop
      vertex 39.4 -2.19999 20
      vertex 39.4 0 0
      vertex 39.4 0 20
    endloop
  endfacet
  facet normal 1 0 0
    outer loop
      vertex 39.4 0 0
      vertex 39.4 -2.19999 20
      vertex 39.4 -2.19999 0
    endloop
  endfacet
  facet normal -1 0 0
    outer loop
      vertex 58.6 -3.99999 0
      vertex 58.6 -2.19999 20
      vertex 58.6 -2.19999 0
    endloop
  endfacet
  facet normal -1 -0 0
    outer loop
      vertex 58.6 -2.19999 20
      vertex 58.6 -3.99999 0
      vertex 58.6 -3.99999 20
    endloop
  endfacet
  facet normal 1 -0 0
    outer loop
      vertex 69.4 -3.99999 20
      vertex 69.4 -2.19999 0
      vertex 69.4 -2.19999 20
    endloop
  endfacet
  facet normal 1 0 0
    outer loop
      vertex 69.4 -2.19999 0
      vertex 69.4 -3.99999 20
      vertex 69.4 -3.99999 0
    endloop
  endfacet
  facet normal 0 -1 0
    outer loop
      vertex 58.6 -3.99999 0
      vertex 69.4 -3.99999 20
      vertex 58.6 -3.99999 20
    endloop
  endfacet
  facet normal 0 -1 -0
    outer loop
      vertex 69.4 -3.99999 20
      vertex 58.6 -3.99999 0
      vertex 69.4 -3.99999 0
    endloop
  endfacet
  facet normal 0 1 -0
    outer loop
      vertex 60.6 -2.19999 0
      vertex 58.6 -2.19999 20
      vertex 60.6 -2.19999 20
    endloop
  endfacet
  facet normal 0 1 0
    outer loop
      vertex 58.6 -2.19999 20
      vertex 60.6 -2.19999 0
      vertex 58.6 -2.19999 0
    endloop
  endfacet
  facet normal 0 1 -0
    outer loop
      vertex 69.4 -2.19999 0
      vertex 67.4 -2.19999 20
      vertex 69.4 -2.19999 20
    endloop
  endfacet
  facet normal 0 1 0
    outer loop
      vertex 67.4 -2.19999 20
      vertex 69.4 -2.19999 0
      vertex 67.4 -2.19999 0
    endloop
  endfacet
  facet normal -1 0 0
    outer loop
      vertex 60.6 -2.19999 0
      vertex 60.6 0 20
      vertex 60.6 0 0
    endloop
  endfacet
  facet normal -1 -0 0
    outer loop
      vertex 60.6 0 20
      vertex 60.6 -2.19999 0
      vertex 60.6 -2.19999 20
    endloop
  endfacet
  facet normal 1 -0 0
    outer loop
      vertex 67.4 -2.19999 20
      vertex 67.4 0 0
      vertex 67.4 0 20
    endloop
  endfacet
  facet normal 1 0 0
    outer loop
      vertex 67.4 0 0
      vertex 67.4 -2.19999 20
      vertex 67.4 -2.19999 0
    endloop
  endfacet
  facet normal 0 -1 0
    outer loop
      vertex 86.2 2.6 0
      vertex 88 2.6 20
      vertex 86.2 2.6 20
    endloop
  endfacet
  facet normal 0 -1 -0
    outer loop
      vertex 88 2.6 20
      vertex 86.2 2.6 0
      vertex 88 2.6 0
    endloop
  endfacet
  facet normal 0 1 -0
    outer loop
      vertex 88 13.4 0
      vertex 86.2 13.4 20
      vertex 88 13.4 20
    endloop
  endfacet
  facet normal 0 1 0
    outer loop
      vertex 86.2 13.4 20
      vertex 88 13.4 0
      vertex 86.2 13.4 0
    endloop
  endfacet
  facet normal 1 -0 0
    outer loop
      vertex 88 2.6 20
      vertex 88 13.4 0
      vertex 88 13.4 20
    endloop
  endfacet
  facet normal 1 0 0
    outer loop
      vertex 88 13.4 0
      vertex 88 2.6 20
      vertex 88 2.6 0
    endloop
  endfacet
  facet normal -1 0 0
    outer loop
      vertex 86.2 2.6 0
      vertex 86.2 4.6 20
      vertex 86.2 4.6 0
    endloop
  endfacet
  facet normal -1 -0 0
    outer loop
      vertex 86.2 4.6 20
      vertex 86.2 2.6 0
      vertex 86.2 2.6 20
    endloop
  endfacet
  facet normal -1 0 0
    outer loop
      vertex 86.2 11.4 0
      vertex 86.2 13.4 20
      vertex 86.2 13.4 0
    endloop
  endfacet
  facet normal -1 -0 0
    outer loop
      vertex 86.2 13.4 20
      vertex 86.2 11.4 0
      vertex 86.2 11.4 20
    endloop
  endfacet
  facet normal 0 -1 0
    outer loop
      vertex 84 4.6 0
      vertex 86.2 4.6 20
      vertex 84 4.6 20
    endloop
  endfacet
  facet normal 0 -1 -0
    outer loop
      vertex 86.2 4.6 20
      vertex 84 4.6 0
      vertex 86.2 4.6 0
    endloop
  endfacet
  facet normal 0 1 -0
    outer loop
      vertex 86.2 11.4 0
      vertex 84 11.4 20
      vertex 86.2 11.4 20
    endloop
  endfacet
  facet normal 0 1 0
    outer loop
      vertex 84 11.4 20
      vertex 86.2 11.4 0
      vertex 84 11.4 0
    endloop
  endfacet
  facet normal 1 -0 0
    outer loop
      vertex 81.4 30.2 20
      vertex 81.4 32 0
      vertex 81.4 32 20
    endloop
  endfacet
  facet normal 1 0 0
    outer loop
      vertex 81.4 32 0
      vertex 81.4 30.2 20
      vertex 81.4 30.2 0
    endloop
  endfacet
  facet normal -1 0 0
    outer loop
      vertex 70.6 30.2 0
      vertex 70.6 32 20
      vertex 70.6 32 0
    endloop
  endfacet
  facet normal -1 -0 0
    outer loop
      vertex 70.6 32 20
      vertex 70.6 30.2 0
      vertex 70.6 30.2 20
    endloop
  endfacet
  facet normal 0 1 -0
    outer loop
      vertex 81.4 32 0
      vertex 70.6 32 20
      vertex 81.4 32 20
    endloop
  endfacet
  facet normal 0 1 0
    outer loop
      vertex 70.6 32 20
      vertex 81.4 32 0
      vertex 70.6 32 0
    endloop
  endfacet
  facet normal 0 -1 0
    outer loop
      vertex 79.4 30.2 0
      vertex 81.4 30.2 20
      vertex 79.4 30.2 20
    endloop
  endfacet
  facet normal 0 -1 -0
    outer loop
      vertex 81.4 30.2 20
      vertex 79.4 30.2 0
      vertex 81.4 30.2 0
    endloop
  endfacet
  facet normal 0 -1 0
    outer loop
      vertex 70.6 30.2 0
      vertex 72.6 30.2 20
      vertex 70.6 30.2 20
    endloop
  endfacet
  facet normal 0 -1 -0
    outer loop
      vertex 72.6 30.2 20
      vertex 70.6 30.2 0
      vertex 72.6 30.2 0
    endloop
  endfacet
  facet normal 1 -0 0
    outer loop
      vertex 79.4 28 20
      vertex 79.4 30.2 0
      vertex 79.4 30.2 20
    endloop
  endfacet
  facet normal 1 0 0
    outer loop
      vertex 79.4 30.2 0
      vertex 79.4 28 20
      vertex 79.4 28 0
    endloop
  endfacet
  facet normal -1 0 0
    outer loop
      vertex 72.6 28 0
      vertex 72.6 30.2 20
      vertex 72.6 30.2 0
    endloop
  endfacet
  facet normal -1 -0 0
    outer loop
      vertex 72.6 30.2 20
      vertex 72.6 28 0
      vertex 72.6 28 20
    endloop
  endfacet
  facet normal 1 -0 0
    outer loop
      vertex 53.4 30.2 20
      vertex 53.4 32 0
      vertex 53.4 32 20
    endloop
  endfacet
  facet normal 1 0 0
    outer loop
      vertex 53.4 32 0
      vertex 53.4 30.2 20
      vertex 53.4 30.2 0
    endloop
  endfacet
  facet normal -1 0 0
    outer loop
      vertex 42.6 30.2 0
      vertex 42.6 32 20
      vertex 42.6 32 0
    endloop
  endfacet
  facet normal -1 -0 0
    outer loop
      vertex 42.6 32 20
      vertex 42.6 30.2 0
      vertex 42.6 30.2 20
    endloop
  endfacet
  facet normal 0 1 -0
    outer loop
      vertex 53.4 32 0
      vertex 42.6 32 20
      vertex 53.4 32 20
    endloop
  endfacet
  facet normal 0 1 0
    outer loop
      vertex 42.6 32 20
      vertex 53.4 32 0
      vertex 42.6 32 0
    endloop
  endfacet
  facet normal 0 -1 0
    outer loop
      vertex 51.4 30.2 0
      vertex 53.4 30.2 20
      vertex 51.4 30.2 20
    endloop
  endfacet
  facet normal 0 -1 -0
    outer loop
      vertex 53.4 30.2 20
      vertex 51.4 30.2 0
      vertex 53.4 30.2 0
    endloop
  endfacet
  facet normal 0 -1 0
    outer loop
      vertex 42.6 30.2 0
      vertex 44.6 30.2 20
      vertex 42.6 30.2 20
    endloop
  endfacet
  facet normal 0 -1 -0
    outer loop
      vertex 44.6 30.2 20
      vertex 42.6 30.2 0
      vertex 44.6 30.2 0
    endloop
  endfacet
  facet normal 1 -0 0
    outer loop
      vertex 51.4 28 20
      vertex 51.4 30.2 0
      vertex 51.4 30.2 20
    endloop
  endfacet
  facet normal 1 0 0
    outer loop
      vertex 51.4 30.2 0
      vertex 51.4 28 20
      vertex 51.4 28 0
    endloop
  endfacet
  facet normal -1 0 0
    outer loop
      vertex 44.6 28 0
      vertex 44.6 30.2 20
      vertex 44.6 30.2 0
    endloop
  endfacet
  facet normal -1 -0 0
    outer loop
      vertex 44.6 30.2 20
      vertex 44.6 28 0
      vertex 44.6 28 20
    endloop
  endfacet
  facet normal 1 -0 0
    outer loop
      vertex 25.4 30.2 20
      vertex 25.4 32 0
      vertex 25.4 32 20
    endloop
  endfacet
  facet normal 1 0 0
    outer loop
      vertex 25.4 32 0
      vertex 25.4 30.2 20
      vertex 25.4 30.2 0
    endloop
  endfacet
  facet normal -1 0 0
    outer loop
      vertex 14.6 30.2 0
      vertex 14.6 32 20
      vertex 14.6 32 0
    endloop
  endfacet
  facet normal -1 -0 0
    outer loop
      vertex 14.6 32 20
      vertex 14.6 30.2 0
      vertex 14.6 30.2 20
    endloop
  endfacet
  facet normal 0 1 -0
    outer loop
      vertex 25.4 32 0
      vertex 14.6 32 20
      vertex 25.4 32 20
    endloop
  endfacet
  facet normal 0 1 0
    outer loop
      vertex 14.6 32 20
      vertex 25.4 32 0
      vertex 14.6 32 0
    endloop
  endfacet
  facet normal 0 -1 0
    outer loop
      vertex 23.4 30.2 0
      vertex 25.4 30.2 20
      vertex 23.4 30.2 20
    endloop
  endfacet
  facet normal 0 -1 -0
    outer loop
      vertex 25.4 30.2 20
      vertex 23.4 30.2 0
      vertex 25.4 30.2 0
    endloop
  endfacet
  facet normal 0 -1 0
    outer loop
      vertex 14.6 30.2 0
      vertex 16.6 30.2 20
      vertex 14.6 30.2 20
    endloop
  endfacet
  facet normal 0 -1 -0
    outer loop
      vertex 16.6 30.2 20
      vertex 14.6 30.2 0
      vertex 16.6 30.2 0
    endloop
  endfacet
  facet normal 1 -0 0
    outer loop
      vertex 23.4 28 20
      vertex 23.4 30.2 0
      vertex 23.4 30.2 20
    endloop
  endfacet
  facet normal 1 0 0
    outer loop
      vertex 23.4 30.2 0
      vertex 23.4 28 20
      vertex 23.4 28 0
    endloop
  endfacet
  facet normal -1 0 0
    outer loop
      vertex 16.6 28 0
      vertex 16.6 30.2 20
      vertex 16.6 30.2 0
    endloop
  endfacet
  facet normal -1 -0 0
    outer loop
      vertex 16.6 30.2 20
      vertex 16.6 28 0
      vertex 16.6 28 20
    endloop
  endfacet
  facet normal 0 1 -0
    outer loop
      vertex -2.19999 25.4 0
      vertex -3.99999 25.4 20
      vertex -2.19999 25.4 20
    endloop
  endfacet
  facet normal 0 1 0
    outer loop
      vertex -3.99999 25.4 20
      vertex -2.19999 25.4 0
      vertex -3.99999 25.4 0
    endloop
  endfacet
  facet normal 0 -1 0
    outer loop
      vertex -3.99999 14.6 0
      vertex -2.19999 14.6 20
      vertex -3.99999 14.6 20
    endloop
  endfacet
  facet normal 0 -1 -0
    outer loop
      vertex -2.19999 14.6 20
      vertex -3.99999 14.6 0
      vertex -2.19999 14.6 0
    endloop
  endfacet
  facet normal -1 0 0
    outer loop
      vertex -3.99999 14.6 0
      vertex -3.99999 25.4 20
      vertex -3.99999 25.4 0
    endloop
  endfacet
  facet normal -1 -0 0
    outer loop
      vertex -3.99999 25.4 20
      vertex -3.99999 14.6 0
      vertex -3.99999 14.6 20
    endloop
  endfacet
  facet normal 1 -0 0
    outer loop
      vertex -2.19999 23.4 20
      vertex -2.19999 25.4 0
      vertex -2.19999 25.4 20
    endloop
  endfacet
  facet normal 1 0 0
    outer loop
      vertex -2.19999 25.4 0
      vertex -2.19999 23.4 20
      vertex -2.19999 23.4 0
    endloop
  endfacet
  facet normal 1 -0 0
    outer loop
      vertex -2.19999 14.6 20
      vertex -2.19999 16.6 0
      vertex -2.19999 16.6 20
    endloop
  endfacet
  facet normal 1 0 0
    outer loop
      vertex -2.19999 16.6 0
      vertex -2.19999 14.6 20
      vertex -2.19999 14.6 0
    endloop
  endfacet
  facet normal 0 1 -0
    outer loop
      vertex 0 23.4 0
      vertex -2.19999 23.4 20
      vertex 0 23.4 20
    endloop
  endfacet
  facet normal 0 1 0
    outer loop
      vertex -2.19999 23.4 20
      vertex 0 23.4 0
      vertex -2.19999 23.4 0
    endloop
  endfacet
  facet normal 0 -1 0
    outer loop
      vertex -2.19999 16.6 0
      vertex 0 16.6 20
      vertex -2.19999 16.6 20
    endloop
  endfacet
  facet normal 0 -1 -0
    outer loop
      vertex 0 16.6 20
      vertex -2.19999 16.6 0
      vertex 0 16.6 0
    endloop
  endfacet
endsolid OpenSCAD_Model
