solid OpenSCAD_Model
  facet normal 0 1 -0
    outer loop
      vertex 56 16.4 0
      vertex 54.2 16.4 40
      vertex 56 16.4 40
    endloop
  endfacet
  facet normal 0 1 0
    outer loop
      vertex 54.2 16.4 40
      vertex 56 16.4 0
      vertex 54.2 16.4 0
    endloop
  endfacet
  facet normal 0 0 1
    outer loop
      vertex 4.4 56 40
      vertex 2.4 54.2 40
      vertex 4.4 54.2 40
    endloop
  endfacet
  facet normal 0 0 1
    outer loop
      vertex 2.4 54.2 40
      vertex 0 56 40
      vertex 2.4 52 40
    endloop
  endfacet
  facet normal -0 0 1
    outer loop
      vertex 0 56 40
      vertex 2.4 54.2 40
      vertex 4.4 56 40
    endloop
  endfacet
  facet normal -0 0 1
    outer loop
      vertex 11.6 56 40
      vertex 13.6 54.2 40
      vertex 16.6 56 40
    endloop
  endfacet
  facet normal 0 0 1
    outer loop
      vertex 13.6 54.2 40
      vertex 11.6 56 40
      vertex 11.6 54.2 40
    endloop
  endfacet
  facet normal 0 0 1
    outer loop
      vertex 25.4 60 40
      vertex 23.4 58.2 40
      vertex 25.4 58.2 40
    endloop
  endfacet
  facet normal 0 0 1
    outer loop
      vertex 23.4 58.2 40
      vertex 16.6 58.2 40
      vertex 23.4 56 40
    endloop
  endfacet
  facet normal 0 0 1
    outer loop
      vertex 25.4 60 40
      vertex 16.6 58.2 40
      vertex 23.4 58.2 40
    endloop
  endfacet
  facet normal -0 0 1
    outer loop
      vertex 14.6 60 40
      vertex 16.6 58.2 40
      vertex 25.4 60 40
    endloop
  endfacet
  facet normal 0 0 1
    outer loop
      vertex 16.6 58.2 40
      vertex 14.6 60 40
      vertex 14.6 58.2 40
    endloop
  endfacet
  facet normal 0 0 1
    outer loop
      vertex 32.4 56 40
      vertex 30.4 54.2 40
      vertex 32.4 54.2 40
    endloop
  endfacet
  facet normal 0 0 1
    outer loop
      vertex 30.4 54.2 40
      vertex 23.4 56 40
      vertex 30.4 52 40
    endloop
  endfacet
  facet normal -0 0 1
    outer loop
      vertex 23.4 56 40
      vertex 30.4 54.2 40
      vertex 32.4 56 40
    endloop
  endfacet
  facet normal -0 0 1
    outer loop
      vertex 39.6 56 40
      vertex 41.6 54.2 40
      vertex 44.6 56 40
    endloop
  endfacet
  facet normal 0 0 1
    outer loop
      vertex 41.6 54.2 40
      vertex 39.6 56 40
      vertex 39.6 54.2 40
    endloop
  endfacet
  facet normal 0 0 1
    outer loop
      vertex 53.4 60 40
      vertex 51.4 58.2 40
      vertex 53.4 58.2 40
    endloop
  endfacet
  facet normal 0 0 1
    outer loop
      vertex 51.4 58.2 40
      vertex 44.6 58.2 40
      vertex 51.4 56 40
    endloop
  endfacet
  facet normal 0 0 1
    outer loop
      vertex 53.4 60 40
      vertex 44.6 58.2 40
      vertex 51.4 58.2 40
    endloop
  endfacet
  facet normal -0 0 1
    outer loop
      vertex 42.6 60 40
      vertex 44.6 58.2 40
      vertex 53.4 60 40
    endloop
  endfacet
  facet normal 0 0 1
    outer loop
      vertex 44.6 58.2 40
      vertex 42.6 60 40
      vertex 42.6 58.2 40
    endloop
  endfacet
  facet normal 0 0 1
    outer loop
      vertex 56 56 40
      vertex 54.2 53.6 40
      vertex 56 51.6 40
    endloop
  endfacet
  facet normal -0 0 1
    outer loop
      vertex 51.4 56 40
      vertex 54.2 53.6 40
      vertex 56 56 40
    endloop
  endfacet
  facet normal -0 0 1
    outer loop
      vertex 41.6 52 40
      vertex 52 42.4 40
      vertex 52 53.6 40
    endloop
  endfacet
  facet normal -0 0 1
    outer loop
      vertex 30.4 52 40
      vertex 52 42.4 40
      vertex 41.6 52 40
    endloop
  endfacet
  facet normal -0 0 1
    outer loop
      vertex 44.6 56 40
      vertex 52 53.6 40
      vertex 51.4 56 40
    endloop
  endfacet
  facet normal 0 0 1
    outer loop
      vertex 54.2 53.6 40
      vertex 51.4 56 40
      vertex 52 53.6 40
    endloop
  endfacet
  facet normal 0 0 1
    outer loop
      vertex 56 51.6 40
      vertex 54.2 53.6 40
      vertex 54.2 51.6 40
    endloop
  endfacet
  facet normal 0 0 1
    outer loop
      vertex 52 25.6 40
      vertex 56 32.6 40
      vertex 52 42.4 40
    endloop
  endfacet
  facet normal 0 0 1
    outer loop
      vertex 56 32.6 40
      vertex 52 25.6 40
      vertex 54.2 25.6 40
    endloop
  endfacet
  facet normal -0 0 1
    outer loop
      vertex 54.2 42.4 40
      vertex 56 39.4 40
      vertex 56 44.4 40
    endloop
  endfacet
  facet normal -0 0 1
    outer loop
      vertex 52 42.4 40
      vertex 56 39.4 40
      vertex 54.2 42.4 40
    endloop
  endfacet
  facet normal 0 0 1
    outer loop
      vertex 54.2 42.4 40
      vertex 56 44.4 40
      vertex 54.2 44.4 40
    endloop
  endfacet
  facet normal 0 0 1
    outer loop
      vertex 56 39.4 40
      vertex 52 42.4 40
      vertex 56 32.6 40
    endloop
  endfacet
  facet normal 0 0 1
    outer loop
      vertex 56 32.6 40
      vertex 54.2 25.6 40
      vertex 56 23.6 40
    endloop
  endfacet
  facet normal 0 0 1
    outer loop
      vertex 56 23.6 40
      vertex 54.2 25.6 40
      vertex 54.2 23.6 40
    endloop
  endfacet
  facet normal -0 0 1
    outer loop
      vertex 56 39.4 40
      vertex 58.2 32.6 40
      vertex 58.2 39.4 40
    endloop
  endfacet
  facet normal 0 0 1
    outer loop
      vertex 58.2 32.6 40
      vertex 56 39.4 40
      vertex 56 32.6 40
    endloop
  endfacet
  facet normal 0 0 1
    outer loop
      vertex 58.2 39.4 40
      vertex 60 41.4 40
      vertex 58.2 41.4 40
    endloop
  endfacet
  facet normal 0 0 1
    outer loop
      vertex 60 41.4 40
      vertex 58.2 39.4 40
      vertex 60 30.6 40
    endloop
  endfacet
  facet normal -0 0 1
    outer loop
      vertex 58.2 32.6 40
      vertex 60 30.6 40
      vertex 58.2 39.4 40
    endloop
  endfacet
  facet normal 0 0 1
    outer loop
      vertex 60 30.6 40
      vertex 58.2 32.6 40
      vertex 58.2 30.6 40
    endloop
  endfacet
  facet normal -0 0 1
    outer loop
      vertex 54.2 14.4 40
      vertex 56 11.4 40
      vertex 56 16.4 40
    endloop
  endfacet
  facet normal -0 0 1
    outer loop
      vertex 52 14.4 40
      vertex 56 11.4 40
      vertex 54.2 14.4 40
    endloop
  endfacet
  facet normal 0 0 1
    outer loop
      vertex 54.2 14.4 40
      vertex 56 16.4 40
      vertex 54.2 16.4 40
    endloop
  endfacet
  facet normal 0 0 1
    outer loop
      vertex 56 11.4 40
      vertex 52 14.4 40
      vertex 56 4.6 40
    endloop
  endfacet
  facet normal 0 0 1
    outer loop
      vertex 56 4.6 40
      vertex 52 14.4 40
      vertex 56 0 40
    endloop
  endfacet
  facet normal 0 0 1
    outer loop
      vertex 44.6 56 40
      vertex 51.4 56 40
      vertex 44.6 58.2 40
    endloop
  endfacet
  facet normal 0 0 1
    outer loop
      vertex 52 53.6 40
      vertex 44.6 56 40
      vertex 41.6 52 40
    endloop
  endfacet
  facet normal 0 0 1
    outer loop
      vertex 41.6 52 40
      vertex 44.6 56 40
      vertex 41.6 54.2 40
    endloop
  endfacet
  facet normal 0 0 1
    outer loop
      vertex 52 42.4 40
      vertex 30.4 52 40
      vertex 52 25.6 40
    endloop
  endfacet
  facet normal -0 0 1
    outer loop
      vertex 13.6 52 40
      vertex 52 25.6 40
      vertex 30.4 52 40
    endloop
  endfacet
  facet normal 0 0 1
    outer loop
      vertex 52 25.6 40
      vertex 0 0 40
      vertex 52 14.4 40
    endloop
  endfacet
  facet normal 0 0 1
    outer loop
      vertex 13.6 52 40
      vertex 30.4 52 40
      vertex 23.4 56 40
    endloop
  endfacet
  facet normal 0 0 1
    outer loop
      vertex 16.6 56 40
      vertex 23.4 56 40
      vertex 16.6 58.2 40
    endloop
  endfacet
  facet normal 0 0 1
    outer loop
      vertex 13.6 52 40
      vertex 23.4 56 40
      vertex 16.6 56 40
    endloop
  endfacet
  facet normal 0 0 1
    outer loop
      vertex 13.6 52 40
      vertex 16.6 56 40
      vertex 13.6 54.2 40
    endloop
  endfacet
  facet normal 0 0 1
    outer loop
      vertex 52 25.6 40
      vertex 13.6 52 40
      vertex 0 0 40
    endloop
  endfacet
  facet normal 0 0 1
    outer loop
      vertex 0 0 40
      vertex 13.6 52 40
      vertex 2.4 52 40
    endloop
  endfacet
  facet normal 0 0 1
    outer loop
      vertex 52 14.4 40
      vertex 0 0 40
      vertex 56 0 40
    endloop
  endfacet
  facet normal 0 0 1
    outer loop
      vertex 0 0 40
      vertex 2.4 52 40
      vertex 0 56 40
    endloop
  endfacet
  facet normal -0 0 1
    outer loop
      vertex 56 11.4 40
      vertex 58.2 4.6 40
      vertex 58.2 11.4 40
    endloop
  endfacet
  facet normal 0 0 1
    outer loop
      vertex 58.2 4.6 40
      vertex 56 11.4 40
      vertex 56 4.6 40
    endloop
  endfacet
  facet normal 0 0 1
    outer loop
      vertex 58.2 11.4 40
      vertex 60 13.4 40
      vertex 58.2 13.4 40
    endloop
  endfacet
  facet normal 0 0 1
    outer loop
      vertex 60 13.4 40
      vertex 58.2 11.4 40
      vertex 60 2.6 40
    endloop
  endfacet
  facet normal -0 0 1
    outer loop
      vertex 58.2 4.6 40
      vertex 60 2.6 40
      vertex 58.2 11.4 40
    endloop
  endfacet
  facet normal 0 0 1
    outer loop
      vertex 60 2.6 40
      vertex 58.2 4.6 40
      vertex 58.2 2.6 40
    endloop
  endfacet
  facet normal 0 -1 0
    outer loop
      vertex 54.2 23.6 0
      vertex 56 23.6 40
      vertex 54.2 23.6 40
    endloop
  endfacet
  facet normal 0 -1 -0
    outer loop
      vertex 56 23.6 40
      vertex 54.2 23.6 0
      vertex 56 23.6 0
    endloop
  endfacet
  facet normal 0 0 -1
    outer loop
      vertex 52 14.4 0
      vertex 56 4.6 0
      vertex 56 0 0
    endloop
  endfacet
  facet normal 0 0 -1
    outer loop
      vertex 56 4.6 0
      vertex 52 14.4 0
      vertex 56 11.4 0
    endloop
  endfacet
  facet normal 0 0 -1
    outer loop
      vertex 56 11.4 0
      vertex 54.2 14.4 0
      vertex 56 16.4 0
    endloop
  endfacet
  facet normal 0 0 -1
    outer loop
      vertex 56 11.4 0
      vertex 52 14.4 0
      vertex 54.2 14.4 0
    endloop
  endfacet
  facet normal 0 0 -1
    outer loop
      vertex 0 0 0
      vertex 52 25.6 0
      vertex 52 14.4 0
    endloop
  endfacet
  facet normal 0 0 -1
    outer loop
      vertex 52 25.6 0
      vertex 30.4 52 0
      vertex 52 42.4 0
    endloop
  endfacet
  facet normal 0 0 -1
    outer loop
      vertex 52 42.4 0
      vertex 41.6 52 0
      vertex 52 53.6 0
    endloop
  endfacet
  facet normal 0 0 -1
    outer loop
      vertex 51.4 56 0
      vertex 44.6 56 0
      vertex 51.4 58.2 0
    endloop
  endfacet
  facet normal 0 -0 -1
    outer loop
      vertex 44.6 56 0
      vertex 52 53.6 0
      vertex 41.6 52 0
    endloop
  endfacet
  facet normal 0 0 -1
    outer loop
      vertex 52 53.6 0
      vertex 44.6 56 0
      vertex 51.4 56 0
    endloop
  endfacet
  facet normal 0 0 -1
    outer loop
      vertex 52 42.4 0
      vertex 30.4 52 0
      vertex 41.6 52 0
    endloop
  endfacet
  facet normal 0 0 -1
    outer loop
      vertex 0 0 0
      vertex 52 14.4 0
      vertex 56 0 0
    endloop
  endfacet
  facet normal 0 0 -1
    outer loop
      vertex 30.4 52 0
      vertex 23.4 56 0
      vertex 30.4 54.2 0
    endloop
  endfacet
  facet normal 0 -0 -1
    outer loop
      vertex 13.6 52 0
      vertex 52 25.6 0
      vertex 0 0 0
    endloop
  endfacet
  facet normal 0 0 -1
    outer loop
      vertex 23.4 56 0
      vertex 16.6 56 0
      vertex 23.4 58.2 0
    endloop
  endfacet
  facet normal 0 0 -1
    outer loop
      vertex 30.4 52 0
      vertex 13.6 52 0
      vertex 23.4 56 0
    endloop
  endfacet
  facet normal -0 0 -1
    outer loop
      vertex 23.4 56 0
      vertex 13.6 52 0
      vertex 16.6 56 0
    endloop
  endfacet
  facet normal 0 0 -1
    outer loop
      vertex 52 25.6 0
      vertex 13.6 52 0
      vertex 30.4 52 0
    endloop
  endfacet
  facet normal 0 0 -1
    outer loop
      vertex 0 56 0
      vertex 2.4 52 0
      vertex 0 0 0
    endloop
  endfacet
  facet normal -0 0 -1
    outer loop
      vertex 13.6 52 0
      vertex 0 0 0
      vertex 2.4 52 0
    endloop
  endfacet
  facet normal 0 0 -1
    outer loop
      vertex 56 4.6 0
      vertex 58.2 11.4 0
      vertex 58.2 4.6 0
    endloop
  endfacet
  facet normal -0 0 -1
    outer loop
      vertex 58.2 11.4 0
      vertex 56 4.6 0
      vertex 56 11.4 0
    endloop
  endfacet
  facet normal 0 0 -1
    outer loop
      vertex 58.2 4.6 0
      vertex 60 2.6 0
      vertex 58.2 2.6 0
    endloop
  endfacet
  facet normal 0 0 -1
    outer loop
      vertex 60 2.6 0
      vertex 58.2 4.6 0
      vertex 60 13.4 0
    endloop
  endfacet
  facet normal 0 0 -1
    outer loop
      vertex 58.2 11.4 0
      vertex 60 13.4 0
      vertex 58.2 4.6 0
    endloop
  endfacet
  facet normal -0 0 -1
    outer loop
      vertex 60 13.4 0
      vertex 58.2 11.4 0
      vertex 58.2 13.4 0
    endloop
  endfacet
  facet normal -0 0 -1
    outer loop
      vertex 56 16.4 0
      vertex 54.2 14.4 0
      vertex 54.2 16.4 0
    endloop
  endfacet
  facet normal 0 0 -1
    outer loop
      vertex 52 42.4 0
      vertex 56 32.6 0
      vertex 52 25.6 0
    endloop
  endfacet
  facet normal 0 0 -1
    outer loop
      vertex 56 32.6 0
      vertex 52 42.4 0
      vertex 54.2 42.4 0
    endloop
  endfacet
  facet normal 0 0 -1
    outer loop
      vertex 54.2 25.6 0
      vertex 56 32.6 0
      vertex 56 23.6 0
    endloop
  endfacet
  facet normal 0 0 -1
    outer loop
      vertex 52 25.6 0
      vertex 56 32.6 0
      vertex 54.2 25.6 0
    endloop
  endfacet
  facet normal 0 0 -1
    outer loop
      vertex 54.2 25.6 0
      vertex 56 23.6 0
      vertex 54.2 23.6 0
    endloop
  endfacet
  facet normal 0 0 -1
    outer loop
      vertex 56 32.6 0
      vertex 54.2 42.4 0
      vertex 56 39.4 0
    endloop
  endfacet
  facet normal 0 0 -1
    outer loop
      vertex 56 39.4 0
      vertex 54.2 42.4 0
      vertex 56 44.4 0
    endloop
  endfacet
  facet normal -0 0 -1
    outer loop
      vertex 56 44.4 0
      vertex 54.2 42.4 0
      vertex 54.2 44.4 0
    endloop
  endfacet
  facet normal 0 0 -1
    outer loop
      vertex 56 32.6 0
      vertex 58.2 39.4 0
      vertex 58.2 32.6 0
    endloop
  endfacet
  facet normal -0 0 -1
    outer loop
      vertex 58.2 39.4 0
      vertex 56 32.6 0
      vertex 56 39.4 0
    endloop
  endfacet
  facet normal 0 0 -1
    outer loop
      vertex 58.2 32.6 0
      vertex 60 30.6 0
      vertex 58.2 30.6 0
    endloop
  endfacet
  facet normal 0 0 -1
    outer loop
      vertex 60 30.6 0
      vertex 58.2 32.6 0
      vertex 60 41.4 0
    endloop
  endfacet
  facet normal 0 0 -1
    outer loop
      vertex 58.2 39.4 0
      vertex 60 41.4 0
      vertex 58.2 32.6 0
    endloop
  endfacet
  facet normal -0 0 -1
    outer loop
      vertex 60 41.4 0
      vertex 58.2 39.4 0
      vertex 58.2 41.4 0
    endloop
  endfacet
  facet normal 0 0 -1
    outer loop
      vertex 54.2 53.6 0
      vertex 56 51.6 0
      vertex 54.2 51.6 0
    endloop
  endfacet
  facet normal 0 0 -1
    outer loop
      vertex 56 51.6 0
      vertex 54.2 53.6 0
      vertex 56 56 0
    endloop
  endfacet
  facet normal 0 0 -1
    outer loop
      vertex 51.4 56 0
      vertex 54.2 53.6 0
      vertex 52 53.6 0
    endloop
  endfacet
  facet normal 0 0 -1
    outer loop
      vertex 54.2 53.6 0
      vertex 51.4 56 0
      vertex 56 56 0
    endloop
  endfacet
  facet normal 0 0 -1
    outer loop
      vertex 51.4 58.2 0
      vertex 53.4 60 0
      vertex 53.4 58.2 0
    endloop
  endfacet
  facet normal 0 0 -1
    outer loop
      vertex 44.6 58.2 0
      vertex 51.4 58.2 0
      vertex 44.6 56 0
    endloop
  endfacet
  facet normal 0 0 -1
    outer loop
      vertex 51.4 58.2 0
      vertex 44.6 58.2 0
      vertex 53.4 60 0
    endloop
  endfacet
  facet normal 0 0 -1
    outer loop
      vertex 42.6 60 0
      vertex 44.6 58.2 0
      vertex 42.6 58.2 0
    endloop
  endfacet
  facet normal 0 0 -1
    outer loop
      vertex 44.6 58.2 0
      vertex 42.6 60 0
      vertex 53.4 60 0
    endloop
  endfacet
  facet normal 0 0 -1
    outer loop
      vertex 41.6 54.2 0
      vertex 44.6 56 0
      vertex 41.6 52 0
    endloop
  endfacet
  facet normal 0 0 -1
    outer loop
      vertex 39.6 56 0
      vertex 41.6 54.2 0
      vertex 39.6 54.2 0
    endloop
  endfacet
  facet normal 0 0 -1
    outer loop
      vertex 41.6 54.2 0
      vertex 39.6 56 0
      vertex 44.6 56 0
    endloop
  endfacet
  facet normal 0 0 -1
    outer loop
      vertex 30.4 54.2 0
      vertex 32.4 56 0
      vertex 32.4 54.2 0
    endloop
  endfacet
  facet normal -0 0 -1
    outer loop
      vertex 32.4 56 0
      vertex 30.4 54.2 0
      vertex 23.4 56 0
    endloop
  endfacet
  facet normal 0 0 -1
    outer loop
      vertex 23.4 58.2 0
      vertex 25.4 60 0
      vertex 25.4 58.2 0
    endloop
  endfacet
  facet normal 0 0 -1
    outer loop
      vertex 16.6 58.2 0
      vertex 23.4 58.2 0
      vertex 16.6 56 0
    endloop
  endfacet
  facet normal 0 0 -1
    outer loop
      vertex 23.4 58.2 0
      vertex 16.6 58.2 0
      vertex 25.4 60 0
    endloop
  endfacet
  facet normal 0 0 -1
    outer loop
      vertex 14.6 60 0
      vertex 16.6 58.2 0
      vertex 14.6 58.2 0
    endloop
  endfacet
  facet normal 0 0 -1
    outer loop
      vertex 16.6 58.2 0
      vertex 14.6 60 0
      vertex 25.4 60 0
    endloop
  endfacet
  facet normal 0 0 -1
    outer loop
      vertex 13.6 54.2 0
      vertex 16.6 56 0
      vertex 13.6 52 0
    endloop
  endfacet
  facet normal 0 0 -1
    outer loop
      vertex 11.6 56 0
      vertex 13.6 54.2 0
      vertex 11.6 54.2 0
    endloop
  endfacet
  facet normal 0 0 -1
    outer loop
      vertex 13.6 54.2 0
      vertex 11.6 56 0
      vertex 16.6 56 0
    endloop
  endfacet
  facet normal 0 0 -1
    outer loop
      vertex 2.4 54.2 0
      vertex 4.4 56 0
      vertex 4.4 54.2 0
    endloop
  endfacet
  facet normal 0 0 -1
    outer loop
      vertex 2.4 54.2 0
      vertex 0 56 0
      vertex 4.4 56 0
    endloop
  endfacet
  facet normal 0 0 -1
    outer loop
      vertex 2.4 52 0
      vertex 0 56 0
      vertex 2.4 54.2 0
    endloop
  endfacet
  facet normal -1 0 0
    outer loop
      vertex 54.2 14.4 0
      vertex 54.2 16.4 40
      vertex 54.2 16.4 0
    endloop
  endfacet
  facet normal -1 -0 0
    outer loop
      vertex 54.2 16.4 40
      vertex 54.2 14.4 0
      vertex 54.2 14.4 40
    endloop
  endfacet
  facet normal -1 0 0
    outer loop
      vertex 54.2 23.6 0
      vertex 54.2 25.6 40
      vertex 54.2 25.6 0
    endloop
  endfacet
  facet normal -1 -0 0
    outer loop
      vertex 54.2 25.6 40
      vertex 54.2 23.6 0
      vertex 54.2 23.6 40
    endloop
  endfacet
  facet normal 0 1 -0
    outer loop
      vertex 54.2 14.4 0
      vertex 52 14.4 40
      vertex 54.2 14.4 40
    endloop
  endfacet
  facet normal 0 1 0
    outer loop
      vertex 52 14.4 40
      vertex 54.2 14.4 0
      vertex 52 14.4 0
    endloop
  endfacet
  facet normal 0 -1 0
    outer loop
      vertex 52 25.6 0
      vertex 54.2 25.6 40
      vertex 52 25.6 40
    endloop
  endfacet
  facet normal 0 -1 -0
    outer loop
      vertex 54.2 25.6 40
      vertex 52 25.6 0
      vertex 54.2 25.6 0
    endloop
  endfacet
  facet normal 1 -0 0
    outer loop
      vertex 52 14.4 40
      vertex 52 25.6 0
      vertex 52 25.6 40
    endloop
  endfacet
  facet normal 1 0 0
    outer loop
      vertex 52 25.6 0
      vertex 52 14.4 40
      vertex 52 14.4 0
    endloop
  endfacet
  facet normal 0 1 -0
    outer loop
      vertex 56 44.4 0
      vertex 54.2 44.4 40
      vertex 56 44.4 40
    endloop
  endfacet
  facet normal 0 1 0
    outer loop
      vertex 54.2 44.4 40
      vertex 56 44.4 0
      vertex 54.2 44.4 0
    endloop
  endfacet
  facet normal 0 -1 0
    outer loop
      vertex 54.2 51.6 0
      vertex 56 51.6 40
      vertex 54.2 51.6 40
    endloop
  endfacet
  facet normal 0 -1 -0
    outer loop
      vertex 56 51.6 40
      vertex 54.2 51.6 0
      vertex 56 51.6 0
    endloop
  endfacet
  facet normal -1 0 0
    outer loop
      vertex 54.2 42.4 0
      vertex 54.2 44.4 40
      vertex 54.2 44.4 0
    endloop
  endfacet
  facet normal -1 -0 0
    outer loop
      vertex 54.2 44.4 40
      vertex 54.2 42.4 0
      vertex 54.2 42.4 40
    endloop
  endfacet
  facet normal -1 0 0
    outer loop
      vertex 54.2 51.6 0
      vertex 54.2 53.6 40
      vertex 54.2 53.6 0
    endloop
  endfacet
  facet normal -1 -0 0
    outer loop
      vertex 54.2 53.6 40
      vertex 54.2 51.6 0
      vertex 54.2 51.6 40
    endloop
  endfacet
  facet normal 0 1 -0
    outer loop
      vertex 54.2 42.4 0
      vertex 52 42.4 40
      vertex 54.2 42.4 40
    endloop
  endfacet
  facet normal 0 1 0
    outer loop
      vertex 52 42.4 40
      vertex 54.2 42.4 0
      vertex 52 42.4 0
    endloop
  endfacet
  facet normal 0 -1 0
    outer loop
      vertex 52 53.6 0
      vertex 54.2 53.6 40
      vertex 52 53.6 40
    endloop
  endfacet
  facet normal 0 -1 -0
    outer loop
      vertex 54.2 53.6 40
      vertex 52 53.6 0
      vertex 54.2 53.6 0
    endloop
  endfacet
  facet normal 1 -0 0
    outer loop
      vertex 52 42.4 40
      vertex 52 53.6 0
      vertex 52 53.6 40
    endloop
  endfacet
  facet normal 1 0 0
    outer loop
      vertex 52 53.6 0
      vertex 52 42.4 40
      vertex 52 42.4 0
    endloop
  endfacet
  facet normal -1 0 0
    outer loop
      vertex 39.6 54.2 0
      vertex 39.6 56 40
      vertex 39.6 56 0
    endloop
  endfacet
  facet normal -1 -0 0
    outer loop
      vertex 39.6 56 40
      vertex 39.6 54.2 0
      vertex 39.6 54.2 40
    endloop
  endfacet
  facet normal 1 -0 0
    outer loop
      vertex 32.4 54.2 40
      vertex 32.4 56 0
      vertex 32.4 56 40
    endloop
  endfacet
  facet normal 1 0 0
    outer loop
      vertex 32.4 56 0
      vertex 32.4 54.2 40
      vertex 32.4 54.2 0
    endloop
  endfacet
  facet normal 0 -1 0
    outer loop
      vertex 39.6 54.2 0
      vertex 41.6 54.2 40
      vertex 39.6 54.2 40
    endloop
  endfacet
  facet normal 0 -1 -0
    outer loop
      vertex 41.6 54.2 40
      vertex 39.6 54.2 0
      vertex 41.6 54.2 0
    endloop
  endfacet
  facet normal 0 -1 0
    outer loop
      vertex 30.4 54.2 0
      vertex 32.4 54.2 40
      vertex 30.4 54.2 40
    endloop
  endfacet
  facet normal 0 -1 -0
    outer loop
      vertex 32.4 54.2 40
      vertex 30.4 54.2 0
      vertex 32.4 54.2 0
    endloop
  endfacet
  facet normal -1 0 0
    outer loop
      vertex 41.6 52 0
      vertex 41.6 54.2 40
      vertex 41.6 54.2 0
    endloop
  endfacet
  facet normal -1 -0 0
    outer loop
      vertex 41.6 54.2 40
      vertex 41.6 52 0
      vertex 41.6 52 40
    endloop
  endfacet
  facet normal 1 -0 0
    outer loop
      vertex 30.4 52 40
      vertex 30.4 54.2 0
      vertex 30.4 54.2 40
    endloop
  endfacet
  facet normal 1 0 0
    outer loop
      vertex 30.4 54.2 0
      vertex 30.4 52 40
      vertex 30.4 52 0
    endloop
  endfacet
  facet normal 0 1 -0
    outer loop
      vertex 41.6 52 0
      vertex 30.4 52 40
      vertex 41.6 52 40
    endloop
  endfacet
  facet normal 0 1 0
    outer loop
      vertex 30.4 52 40
      vertex 41.6 52 0
      vertex 30.4 52 0
    endloop
  endfacet
  facet normal -1 0 0
    outer loop
      vertex 11.6 54.2 0
      vertex 11.6 56 40
      vertex 11.6 56 0
    endloop
  endfacet
  facet normal -1 -0 0
    outer loop
      vertex 11.6 56 40
      vertex 11.6 54.2 0
      vertex 11.6 54.2 40
    endloop
  endfacet
  facet normal 1 -0 0
    outer loop
      vertex 4.4 54.2 40
      vertex 4.4 56 0
      vertex 4.4 56 40
    endloop
  endfacet
  facet normal 1 0 0
    outer loop
      vertex 4.4 56 0
      vertex 4.4 54.2 40
      vertex 4.4 54.2 0
    endloop
  endfacet
  facet normal 0 -1 0
    outer loop
      vertex 11.6 54.2 0
      vertex 13.6 54.2 40
      vertex 11.6 54.2 40
    endloop
  endfacet
  facet normal 0 -1 -0
    outer loop
      vertex 13.6 54.2 40
      vertex 11.6 54.2 0
      vertex 13.6 54.2 0
    endloop
  endfacet
  facet normal 0 -1 0
    outer loop
      vertex 2.4 54.2 0
      vertex 4.4 54.2 40
      vertex 2.4 54.2 40
    endloop
  endfacet
  facet normal 0 -1 -0
    outer loop
      vertex 4.4 54.2 40
      vertex 2.4 54.2 0
      vertex 4.4 54.2 0
    endloop
  endfacet
  facet normal -1 0 0
    outer loop
      vertex 13.6 52 0
      vertex 13.6 54.2 40
      vertex 13.6 54.2 0
    endloop
  endfacet
  facet normal -1 -0 0
    outer loop
      vertex 13.6 54.2 40
      vertex 13.6 52 0
      vertex 13.6 52 40
    endloop
  endfacet
  facet normal 1 -0 0
    outer loop
      vertex 2.4 52 40
      vertex 2.4 54.2 0
      vertex 2.4 54.2 40
    endloop
  endfacet
  facet normal 1 0 0
    outer loop
      vertex 2.4 54.2 0
      vertex 2.4 52 40
      vertex 2.4 52 0
    endloop
  endfacet
  facet normal 0 1 -0
    outer loop
      vertex 13.6 52 0
      vertex 2.4 52 40
      vertex 13.6 52 40
    endloop
  endfacet
  facet normal 0 1 0
    outer loop
      vertex 2.4 52 40
      vertex 13.6 52 0
      vertex 2.4 52 0
    endloop
  endfacet
  facet normal -1 0 0
    outer loop
      vertex 0 0 0
      vertex 0 56 40
      vertex 0 56 0
    endloop
  endfacet
  facet normal -1 -0 0
    outer loop
      vertex 0 56 40
      vertex 0 0 0
      vertex 0 0 40
    endloop
  endfacet
  facet normal 1 -0 0
    outer loop
      vertex 56 0 40
      vertex 56 4.6 0
      vertex 56 4.6 40
    endloop
  endfacet
  facet normal 1 0 0
    outer loop
      vertex 56 4.6 0
      vertex 56 0 40
      vertex 56 0 0
    endloop
  endfacet
  facet normal 1 -0 0
    outer loop
      vertex 56 51.6 40
      vertex 56 56 0
      vertex 56 56 40
    endloop
  endfacet
  facet normal 1 0 0
    outer loop
      vertex 56 56 0
      vertex 56 51.6 40
      vertex 56 51.6 0
    endloop
  endfacet
  facet normal 1 -0 0
    outer loop
      vertex 56 39.4 40
      vertex 56 44.4 0
      vertex 56 44.4 40
    endloop
  endfacet
  facet normal 1 0 0
    outer loop
      vertex 56 44.4 0
      vertex 56 39.4 40
      vertex 56 39.4 0
    endloop
  endfacet
  facet normal 1 -0 0
    outer loop
      vertex 56 11.4 40
      vertex 56 16.4 0
      vertex 56 16.4 40
    endloop
  endfacet
  facet normal 1 0 0
    outer loop
      vertex 56 16.4 0
      vertex 56 11.4 40
      vertex 56 11.4 0
    endloop
  endfacet
  facet normal 1 -0 0
    outer loop
      vertex 56 23.6 40
      vertex 56 32.6 0
      vertex 56 32.6 40
    endloop
  endfacet
  facet normal 1 0 0
    outer loop
      vertex 56 32.6 0
      vertex 56 23.6 40
      vertex 56 23.6 0
    endloop
  endfacet
  facet normal 0 1 -0
    outer loop
      vertex 56 56 0
      vertex 51.4 56 40
      vertex 56 56 40
    endloop
  endfacet
  facet normal 0 1 0
    outer loop
      vertex 51.4 56 40
      vertex 56 56 0
      vertex 51.4 56 0
    endloop
  endfacet
  facet normal 0 1 -0
    outer loop
      vertex 4.4 56 0
      vertex 0 56 40
      vertex 4.4 56 40
    endloop
  endfacet
  facet normal 0 1 0
    outer loop
      vertex 0 56 40
      vertex 4.4 56 0
      vertex 0 56 0
    endloop
  endfacet
  facet normal 0 1 -0
    outer loop
      vertex 16.6 56 0
      vertex 11.6 56 40
      vertex 16.6 56 40
    endloop
  endfacet
  facet normal 0 1 0
    outer loop
      vertex 11.6 56 40
      vertex 16.6 56 0
      vertex 11.6 56 0
    endloop
  endfacet
  facet normal 0 1 -0
    outer loop
      vertex 32.4 56 0
      vertex 23.4 56 40
      vertex 32.4 56 40
    endloop
  endfacet
  facet normal 0 1 0
    outer loop
      vertex 23.4 56 40
      vertex 32.4 56 0
      vertex 23.4 56 0
    endloop
  endfacet
  facet normal 0 1 -0
    outer loop
      vertex 44.6 56 0
      vertex 39.6 56 40
      vertex 44.6 56 40
    endloop
  endfacet
  facet normal 0 1 0
    outer loop
      vertex 39.6 56 40
      vertex 44.6 56 0
      vertex 39.6 56 0
    endloop
  endfacet
  facet normal 0 -1 0
    outer loop
      vertex 0 0 0
      vertex 56 0 40
      vertex 0 0 40
    endloop
  endfacet
  facet normal 0 -1 -0
    outer loop
      vertex 56 0 40
      vertex 0 0 0
      vertex 56 0 0
    endloop
  endfacet
  facet normal 0 -1 0
    outer loop
      vertex 58.2 2.6 0
      vertex 60 2.6 40
      vertex 58.2 2.6 40
    endloop
  endfacet
  facet normal 0 -1 -0
    outer loop
      vertex 60 2.6 40
      vertex 58.2 2.6 0
      vertex 60 2.6 0
    endloop
  endfacet
  facet normal 0 1 -0
    outer loop
      vertex 60 13.4 0
      vertex 58.2 13.4 40
      vertex 60 13.4 40
    endloop
  endfacet
  facet normal 0 1 0
    outer loop
      vertex 58.2 13.4 40
      vertex 60 13.4 0
      vertex 58.2 13.4 0
    endloop
  endfacet
  facet normal -1 0 0
    outer loop
      vertex 58.2 2.6 0
      vertex 58.2 4.6 40
      vertex 58.2 4.6 0
    endloop
  endfacet
  facet normal -1 -0 0
    outer loop
      vertex 58.2 4.6 40
      vertex 58.2 2.6 0
      vertex 58.2 2.6 40
    endloop
  endfacet
  facet normal -1 0 0
    outer loop
      vertex 58.2 11.4 0
      vertex 58.2 13.4 40
      vertex 58.2 13.4 0
    endloop
  endfacet
  facet normal -1 -0 0
    outer loop
      vertex 58.2 13.4 40
      vertex 58.2 11.4 0
      vertex 58.2 11.4 40
    endloop
  endfacet
  facet normal 1 -0 0
    outer loop
      vertex 60 2.6 40
      vertex 60 13.4 0
      vertex 60 13.4 40
    endloop
  endfacet
  facet normal 1 0 0
    outer loop
      vertex 60 13.4 0
      vertex 60 2.6 40
      vertex 60 2.6 0
    endloop
  endfacet
  facet normal 0 -1 0
    outer loop
      vertex 56 4.6 0
      vertex 58.2 4.6 40
      vertex 56 4.6 40
    endloop
  endfacet
  facet normal 0 -1 -0
    outer loop
      vertex 58.2 4.6 40
      vertex 56 4.6 0
      vertex 58.2 4.6 0
    endloop
  endfacet
  facet normal 0 1 -0
    outer loop
      vertex 58.2 11.4 0
      vertex 56 11.4 40
      vertex 58.2 11.4 40
    endloop
  endfacet
  facet normal 0 1 0
    outer loop
      vertex 56 11.4 40
      vertex 58.2 11.4 0
      vertex 56 11.4 0
    endloop
  endfacet
  facet normal 0 -1 0
    outer loop
      vertex 58.2 30.6 0
      vertex 60 30.6 40
      vertex 58.2 30.6 40
    endloop
  endfacet
  facet normal 0 -1 -0
    outer loop
      vertex 60 30.6 40
      vertex 58.2 30.6 0
      vertex 60 30.6 0
    endloop
  endfacet
  facet normal 0 1 -0
    outer loop
      vertex 60 41.4 0
      vertex 58.2 41.4 40
      vertex 60 41.4 40
    endloop
  endfacet
  facet normal 0 1 0
    outer loop
      vertex 58.2 41.4 40
      vertex 60 41.4 0
      vertex 58.2 41.4 0
    endloop
  endfacet
  facet normal -1 0 0
    outer loop
      vertex 58.2 30.6 0
      vertex 58.2 32.6 40
      vertex 58.2 32.6 0
    endloop
  endfacet
  facet normal -1 -0 0
    outer loop
      vertex 58.2 32.6 40
      vertex 58.2 30.6 0
      vertex 58.2 30.6 40
    endloop
  endfacet
  facet normal -1 0 0
    outer loop
      vertex 58.2 39.4 0
      vertex 58.2 41.4 40
      vertex 58.2 41.4 0
    endloop
  endfacet
  facet normal -1 -0 0
    outer loop
      vertex 58.2 41.4 40
      vertex 58.2 39.4 0
      vertex 58.2 39.4 40
    endloop
  endfacet
  facet normal 1 -0 0
    outer loop
      vertex 60 30.6 40
      vertex 60 41.4 0
      vertex 60 41.4 40
    endloop
  endfacet
  facet normal 1 0 0
    outer loop
      vertex 60 41.4 0
      vertex 60 30.6 40
      vertex 60 30.6 0
    endloop
  endfacet
  facet normal 0 -1 0
    outer loop
      vertex 56 32.6 0
      vertex 58.2 32.6 40
      vertex 56 32.6 40
    endloop
  endfacet
  facet normal 0 -1 -0
    outer loop
      vertex 58.2 32.6 40
      vertex 56 32.6 0
      vertex 58.2 32.6 0
    endloop
  endfacet
  facet normal 0 1 -0
    outer loop
      vertex 58.2 39.4 0
      vertex 56 39.4 40
      vertex 58.2 39.4 40
    endloop
  endfacet
  facet normal 0 1 0
    outer loop
      vertex 56 39.4 40
      vertex 58.2 39.4 0
      vertex 56 39.4 0
    endloop
  endfacet
  facet normal 1 -0 0
    outer loop
      vertex 53.4 58.2 40
      vertex 53.4 60 0
      vertex 53.4 60 40
    endloop
  endfacet
  facet normal 1 0 0
    outer loop
      vertex 53.4 60 0
      vertex 53.4 58.2 40
      vertex 53.4 58.2 0
    endloop
  endfacet
  facet normal -1 0 0
    outer loop
      vertex 42.6 58.2 0
      vertex 42.6 60 40
      vertex 42.6 60 0
    endloop
  endfacet
  facet normal -1 -0 0
    outer loop
      vertex 42.6 60 40
      vertex 42.6 58.2 0
      vertex 42.6 58.2 40
    endloop
  endfacet
  facet normal 0 -1 0
    outer loop
      vertex 51.4 58.2 0
      vertex 53.4 58.2 40
      vertex 51.4 58.2 40
    endloop
  endfacet
  facet normal 0 -1 -0
    outer loop
      vertex 53.4 58.2 40
      vertex 51.4 58.2 0
      vertex 53.4 58.2 0
    endloop
  endfacet
  facet normal 0 -1 0
    outer loop
      vertex 42.6 58.2 0
      vertex 44.6 58.2 40
      vertex 42.6 58.2 40
    endloop
  endfacet
  facet normal 0 -1 -0
    outer loop
      vertex 44.6 58.2 40
      vertex 42.6 58.2 0
      vertex 44.6 58.2 0
    endloop
  endfacet
  facet normal 0 1 -0
    outer loop
      vertex 53.4 60 0
      vertex 42.6 60 40
      vertex 53.4 60 40
    endloop
  endfacet
  facet normal 0 1 0
    outer loop
      vertex 42.6 60 40
      vertex 53.4 60 0
      vertex 42.6 60 0
    endloop
  endfacet
  facet normal 1 -0 0
    outer loop
      vertex 51.4 56 40
      vertex 51.4 58.2 0
      vertex 51.4 58.2 40
    endloop
  endfacet
  facet normal 1 0 0
    outer loop
      vertex 51.4 58.2 0
      vertex 51.4 56 40
      vertex 51.4 56 0
    endloop
  endfacet
  facet normal -1 0 0
    outer loop
      vertex 44.6 56 0
      vertex 44.6 58.2 40
      vertex 44.6 58.2 0
    endloop
  endfacet
  facet normal -1 -0 0
    outer loop
      vertex 44.6 58.2 40
      vertex 44.6 56 0
      vertex 44.6 56 40
    endloop
  endfacet
  facet normal 1 -0 0
    outer loop
      vertex 25.4 58.2 40
      vertex 25.4 60 0
      vertex 25.4 60 40
    endloop
  endfacet
  facet normal 1 0 0
    outer loop
      vertex 25.4 60 0
      vertex 25.4 58.2 40
      vertex 25.4 58.2 0
    endloop
  endfacet
  facet normal -1 0 0
    outer loop
      vertex 14.6 58.2 0
      vertex 14.6 60 40
      vertex 14.6 60 0
    endloop
  endfacet
  facet normal -1 -0 0
    outer loop
      vertex 14.6 60 40
      vertex 14.6 58.2 0
      vertex 14.6 58.2 40
    endloop
  endfacet
  facet normal 0 -1 0
    outer loop
      vertex 23.4 58.2 0
      vertex 25.4 58.2 40
      vertex 23.4 58.2 40
    endloop
  endfacet
  facet normal 0 -1 -0
    outer loop
      vertex 25.4 58.2 40
      vertex 23.4 58.2 0
      vertex 25.4 58.2 0
    endloop
  endfacet
  facet normal 0 -1 0
    outer loop
      vertex 14.6 58.2 0
      vertex 16.6 58.2 40
      vertex 14.6 58.2 40
    endloop
  endfacet
  facet normal 0 -1 -0
    outer loop
      vertex 16.6 58.2 40
      vertex 14.6 58.2 0
      vertex 16.6 58.2 0
    endloop
  endfacet
  facet normal 0 1 -0
    outer loop
      vertex 25.4 60 0
      vertex 14.6 60 40
      vertex 25.4 60 40
    endloop
  endfacet
  facet normal 0 1 0
    outer loop
      vertex 14.6 60 40
      vertex 25.4 60 0
      vertex 14.6 60 0
    endloop
  endfacet
  facet normal 1 -0 0
    outer loop
      vertex 23.4 56 40
      vertex 23.4 58.2 0
      vertex 23.4 58.2 40
    endloop
  endfacet
  facet normal 1 0 0
    outer loop
      vertex 23.4 58.2 0
      vertex 23.4 56 40
      vertex 23.4 56 0
    endloop
  endfacet
  facet normal -1 0 0
    outer loop
      vertex 16.6 56 0
      vertex 16.6 58.2 40
      vertex 16.6 58.2 0
    endloop
  endfacet
  facet normal -1 -0 0
    outer loop
      vertex 16.6 58.2 40
      vertex 16.6 56 0
      vertex 16.6 56 40
    endloop
  endfacet
endsolid OpenSCAD_Model
