solid OpenSCAD_Model
  facet normal 0 1 -0
    outer loop
      vertex 140 16.4 0
      vertex 138.2 16.4 40
      vertex 140 16.4 40
    endloop
  endfacet
  facet normal 0 1 0
    outer loop
      vertex 138.2 16.4 40
      vertex 140 16.4 0
      vertex 138.2 16.4 0
    endloop
  endfacet
  facet normal 0 0 1
    outer loop
      vertex 4.4 28 40
      vertex 2.4 26.2 40
      vertex 4.4 26.2 40
    endloop
  endfacet
  facet normal 0 0 1
    outer loop
      vertex 2.4 26.2 40
      vertex 0 28 40
      vertex 2.4 24 40
    endloop
  endfacet
  facet normal -0 0 1
    outer loop
      vertex 0 28 40
      vertex 2.4 26.2 40
      vertex 4.4 28 40
    endloop
  endfacet
  facet normal -0 0 1
    outer loop
      vertex 11.6 28 40
      vertex 13.6 26.2 40
      vertex 16.6 28 40
    endloop
  endfacet
  facet normal 0 0 1
    outer loop
      vertex 13.6 26.2 40
      vertex 11.6 28 40
      vertex 11.6 26.2 40
    endloop
  endfacet
  facet normal 0 0 1
    outer loop
      vertex 25.4 32 40
      vertex 23.4 30.2 40
      vertex 25.4 30.2 40
    endloop
  endfacet
  facet normal 0 0 1
    outer loop
      vertex 23.4 30.2 40
      vertex 16.6 30.2 40
      vertex 23.4 28 40
    endloop
  endfacet
  facet normal 0 0 1
    outer loop
      vertex 25.4 32 40
      vertex 16.6 30.2 40
      vertex 23.4 30.2 40
    endloop
  endfacet
  facet normal -0 0 1
    outer loop
      vertex 14.6 32 40
      vertex 16.6 30.2 40
      vertex 25.4 32 40
    endloop
  endfacet
  facet normal 0 0 1
    outer loop
      vertex 16.6 30.2 40
      vertex 14.6 32 40
      vertex 14.6 30.2 40
    endloop
  endfacet
  facet normal 0 0 1
    outer loop
      vertex 32.4 28 40
      vertex 30.4 26.2 40
      vertex 32.4 26.2 40
    endloop
  endfacet
  facet normal 0 0 1
    outer loop
      vertex 30.4 26.2 40
      vertex 23.4 28 40
      vertex 30.4 24 40
    endloop
  endfacet
  facet normal -0 0 1
    outer loop
      vertex 23.4 28 40
      vertex 30.4 26.2 40
      vertex 32.4 28 40
    endloop
  endfacet
  facet normal -0 0 1
    outer loop
      vertex 39.6 28 40
      vertex 41.6 26.2 40
      vertex 44.6 28 40
    endloop
  endfacet
  facet normal 0 0 1
    outer loop
      vertex 41.6 26.2 40
      vertex 39.6 28 40
      vertex 39.6 26.2 40
    endloop
  endfacet
  facet normal 0 0 1
    outer loop
      vertex 53.4 32 40
      vertex 51.4 30.2 40
      vertex 53.4 30.2 40
    endloop
  endfacet
  facet normal 0 0 1
    outer loop
      vertex 51.4 30.2 40
      vertex 44.6 30.2 40
      vertex 51.4 28 40
    endloop
  endfacet
  facet normal 0 0 1
    outer loop
      vertex 53.4 32 40
      vertex 44.6 30.2 40
      vertex 51.4 30.2 40
    endloop
  endfacet
  facet normal -0 0 1
    outer loop
      vertex 42.6 32 40
      vertex 44.6 30.2 40
      vertex 53.4 32 40
    endloop
  endfacet
  facet normal 0 0 1
    outer loop
      vertex 44.6 30.2 40
      vertex 42.6 32 40
      vertex 42.6 30.2 40
    endloop
  endfacet
  facet normal 0 0 1
    outer loop
      vertex 60.4 28 40
      vertex 58.4 26.2 40
      vertex 60.4 26.2 40
    endloop
  endfacet
  facet normal 0 0 1
    outer loop
      vertex 58.4 26.2 40
      vertex 51.4 28 40
      vertex 58.4 24 40
    endloop
  endfacet
  facet normal -0 0 1
    outer loop
      vertex 51.4 28 40
      vertex 58.4 26.2 40
      vertex 60.4 28 40
    endloop
  endfacet
  facet normal -0 0 1
    outer loop
      vertex 67.6 28 40
      vertex 69.6 26.2 40
      vertex 72.6 28 40
    endloop
  endfacet
  facet normal 0 0 1
    outer loop
      vertex 69.6 26.2 40
      vertex 67.6 28 40
      vertex 67.6 26.2 40
    endloop
  endfacet
  facet normal 0 0 1
    outer loop
      vertex 81.4 32 40
      vertex 79.4 30.2 40
      vertex 81.4 30.2 40
    endloop
  endfacet
  facet normal 0 0 1
    outer loop
      vertex 79.4 30.2 40
      vertex 72.6 30.2 40
      vertex 79.4 28 40
    endloop
  endfacet
  facet normal 0 0 1
    outer loop
      vertex 81.4 32 40
      vertex 72.6 30.2 40
      vertex 79.4 30.2 40
    endloop
  endfacet
  facet normal -0 0 1
    outer loop
      vertex 70.6 32 40
      vertex 72.6 30.2 40
      vertex 81.4 32 40
    endloop
  endfacet
  facet normal 0 0 1
    outer loop
      vertex 72.6 30.2 40
      vertex 70.6 32 40
      vertex 70.6 30.2 40
    endloop
  endfacet
  facet normal 0 0 1
    outer loop
      vertex 88.4 28 40
      vertex 86.4 26.2 40
      vertex 88.4 26.2 40
    endloop
  endfacet
  facet normal 0 0 1
    outer loop
      vertex 86.4 26.2 40
      vertex 79.4 28 40
      vertex 86.4 24 40
    endloop
  endfacet
  facet normal -0 0 1
    outer loop
      vertex 79.4 28 40
      vertex 86.4 26.2 40
      vertex 88.4 28 40
    endloop
  endfacet
  facet normal -0 0 1
    outer loop
      vertex 95.6 28 40
      vertex 97.6 26.2 40
      vertex 100.6 28 40
    endloop
  endfacet
  facet normal 0 0 1
    outer loop
      vertex 97.6 26.2 40
      vertex 95.6 28 40
      vertex 95.6 26.2 40
    endloop
  endfacet
  facet normal 0 0 1
    outer loop
      vertex 109.4 32 40
      vertex 107.4 30.2 40
      vertex 109.4 30.2 40
    endloop
  endfacet
  facet normal 0 0 1
    outer loop
      vertex 107.4 30.2 40
      vertex 100.6 30.2 40
      vertex 107.4 28 40
    endloop
  endfacet
  facet normal 0 0 1
    outer loop
      vertex 109.4 32 40
      vertex 100.6 30.2 40
      vertex 107.4 30.2 40
    endloop
  endfacet
  facet normal -0 0 1
    outer loop
      vertex 98.6 32 40
      vertex 100.6 30.2 40
      vertex 109.4 32 40
    endloop
  endfacet
  facet normal 0 0 1
    outer loop
      vertex 100.6 30.2 40
      vertex 98.6 32 40
      vertex 98.6 30.2 40
    endloop
  endfacet
  facet normal 0 0 1
    outer loop
      vertex 116.4 28 40
      vertex 114.4 26.2 40
      vertex 116.4 26.2 40
    endloop
  endfacet
  facet normal 0 0 1
    outer loop
      vertex 114.4 26.2 40
      vertex 107.4 28 40
      vertex 114.4 24 40
    endloop
  endfacet
  facet normal -0 0 1
    outer loop
      vertex 107.4 28 40
      vertex 114.4 26.2 40
      vertex 116.4 28 40
    endloop
  endfacet
  facet normal -0 0 1
    outer loop
      vertex 123.6 28 40
      vertex 125.6 26.2 40
      vertex 128.6 28 40
    endloop
  endfacet
  facet normal 0 0 1
    outer loop
      vertex 125.6 26.2 40
      vertex 123.6 28 40
      vertex 123.6 26.2 40
    endloop
  endfacet
  facet normal 0 0 1
    outer loop
      vertex 137.4 32 40
      vertex 135.4 30.2 40
      vertex 137.4 30.2 40
    endloop
  endfacet
  facet normal 0 0 1
    outer loop
      vertex 135.4 30.2 40
      vertex 128.6 30.2 40
      vertex 135.4 28 40
    endloop
  endfacet
  facet normal 0 0 1
    outer loop
      vertex 137.4 32 40
      vertex 128.6 30.2 40
      vertex 135.4 30.2 40
    endloop
  endfacet
  facet normal -0 0 1
    outer loop
      vertex 126.6 32 40
      vertex 128.6 30.2 40
      vertex 137.4 32 40
    endloop
  endfacet
  facet normal 0 0 1
    outer loop
      vertex 128.6 30.2 40
      vertex 126.6 32 40
      vertex 126.6 30.2 40
    endloop
  endfacet
  facet normal 0 0 1
    outer loop
      vertex 140 28 40
      vertex 138.2 25.6 40
      vertex 140 23.6 40
    endloop
  endfacet
  facet normal -0 0 1
    outer loop
      vertex 135.4 28 40
      vertex 138.2 25.6 40
      vertex 140 28 40
    endloop
  endfacet
  facet normal -0 0 1
    outer loop
      vertex 128.6 28 40
      vertex 136 25.6 40
      vertex 135.4 28 40
    endloop
  endfacet
  facet normal 0 0 1
    outer loop
      vertex 138.2 25.6 40
      vertex 135.4 28 40
      vertex 136 25.6 40
    endloop
  endfacet
  facet normal 0 0 1
    outer loop
      vertex 140 23.6 40
      vertex 138.2 25.6 40
      vertex 138.2 23.6 40
    endloop
  endfacet
  facet normal -0 0 1
    outer loop
      vertex 138.2 14.4 40
      vertex 140 11.4 40
      vertex 140 16.4 40
    endloop
  endfacet
  facet normal -0 0 1
    outer loop
      vertex 136 14.4 40
      vertex 140 11.4 40
      vertex 138.2 14.4 40
    endloop
  endfacet
  facet normal 0 0 1
    outer loop
      vertex 138.2 14.4 40
      vertex 140 16.4 40
      vertex 138.2 16.4 40
    endloop
  endfacet
  facet normal 0 0 1
    outer loop
      vertex 140 11.4 40
      vertex 136 14.4 40
      vertex 140 4.6 40
    endloop
  endfacet
  facet normal 0 0 1
    outer loop
      vertex 140 4.6 40
      vertex 136 14.4 40
      vertex 140 0 40
    endloop
  endfacet
  facet normal 0 0 1
    outer loop
      vertex 128.6 28 40
      vertex 135.4 28 40
      vertex 128.6 30.2 40
    endloop
  endfacet
  facet normal 0 0 1
    outer loop
      vertex 136 25.6 40
      vertex 128.6 28 40
      vertex 125.6 24 40
    endloop
  endfacet
  facet normal 0 0 1
    outer loop
      vertex 136 25.6 40
      vertex 125.6 24 40
      vertex 136 14.4 40
    endloop
  endfacet
  facet normal 0 0 1
    outer loop
      vertex 125.6 24 40
      vertex 128.6 28 40
      vertex 125.6 26.2 40
    endloop
  endfacet
  facet normal -0 0 1
    outer loop
      vertex 114.4 24 40
      vertex 136 14.4 40
      vertex 125.6 24 40
    endloop
  endfacet
  facet normal 0 0 1
    outer loop
      vertex 136 14.4 40
      vertex 114.4 24 40
      vertex 140 0 40
    endloop
  endfacet
  facet normal 0 0 1
    outer loop
      vertex 97.6 24 40
      vertex 114.4 24 40
      vertex 107.4 28 40
    endloop
  endfacet
  facet normal 0 0 1
    outer loop
      vertex 100.6 28 40
      vertex 107.4 28 40
      vertex 100.6 30.2 40
    endloop
  endfacet
  facet normal 0 0 1
    outer loop
      vertex 97.6 24 40
      vertex 107.4 28 40
      vertex 100.6 28 40
    endloop
  endfacet
  facet normal 0 0 1
    outer loop
      vertex 97.6 24 40
      vertex 100.6 28 40
      vertex 97.6 26.2 40
    endloop
  endfacet
  facet normal 0 0 1
    outer loop
      vertex 114.4 24 40
      vertex 97.6 24 40
      vertex 140 0 40
    endloop
  endfacet
  facet normal -0 0 1
    outer loop
      vertex 86.4 24 40
      vertex 140 0 40
      vertex 97.6 24 40
    endloop
  endfacet
  facet normal 0 0 1
    outer loop
      vertex 72.6 28 40
      vertex 79.4 28 40
      vertex 72.6 30.2 40
    endloop
  endfacet
  facet normal 0 0 1
    outer loop
      vertex 69.6 24 40
      vertex 79.4 28 40
      vertex 72.6 28 40
    endloop
  endfacet
  facet normal 0 0 1
    outer loop
      vertex 79.4 28 40
      vertex 69.6 24 40
      vertex 86.4 24 40
    endloop
  endfacet
  facet normal 0 0 1
    outer loop
      vertex 69.6 24 40
      vertex 72.6 28 40
      vertex 69.6 26.2 40
    endloop
  endfacet
  facet normal 0 0 1
    outer loop
      vertex 86.4 24 40
      vertex 69.6 24 40
      vertex 140 0 40
    endloop
  endfacet
  facet normal 0 0 1
    outer loop
      vertex 0 0 40
      vertex 69.6 24 40
      vertex 58.4 24 40
    endloop
  endfacet
  facet normal 0 0 1
    outer loop
      vertex 44.6 28 40
      vertex 51.4 28 40
      vertex 44.6 30.2 40
    endloop
  endfacet
  facet normal 0 0 1
    outer loop
      vertex 41.6 24 40
      vertex 51.4 28 40
      vertex 44.6 28 40
    endloop
  endfacet
  facet normal 0 0 1
    outer loop
      vertex 51.4 28 40
      vertex 41.6 24 40
      vertex 58.4 24 40
    endloop
  endfacet
  facet normal 0 0 1
    outer loop
      vertex 41.6 24 40
      vertex 44.6 28 40
      vertex 41.6 26.2 40
    endloop
  endfacet
  facet normal 0 0 1
    outer loop
      vertex 0 0 40
      vertex 58.4 24 40
      vertex 41.6 24 40
    endloop
  endfacet
  facet normal 0 0 1
    outer loop
      vertex 0 0 40
      vertex 41.6 24 40
      vertex 30.4 24 40
    endloop
  endfacet
  facet normal 0 0 1
    outer loop
      vertex 16.6 28 40
      vertex 23.4 28 40
      vertex 16.6 30.2 40
    endloop
  endfacet
  facet normal 0 0 1
    outer loop
      vertex 13.6 24 40
      vertex 23.4 28 40
      vertex 16.6 28 40
    endloop
  endfacet
  facet normal 0 0 1
    outer loop
      vertex 13.6 24 40
      vertex 16.6 28 40
      vertex 13.6 26.2 40
    endloop
  endfacet
  facet normal 0 0 1
    outer loop
      vertex 23.4 28 40
      vertex 13.6 24 40
      vertex 30.4 24 40
    endloop
  endfacet
  facet normal 0 0 1
    outer loop
      vertex 0 0 40
      vertex 30.4 24 40
      vertex 13.6 24 40
    endloop
  endfacet
  facet normal 0 0 1
    outer loop
      vertex 0 0 40
      vertex 13.6 24 40
      vertex 2.4 24 40
    endloop
  endfacet
  facet normal 0 0 1
    outer loop
      vertex 69.6 24 40
      vertex 0 0 40
      vertex 140 0 40
    endloop
  endfacet
  facet normal 0 0 1
    outer loop
      vertex 0 0 40
      vertex 2.4 24 40
      vertex 0 28 40
    endloop
  endfacet
  facet normal -0 0 1
    outer loop
      vertex 140 11.4 40
      vertex 142.2 4.6 40
      vertex 142.2 11.4 40
    endloop
  endfacet
  facet normal 0 0 1
    outer loop
      vertex 142.2 4.6 40
      vertex 140 11.4 40
      vertex 140 4.6 40
    endloop
  endfacet
  facet normal 0 0 1
    outer loop
      vertex 142.2 11.4 40
      vertex 144 13.4 40
      vertex 142.2 13.4 40
    endloop
  endfacet
  facet normal 0 0 1
    outer loop
      vertex 144 13.4 40
      vertex 142.2 11.4 40
      vertex 144 2.6 40
    endloop
  endfacet
  facet normal -0 0 1
    outer loop
      vertex 142.2 4.6 40
      vertex 144 2.6 40
      vertex 142.2 11.4 40
    endloop
  endfacet
  facet normal 0 0 1
    outer loop
      vertex 144 2.6 40
      vertex 142.2 4.6 40
      vertex 142.2 2.6 40
    endloop
  endfacet
  facet normal 0 -1 0
    outer loop
      vertex 138.2 23.6 0
      vertex 140 23.6 40
      vertex 138.2 23.6 40
    endloop
  endfacet
  facet normal 0 -1 -0
    outer loop
      vertex 140 23.6 40
      vertex 138.2 23.6 0
      vertex 140 23.6 0
    endloop
  endfacet
  facet normal 0 0 -1
    outer loop
      vertex 136 14.4 0
      vertex 140 4.6 0
      vertex 140 0 0
    endloop
  endfacet
  facet normal 0 0 -1
    outer loop
      vertex 140 4.6 0
      vertex 136 14.4 0
      vertex 140 11.4 0
    endloop
  endfacet
  facet normal 0 0 -1
    outer loop
      vertex 140 11.4 0
      vertex 138.2 14.4 0
      vertex 140 16.4 0
    endloop
  endfacet
  facet normal 0 0 -1
    outer loop
      vertex 140 11.4 0
      vertex 136 14.4 0
      vertex 138.2 14.4 0
    endloop
  endfacet
  facet normal 0 0 -1
    outer loop
      vertex 125.6 24 0
      vertex 136 25.6 0
      vertex 136 14.4 0
    endloop
  endfacet
  facet normal 0 0 -1
    outer loop
      vertex 135.4 28 0
      vertex 128.6 28 0
      vertex 135.4 30.2 0
    endloop
  endfacet
  facet normal 0 -0 -1
    outer loop
      vertex 128.6 28 0
      vertex 136 25.6 0
      vertex 125.6 24 0
    endloop
  endfacet
  facet normal 0 0 -1
    outer loop
      vertex 114.4 24 0
      vertex 136 14.4 0
      vertex 140 0 0
    endloop
  endfacet
  facet normal 0 0 -1
    outer loop
      vertex 136 25.6 0
      vertex 128.6 28 0
      vertex 135.4 28 0
    endloop
  endfacet
  facet normal 0 0 -1
    outer loop
      vertex 136 14.4 0
      vertex 114.4 24 0
      vertex 125.6 24 0
    endloop
  endfacet
  facet normal 0 0 -1
    outer loop
      vertex 114.4 24 0
      vertex 107.4 28 0
      vertex 114.4 26.2 0
    endloop
  endfacet
  facet normal 0 0 -1
    outer loop
      vertex 97.6 24 0
      vertex 114.4 24 0
      vertex 140 0 0
    endloop
  endfacet
  facet normal 0 0 -1
    outer loop
      vertex 107.4 28 0
      vertex 100.6 28 0
      vertex 107.4 30.2 0
    endloop
  endfacet
  facet normal 0 0 -1
    outer loop
      vertex 114.4 24 0
      vertex 97.6 24 0
      vertex 107.4 28 0
    endloop
  endfacet
  facet normal -0 0 -1
    outer loop
      vertex 107.4 28 0
      vertex 97.6 24 0
      vertex 100.6 28 0
    endloop
  endfacet
  facet normal 0 0 -1
    outer loop
      vertex 140 0 0
      vertex 86.4 24 0
      vertex 97.6 24 0
    endloop
  endfacet
  facet normal 0 0 -1
    outer loop
      vertex 86.4 24 0
      vertex 79.4 28 0
      vertex 86.4 26.2 0
    endloop
  endfacet
  facet normal 0 0 -1
    outer loop
      vertex 79.4 28 0
      vertex 72.6 28 0
      vertex 79.4 30.2 0
    endloop
  endfacet
  facet normal 0 0 -1
    outer loop
      vertex 69.6 24 0
      vertex 79.4 28 0
      vertex 86.4 24 0
    endloop
  endfacet
  facet normal 0 0 -1
    outer loop
      vertex 69.6 24 0
      vertex 86.4 24 0
      vertex 140 0 0
    endloop
  endfacet
  facet normal -0 0 -1
    outer loop
      vertex 79.4 28 0
      vertex 69.6 24 0
      vertex 72.6 28 0
    endloop
  endfacet
  facet normal 0 0 -1
    outer loop
      vertex 0 0 0
      vertex 69.6 24 0
      vertex 140 0 0
    endloop
  endfacet
  facet normal 0 0 -1
    outer loop
      vertex 58.4 24 0
      vertex 51.4 28 0
      vertex 58.4 26.2 0
    endloop
  endfacet
  facet normal 0 0 -1
    outer loop
      vertex 51.4 28 0
      vertex 44.6 28 0
      vertex 51.4 30.2 0
    endloop
  endfacet
  facet normal 0 0 -1
    outer loop
      vertex 41.6 24 0
      vertex 51.4 28 0
      vertex 58.4 24 0
    endloop
  endfacet
  facet normal -0 0 -1
    outer loop
      vertex 69.6 24 0
      vertex 0 0 0
      vertex 58.4 24 0
    endloop
  endfacet
  facet normal -0 0 -1
    outer loop
      vertex 51.4 28 0
      vertex 41.6 24 0
      vertex 44.6 28 0
    endloop
  endfacet
  facet normal -0 0 -1
    outer loop
      vertex 58.4 24 0
      vertex 0 0 0
      vertex 41.6 24 0
    endloop
  endfacet
  facet normal 0 0 -1
    outer loop
      vertex 30.4 24 0
      vertex 23.4 28 0
      vertex 30.4 26.2 0
    endloop
  endfacet
  facet normal 0 0 -1
    outer loop
      vertex 23.4 28 0
      vertex 16.6 28 0
      vertex 23.4 30.2 0
    endloop
  endfacet
  facet normal 0 0 -1
    outer loop
      vertex 13.6 24 0
      vertex 23.4 28 0
      vertex 30.4 24 0
    endloop
  endfacet
  facet normal -0 0 -1
    outer loop
      vertex 23.4 28 0
      vertex 13.6 24 0
      vertex 16.6 28 0
    endloop
  endfacet
  facet normal -0 0 -1
    outer loop
      vertex 41.6 24 0
      vertex 0 0 0
      vertex 30.4 24 0
    endloop
  endfacet
  facet normal -0 0 -1
    outer loop
      vertex 30.4 24 0
      vertex 0 0 0
      vertex 13.6 24 0
    endloop
  endfacet
  facet normal 0 0 -1
    outer loop
      vertex 0 28 0
      vertex 2.4 24 0
      vertex 0 0 0
    endloop
  endfacet
  facet normal -0 0 -1
    outer loop
      vertex 13.6 24 0
      vertex 0 0 0
      vertex 2.4 24 0
    endloop
  endfacet
  facet normal 0 0 -1
    outer loop
      vertex 140 4.6 0
      vertex 142.2 11.4 0
      vertex 142.2 4.6 0
    endloop
  endfacet
  facet normal -0 0 -1
    outer loop
      vertex 142.2 11.4 0
      vertex 140 4.6 0
      vertex 140 11.4 0
    endloop
  endfacet
  facet normal 0 0 -1
    outer loop
      vertex 142.2 4.6 0
      vertex 144 2.6 0
      vertex 142.2 2.6 0
    endloop
  endfacet
  facet normal 0 0 -1
    outer loop
      vertex 144 2.6 0
      vertex 142.2 4.6 0
      vertex 144 13.4 0
    endloop
  endfacet
  facet normal 0 0 -1
    outer loop
      vertex 142.2 11.4 0
      vertex 144 13.4 0
      vertex 142.2 4.6 0
    endloop
  endfacet
  facet normal -0 0 -1
    outer loop
      vertex 144 13.4 0
      vertex 142.2 11.4 0
      vertex 142.2 13.4 0
    endloop
  endfacet
  facet normal -0 0 -1
    outer loop
      vertex 140 16.4 0
      vertex 138.2 14.4 0
      vertex 138.2 16.4 0
    endloop
  endfacet
  facet normal 0 0 -1
    outer loop
      vertex 138.2 25.6 0
      vertex 140 23.6 0
      vertex 138.2 23.6 0
    endloop
  endfacet
  facet normal 0 0 -1
    outer loop
      vertex 140 23.6 0
      vertex 138.2 25.6 0
      vertex 140 28 0
    endloop
  endfacet
  facet normal 0 0 -1
    outer loop
      vertex 135.4 28 0
      vertex 138.2 25.6 0
      vertex 136 25.6 0
    endloop
  endfacet
  facet normal 0 0 -1
    outer loop
      vertex 138.2 25.6 0
      vertex 135.4 28 0
      vertex 140 28 0
    endloop
  endfacet
  facet normal 0 0 -1
    outer loop
      vertex 135.4 30.2 0
      vertex 137.4 32 0
      vertex 137.4 30.2 0
    endloop
  endfacet
  facet normal 0 0 -1
    outer loop
      vertex 128.6 30.2 0
      vertex 135.4 30.2 0
      vertex 128.6 28 0
    endloop
  endfacet
  facet normal 0 0 -1
    outer loop
      vertex 135.4 30.2 0
      vertex 128.6 30.2 0
      vertex 137.4 32 0
    endloop
  endfacet
  facet normal 0 0 -1
    outer loop
      vertex 126.6 32 0
      vertex 128.6 30.2 0
      vertex 126.6 30.2 0
    endloop
  endfacet
  facet normal 0 0 -1
    outer loop
      vertex 128.6 30.2 0
      vertex 126.6 32 0
      vertex 137.4 32 0
    endloop
  endfacet
  facet normal 0 0 -1
    outer loop
      vertex 125.6 26.2 0
      vertex 128.6 28 0
      vertex 125.6 24 0
    endloop
  endfacet
  facet normal 0 0 -1
    outer loop
      vertex 123.6 28 0
      vertex 125.6 26.2 0
      vertex 123.6 26.2 0
    endloop
  endfacet
  facet normal 0 0 -1
    outer loop
      vertex 125.6 26.2 0
      vertex 123.6 28 0
      vertex 128.6 28 0
    endloop
  endfacet
  facet normal 0 0 -1
    outer loop
      vertex 114.4 26.2 0
      vertex 116.4 28 0
      vertex 116.4 26.2 0
    endloop
  endfacet
  facet normal -0 0 -1
    outer loop
      vertex 116.4 28 0
      vertex 114.4 26.2 0
      vertex 107.4 28 0
    endloop
  endfacet
  facet normal 0 0 -1
    outer loop
      vertex 107.4 30.2 0
      vertex 109.4 32 0
      vertex 109.4 30.2 0
    endloop
  endfacet
  facet normal 0 0 -1
    outer loop
      vertex 100.6 30.2 0
      vertex 107.4 30.2 0
      vertex 100.6 28 0
    endloop
  endfacet
  facet normal 0 0 -1
    outer loop
      vertex 107.4 30.2 0
      vertex 100.6 30.2 0
      vertex 109.4 32 0
    endloop
  endfacet
  facet normal 0 0 -1
    outer loop
      vertex 98.6 32 0
      vertex 100.6 30.2 0
      vertex 98.6 30.2 0
    endloop
  endfacet
  facet normal 0 0 -1
    outer loop
      vertex 100.6 30.2 0
      vertex 98.6 32 0
      vertex 109.4 32 0
    endloop
  endfacet
  facet normal 0 0 -1
    outer loop
      vertex 97.6 26.2 0
      vertex 100.6 28 0
      vertex 97.6 24 0
    endloop
  endfacet
  facet normal 0 0 -1
    outer loop
      vertex 95.6 28 0
      vertex 97.6 26.2 0
      vertex 95.6 26.2 0
    endloop
  endfacet
  facet normal 0 0 -1
    outer loop
      vertex 97.6 26.2 0
      vertex 95.6 28 0
      vertex 100.6 28 0
    endloop
  endfacet
  facet normal 0 0 -1
    outer loop
      vertex 86.4 26.2 0
      vertex 88.4 28 0
      vertex 88.4 26.2 0
    endloop
  endfacet
  facet normal -0 0 -1
    outer loop
      vertex 88.4 28 0
      vertex 86.4 26.2 0
      vertex 79.4 28 0
    endloop
  endfacet
  facet normal 0 0 -1
    outer loop
      vertex 79.4 30.2 0
      vertex 81.4 32 0
      vertex 81.4 30.2 0
    endloop
  endfacet
  facet normal 0 0 -1
    outer loop
      vertex 72.6 30.2 0
      vertex 79.4 30.2 0
      vertex 72.6 28 0
    endloop
  endfacet
  facet normal 0 0 -1
    outer loop
      vertex 79.4 30.2 0
      vertex 72.6 30.2 0
      vertex 81.4 32 0
    endloop
  endfacet
  facet normal 0 0 -1
    outer loop
      vertex 70.6 32 0
      vertex 72.6 30.2 0
      vertex 70.6 30.2 0
    endloop
  endfacet
  facet normal 0 0 -1
    outer loop
      vertex 72.6 30.2 0
      vertex 70.6 32 0
      vertex 81.4 32 0
    endloop
  endfacet
  facet normal 0 0 -1
    outer loop
      vertex 69.6 26.2 0
      vertex 72.6 28 0
      vertex 69.6 24 0
    endloop
  endfacet
  facet normal 0 0 -1
    outer loop
      vertex 67.6 28 0
      vertex 69.6 26.2 0
      vertex 67.6 26.2 0
    endloop
  endfacet
  facet normal 0 0 -1
    outer loop
      vertex 69.6 26.2 0
      vertex 67.6 28 0
      vertex 72.6 28 0
    endloop
  endfacet
  facet normal 0 0 -1
    outer loop
      vertex 58.4 26.2 0
      vertex 60.4 28 0
      vertex 60.4 26.2 0
    endloop
  endfacet
  facet normal -0 0 -1
    outer loop
      vertex 60.4 28 0
      vertex 58.4 26.2 0
      vertex 51.4 28 0
    endloop
  endfacet
  facet normal 0 0 -1
    outer loop
      vertex 51.4 30.2 0
      vertex 53.4 32 0
      vertex 53.4 30.2 0
    endloop
  endfacet
  facet normal 0 0 -1
    outer loop
      vertex 44.6 30.2 0
      vertex 51.4 30.2 0
      vertex 44.6 28 0
    endloop
  endfacet
  facet normal 0 0 -1
    outer loop
      vertex 51.4 30.2 0
      vertex 44.6 30.2 0
      vertex 53.4 32 0
    endloop
  endfacet
  facet normal 0 0 -1
    outer loop
      vertex 42.6 32 0
      vertex 44.6 30.2 0
      vertex 42.6 30.2 0
    endloop
  endfacet
  facet normal 0 0 -1
    outer loop
      vertex 44.6 30.2 0
      vertex 42.6 32 0
      vertex 53.4 32 0
    endloop
  endfacet
  facet normal 0 0 -1
    outer loop
      vertex 41.6 26.2 0
      vertex 44.6 28 0
      vertex 41.6 24 0
    endloop
  endfacet
  facet normal 0 0 -1
    outer loop
      vertex 39.6 28 0
      vertex 41.6 26.2 0
      vertex 39.6 26.2 0
    endloop
  endfacet
  facet normal 0 0 -1
    outer loop
      vertex 41.6 26.2 0
      vertex 39.6 28 0
      vertex 44.6 28 0
    endloop
  endfacet
  facet normal 0 0 -1
    outer loop
      vertex 30.4 26.2 0
      vertex 32.4 28 0
      vertex 32.4 26.2 0
    endloop
  endfacet
  facet normal -0 0 -1
    outer loop
      vertex 32.4 28 0
      vertex 30.4 26.2 0
      vertex 23.4 28 0
    endloop
  endfacet
  facet normal 0 0 -1
    outer loop
      vertex 23.4 30.2 0
      vertex 25.4 32 0
      vertex 25.4 30.2 0
    endloop
  endfacet
  facet normal 0 0 -1
    outer loop
      vertex 16.6 30.2 0
      vertex 23.4 30.2 0
      vertex 16.6 28 0
    endloop
  endfacet
  facet normal 0 0 -1
    outer loop
      vertex 23.4 30.2 0
      vertex 16.6 30.2 0
      vertex 25.4 32 0
    endloop
  endfacet
  facet normal 0 0 -1
    outer loop
      vertex 14.6 32 0
      vertex 16.6 30.2 0
      vertex 14.6 30.2 0
    endloop
  endfacet
  facet normal 0 0 -1
    outer loop
      vertex 16.6 30.2 0
      vertex 14.6 32 0
      vertex 25.4 32 0
    endloop
  endfacet
  facet normal 0 0 -1
    outer loop
      vertex 13.6 26.2 0
      vertex 16.6 28 0
      vertex 13.6 24 0
    endloop
  endfacet
  facet normal 0 0 -1
    outer loop
      vertex 11.6 28 0
      vertex 13.6 26.2 0
      vertex 11.6 26.2 0
    endloop
  endfacet
  facet normal 0 0 -1
    outer loop
      vertex 13.6 26.2 0
      vertex 11.6 28 0
      vertex 16.6 28 0
    endloop
  endfacet
  facet normal 0 0 -1
    outer loop
      vertex 2.4 26.2 0
      vertex 4.4 28 0
      vertex 4.4 26.2 0
    endloop
  endfacet
  facet normal 0 0 -1
    outer loop
      vertex 2.4 26.2 0
      vertex 0 28 0
      vertex 4.4 28 0
    endloop
  endfacet
  facet normal 0 0 -1
    outer loop
      vertex 2.4 24 0
      vertex 0 28 0
      vertex 2.4 26.2 0
    endloop
  endfacet
  facet normal -1 0 0
    outer loop
      vertex 138.2 14.4 0
      vertex 138.2 16.4 40
      vertex 138.2 16.4 0
    endloop
  endfacet
  facet normal -1 -0 0
    outer loop
      vertex 138.2 16.4 40
      vertex 138.2 14.4 0
      vertex 138.2 14.4 40
    endloop
  endfacet
  facet normal -1 0 0
    outer loop
      vertex 138.2 23.6 0
      vertex 138.2 25.6 40
      vertex 138.2 25.6 0
    endloop
  endfacet
  facet normal -1 -0 0
    outer loop
      vertex 138.2 25.6 40
      vertex 138.2 23.6 0
      vertex 138.2 23.6 40
    endloop
  endfacet
  facet normal 0 1 -0
    outer loop
      vertex 138.2 14.4 0
      vertex 136 14.4 40
      vertex 138.2 14.4 40
    endloop
  endfacet
  facet normal 0 1 0
    outer loop
      vertex 136 14.4 40
      vertex 138.2 14.4 0
      vertex 136 14.4 0
    endloop
  endfacet
  facet normal 0 -1 0
    outer loop
      vertex 136 25.6 0
      vertex 138.2 25.6 40
      vertex 136 25.6 40
    endloop
  endfacet
  facet normal 0 -1 -0
    outer loop
      vertex 138.2 25.6 40
      vertex 136 25.6 0
      vertex 138.2 25.6 0
    endloop
  endfacet
  facet normal 1 -0 0
    outer loop
      vertex 136 14.4 40
      vertex 136 25.6 0
      vertex 136 25.6 40
    endloop
  endfacet
  facet normal 1 0 0
    outer loop
      vertex 136 25.6 0
      vertex 136 14.4 40
      vertex 136 14.4 0
    endloop
  endfacet
  facet normal -1 0 0
    outer loop
      vertex 123.6 26.2 0
      vertex 123.6 28 40
      vertex 123.6 28 0
    endloop
  endfacet
  facet normal -1 -0 0
    outer loop
      vertex 123.6 28 40
      vertex 123.6 26.2 0
      vertex 123.6 26.2 40
    endloop
  endfacet
  facet normal 1 -0 0
    outer loop
      vertex 116.4 26.2 40
      vertex 116.4 28 0
      vertex 116.4 28 40
    endloop
  endfacet
  facet normal 1 0 0
    outer loop
      vertex 116.4 28 0
      vertex 116.4 26.2 40
      vertex 116.4 26.2 0
    endloop
  endfacet
  facet normal 0 -1 0
    outer loop
      vertex 123.6 26.2 0
      vertex 125.6 26.2 40
      vertex 123.6 26.2 40
    endloop
  endfacet
  facet normal 0 -1 -0
    outer loop
      vertex 125.6 26.2 40
      vertex 123.6 26.2 0
      vertex 125.6 26.2 0
    endloop
  endfacet
  facet normal 0 -1 0
    outer loop
      vertex 114.4 26.2 0
      vertex 116.4 26.2 40
      vertex 114.4 26.2 40
    endloop
  endfacet
  facet normal 0 -1 -0
    outer loop
      vertex 116.4 26.2 40
      vertex 114.4 26.2 0
      vertex 116.4 26.2 0
    endloop
  endfacet
  facet normal -1 0 0
    outer loop
      vertex 125.6 24 0
      vertex 125.6 26.2 40
      vertex 125.6 26.2 0
    endloop
  endfacet
  facet normal -1 -0 0
    outer loop
      vertex 125.6 26.2 40
      vertex 125.6 24 0
      vertex 125.6 24 40
    endloop
  endfacet
  facet normal 1 -0 0
    outer loop
      vertex 114.4 24 40
      vertex 114.4 26.2 0
      vertex 114.4 26.2 40
    endloop
  endfacet
  facet normal 1 0 0
    outer loop
      vertex 114.4 26.2 0
      vertex 114.4 24 40
      vertex 114.4 24 0
    endloop
  endfacet
  facet normal 0 1 -0
    outer loop
      vertex 125.6 24 0
      vertex 114.4 24 40
      vertex 125.6 24 40
    endloop
  endfacet
  facet normal 0 1 0
    outer loop
      vertex 114.4 24 40
      vertex 125.6 24 0
      vertex 114.4 24 0
    endloop
  endfacet
  facet normal -1 0 0
    outer loop
      vertex 95.6 26.2 0
      vertex 95.6 28 40
      vertex 95.6 28 0
    endloop
  endfacet
  facet normal -1 -0 0
    outer loop
      vertex 95.6 28 40
      vertex 95.6 26.2 0
      vertex 95.6 26.2 40
    endloop
  endfacet
  facet normal 1 -0 0
    outer loop
      vertex 88.4 26.2 40
      vertex 88.4 28 0
      vertex 88.4 28 40
    endloop
  endfacet
  facet normal 1 0 0
    outer loop
      vertex 88.4 28 0
      vertex 88.4 26.2 40
      vertex 88.4 26.2 0
    endloop
  endfacet
  facet normal 0 -1 0
    outer loop
      vertex 95.6 26.2 0
      vertex 97.6 26.2 40
      vertex 95.6 26.2 40
    endloop
  endfacet
  facet normal 0 -1 -0
    outer loop
      vertex 97.6 26.2 40
      vertex 95.6 26.2 0
      vertex 97.6 26.2 0
    endloop
  endfacet
  facet normal 0 -1 0
    outer loop
      vertex 86.4 26.2 0
      vertex 88.4 26.2 40
      vertex 86.4 26.2 40
    endloop
  endfacet
  facet normal 0 -1 -0
    outer loop
      vertex 88.4 26.2 40
      vertex 86.4 26.2 0
      vertex 88.4 26.2 0
    endloop
  endfacet
  facet normal -1 0 0
    outer loop
      vertex 97.6 24 0
      vertex 97.6 26.2 40
      vertex 97.6 26.2 0
    endloop
  endfacet
  facet normal -1 -0 0
    outer loop
      vertex 97.6 26.2 40
      vertex 97.6 24 0
      vertex 97.6 24 40
    endloop
  endfacet
  facet normal 1 -0 0
    outer loop
      vertex 86.4 24 40
      vertex 86.4 26.2 0
      vertex 86.4 26.2 40
    endloop
  endfacet
  facet normal 1 0 0
    outer loop
      vertex 86.4 26.2 0
      vertex 86.4 24 40
      vertex 86.4 24 0
    endloop
  endfacet
  facet normal 0 1 -0
    outer loop
      vertex 97.6 24 0
      vertex 86.4 24 40
      vertex 97.6 24 40
    endloop
  endfacet
  facet normal 0 1 0
    outer loop
      vertex 86.4 24 40
      vertex 97.6 24 0
      vertex 86.4 24 0
    endloop
  endfacet
  facet normal -1 0 0
    outer loop
      vertex 67.6 26.2 0
      vertex 67.6 28 40
      vertex 67.6 28 0
    endloop
  endfacet
  facet normal -1 -0 0
    outer loop
      vertex 67.6 28 40
      vertex 67.6 26.2 0
      vertex 67.6 26.2 40
    endloop
  endfacet
  facet normal 1 -0 0
    outer loop
      vertex 60.4 26.2 40
      vertex 60.4 28 0
      vertex 60.4 28 40
    endloop
  endfacet
  facet normal 1 0 0
    outer loop
      vertex 60.4 28 0
      vertex 60.4 26.2 40
      vertex 60.4 26.2 0
    endloop
  endfacet
  facet normal 0 -1 0
    outer loop
      vertex 67.6 26.2 0
      vertex 69.6 26.2 40
      vertex 67.6 26.2 40
    endloop
  endfacet
  facet normal 0 -1 -0
    outer loop
      vertex 69.6 26.2 40
      vertex 67.6 26.2 0
      vertex 69.6 26.2 0
    endloop
  endfacet
  facet normal 0 -1 0
    outer loop
      vertex 58.4 26.2 0
      vertex 60.4 26.2 40
      vertex 58.4 26.2 40
    endloop
  endfacet
  facet normal 0 -1 -0
    outer loop
      vertex 60.4 26.2 40
      vertex 58.4 26.2 0
      vertex 60.4 26.2 0
    endloop
  endfacet
  facet normal -1 0 0
    outer loop
      vertex 69.6 24 0
      vertex 69.6 26.2 40
      vertex 69.6 26.2 0
    endloop
  endfacet
  facet normal -1 -0 0
    outer loop
      vertex 69.6 26.2 40
      vertex 69.6 24 0
      vertex 69.6 24 40
    endloop
  endfacet
  facet normal 1 -0 0
    outer loop
      vertex 58.4 24 40
      vertex 58.4 26.2 0
      vertex 58.4 26.2 40
    endloop
  endfacet
  facet normal 1 0 0
    outer loop
      vertex 58.4 26.2 0
      vertex 58.4 24 40
      vertex 58.4 24 0
    endloop
  endfacet
  facet normal 0 1 -0
    outer loop
      vertex 69.6 24 0
      vertex 58.4 24 40
      vertex 69.6 24 40
    endloop
  endfacet
  facet normal 0 1 0
    outer loop
      vertex 58.4 24 40
      vertex 69.6 24 0
      vertex 58.4 24 0
    endloop
  endfacet
  facet normal -1 0 0
    outer loop
      vertex 39.6 26.2 0
      vertex 39.6 28 40
      vertex 39.6 28 0
    endloop
  endfacet
  facet normal -1 -0 0
    outer loop
      vertex 39.6 28 40
      vertex 39.6 26.2 0
      vertex 39.6 26.2 40
    endloop
  endfacet
  facet normal 1 -0 0
    outer loop
      vertex 32.4 26.2 40
      vertex 32.4 28 0
      vertex 32.4 28 40
    endloop
  endfacet
  facet normal 1 0 0
    outer loop
      vertex 32.4 28 0
      vertex 32.4 26.2 40
      vertex 32.4 26.2 0
    endloop
  endfacet
  facet normal 0 -1 0
    outer loop
      vertex 39.6 26.2 0
      vertex 41.6 26.2 40
      vertex 39.6 26.2 40
    endloop
  endfacet
  facet normal 0 -1 -0
    outer loop
      vertex 41.6 26.2 40
      vertex 39.6 26.2 0
      vertex 41.6 26.2 0
    endloop
  endfacet
  facet normal 0 -1 0
    outer loop
      vertex 30.4 26.2 0
      vertex 32.4 26.2 40
      vertex 30.4 26.2 40
    endloop
  endfacet
  facet normal 0 -1 -0
    outer loop
      vertex 32.4 26.2 40
      vertex 30.4 26.2 0
      vertex 32.4 26.2 0
    endloop
  endfacet
  facet normal -1 0 0
    outer loop
      vertex 41.6 24 0
      vertex 41.6 26.2 40
      vertex 41.6 26.2 0
    endloop
  endfacet
  facet normal -1 -0 0
    outer loop
      vertex 41.6 26.2 40
      vertex 41.6 24 0
      vertex 41.6 24 40
    endloop
  endfacet
  facet normal 1 -0 0
    outer loop
      vertex 30.4 24 40
      vertex 30.4 26.2 0
      vertex 30.4 26.2 40
    endloop
  endfacet
  facet normal 1 0 0
    outer loop
      vertex 30.4 26.2 0
      vertex 30.4 24 40
      vertex 30.4 24 0
    endloop
  endfacet
  facet normal 0 1 -0
    outer loop
      vertex 41.6 24 0
      vertex 30.4 24 40
      vertex 41.6 24 40
    endloop
  endfacet
  facet normal 0 1 0
    outer loop
      vertex 30.4 24 40
      vertex 41.6 24 0
      vertex 30.4 24 0
    endloop
  endfacet
  facet normal -1 0 0
    outer loop
      vertex 11.6 26.2 0
      vertex 11.6 28 40
      vertex 11.6 28 0
    endloop
  endfacet
  facet normal -1 -0 0
    outer loop
      vertex 11.6 28 40
      vertex 11.6 26.2 0
      vertex 11.6 26.2 40
    endloop
  endfacet
  facet normal 1 -0 0
    outer loop
      vertex 4.4 26.2 40
      vertex 4.4 28 0
      vertex 4.4 28 40
    endloop
  endfacet
  facet normal 1 0 0
    outer loop
      vertex 4.4 28 0
      vertex 4.4 26.2 40
      vertex 4.4 26.2 0
    endloop
  endfacet
  facet normal 0 -1 0
    outer loop
      vertex 11.6 26.2 0
      vertex 13.6 26.2 40
      vertex 11.6 26.2 40
    endloop
  endfacet
  facet normal 0 -1 -0
    outer loop
      vertex 13.6 26.2 40
      vertex 11.6 26.2 0
      vertex 13.6 26.2 0
    endloop
  endfacet
  facet normal 0 -1 0
    outer loop
      vertex 2.4 26.2 0
      vertex 4.4 26.2 40
      vertex 2.4 26.2 40
    endloop
  endfacet
  facet normal 0 -1 -0
    outer loop
      vertex 4.4 26.2 40
      vertex 2.4 26.2 0
      vertex 4.4 26.2 0
    endloop
  endfacet
  facet normal -1 0 0
    outer loop
      vertex 13.6 24 0
      vertex 13.6 26.2 40
      vertex 13.6 26.2 0
    endloop
  endfacet
  facet normal -1 -0 0
    outer loop
      vertex 13.6 26.2 40
      vertex 13.6 24 0
      vertex 13.6 24 40
    endloop
  endfacet
  facet normal 1 -0 0
    outer loop
      vertex 2.4 24 40
      vertex 2.4 26.2 0
      vertex 2.4 26.2 40
    endloop
  endfacet
  facet normal 1 0 0
    outer loop
      vertex 2.4 26.2 0
      vertex 2.4 24 40
      vertex 2.4 24 0
    endloop
  endfacet
  facet normal 0 1 -0
    outer loop
      vertex 13.6 24 0
      vertex 2.4 24 40
      vertex 13.6 24 40
    endloop
  endfacet
  facet normal 0 1 0
    outer loop
      vertex 2.4 24 40
      vertex 13.6 24 0
      vertex 2.4 24 0
    endloop
  endfacet
  facet normal -1 0 0
    outer loop
      vertex 0 0 0
      vertex 0 28 40
      vertex 0 28 0
    endloop
  endfacet
  facet normal -1 -0 0
    outer loop
      vertex 0 28 40
      vertex 0 0 0
      vertex 0 0 40
    endloop
  endfacet
  facet normal 1 -0 0
    outer loop
      vertex 140 0 40
      vertex 140 4.6 0
      vertex 140 4.6 40
    endloop
  endfacet
  facet normal 1 0 0
    outer loop
      vertex 140 4.6 0
      vertex 140 0 40
      vertex 140 0 0
    endloop
  endfacet
  facet normal 1 -0 0
    outer loop
      vertex 140 23.6 40
      vertex 140 28 0
      vertex 140 28 40
    endloop
  endfacet
  facet normal 1 0 0
    outer loop
      vertex 140 28 0
      vertex 140 23.6 40
      vertex 140 23.6 0
    endloop
  endfacet
  facet normal 1 -0 0
    outer loop
      vertex 140 11.4 40
      vertex 140 16.4 0
      vertex 140 16.4 40
    endloop
  endfacet
  facet normal 1 0 0
    outer loop
      vertex 140 16.4 0
      vertex 140 11.4 40
      vertex 140 11.4 0
    endloop
  endfacet
  facet normal 0 1 -0
    outer loop
      vertex 140 28 0
      vertex 135.4 28 40
      vertex 140 28 40
    endloop
  endfacet
  facet normal 0 1 0
    outer loop
      vertex 135.4 28 40
      vertex 140 28 0
      vertex 135.4 28 0
    endloop
  endfacet
  facet normal 0 1 -0
    outer loop
      vertex 4.4 28 0
      vertex 0 28 40
      vertex 4.4 28 40
    endloop
  endfacet
  facet normal 0 1 0
    outer loop
      vertex 0 28 40
      vertex 4.4 28 0
      vertex 0 28 0
    endloop
  endfacet
  facet normal 0 1 -0
    outer loop
      vertex 16.6 28 0
      vertex 11.6 28 40
      vertex 16.6 28 40
    endloop
  endfacet
  facet normal 0 1 0
    outer loop
      vertex 11.6 28 40
      vertex 16.6 28 0
      vertex 11.6 28 0
    endloop
  endfacet
  facet normal 0 1 -0
    outer loop
      vertex 32.4 28 0
      vertex 23.4 28 40
      vertex 32.4 28 40
    endloop
  endfacet
  facet normal 0 1 0
    outer loop
      vertex 23.4 28 40
      vertex 32.4 28 0
      vertex 23.4 28 0
    endloop
  endfacet
  facet normal 0 1 -0
    outer loop
      vertex 44.6 28 0
      vertex 39.6 28 40
      vertex 44.6 28 40
    endloop
  endfacet
  facet normal 0 1 0
    outer loop
      vertex 39.6 28 40
      vertex 44.6 28 0
      vertex 39.6 28 0
    endloop
  endfacet
  facet normal 0 1 -0
    outer loop
      vertex 60.4 28 0
      vertex 51.4 28 40
      vertex 60.4 28 40
    endloop
  endfacet
  facet normal 0 1 0
    outer loop
      vertex 51.4 28 40
      vertex 60.4 28 0
      vertex 51.4 28 0
    endloop
  endfacet
  facet normal 0 1 -0
    outer loop
      vertex 72.6 28 0
      vertex 67.6 28 40
      vertex 72.6 28 40
    endloop
  endfacet
  facet normal 0 1 0
    outer loop
      vertex 67.6 28 40
      vertex 72.6 28 0
      vertex 67.6 28 0
    endloop
  endfacet
  facet normal 0 1 -0
    outer loop
      vertex 88.4 28 0
      vertex 79.4 28 40
      vertex 88.4 28 40
    endloop
  endfacet
  facet normal 0 1 0
    outer loop
      vertex 79.4 28 40
      vertex 88.4 28 0
      vertex 79.4 28 0
    endloop
  endfacet
  facet normal 0 1 -0
    outer loop
      vertex 100.6 28 0
      vertex 95.6 28 40
      vertex 100.6 28 40
    endloop
  endfacet
  facet normal 0 1 0
    outer loop
      vertex 95.6 28 40
      vertex 100.6 28 0
      vertex 95.6 28 0
    endloop
  endfacet
  facet normal 0 1 -0
    outer loop
      vertex 116.4 28 0
      vertex 107.4 28 40
      vertex 116.4 28 40
    endloop
  endfacet
  facet normal 0 1 0
    outer loop
      vertex 107.4 28 40
      vertex 116.4 28 0
      vertex 107.4 28 0
    endloop
  endfacet
  facet normal 0 1 -0
    outer loop
      vertex 128.6 28 0
      vertex 123.6 28 40
      vertex 128.6 28 40
    endloop
  endfacet
  facet normal 0 1 0
    outer loop
      vertex 123.6 28 40
      vertex 128.6 28 0
      vertex 123.6 28 0
    endloop
  endfacet
  facet normal 0 -1 0
    outer loop
      vertex 0 0 0
      vertex 140 0 40
      vertex 0 0 40
    endloop
  endfacet
  facet normal 0 -1 -0
    outer loop
      vertex 140 0 40
      vertex 0 0 0
      vertex 140 0 0
    endloop
  endfacet
  facet normal 0 -1 0
    outer loop
      vertex 142.2 2.6 0
      vertex 144 2.6 40
      vertex 142.2 2.6 40
    endloop
  endfacet
  facet normal 0 -1 -0
    outer loop
      vertex 144 2.6 40
      vertex 142.2 2.6 0
      vertex 144 2.6 0
    endloop
  endfacet
  facet normal 0 1 -0
    outer loop
      vertex 144 13.4 0
      vertex 142.2 13.4 40
      vertex 144 13.4 40
    endloop
  endfacet
  facet normal 0 1 0
    outer loop
      vertex 142.2 13.4 40
      vertex 144 13.4 0
      vertex 142.2 13.4 0
    endloop
  endfacet
  facet normal -1 0 0
    outer loop
      vertex 142.2 2.6 0
      vertex 142.2 4.6 40
      vertex 142.2 4.6 0
    endloop
  endfacet
  facet normal -1 -0 0
    outer loop
      vertex 142.2 4.6 40
      vertex 142.2 2.6 0
      vertex 142.2 2.6 40
    endloop
  endfacet
  facet normal -1 0 0
    outer loop
      vertex 142.2 11.4 0
      vertex 142.2 13.4 40
      vertex 142.2 13.4 0
    endloop
  endfacet
  facet normal -1 -0 0
    outer loop
      vertex 142.2 13.4 40
      vertex 142.2 11.4 0
      vertex 142.2 11.4 40
    endloop
  endfacet
  facet normal 1 -0 0
    outer loop
      vertex 144 2.6 40
      vertex 144 13.4 0
      vertex 144 13.4 40
    endloop
  endfacet
  facet normal 1 0 0
    outer loop
      vertex 144 13.4 0
      vertex 144 2.6 40
      vertex 144 2.6 0
    endloop
  endfacet
  facet normal 0 -1 0
    outer loop
      vertex 140 4.6 0
      vertex 142.2 4.6 40
      vertex 140 4.6 40
    endloop
  endfacet
  facet normal 0 -1 -0
    outer loop
      vertex 142.2 4.6 40
      vertex 140 4.6 0
      vertex 142.2 4.6 0
    endloop
  endfacet
  facet normal 0 1 -0
    outer loop
      vertex 142.2 11.4 0
      vertex 140 11.4 40
      vertex 142.2 11.4 40
    endloop
  endfacet
  facet normal 0 1 0
    outer loop
      vertex 140 11.4 40
      vertex 142.2 11.4 0
      vertex 140 11.4 0
    endloop
  endfacet
  facet normal 1 -0 0
    outer loop
      vertex 137.4 30.2 40
      vertex 137.4 32 0
      vertex 137.4 32 40
    endloop
  endfacet
  facet normal 1 0 0
    outer loop
      vertex 137.4 32 0
      vertex 137.4 30.2 40
      vertex 137.4 30.2 0
    endloop
  endfacet
  facet normal -1 0 0
    outer loop
      vertex 126.6 30.2 0
      vertex 126.6 32 40
      vertex 126.6 32 0
    endloop
  endfacet
  facet normal -1 -0 0
    outer loop
      vertex 126.6 32 40
      vertex 126.6 30.2 0
      vertex 126.6 30.2 40
    endloop
  endfacet
  facet normal 0 -1 0
    outer loop
      vertex 135.4 30.2 0
      vertex 137.4 30.2 40
      vertex 135.4 30.2 40
    endloop
  endfacet
  facet normal 0 -1 -0
    outer loop
      vertex 137.4 30.2 40
      vertex 135.4 30.2 0
      vertex 137.4 30.2 0
    endloop
  endfacet
  facet normal 0 -1 0
    outer loop
      vertex 126.6 30.2 0
      vertex 128.6 30.2 40
      vertex 126.6 30.2 40
    endloop
  endfacet
  facet normal 0 -1 -0
    outer loop
      vertex 128.6 30.2 40
      vertex 126.6 30.2 0
      vertex 128.6 30.2 0
    endloop
  endfacet
  facet normal 0 1 -0
    outer loop
      vertex 137.4 32 0
      vertex 126.6 32 40
      vertex 137.4 32 40
    endloop
  endfacet
  facet normal 0 1 0
    outer loop
      vertex 126.6 32 40
      vertex 137.4 32 0
      vertex 126.6 32 0
    endloop
  endfacet
  facet normal 1 -0 0
    outer loop
      vertex 135.4 28 40
      vertex 135.4 30.2 0
      vertex 135.4 30.2 40
    endloop
  endfacet
  facet normal 1 0 0
    outer loop
      vertex 135.4 30.2 0
      vertex 135.4 28 40
      vertex 135.4 28 0
    endloop
  endfacet
  facet normal -1 0 0
    outer loop
      vertex 128.6 28 0
      vertex 128.6 30.2 40
      vertex 128.6 30.2 0
    endloop
  endfacet
  facet normal -1 -0 0
    outer loop
      vertex 128.6 30.2 40
      vertex 128.6 28 0
      vertex 128.6 28 40
    endloop
  endfacet
  facet normal 1 -0 0
    outer loop
      vertex 109.4 30.2 40
      vertex 109.4 32 0
      vertex 109.4 32 40
    endloop
  endfacet
  facet normal 1 0 0
    outer loop
      vertex 109.4 32 0
      vertex 109.4 30.2 40
      vertex 109.4 30.2 0
    endloop
  endfacet
  facet normal -1 0 0
    outer loop
      vertex 98.6 30.2 0
      vertex 98.6 32 40
      vertex 98.6 32 0
    endloop
  endfacet
  facet normal -1 -0 0
    outer loop
      vertex 98.6 32 40
      vertex 98.6 30.2 0
      vertex 98.6 30.2 40
    endloop
  endfacet
  facet normal 0 -1 0
    outer loop
      vertex 107.4 30.2 0
      vertex 109.4 30.2 40
      vertex 107.4 30.2 40
    endloop
  endfacet
  facet normal 0 -1 -0
    outer loop
      vertex 109.4 30.2 40
      vertex 107.4 30.2 0
      vertex 109.4 30.2 0
    endloop
  endfacet
  facet normal 0 -1 0
    outer loop
      vertex 98.6 30.2 0
      vertex 100.6 30.2 40
      vertex 98.6 30.2 40
    endloop
  endfacet
  facet normal 0 -1 -0
    outer loop
      vertex 100.6 30.2 40
      vertex 98.6 30.2 0
      vertex 100.6 30.2 0
    endloop
  endfacet
  facet normal 0 1 -0
    outer loop
      vertex 109.4 32 0
      vertex 98.6 32 40
      vertex 109.4 32 40
    endloop
  endfacet
  facet normal 0 1 0
    outer loop
      vertex 98.6 32 40
      vertex 109.4 32 0
      vertex 98.6 32 0
    endloop
  endfacet
  facet normal 1 -0 0
    outer loop
      vertex 107.4 28 40
      vertex 107.4 30.2 0
      vertex 107.4 30.2 40
    endloop
  endfacet
  facet normal 1 0 0
    outer loop
      vertex 107.4 30.2 0
      vertex 107.4 28 40
      vertex 107.4 28 0
    endloop
  endfacet
  facet normal -1 0 0
    outer loop
      vertex 100.6 28 0
      vertex 100.6 30.2 40
      vertex 100.6 30.2 0
    endloop
  endfacet
  facet normal -1 -0 0
    outer loop
      vertex 100.6 30.2 40
      vertex 100.6 28 0
      vertex 100.6 28 40
    endloop
  endfacet
  facet normal 1 -0 0
    outer loop
      vertex 81.4 30.2 40
      vertex 81.4 32 0
      vertex 81.4 32 40
    endloop
  endfacet
  facet normal 1 0 0
    outer loop
      vertex 81.4 32 0
      vertex 81.4 30.2 40
      vertex 81.4 30.2 0
    endloop
  endfacet
  facet normal -1 0 0
    outer loop
      vertex 70.6 30.2 0
      vertex 70.6 32 40
      vertex 70.6 32 0
    endloop
  endfacet
  facet normal -1 -0 0
    outer loop
      vertex 70.6 32 40
      vertex 70.6 30.2 0
      vertex 70.6 30.2 40
    endloop
  endfacet
  facet normal 0 -1 0
    outer loop
      vertex 79.4 30.2 0
      vertex 81.4 30.2 40
      vertex 79.4 30.2 40
    endloop
  endfacet
  facet normal 0 -1 -0
    outer loop
      vertex 81.4 30.2 40
      vertex 79.4 30.2 0
      vertex 81.4 30.2 0
    endloop
  endfacet
  facet normal 0 -1 0
    outer loop
      vertex 70.6 30.2 0
      vertex 72.6 30.2 40
      vertex 70.6 30.2 40
    endloop
  endfacet
  facet normal 0 -1 -0
    outer loop
      vertex 72.6 30.2 40
      vertex 70.6 30.2 0
      vertex 72.6 30.2 0
    endloop
  endfacet
  facet normal 0 1 -0
    outer loop
      vertex 81.4 32 0
      vertex 70.6 32 40
      vertex 81.4 32 40
    endloop
  endfacet
  facet normal 0 1 0
    outer loop
      vertex 70.6 32 40
      vertex 81.4 32 0
      vertex 70.6 32 0
    endloop
  endfacet
  facet normal 1 -0 0
    outer loop
      vertex 79.4 28 40
      vertex 79.4 30.2 0
      vertex 79.4 30.2 40
    endloop
  endfacet
  facet normal 1 0 0
    outer loop
      vertex 79.4 30.2 0
      vertex 79.4 28 40
      vertex 79.4 28 0
    endloop
  endfacet
  facet normal -1 0 0
    outer loop
      vertex 72.6 28 0
      vertex 72.6 30.2 40
      vertex 72.6 30.2 0
    endloop
  endfacet
  facet normal -1 -0 0
    outer loop
      vertex 72.6 30.2 40
      vertex 72.6 28 0
      vertex 72.6 28 40
    endloop
  endfacet
  facet normal 1 -0 0
    outer loop
      vertex 53.4 30.2 40
      vertex 53.4 32 0
      vertex 53.4 32 40
    endloop
  endfacet
  facet normal 1 0 0
    outer loop
      vertex 53.4 32 0
      vertex 53.4 30.2 40
      vertex 53.4 30.2 0
    endloop
  endfacet
  facet normal -1 0 0
    outer loop
      vertex 42.6 30.2 0
      vertex 42.6 32 40
      vertex 42.6 32 0
    endloop
  endfacet
  facet normal -1 -0 0
    outer loop
      vertex 42.6 32 40
      vertex 42.6 30.2 0
      vertex 42.6 30.2 40
    endloop
  endfacet
  facet normal 0 -1 0
    outer loop
      vertex 51.4 30.2 0
      vertex 53.4 30.2 40
      vertex 51.4 30.2 40
    endloop
  endfacet
  facet normal 0 -1 -0
    outer loop
      vertex 53.4 30.2 40
      vertex 51.4 30.2 0
      vertex 53.4 30.2 0
    endloop
  endfacet
  facet normal 0 -1 0
    outer loop
      vertex 42.6 30.2 0
      vertex 44.6 30.2 40
      vertex 42.6 30.2 40
    endloop
  endfacet
  facet normal 0 -1 -0
    outer loop
      vertex 44.6 30.2 40
      vertex 42.6 30.2 0
      vertex 44.6 30.2 0
    endloop
  endfacet
  facet normal 0 1 -0
    outer loop
      vertex 53.4 32 0
      vertex 42.6 32 40
      vertex 53.4 32 40
    endloop
  endfacet
  facet normal 0 1 0
    outer loop
      vertex 42.6 32 40
      vertex 53.4 32 0
      vertex 42.6 32 0
    endloop
  endfacet
  facet normal 1 -0 0
    outer loop
      vertex 51.4 28 40
      vertex 51.4 30.2 0
      vertex 51.4 30.2 40
    endloop
  endfacet
  facet normal 1 0 0
    outer loop
      vertex 51.4 30.2 0
      vertex 51.4 28 40
      vertex 51.4 28 0
    endloop
  endfacet
  facet normal -1 0 0
    outer loop
      vertex 44.6 28 0
      vertex 44.6 30.2 40
      vertex 44.6 30.2 0
    endloop
  endfacet
  facet normal -1 -0 0
    outer loop
      vertex 44.6 30.2 40
      vertex 44.6 28 0
      vertex 44.6 28 40
    endloop
  endfacet
  facet normal 1 -0 0
    outer loop
      vertex 25.4 30.2 40
      vertex 25.4 32 0
      vertex 25.4 32 40
    endloop
  endfacet
  facet normal 1 0 0
    outer loop
      vertex 25.4 32 0
      vertex 25.4 30.2 40
      vertex 25.4 30.2 0
    endloop
  endfacet
  facet normal -1 0 0
    outer loop
      vertex 14.6 30.2 0
      vertex 14.6 32 40
      vertex 14.6 32 0
    endloop
  endfacet
  facet normal -1 -0 0
    outer loop
      vertex 14.6 32 40
      vertex 14.6 30.2 0
      vertex 14.6 30.2 40
    endloop
  endfacet
  facet normal 0 -1 0
    outer loop
      vertex 23.4 30.2 0
      vertex 25.4 30.2 40
      vertex 23.4 30.2 40
    endloop
  endfacet
  facet normal 0 -1 -0
    outer loop
      vertex 25.4 30.2 40
      vertex 23.4 30.2 0
      vertex 25.4 30.2 0
    endloop
  endfacet
  facet normal 0 -1 0
    outer loop
      vertex 14.6 30.2 0
      vertex 16.6 30.2 40
      vertex 14.6 30.2 40
    endloop
  endfacet
  facet normal 0 -1 -0
    outer loop
      vertex 16.6 30.2 40
      vertex 14.6 30.2 0
      vertex 16.6 30.2 0
    endloop
  endfacet
  facet normal 0 1 -0
    outer loop
      vertex 25.4 32 0
      vertex 14.6 32 40
      vertex 25.4 32 40
    endloop
  endfacet
  facet normal 0 1 0
    outer loop
      vertex 14.6 32 40
      vertex 25.4 32 0
      vertex 14.6 32 0
    endloop
  endfacet
  facet normal 1 -0 0
    outer loop
      vertex 23.4 28 40
      vertex 23.4 30.2 0
      vertex 23.4 30.2 40
    endloop
  endfacet
  facet normal 1 0 0
    outer loop
      vertex 23.4 30.2 0
      vertex 23.4 28 40
      vertex 23.4 28 0
    endloop
  endfacet
  facet normal -1 0 0
    outer loop
      vertex 16.6 28 0
      vertex 16.6 30.2 40
      vertex 16.6 30.2 0
    endloop
  endfacet
  facet normal -1 -0 0
    outer loop
      vertex 16.6 30.2 40
      vertex 16.6 28 0
      vertex 16.6 28 40
    endloop
  endfacet
endsolid OpenSCAD_Model
