solid OpenSCAD_Model
  facet normal 0 1 -0
    outer loop
      vertex 112 16.4 0
      vertex 110.2 16.4 40
      vertex 112 16.4 40
    endloop
  endfacet
  facet normal 0 1 0
    outer loop
      vertex 110.2 16.4 40
      vertex 112 16.4 0
      vertex 110.2 16.4 0
    endloop
  endfacet
  facet normal 0 0 1
    outer loop
      vertex 4.4 84 40
      vertex 2.4 82.2 40
      vertex 4.4 82.2 40
    endloop
  endfacet
  facet normal 0 0 1
    outer loop
      vertex 2.4 82.2 40
      vertex 0 84 40
      vertex 2.4 80 40
    endloop
  endfacet
  facet normal -0 0 1
    outer loop
      vertex 0 84 40
      vertex 2.4 82.2 40
      vertex 4.4 84 40
    endloop
  endfacet
  facet normal -0 0 1
    outer loop
      vertex 11.6 84 40
      vertex 13.6 82.2 40
      vertex 16.6 84 40
    endloop
  endfacet
  facet normal 0 0 1
    outer loop
      vertex 13.6 82.2 40
      vertex 11.6 84 40
      vertex 11.6 82.2 40
    endloop
  endfacet
  facet normal 0 0 1
    outer loop
      vertex 25.4 88 40
      vertex 23.4 86.2 40
      vertex 25.4 86.2 40
    endloop
  endfacet
  facet normal 0 0 1
    outer loop
      vertex 23.4 86.2 40
      vertex 16.6 86.2 40
      vertex 23.4 84 40
    endloop
  endfacet
  facet normal 0 0 1
    outer loop
      vertex 25.4 88 40
      vertex 16.6 86.2 40
      vertex 23.4 86.2 40
    endloop
  endfacet
  facet normal -0 0 1
    outer loop
      vertex 14.6 88 40
      vertex 16.6 86.2 40
      vertex 25.4 88 40
    endloop
  endfacet
  facet normal 0 0 1
    outer loop
      vertex 16.6 86.2 40
      vertex 14.6 88 40
      vertex 14.6 86.2 40
    endloop
  endfacet
  facet normal 0 0 1
    outer loop
      vertex 32.4 84 40
      vertex 30.4 82.2 40
      vertex 32.4 82.2 40
    endloop
  endfacet
  facet normal 0 0 1
    outer loop
      vertex 30.4 82.2 40
      vertex 23.4 84 40
      vertex 30.4 80 40
    endloop
  endfacet
  facet normal -0 0 1
    outer loop
      vertex 23.4 84 40
      vertex 30.4 82.2 40
      vertex 32.4 84 40
    endloop
  endfacet
  facet normal -0 0 1
    outer loop
      vertex 39.6 84 40
      vertex 41.6 82.2 40
      vertex 44.6 84 40
    endloop
  endfacet
  facet normal 0 0 1
    outer loop
      vertex 41.6 82.2 40
      vertex 39.6 84 40
      vertex 39.6 82.2 40
    endloop
  endfacet
  facet normal 0 0 1
    outer loop
      vertex 53.4 88 40
      vertex 51.4 86.2 40
      vertex 53.4 86.2 40
    endloop
  endfacet
  facet normal 0 0 1
    outer loop
      vertex 51.4 86.2 40
      vertex 44.6 86.2 40
      vertex 51.4 84 40
    endloop
  endfacet
  facet normal 0 0 1
    outer loop
      vertex 53.4 88 40
      vertex 44.6 86.2 40
      vertex 51.4 86.2 40
    endloop
  endfacet
  facet normal -0 0 1
    outer loop
      vertex 42.6 88 40
      vertex 44.6 86.2 40
      vertex 53.4 88 40
    endloop
  endfacet
  facet normal 0 0 1
    outer loop
      vertex 44.6 86.2 40
      vertex 42.6 88 40
      vertex 42.6 86.2 40
    endloop
  endfacet
  facet normal 0 0 1
    outer loop
      vertex 60.4 84 40
      vertex 58.4 82.2 40
      vertex 60.4 82.2 40
    endloop
  endfacet
  facet normal 0 0 1
    outer loop
      vertex 58.4 82.2 40
      vertex 51.4 84 40
      vertex 58.4 80 40
    endloop
  endfacet
  facet normal -0 0 1
    outer loop
      vertex 51.4 84 40
      vertex 58.4 82.2 40
      vertex 60.4 84 40
    endloop
  endfacet
  facet normal -0 0 1
    outer loop
      vertex 67.6 84 40
      vertex 69.6 82.2 40
      vertex 72.6 84 40
    endloop
  endfacet
  facet normal 0 0 1
    outer loop
      vertex 69.6 82.2 40
      vertex 67.6 84 40
      vertex 67.6 82.2 40
    endloop
  endfacet
  facet normal 0 0 1
    outer loop
      vertex 81.4 88 40
      vertex 79.4 86.2 40
      vertex 81.4 86.2 40
    endloop
  endfacet
  facet normal 0 0 1
    outer loop
      vertex 79.4 86.2 40
      vertex 72.6 86.2 40
      vertex 79.4 84 40
    endloop
  endfacet
  facet normal 0 0 1
    outer loop
      vertex 81.4 88 40
      vertex 72.6 86.2 40
      vertex 79.4 86.2 40
    endloop
  endfacet
  facet normal -0 0 1
    outer loop
      vertex 70.6 88 40
      vertex 72.6 86.2 40
      vertex 81.4 88 40
    endloop
  endfacet
  facet normal 0 0 1
    outer loop
      vertex 72.6 86.2 40
      vertex 70.6 88 40
      vertex 70.6 86.2 40
    endloop
  endfacet
  facet normal 0 0 1
    outer loop
      vertex 88.4 84 40
      vertex 86.4 82.2 40
      vertex 88.4 82.2 40
    endloop
  endfacet
  facet normal 0 0 1
    outer loop
      vertex 86.4 82.2 40
      vertex 79.4 84 40
      vertex 86.4 80 40
    endloop
  endfacet
  facet normal -0 0 1
    outer loop
      vertex 79.4 84 40
      vertex 86.4 82.2 40
      vertex 88.4 84 40
    endloop
  endfacet
  facet normal -0 0 1
    outer loop
      vertex 95.6 84 40
      vertex 97.6 82.2 40
      vertex 100.6 84 40
    endloop
  endfacet
  facet normal 0 0 1
    outer loop
      vertex 97.6 82.2 40
      vertex 95.6 84 40
      vertex 95.6 82.2 40
    endloop
  endfacet
  facet normal 0 0 1
    outer loop
      vertex 109.4 88 40
      vertex 107.4 86.2 40
      vertex 109.4 86.2 40
    endloop
  endfacet
  facet normal 0 0 1
    outer loop
      vertex 107.4 86.2 40
      vertex 100.6 86.2 40
      vertex 107.4 84 40
    endloop
  endfacet
  facet normal 0 0 1
    outer loop
      vertex 109.4 88 40
      vertex 100.6 86.2 40
      vertex 107.4 86.2 40
    endloop
  endfacet
  facet normal -0 0 1
    outer loop
      vertex 98.6 88 40
      vertex 100.6 86.2 40
      vertex 109.4 88 40
    endloop
  endfacet
  facet normal 0 0 1
    outer loop
      vertex 100.6 86.2 40
      vertex 98.6 88 40
      vertex 98.6 86.2 40
    endloop
  endfacet
  facet normal 0 0 1
    outer loop
      vertex 112 84 40
      vertex 110.2 81.6 40
      vertex 112 79.6 40
    endloop
  endfacet
  facet normal -0 0 1
    outer loop
      vertex 107.4 84 40
      vertex 110.2 81.6 40
      vertex 112 84 40
    endloop
  endfacet
  facet normal -0 0 1
    outer loop
      vertex 97.6 80 40
      vertex 108 70.4 40
      vertex 108 81.6 40
    endloop
  endfacet
  facet normal -0 0 1
    outer loop
      vertex 86.4 80 40
      vertex 108 70.4 40
      vertex 97.6 80 40
    endloop
  endfacet
  facet normal 0 0 1
    outer loop
      vertex 108 70.4 40
      vertex 86.4 80 40
      vertex 108 53.6 40
    endloop
  endfacet
  facet normal -0 0 1
    outer loop
      vertex 69.6 80 40
      vertex 108 53.6 40
      vertex 86.4 80 40
    endloop
  endfacet
  facet normal -0 0 1
    outer loop
      vertex 100.6 84 40
      vertex 108 81.6 40
      vertex 107.4 84 40
    endloop
  endfacet
  facet normal 0 0 1
    outer loop
      vertex 110.2 81.6 40
      vertex 107.4 84 40
      vertex 108 81.6 40
    endloop
  endfacet
  facet normal 0 0 1
    outer loop
      vertex 112 79.6 40
      vertex 110.2 81.6 40
      vertex 110.2 79.6 40
    endloop
  endfacet
  facet normal 0 0 1
    outer loop
      vertex 108 53.6 40
      vertex 112 60.6 40
      vertex 108 70.4 40
    endloop
  endfacet
  facet normal 0 0 1
    outer loop
      vertex 112 60.6 40
      vertex 108 53.6 40
      vertex 110.2 53.6 40
    endloop
  endfacet
  facet normal -0 0 1
    outer loop
      vertex 110.2 70.4 40
      vertex 112 67.4 40
      vertex 112 72.4 40
    endloop
  endfacet
  facet normal -0 0 1
    outer loop
      vertex 108 70.4 40
      vertex 112 67.4 40
      vertex 110.2 70.4 40
    endloop
  endfacet
  facet normal 0 0 1
    outer loop
      vertex 110.2 70.4 40
      vertex 112 72.4 40
      vertex 110.2 72.4 40
    endloop
  endfacet
  facet normal 0 0 1
    outer loop
      vertex 112 67.4 40
      vertex 108 70.4 40
      vertex 112 60.6 40
    endloop
  endfacet
  facet normal 0 0 1
    outer loop
      vertex 112 60.6 40
      vertex 110.2 53.6 40
      vertex 112 51.6 40
    endloop
  endfacet
  facet normal 0 0 1
    outer loop
      vertex 112 51.6 40
      vertex 110.2 53.6 40
      vertex 110.2 51.6 40
    endloop
  endfacet
  facet normal -0 0 1
    outer loop
      vertex 112 67.4 40
      vertex 114.2 60.6 40
      vertex 114.2 67.4 40
    endloop
  endfacet
  facet normal 0 0 1
    outer loop
      vertex 114.2 60.6 40
      vertex 112 67.4 40
      vertex 112 60.6 40
    endloop
  endfacet
  facet normal 0 0 1
    outer loop
      vertex 114.2 67.4 40
      vertex 116 69.4 40
      vertex 114.2 69.4 40
    endloop
  endfacet
  facet normal 0 0 1
    outer loop
      vertex 116 69.4 40
      vertex 114.2 67.4 40
      vertex 116 58.6 40
    endloop
  endfacet
  facet normal -0 0 1
    outer loop
      vertex 114.2 60.6 40
      vertex 116 58.6 40
      vertex 114.2 67.4 40
    endloop
  endfacet
  facet normal 0 0 1
    outer loop
      vertex 116 58.6 40
      vertex 114.2 60.6 40
      vertex 114.2 58.6 40
    endloop
  endfacet
  facet normal 0 0 1
    outer loop
      vertex 108 25.6 40
      vertex 112 32.6 40
      vertex 108 42.4 40
    endloop
  endfacet
  facet normal 0 0 1
    outer loop
      vertex 112 32.6 40
      vertex 108 25.6 40
      vertex 110.2 25.6 40
    endloop
  endfacet
  facet normal -0 0 1
    outer loop
      vertex 110.2 42.4 40
      vertex 112 39.4 40
      vertex 112 44.4 40
    endloop
  endfacet
  facet normal -0 0 1
    outer loop
      vertex 108 42.4 40
      vertex 112 39.4 40
      vertex 110.2 42.4 40
    endloop
  endfacet
  facet normal 0 0 1
    outer loop
      vertex 110.2 42.4 40
      vertex 112 44.4 40
      vertex 110.2 44.4 40
    endloop
  endfacet
  facet normal 0 0 1
    outer loop
      vertex 112 39.4 40
      vertex 108 42.4 40
      vertex 112 32.6 40
    endloop
  endfacet
  facet normal 0 0 1
    outer loop
      vertex 112 32.6 40
      vertex 110.2 25.6 40
      vertex 112 23.6 40
    endloop
  endfacet
  facet normal 0 0 1
    outer loop
      vertex 112 23.6 40
      vertex 110.2 25.6 40
      vertex 110.2 23.6 40
    endloop
  endfacet
  facet normal -0 0 1
    outer loop
      vertex 112 39.4 40
      vertex 114.2 32.6 40
      vertex 114.2 39.4 40
    endloop
  endfacet
  facet normal 0 0 1
    outer loop
      vertex 114.2 32.6 40
      vertex 112 39.4 40
      vertex 112 32.6 40
    endloop
  endfacet
  facet normal 0 0 1
    outer loop
      vertex 114.2 39.4 40
      vertex 116 41.4 40
      vertex 114.2 41.4 40
    endloop
  endfacet
  facet normal 0 0 1
    outer loop
      vertex 116 41.4 40
      vertex 114.2 39.4 40
      vertex 116 30.6 40
    endloop
  endfacet
  facet normal -0 0 1
    outer loop
      vertex 114.2 32.6 40
      vertex 116 30.6 40
      vertex 114.2 39.4 40
    endloop
  endfacet
  facet normal 0 0 1
    outer loop
      vertex 116 30.6 40
      vertex 114.2 32.6 40
      vertex 114.2 30.6 40
    endloop
  endfacet
  facet normal -0 0 1
    outer loop
      vertex 110.2 14.4 40
      vertex 112 11.4 40
      vertex 112 16.4 40
    endloop
  endfacet
  facet normal -0 0 1
    outer loop
      vertex 108 14.4 40
      vertex 112 11.4 40
      vertex 110.2 14.4 40
    endloop
  endfacet
  facet normal 0 0 1
    outer loop
      vertex 110.2 14.4 40
      vertex 112 16.4 40
      vertex 110.2 16.4 40
    endloop
  endfacet
  facet normal 0 0 1
    outer loop
      vertex 112 11.4 40
      vertex 108 14.4 40
      vertex 112 4.6 40
    endloop
  endfacet
  facet normal 0 0 1
    outer loop
      vertex 112 4.6 40
      vertex 108 14.4 40
      vertex 112 0 40
    endloop
  endfacet
  facet normal 0 0 1
    outer loop
      vertex 100.6 84 40
      vertex 107.4 84 40
      vertex 100.6 86.2 40
    endloop
  endfacet
  facet normal 0 0 1
    outer loop
      vertex 108 81.6 40
      vertex 100.6 84 40
      vertex 97.6 80 40
    endloop
  endfacet
  facet normal 0 0 1
    outer loop
      vertex 97.6 80 40
      vertex 100.6 84 40
      vertex 97.6 82.2 40
    endloop
  endfacet
  facet normal 0 0 1
    outer loop
      vertex 108 53.6 40
      vertex 69.6 80 40
      vertex 108 42.4 40
    endloop
  endfacet
  facet normal -0 0 1
    outer loop
      vertex 58.4 80 40
      vertex 108 42.4 40
      vertex 69.6 80 40
    endloop
  endfacet
  facet normal 0 0 1
    outer loop
      vertex 108 42.4 40
      vertex 58.4 80 40
      vertex 108 25.6 40
    endloop
  endfacet
  facet normal 0 0 1
    outer loop
      vertex 69.6 80 40
      vertex 86.4 80 40
      vertex 79.4 84 40
    endloop
  endfacet
  facet normal 0 0 1
    outer loop
      vertex 72.6 84 40
      vertex 79.4 84 40
      vertex 72.6 86.2 40
    endloop
  endfacet
  facet normal 0 0 1
    outer loop
      vertex 69.6 80 40
      vertex 79.4 84 40
      vertex 72.6 84 40
    endloop
  endfacet
  facet normal 0 0 1
    outer loop
      vertex 69.6 80 40
      vertex 72.6 84 40
      vertex 69.6 82.2 40
    endloop
  endfacet
  facet normal 0 0 1
    outer loop
      vertex 0 0 40
      vertex 108 25.6 40
      vertex 58.4 80 40
    endloop
  endfacet
  facet normal 0 0 1
    outer loop
      vertex 108 25.6 40
      vertex 0 0 40
      vertex 108 14.4 40
    endloop
  endfacet
  facet normal 0 0 1
    outer loop
      vertex 41.6 80 40
      vertex 58.4 80 40
      vertex 51.4 84 40
    endloop
  endfacet
  facet normal 0 0 1
    outer loop
      vertex 44.6 84 40
      vertex 51.4 84 40
      vertex 44.6 86.2 40
    endloop
  endfacet
  facet normal 0 0 1
    outer loop
      vertex 41.6 80 40
      vertex 51.4 84 40
      vertex 44.6 84 40
    endloop
  endfacet
  facet normal 0 0 1
    outer loop
      vertex 41.6 80 40
      vertex 44.6 84 40
      vertex 41.6 82.2 40
    endloop
  endfacet
  facet normal 0 0 1
    outer loop
      vertex 0 0 40
      vertex 58.4 80 40
      vertex 41.6 80 40
    endloop
  endfacet
  facet normal 0 0 1
    outer loop
      vertex 0 0 40
      vertex 41.6 80 40
      vertex 30.4 80 40
    endloop
  endfacet
  facet normal 0 0 1
    outer loop
      vertex 13.6 80 40
      vertex 30.4 80 40
      vertex 23.4 84 40
    endloop
  endfacet
  facet normal 0 0 1
    outer loop
      vertex 16.6 84 40
      vertex 23.4 84 40
      vertex 16.6 86.2 40
    endloop
  endfacet
  facet normal 0 0 1
    outer loop
      vertex 13.6 80 40
      vertex 23.4 84 40
      vertex 16.6 84 40
    endloop
  endfacet
  facet normal 0 0 1
    outer loop
      vertex 13.6 80 40
      vertex 16.6 84 40
      vertex 13.6 82.2 40
    endloop
  endfacet
  facet normal 0 0 1
    outer loop
      vertex 30.4 80 40
      vertex 13.6 80 40
      vertex 0 0 40
    endloop
  endfacet
  facet normal 0 0 1
    outer loop
      vertex 0 0 40
      vertex 13.6 80 40
      vertex 2.4 80 40
    endloop
  endfacet
  facet normal 0 0 1
    outer loop
      vertex 108 14.4 40
      vertex 0 0 40
      vertex 112 0 40
    endloop
  endfacet
  facet normal 0 0 1
    outer loop
      vertex 0 0 40
      vertex 2.4 80 40
      vertex 0 84 40
    endloop
  endfacet
  facet normal -0 0 1
    outer loop
      vertex 112 11.4 40
      vertex 114.2 4.6 40
      vertex 114.2 11.4 40
    endloop
  endfacet
  facet normal 0 0 1
    outer loop
      vertex 114.2 4.6 40
      vertex 112 11.4 40
      vertex 112 4.6 40
    endloop
  endfacet
  facet normal 0 0 1
    outer loop
      vertex 114.2 11.4 40
      vertex 116 13.4 40
      vertex 114.2 13.4 40
    endloop
  endfacet
  facet normal 0 0 1
    outer loop
      vertex 116 13.4 40
      vertex 114.2 11.4 40
      vertex 116 2.6 40
    endloop
  endfacet
  facet normal -0 0 1
    outer loop
      vertex 114.2 4.6 40
      vertex 116 2.6 40
      vertex 114.2 11.4 40
    endloop
  endfacet
  facet normal 0 0 1
    outer loop
      vertex 116 2.6 40
      vertex 114.2 4.6 40
      vertex 114.2 2.6 40
    endloop
  endfacet
  facet normal 0 -1 0
    outer loop
      vertex 110.2 23.6 0
      vertex 112 23.6 40
      vertex 110.2 23.6 40
    endloop
  endfacet
  facet normal 0 -1 -0
    outer loop
      vertex 112 23.6 40
      vertex 110.2 23.6 0
      vertex 112 23.6 0
    endloop
  endfacet
  facet normal -1 0 0
    outer loop
      vertex 110.2 14.4 0
      vertex 110.2 16.4 40
      vertex 110.2 16.4 0
    endloop
  endfacet
  facet normal -1 -0 0
    outer loop
      vertex 110.2 16.4 40
      vertex 110.2 14.4 0
      vertex 110.2 14.4 40
    endloop
  endfacet
  facet normal -1 0 0
    outer loop
      vertex 110.2 23.6 0
      vertex 110.2 25.6 40
      vertex 110.2 25.6 0
    endloop
  endfacet
  facet normal -1 -0 0
    outer loop
      vertex 110.2 25.6 40
      vertex 110.2 23.6 0
      vertex 110.2 23.6 40
    endloop
  endfacet
  facet normal 0 0 -1
    outer loop
      vertex 108 14.4 0
      vertex 112 4.6 0
      vertex 112 0 0
    endloop
  endfacet
  facet normal 0 0 -1
    outer loop
      vertex 112 4.6 0
      vertex 108 14.4 0
      vertex 112 11.4 0
    endloop
  endfacet
  facet normal 0 0 -1
    outer loop
      vertex 112 11.4 0
      vertex 110.2 14.4 0
      vertex 112 16.4 0
    endloop
  endfacet
  facet normal 0 0 -1
    outer loop
      vertex 112 11.4 0
      vertex 108 14.4 0
      vertex 110.2 14.4 0
    endloop
  endfacet
  facet normal 0 0 -1
    outer loop
      vertex 0 0 0
      vertex 108 25.6 0
      vertex 108 14.4 0
    endloop
  endfacet
  facet normal 0 0 -1
    outer loop
      vertex 108 25.6 0
      vertex 58.4 80 0
      vertex 108 42.4 0
    endloop
  endfacet
  facet normal 0 0 -1
    outer loop
      vertex 108 42.4 0
      vertex 69.6 80 0
      vertex 108 53.6 0
    endloop
  endfacet
  facet normal 0 0 -1
    outer loop
      vertex 108 53.6 0
      vertex 86.4 80 0
      vertex 108 70.4 0
    endloop
  endfacet
  facet normal 0 0 -1
    outer loop
      vertex 108 70.4 0
      vertex 97.6 80 0
      vertex 108 81.6 0
    endloop
  endfacet
  facet normal 0 0 -1
    outer loop
      vertex 107.4 84 0
      vertex 100.6 84 0
      vertex 107.4 86.2 0
    endloop
  endfacet
  facet normal 0 -0 -1
    outer loop
      vertex 100.6 84 0
      vertex 108 81.6 0
      vertex 97.6 80 0
    endloop
  endfacet
  facet normal 0 0 -1
    outer loop
      vertex 108 81.6 0
      vertex 100.6 84 0
      vertex 107.4 84 0
    endloop
  endfacet
  facet normal 0 0 -1
    outer loop
      vertex 108 70.4 0
      vertex 86.4 80 0
      vertex 97.6 80 0
    endloop
  endfacet
  facet normal 0 0 -1
    outer loop
      vertex 0 0 0
      vertex 108 14.4 0
      vertex 112 0 0
    endloop
  endfacet
  facet normal 0 0 -1
    outer loop
      vertex 86.4 80 0
      vertex 79.4 84 0
      vertex 86.4 82.2 0
    endloop
  endfacet
  facet normal 0 0 -1
    outer loop
      vertex 108 53.6 0
      vertex 69.6 80 0
      vertex 86.4 80 0
    endloop
  endfacet
  facet normal 0 0 -1
    outer loop
      vertex 79.4 84 0
      vertex 72.6 84 0
      vertex 79.4 86.2 0
    endloop
  endfacet
  facet normal 0 0 -1
    outer loop
      vertex 86.4 80 0
      vertex 69.6 80 0
      vertex 79.4 84 0
    endloop
  endfacet
  facet normal -0 0 -1
    outer loop
      vertex 79.4 84 0
      vertex 69.6 80 0
      vertex 72.6 84 0
    endloop
  endfacet
  facet normal 0 0 -1
    outer loop
      vertex 108 42.4 0
      vertex 58.4 80 0
      vertex 69.6 80 0
    endloop
  endfacet
  facet normal 0 0 -1
    outer loop
      vertex 58.4 80 0
      vertex 51.4 84 0
      vertex 58.4 82.2 0
    endloop
  endfacet
  facet normal -0 0 -1
    outer loop
      vertex 108 25.6 0
      vertex 0 0 0
      vertex 58.4 80 0
    endloop
  endfacet
  facet normal 0 0 -1
    outer loop
      vertex 51.4 84 0
      vertex 44.6 84 0
      vertex 51.4 86.2 0
    endloop
  endfacet
  facet normal 0 0 -1
    outer loop
      vertex 58.4 80 0
      vertex 41.6 80 0
      vertex 51.4 84 0
    endloop
  endfacet
  facet normal -0 0 -1
    outer loop
      vertex 51.4 84 0
      vertex 41.6 80 0
      vertex 44.6 84 0
    endloop
  endfacet
  facet normal -0 0 -1
    outer loop
      vertex 58.4 80 0
      vertex 0 0 0
      vertex 41.6 80 0
    endloop
  endfacet
  facet normal 0 0 -1
    outer loop
      vertex 30.4 80 0
      vertex 23.4 84 0
      vertex 30.4 82.2 0
    endloop
  endfacet
  facet normal -0 0 -1
    outer loop
      vertex 41.6 80 0
      vertex 0 0 0
      vertex 30.4 80 0
    endloop
  endfacet
  facet normal 0 0 -1
    outer loop
      vertex 23.4 84 0
      vertex 16.6 84 0
      vertex 23.4 86.2 0
    endloop
  endfacet
  facet normal 0 -0 -1
    outer loop
      vertex 13.6 80 0
      vertex 30.4 80 0
      vertex 0 0 0
    endloop
  endfacet
  facet normal -0 0 -1
    outer loop
      vertex 23.4 84 0
      vertex 13.6 80 0
      vertex 16.6 84 0
    endloop
  endfacet
  facet normal 0 0 -1
    outer loop
      vertex 30.4 80 0
      vertex 13.6 80 0
      vertex 23.4 84 0
    endloop
  endfacet
  facet normal 0 0 -1
    outer loop
      vertex 0 84 0
      vertex 2.4 80 0
      vertex 0 0 0
    endloop
  endfacet
  facet normal -0 0 -1
    outer loop
      vertex 13.6 80 0
      vertex 0 0 0
      vertex 2.4 80 0
    endloop
  endfacet
  facet normal 0 0 -1
    outer loop
      vertex 112 4.6 0
      vertex 114.2 11.4 0
      vertex 114.2 4.6 0
    endloop
  endfacet
  facet normal -0 0 -1
    outer loop
      vertex 114.2 11.4 0
      vertex 112 4.6 0
      vertex 112 11.4 0
    endloop
  endfacet
  facet normal 0 0 -1
    outer loop
      vertex 114.2 4.6 0
      vertex 116 2.6 0
      vertex 114.2 2.6 0
    endloop
  endfacet
  facet normal 0 0 -1
    outer loop
      vertex 116 2.6 0
      vertex 114.2 4.6 0
      vertex 116 13.4 0
    endloop
  endfacet
  facet normal 0 0 -1
    outer loop
      vertex 114.2 11.4 0
      vertex 116 13.4 0
      vertex 114.2 4.6 0
    endloop
  endfacet
  facet normal -0 0 -1
    outer loop
      vertex 116 13.4 0
      vertex 114.2 11.4 0
      vertex 114.2 13.4 0
    endloop
  endfacet
  facet normal -0 0 -1
    outer loop
      vertex 112 16.4 0
      vertex 110.2 14.4 0
      vertex 110.2 16.4 0
    endloop
  endfacet
  facet normal 0 0 -1
    outer loop
      vertex 108 42.4 0
      vertex 112 32.6 0
      vertex 108 25.6 0
    endloop
  endfacet
  facet normal 0 0 -1
    outer loop
      vertex 112 32.6 0
      vertex 108 42.4 0
      vertex 110.2 42.4 0
    endloop
  endfacet
  facet normal 0 0 -1
    outer loop
      vertex 110.2 25.6 0
      vertex 112 32.6 0
      vertex 112 23.6 0
    endloop
  endfacet
  facet normal 0 0 -1
    outer loop
      vertex 108 25.6 0
      vertex 112 32.6 0
      vertex 110.2 25.6 0
    endloop
  endfacet
  facet normal 0 0 -1
    outer loop
      vertex 110.2 25.6 0
      vertex 112 23.6 0
      vertex 110.2 23.6 0
    endloop
  endfacet
  facet normal 0 0 -1
    outer loop
      vertex 112 32.6 0
      vertex 110.2 42.4 0
      vertex 112 39.4 0
    endloop
  endfacet
  facet normal 0 0 -1
    outer loop
      vertex 112 39.4 0
      vertex 110.2 42.4 0
      vertex 112 44.4 0
    endloop
  endfacet
  facet normal -0 0 -1
    outer loop
      vertex 112 44.4 0
      vertex 110.2 42.4 0
      vertex 110.2 44.4 0
    endloop
  endfacet
  facet normal 0 0 -1
    outer loop
      vertex 112 32.6 0
      vertex 114.2 39.4 0
      vertex 114.2 32.6 0
    endloop
  endfacet
  facet normal -0 0 -1
    outer loop
      vertex 114.2 39.4 0
      vertex 112 32.6 0
      vertex 112 39.4 0
    endloop
  endfacet
  facet normal 0 0 -1
    outer loop
      vertex 114.2 32.6 0
      vertex 116 30.6 0
      vertex 114.2 30.6 0
    endloop
  endfacet
  facet normal 0 0 -1
    outer loop
      vertex 116 30.6 0
      vertex 114.2 32.6 0
      vertex 116 41.4 0
    endloop
  endfacet
  facet normal 0 0 -1
    outer loop
      vertex 114.2 39.4 0
      vertex 116 41.4 0
      vertex 114.2 32.6 0
    endloop
  endfacet
  facet normal -0 0 -1
    outer loop
      vertex 116 41.4 0
      vertex 114.2 39.4 0
      vertex 114.2 41.4 0
    endloop
  endfacet
  facet normal 0 0 -1
    outer loop
      vertex 108 70.4 0
      vertex 112 60.6 0
      vertex 108 53.6 0
    endloop
  endfacet
  facet normal 0 0 -1
    outer loop
      vertex 112 60.6 0
      vertex 108 70.4 0
      vertex 110.2 70.4 0
    endloop
  endfacet
  facet normal 0 0 -1
    outer loop
      vertex 110.2 53.6 0
      vertex 112 60.6 0
      vertex 112 51.6 0
    endloop
  endfacet
  facet normal 0 0 -1
    outer loop
      vertex 108 53.6 0
      vertex 112 60.6 0
      vertex 110.2 53.6 0
    endloop
  endfacet
  facet normal 0 0 -1
    outer loop
      vertex 110.2 53.6 0
      vertex 112 51.6 0
      vertex 110.2 51.6 0
    endloop
  endfacet
  facet normal 0 0 -1
    outer loop
      vertex 112 60.6 0
      vertex 110.2 70.4 0
      vertex 112 67.4 0
    endloop
  endfacet
  facet normal 0 0 -1
    outer loop
      vertex 112 67.4 0
      vertex 110.2 70.4 0
      vertex 112 72.4 0
    endloop
  endfacet
  facet normal -0 0 -1
    outer loop
      vertex 112 72.4 0
      vertex 110.2 70.4 0
      vertex 110.2 72.4 0
    endloop
  endfacet
  facet normal 0 0 -1
    outer loop
      vertex 112 60.6 0
      vertex 114.2 67.4 0
      vertex 114.2 60.6 0
    endloop
  endfacet
  facet normal -0 0 -1
    outer loop
      vertex 114.2 67.4 0
      vertex 112 60.6 0
      vertex 112 67.4 0
    endloop
  endfacet
  facet normal 0 0 -1
    outer loop
      vertex 114.2 60.6 0
      vertex 116 58.6 0
      vertex 114.2 58.6 0
    endloop
  endfacet
  facet normal 0 0 -1
    outer loop
      vertex 116 58.6 0
      vertex 114.2 60.6 0
      vertex 116 69.4 0
    endloop
  endfacet
  facet normal 0 0 -1
    outer loop
      vertex 114.2 67.4 0
      vertex 116 69.4 0
      vertex 114.2 60.6 0
    endloop
  endfacet
  facet normal -0 0 -1
    outer loop
      vertex 116 69.4 0
      vertex 114.2 67.4 0
      vertex 114.2 69.4 0
    endloop
  endfacet
  facet normal 0 0 -1
    outer loop
      vertex 110.2 81.6 0
      vertex 112 79.6 0
      vertex 110.2 79.6 0
    endloop
  endfacet
  facet normal 0 0 -1
    outer loop
      vertex 112 79.6 0
      vertex 110.2 81.6 0
      vertex 112 84 0
    endloop
  endfacet
  facet normal 0 0 -1
    outer loop
      vertex 107.4 84 0
      vertex 110.2 81.6 0
      vertex 108 81.6 0
    endloop
  endfacet
  facet normal 0 0 -1
    outer loop
      vertex 110.2 81.6 0
      vertex 107.4 84 0
      vertex 112 84 0
    endloop
  endfacet
  facet normal 0 0 -1
    outer loop
      vertex 107.4 86.2 0
      vertex 109.4 88 0
      vertex 109.4 86.2 0
    endloop
  endfacet
  facet normal 0 0 -1
    outer loop
      vertex 100.6 86.2 0
      vertex 107.4 86.2 0
      vertex 100.6 84 0
    endloop
  endfacet
  facet normal 0 0 -1
    outer loop
      vertex 107.4 86.2 0
      vertex 100.6 86.2 0
      vertex 109.4 88 0
    endloop
  endfacet
  facet normal 0 0 -1
    outer loop
      vertex 98.6 88 0
      vertex 100.6 86.2 0
      vertex 98.6 86.2 0
    endloop
  endfacet
  facet normal 0 0 -1
    outer loop
      vertex 100.6 86.2 0
      vertex 98.6 88 0
      vertex 109.4 88 0
    endloop
  endfacet
  facet normal 0 0 -1
    outer loop
      vertex 97.6 82.2 0
      vertex 100.6 84 0
      vertex 97.6 80 0
    endloop
  endfacet
  facet normal 0 0 -1
    outer loop
      vertex 95.6 84 0
      vertex 97.6 82.2 0
      vertex 95.6 82.2 0
    endloop
  endfacet
  facet normal 0 0 -1
    outer loop
      vertex 97.6 82.2 0
      vertex 95.6 84 0
      vertex 100.6 84 0
    endloop
  endfacet
  facet normal 0 0 -1
    outer loop
      vertex 86.4 82.2 0
      vertex 88.4 84 0
      vertex 88.4 82.2 0
    endloop
  endfacet
  facet normal -0 0 -1
    outer loop
      vertex 88.4 84 0
      vertex 86.4 82.2 0
      vertex 79.4 84 0
    endloop
  endfacet
  facet normal 0 0 -1
    outer loop
      vertex 79.4 86.2 0
      vertex 81.4 88 0
      vertex 81.4 86.2 0
    endloop
  endfacet
  facet normal 0 0 -1
    outer loop
      vertex 72.6 86.2 0
      vertex 79.4 86.2 0
      vertex 72.6 84 0
    endloop
  endfacet
  facet normal 0 0 -1
    outer loop
      vertex 79.4 86.2 0
      vertex 72.6 86.2 0
      vertex 81.4 88 0
    endloop
  endfacet
  facet normal 0 0 -1
    outer loop
      vertex 70.6 88 0
      vertex 72.6 86.2 0
      vertex 70.6 86.2 0
    endloop
  endfacet
  facet normal 0 0 -1
    outer loop
      vertex 72.6 86.2 0
      vertex 70.6 88 0
      vertex 81.4 88 0
    endloop
  endfacet
  facet normal 0 0 -1
    outer loop
      vertex 69.6 82.2 0
      vertex 72.6 84 0
      vertex 69.6 80 0
    endloop
  endfacet
  facet normal 0 0 -1
    outer loop
      vertex 67.6 84 0
      vertex 69.6 82.2 0
      vertex 67.6 82.2 0
    endloop
  endfacet
  facet normal 0 0 -1
    outer loop
      vertex 69.6 82.2 0
      vertex 67.6 84 0
      vertex 72.6 84 0
    endloop
  endfacet
  facet normal 0 0 -1
    outer loop
      vertex 58.4 82.2 0
      vertex 60.4 84 0
      vertex 60.4 82.2 0
    endloop
  endfacet
  facet normal -0 0 -1
    outer loop
      vertex 60.4 84 0
      vertex 58.4 82.2 0
      vertex 51.4 84 0
    endloop
  endfacet
  facet normal 0 0 -1
    outer loop
      vertex 51.4 86.2 0
      vertex 53.4 88 0
      vertex 53.4 86.2 0
    endloop
  endfacet
  facet normal 0 0 -1
    outer loop
      vertex 44.6 86.2 0
      vertex 51.4 86.2 0
      vertex 44.6 84 0
    endloop
  endfacet
  facet normal 0 0 -1
    outer loop
      vertex 51.4 86.2 0
      vertex 44.6 86.2 0
      vertex 53.4 88 0
    endloop
  endfacet
  facet normal 0 0 -1
    outer loop
      vertex 42.6 88 0
      vertex 44.6 86.2 0
      vertex 42.6 86.2 0
    endloop
  endfacet
  facet normal 0 0 -1
    outer loop
      vertex 44.6 86.2 0
      vertex 42.6 88 0
      vertex 53.4 88 0
    endloop
  endfacet
  facet normal 0 0 -1
    outer loop
      vertex 41.6 82.2 0
      vertex 44.6 84 0
      vertex 41.6 80 0
    endloop
  endfacet
  facet normal 0 0 -1
    outer loop
      vertex 39.6 84 0
      vertex 41.6 82.2 0
      vertex 39.6 82.2 0
    endloop
  endfacet
  facet normal 0 0 -1
    outer loop
      vertex 41.6 82.2 0
      vertex 39.6 84 0
      vertex 44.6 84 0
    endloop
  endfacet
  facet normal 0 0 -1
    outer loop
      vertex 30.4 82.2 0
      vertex 32.4 84 0
      vertex 32.4 82.2 0
    endloop
  endfacet
  facet normal -0 0 -1
    outer loop
      vertex 32.4 84 0
      vertex 30.4 82.2 0
      vertex 23.4 84 0
    endloop
  endfacet
  facet normal 0 0 -1
    outer loop
      vertex 23.4 86.2 0
      vertex 25.4 88 0
      vertex 25.4 86.2 0
    endloop
  endfacet
  facet normal 0 0 -1
    outer loop
      vertex 16.6 86.2 0
      vertex 23.4 86.2 0
      vertex 16.6 84 0
    endloop
  endfacet
  facet normal 0 0 -1
    outer loop
      vertex 23.4 86.2 0
      vertex 16.6 86.2 0
      vertex 25.4 88 0
    endloop
  endfacet
  facet normal 0 0 -1
    outer loop
      vertex 14.6 88 0
      vertex 16.6 86.2 0
      vertex 14.6 86.2 0
    endloop
  endfacet
  facet normal 0 0 -1
    outer loop
      vertex 16.6 86.2 0
      vertex 14.6 88 0
      vertex 25.4 88 0
    endloop
  endfacet
  facet normal 0 0 -1
    outer loop
      vertex 13.6 82.2 0
      vertex 16.6 84 0
      vertex 13.6 80 0
    endloop
  endfacet
  facet normal 0 0 -1
    outer loop
      vertex 11.6 84 0
      vertex 13.6 82.2 0
      vertex 11.6 82.2 0
    endloop
  endfacet
  facet normal 0 0 -1
    outer loop
      vertex 13.6 82.2 0
      vertex 11.6 84 0
      vertex 16.6 84 0
    endloop
  endfacet
  facet normal 0 0 -1
    outer loop
      vertex 2.4 82.2 0
      vertex 4.4 84 0
      vertex 4.4 82.2 0
    endloop
  endfacet
  facet normal 0 0 -1
    outer loop
      vertex 2.4 82.2 0
      vertex 0 84 0
      vertex 4.4 84 0
    endloop
  endfacet
  facet normal 0 0 -1
    outer loop
      vertex 2.4 80 0
      vertex 0 84 0
      vertex 2.4 82.2 0
    endloop
  endfacet
  facet normal 0 1 -0
    outer loop
      vertex 110.2 14.4 0
      vertex 108 14.4 40
      vertex 110.2 14.4 40
    endloop
  endfacet
  facet normal 0 1 0
    outer loop
      vertex 108 14.4 40
      vertex 110.2 14.4 0
      vertex 108 14.4 0
    endloop
  endfacet
  facet normal 0 -1 0
    outer loop
      vertex 108 25.6 0
      vertex 110.2 25.6 40
      vertex 108 25.6 40
    endloop
  endfacet
  facet normal 0 -1 -0
    outer loop
      vertex 110.2 25.6 40
      vertex 108 25.6 0
      vertex 110.2 25.6 0
    endloop
  endfacet
  facet normal 1 -0 0
    outer loop
      vertex 108 14.4 40
      vertex 108 25.6 0
      vertex 108 25.6 40
    endloop
  endfacet
  facet normal 1 0 0
    outer loop
      vertex 108 25.6 0
      vertex 108 14.4 40
      vertex 108 14.4 0
    endloop
  endfacet
  facet normal 0 1 -0
    outer loop
      vertex 112 44.4 0
      vertex 110.2 44.4 40
      vertex 112 44.4 40
    endloop
  endfacet
  facet normal 0 1 0
    outer loop
      vertex 110.2 44.4 40
      vertex 112 44.4 0
      vertex 110.2 44.4 0
    endloop
  endfacet
  facet normal 0 -1 0
    outer loop
      vertex 110.2 51.6 0
      vertex 112 51.6 40
      vertex 110.2 51.6 40
    endloop
  endfacet
  facet normal 0 -1 -0
    outer loop
      vertex 112 51.6 40
      vertex 110.2 51.6 0
      vertex 112 51.6 0
    endloop
  endfacet
  facet normal -1 0 0
    outer loop
      vertex 110.2 42.4 0
      vertex 110.2 44.4 40
      vertex 110.2 44.4 0
    endloop
  endfacet
  facet normal -1 -0 0
    outer loop
      vertex 110.2 44.4 40
      vertex 110.2 42.4 0
      vertex 110.2 42.4 40
    endloop
  endfacet
  facet normal -1 0 0
    outer loop
      vertex 110.2 51.6 0
      vertex 110.2 53.6 40
      vertex 110.2 53.6 0
    endloop
  endfacet
  facet normal -1 -0 0
    outer loop
      vertex 110.2 53.6 40
      vertex 110.2 51.6 0
      vertex 110.2 51.6 40
    endloop
  endfacet
  facet normal 0 1 -0
    outer loop
      vertex 110.2 42.4 0
      vertex 108 42.4 40
      vertex 110.2 42.4 40
    endloop
  endfacet
  facet normal 0 1 0
    outer loop
      vertex 108 42.4 40
      vertex 110.2 42.4 0
      vertex 108 42.4 0
    endloop
  endfacet
  facet normal 0 -1 0
    outer loop
      vertex 108 53.6 0
      vertex 110.2 53.6 40
      vertex 108 53.6 40
    endloop
  endfacet
  facet normal 0 -1 -0
    outer loop
      vertex 110.2 53.6 40
      vertex 108 53.6 0
      vertex 110.2 53.6 0
    endloop
  endfacet
  facet normal 1 -0 0
    outer loop
      vertex 108 42.4 40
      vertex 108 53.6 0
      vertex 108 53.6 40
    endloop
  endfacet
  facet normal 1 0 0
    outer loop
      vertex 108 53.6 0
      vertex 108 42.4 40
      vertex 108 42.4 0
    endloop
  endfacet
  facet normal 0 1 -0
    outer loop
      vertex 112 72.4 0
      vertex 110.2 72.4 40
      vertex 112 72.4 40
    endloop
  endfacet
  facet normal 0 1 0
    outer loop
      vertex 110.2 72.4 40
      vertex 112 72.4 0
      vertex 110.2 72.4 0
    endloop
  endfacet
  facet normal 0 -1 0
    outer loop
      vertex 110.2 79.6 0
      vertex 112 79.6 40
      vertex 110.2 79.6 40
    endloop
  endfacet
  facet normal 0 -1 -0
    outer loop
      vertex 112 79.6 40
      vertex 110.2 79.6 0
      vertex 112 79.6 0
    endloop
  endfacet
  facet normal -1 0 0
    outer loop
      vertex 110.2 70.4 0
      vertex 110.2 72.4 40
      vertex 110.2 72.4 0
    endloop
  endfacet
  facet normal -1 -0 0
    outer loop
      vertex 110.2 72.4 40
      vertex 110.2 70.4 0
      vertex 110.2 70.4 40
    endloop
  endfacet
  facet normal -1 0 0
    outer loop
      vertex 110.2 79.6 0
      vertex 110.2 81.6 40
      vertex 110.2 81.6 0
    endloop
  endfacet
  facet normal -1 -0 0
    outer loop
      vertex 110.2 81.6 40
      vertex 110.2 79.6 0
      vertex 110.2 79.6 40
    endloop
  endfacet
  facet normal 0 1 -0
    outer loop
      vertex 110.2 70.4 0
      vertex 108 70.4 40
      vertex 110.2 70.4 40
    endloop
  endfacet
  facet normal 0 1 0
    outer loop
      vertex 108 70.4 40
      vertex 110.2 70.4 0
      vertex 108 70.4 0
    endloop
  endfacet
  facet normal 0 -1 0
    outer loop
      vertex 108 81.6 0
      vertex 110.2 81.6 40
      vertex 108 81.6 40
    endloop
  endfacet
  facet normal 0 -1 -0
    outer loop
      vertex 110.2 81.6 40
      vertex 108 81.6 0
      vertex 110.2 81.6 0
    endloop
  endfacet
  facet normal 1 -0 0
    outer loop
      vertex 108 70.4 40
      vertex 108 81.6 0
      vertex 108 81.6 40
    endloop
  endfacet
  facet normal 1 0 0
    outer loop
      vertex 108 81.6 0
      vertex 108 70.4 40
      vertex 108 70.4 0
    endloop
  endfacet
  facet normal -1 0 0
    outer loop
      vertex 95.6 82.2 0
      vertex 95.6 84 40
      vertex 95.6 84 0
    endloop
  endfacet
  facet normal -1 -0 0
    outer loop
      vertex 95.6 84 40
      vertex 95.6 82.2 0
      vertex 95.6 82.2 40
    endloop
  endfacet
  facet normal 1 -0 0
    outer loop
      vertex 88.4 82.2 40
      vertex 88.4 84 0
      vertex 88.4 84 40
    endloop
  endfacet
  facet normal 1 0 0
    outer loop
      vertex 88.4 84 0
      vertex 88.4 82.2 40
      vertex 88.4 82.2 0
    endloop
  endfacet
  facet normal 0 -1 0
    outer loop
      vertex 95.6 82.2 0
      vertex 97.6 82.2 40
      vertex 95.6 82.2 40
    endloop
  endfacet
  facet normal 0 -1 -0
    outer loop
      vertex 97.6 82.2 40
      vertex 95.6 82.2 0
      vertex 97.6 82.2 0
    endloop
  endfacet
  facet normal 0 -1 0
    outer loop
      vertex 86.4 82.2 0
      vertex 88.4 82.2 40
      vertex 86.4 82.2 40
    endloop
  endfacet
  facet normal 0 -1 -0
    outer loop
      vertex 88.4 82.2 40
      vertex 86.4 82.2 0
      vertex 88.4 82.2 0
    endloop
  endfacet
  facet normal -1 0 0
    outer loop
      vertex 97.6 80 0
      vertex 97.6 82.2 40
      vertex 97.6 82.2 0
    endloop
  endfacet
  facet normal -1 -0 0
    outer loop
      vertex 97.6 82.2 40
      vertex 97.6 80 0
      vertex 97.6 80 40
    endloop
  endfacet
  facet normal 1 -0 0
    outer loop
      vertex 86.4 80 40
      vertex 86.4 82.2 0
      vertex 86.4 82.2 40
    endloop
  endfacet
  facet normal 1 0 0
    outer loop
      vertex 86.4 82.2 0
      vertex 86.4 80 40
      vertex 86.4 80 0
    endloop
  endfacet
  facet normal 0 1 -0
    outer loop
      vertex 97.6 80 0
      vertex 86.4 80 40
      vertex 97.6 80 40
    endloop
  endfacet
  facet normal 0 1 0
    outer loop
      vertex 86.4 80 40
      vertex 97.6 80 0
      vertex 86.4 80 0
    endloop
  endfacet
  facet normal -1 0 0
    outer loop
      vertex 67.6 82.2 0
      vertex 67.6 84 40
      vertex 67.6 84 0
    endloop
  endfacet
  facet normal -1 -0 0
    outer loop
      vertex 67.6 84 40
      vertex 67.6 82.2 0
      vertex 67.6 82.2 40
    endloop
  endfacet
  facet normal 1 -0 0
    outer loop
      vertex 60.4 82.2 40
      vertex 60.4 84 0
      vertex 60.4 84 40
    endloop
  endfacet
  facet normal 1 0 0
    outer loop
      vertex 60.4 84 0
      vertex 60.4 82.2 40
      vertex 60.4 82.2 0
    endloop
  endfacet
  facet normal 0 -1 0
    outer loop
      vertex 67.6 82.2 0
      vertex 69.6 82.2 40
      vertex 67.6 82.2 40
    endloop
  endfacet
  facet normal 0 -1 -0
    outer loop
      vertex 69.6 82.2 40
      vertex 67.6 82.2 0
      vertex 69.6 82.2 0
    endloop
  endfacet
  facet normal 0 -1 0
    outer loop
      vertex 58.4 82.2 0
      vertex 60.4 82.2 40
      vertex 58.4 82.2 40
    endloop
  endfacet
  facet normal 0 -1 -0
    outer loop
      vertex 60.4 82.2 40
      vertex 58.4 82.2 0
      vertex 60.4 82.2 0
    endloop
  endfacet
  facet normal -1 0 0
    outer loop
      vertex 69.6 80 0
      vertex 69.6 82.2 40
      vertex 69.6 82.2 0
    endloop
  endfacet
  facet normal -1 -0 0
    outer loop
      vertex 69.6 82.2 40
      vertex 69.6 80 0
      vertex 69.6 80 40
    endloop
  endfacet
  facet normal 1 -0 0
    outer loop
      vertex 58.4 80 40
      vertex 58.4 82.2 0
      vertex 58.4 82.2 40
    endloop
  endfacet
  facet normal 1 0 0
    outer loop
      vertex 58.4 82.2 0
      vertex 58.4 80 40
      vertex 58.4 80 0
    endloop
  endfacet
  facet normal 0 1 -0
    outer loop
      vertex 69.6 80 0
      vertex 58.4 80 40
      vertex 69.6 80 40
    endloop
  endfacet
  facet normal 0 1 0
    outer loop
      vertex 58.4 80 40
      vertex 69.6 80 0
      vertex 58.4 80 0
    endloop
  endfacet
  facet normal -1 0 0
    outer loop
      vertex 39.6 82.2 0
      vertex 39.6 84 40
      vertex 39.6 84 0
    endloop
  endfacet
  facet normal -1 -0 0
    outer loop
      vertex 39.6 84 40
      vertex 39.6 82.2 0
      vertex 39.6 82.2 40
    endloop
  endfacet
  facet normal 1 -0 0
    outer loop
      vertex 32.4 82.2 40
      vertex 32.4 84 0
      vertex 32.4 84 40
    endloop
  endfacet
  facet normal 1 0 0
    outer loop
      vertex 32.4 84 0
      vertex 32.4 82.2 40
      vertex 32.4 82.2 0
    endloop
  endfacet
  facet normal 0 -1 0
    outer loop
      vertex 39.6 82.2 0
      vertex 41.6 82.2 40
      vertex 39.6 82.2 40
    endloop
  endfacet
  facet normal 0 -1 -0
    outer loop
      vertex 41.6 82.2 40
      vertex 39.6 82.2 0
      vertex 41.6 82.2 0
    endloop
  endfacet
  facet normal 0 -1 0
    outer loop
      vertex 30.4 82.2 0
      vertex 32.4 82.2 40
      vertex 30.4 82.2 40
    endloop
  endfacet
  facet normal 0 -1 -0
    outer loop
      vertex 32.4 82.2 40
      vertex 30.4 82.2 0
      vertex 32.4 82.2 0
    endloop
  endfacet
  facet normal -1 0 0
    outer loop
      vertex 41.6 80 0
      vertex 41.6 82.2 40
      vertex 41.6 82.2 0
    endloop
  endfacet
  facet normal -1 -0 0
    outer loop
      vertex 41.6 82.2 40
      vertex 41.6 80 0
      vertex 41.6 80 40
    endloop
  endfacet
  facet normal 1 -0 0
    outer loop
      vertex 30.4 80 40
      vertex 30.4 82.2 0
      vertex 30.4 82.2 40
    endloop
  endfacet
  facet normal 1 0 0
    outer loop
      vertex 30.4 82.2 0
      vertex 30.4 80 40
      vertex 30.4 80 0
    endloop
  endfacet
  facet normal 0 1 -0
    outer loop
      vertex 41.6 80 0
      vertex 30.4 80 40
      vertex 41.6 80 40
    endloop
  endfacet
  facet normal 0 1 0
    outer loop
      vertex 30.4 80 40
      vertex 41.6 80 0
      vertex 30.4 80 0
    endloop
  endfacet
  facet normal -1 0 0
    outer loop
      vertex 11.6 82.2 0
      vertex 11.6 84 40
      vertex 11.6 84 0
    endloop
  endfacet
  facet normal -1 -0 0
    outer loop
      vertex 11.6 84 40
      vertex 11.6 82.2 0
      vertex 11.6 82.2 40
    endloop
  endfacet
  facet normal 1 -0 0
    outer loop
      vertex 4.4 82.2 40
      vertex 4.4 84 0
      vertex 4.4 84 40
    endloop
  endfacet
  facet normal 1 0 0
    outer loop
      vertex 4.4 84 0
      vertex 4.4 82.2 40
      vertex 4.4 82.2 0
    endloop
  endfacet
  facet normal 0 -1 0
    outer loop
      vertex 11.6 82.2 0
      vertex 13.6 82.2 40
      vertex 11.6 82.2 40
    endloop
  endfacet
  facet normal 0 -1 -0
    outer loop
      vertex 13.6 82.2 40
      vertex 11.6 82.2 0
      vertex 13.6 82.2 0
    endloop
  endfacet
  facet normal 0 -1 0
    outer loop
      vertex 2.4 82.2 0
      vertex 4.4 82.2 40
      vertex 2.4 82.2 40
    endloop
  endfacet
  facet normal 0 -1 -0
    outer loop
      vertex 4.4 82.2 40
      vertex 2.4 82.2 0
      vertex 4.4 82.2 0
    endloop
  endfacet
  facet normal -1 0 0
    outer loop
      vertex 13.6 80 0
      vertex 13.6 82.2 40
      vertex 13.6 82.2 0
    endloop
  endfacet
  facet normal -1 -0 0
    outer loop
      vertex 13.6 82.2 40
      vertex 13.6 80 0
      vertex 13.6 80 40
    endloop
  endfacet
  facet normal 1 -0 0
    outer loop
      vertex 2.4 80 40
      vertex 2.4 82.2 0
      vertex 2.4 82.2 40
    endloop
  endfacet
  facet normal 1 0 0
    outer loop
      vertex 2.4 82.2 0
      vertex 2.4 80 40
      vertex 2.4 80 0
    endloop
  endfacet
  facet normal 0 1 -0
    outer loop
      vertex 13.6 80 0
      vertex 2.4 80 40
      vertex 13.6 80 40
    endloop
  endfacet
  facet normal 0 1 0
    outer loop
      vertex 2.4 80 40
      vertex 13.6 80 0
      vertex 2.4 80 0
    endloop
  endfacet
  facet normal -1 0 0
    outer loop
      vertex 0 0 0
      vertex 0 84 40
      vertex 0 84 0
    endloop
  endfacet
  facet normal -1 -0 0
    outer loop
      vertex 0 84 40
      vertex 0 0 0
      vertex 0 0 40
    endloop
  endfacet
  facet normal 1 -0 0
    outer loop
      vertex 112 0 40
      vertex 112 4.6 0
      vertex 112 4.6 40
    endloop
  endfacet
  facet normal 1 0 0
    outer loop
      vertex 112 4.6 0
      vertex 112 0 40
      vertex 112 0 0
    endloop
  endfacet
  facet normal 1 -0 0
    outer loop
      vertex 112 79.6 40
      vertex 112 84 0
      vertex 112 84 40
    endloop
  endfacet
  facet normal 1 0 0
    outer loop
      vertex 112 84 0
      vertex 112 79.6 40
      vertex 112 79.6 0
    endloop
  endfacet
  facet normal 1 -0 0
    outer loop
      vertex 112 67.4 40
      vertex 112 72.4 0
      vertex 112 72.4 40
    endloop
  endfacet
  facet normal 1 0 0
    outer loop
      vertex 112 72.4 0
      vertex 112 67.4 40
      vertex 112 67.4 0
    endloop
  endfacet
  facet normal 1 -0 0
    outer loop
      vertex 112 39.4 40
      vertex 112 44.4 0
      vertex 112 44.4 40
    endloop
  endfacet
  facet normal 1 0 0
    outer loop
      vertex 112 44.4 0
      vertex 112 39.4 40
      vertex 112 39.4 0
    endloop
  endfacet
  facet normal 1 -0 0
    outer loop
      vertex 112 51.6 40
      vertex 112 60.6 0
      vertex 112 60.6 40
    endloop
  endfacet
  facet normal 1 0 0
    outer loop
      vertex 112 60.6 0
      vertex 112 51.6 40
      vertex 112 51.6 0
    endloop
  endfacet
  facet normal 1 -0 0
    outer loop
      vertex 112 11.4 40
      vertex 112 16.4 0
      vertex 112 16.4 40
    endloop
  endfacet
  facet normal 1 0 0
    outer loop
      vertex 112 16.4 0
      vertex 112 11.4 40
      vertex 112 11.4 0
    endloop
  endfacet
  facet normal 1 -0 0
    outer loop
      vertex 112 23.6 40
      vertex 112 32.6 0
      vertex 112 32.6 40
    endloop
  endfacet
  facet normal 1 0 0
    outer loop
      vertex 112 32.6 0
      vertex 112 23.6 40
      vertex 112 23.6 0
    endloop
  endfacet
  facet normal 0 -1 0
    outer loop
      vertex 0 0 0
      vertex 112 0 40
      vertex 0 0 40
    endloop
  endfacet
  facet normal 0 -1 -0
    outer loop
      vertex 112 0 40
      vertex 0 0 0
      vertex 112 0 0
    endloop
  endfacet
  facet normal 0 1 -0
    outer loop
      vertex 112 84 0
      vertex 107.4 84 40
      vertex 112 84 40
    endloop
  endfacet
  facet normal 0 1 0
    outer loop
      vertex 107.4 84 40
      vertex 112 84 0
      vertex 107.4 84 0
    endloop
  endfacet
  facet normal 0 1 -0
    outer loop
      vertex 4.4 84 0
      vertex 0 84 40
      vertex 4.4 84 40
    endloop
  endfacet
  facet normal 0 1 0
    outer loop
      vertex 0 84 40
      vertex 4.4 84 0
      vertex 0 84 0
    endloop
  endfacet
  facet normal 0 1 -0
    outer loop
      vertex 16.6 84 0
      vertex 11.6 84 40
      vertex 16.6 84 40
    endloop
  endfacet
  facet normal 0 1 0
    outer loop
      vertex 11.6 84 40
      vertex 16.6 84 0
      vertex 11.6 84 0
    endloop
  endfacet
  facet normal 0 1 -0
    outer loop
      vertex 32.4 84 0
      vertex 23.4 84 40
      vertex 32.4 84 40
    endloop
  endfacet
  facet normal 0 1 0
    outer loop
      vertex 23.4 84 40
      vertex 32.4 84 0
      vertex 23.4 84 0
    endloop
  endfacet
  facet normal 0 1 -0
    outer loop
      vertex 44.6 84 0
      vertex 39.6 84 40
      vertex 44.6 84 40
    endloop
  endfacet
  facet normal 0 1 0
    outer loop
      vertex 39.6 84 40
      vertex 44.6 84 0
      vertex 39.6 84 0
    endloop
  endfacet
  facet normal 0 1 -0
    outer loop
      vertex 60.4 84 0
      vertex 51.4 84 40
      vertex 60.4 84 40
    endloop
  endfacet
  facet normal 0 1 0
    outer loop
      vertex 51.4 84 40
      vertex 60.4 84 0
      vertex 51.4 84 0
    endloop
  endfacet
  facet normal 0 1 -0
    outer loop
      vertex 72.6 84 0
      vertex 67.6 84 40
      vertex 72.6 84 40
    endloop
  endfacet
  facet normal 0 1 0
    outer loop
      vertex 67.6 84 40
      vertex 72.6 84 0
      vertex 67.6 84 0
    endloop
  endfacet
  facet normal 0 1 -0
    outer loop
      vertex 88.4 84 0
      vertex 79.4 84 40
      vertex 88.4 84 40
    endloop
  endfacet
  facet normal 0 1 0
    outer loop
      vertex 79.4 84 40
      vertex 88.4 84 0
      vertex 79.4 84 0
    endloop
  endfacet
  facet normal 0 1 -0
    outer loop
      vertex 100.6 84 0
      vertex 95.6 84 40
      vertex 100.6 84 40
    endloop
  endfacet
  facet normal 0 1 0
    outer loop
      vertex 95.6 84 40
      vertex 100.6 84 0
      vertex 95.6 84 0
    endloop
  endfacet
  facet normal 0 -1 0
    outer loop
      vertex 114.2 2.6 0
      vertex 116 2.6 40
      vertex 114.2 2.6 40
    endloop
  endfacet
  facet normal 0 -1 -0
    outer loop
      vertex 116 2.6 40
      vertex 114.2 2.6 0
      vertex 116 2.6 0
    endloop
  endfacet
  facet normal 0 1 -0
    outer loop
      vertex 116 13.4 0
      vertex 114.2 13.4 40
      vertex 116 13.4 40
    endloop
  endfacet
  facet normal 0 1 0
    outer loop
      vertex 114.2 13.4 40
      vertex 116 13.4 0
      vertex 114.2 13.4 0
    endloop
  endfacet
  facet normal -1 0 0
    outer loop
      vertex 114.2 2.6 0
      vertex 114.2 4.6 40
      vertex 114.2 4.6 0
    endloop
  endfacet
  facet normal -1 -0 0
    outer loop
      vertex 114.2 4.6 40
      vertex 114.2 2.6 0
      vertex 114.2 2.6 40
    endloop
  endfacet
  facet normal -1 0 0
    outer loop
      vertex 114.2 11.4 0
      vertex 114.2 13.4 40
      vertex 114.2 13.4 0
    endloop
  endfacet
  facet normal -1 -0 0
    outer loop
      vertex 114.2 13.4 40
      vertex 114.2 11.4 0
      vertex 114.2 11.4 40
    endloop
  endfacet
  facet normal 1 -0 0
    outer loop
      vertex 116 2.6 40
      vertex 116 13.4 0
      vertex 116 13.4 40
    endloop
  endfacet
  facet normal 1 0 0
    outer loop
      vertex 116 13.4 0
      vertex 116 2.6 40
      vertex 116 2.6 0
    endloop
  endfacet
  facet normal 0 -1 0
    outer loop
      vertex 112 4.6 0
      vertex 114.2 4.6 40
      vertex 112 4.6 40
    endloop
  endfacet
  facet normal 0 -1 -0
    outer loop
      vertex 114.2 4.6 40
      vertex 112 4.6 0
      vertex 114.2 4.6 0
    endloop
  endfacet
  facet normal 0 1 -0
    outer loop
      vertex 114.2 11.4 0
      vertex 112 11.4 40
      vertex 114.2 11.4 40
    endloop
  endfacet
  facet normal 0 1 0
    outer loop
      vertex 112 11.4 40
      vertex 114.2 11.4 0
      vertex 112 11.4 0
    endloop
  endfacet
  facet normal 0 -1 0
    outer loop
      vertex 114.2 30.6 0
      vertex 116 30.6 40
      vertex 114.2 30.6 40
    endloop
  endfacet
  facet normal 0 -1 -0
    outer loop
      vertex 116 30.6 40
      vertex 114.2 30.6 0
      vertex 116 30.6 0
    endloop
  endfacet
  facet normal 0 1 -0
    outer loop
      vertex 116 41.4 0
      vertex 114.2 41.4 40
      vertex 116 41.4 40
    endloop
  endfacet
  facet normal 0 1 0
    outer loop
      vertex 114.2 41.4 40
      vertex 116 41.4 0
      vertex 114.2 41.4 0
    endloop
  endfacet
  facet normal -1 0 0
    outer loop
      vertex 114.2 30.6 0
      vertex 114.2 32.6 40
      vertex 114.2 32.6 0
    endloop
  endfacet
  facet normal -1 -0 0
    outer loop
      vertex 114.2 32.6 40
      vertex 114.2 30.6 0
      vertex 114.2 30.6 40
    endloop
  endfacet
  facet normal -1 0 0
    outer loop
      vertex 114.2 39.4 0
      vertex 114.2 41.4 40
      vertex 114.2 41.4 0
    endloop
  endfacet
  facet normal -1 -0 0
    outer loop
      vertex 114.2 41.4 40
      vertex 114.2 39.4 0
      vertex 114.2 39.4 40
    endloop
  endfacet
  facet normal 1 -0 0
    outer loop
      vertex 116 30.6 40
      vertex 116 41.4 0
      vertex 116 41.4 40
    endloop
  endfacet
  facet normal 1 0 0
    outer loop
      vertex 116 41.4 0
      vertex 116 30.6 40
      vertex 116 30.6 0
    endloop
  endfacet
  facet normal 0 -1 0
    outer loop
      vertex 112 32.6 0
      vertex 114.2 32.6 40
      vertex 112 32.6 40
    endloop
  endfacet
  facet normal 0 -1 -0
    outer loop
      vertex 114.2 32.6 40
      vertex 112 32.6 0
      vertex 114.2 32.6 0
    endloop
  endfacet
  facet normal 0 1 -0
    outer loop
      vertex 114.2 39.4 0
      vertex 112 39.4 40
      vertex 114.2 39.4 40
    endloop
  endfacet
  facet normal 0 1 0
    outer loop
      vertex 112 39.4 40
      vertex 114.2 39.4 0
      vertex 112 39.4 0
    endloop
  endfacet
  facet normal 0 -1 0
    outer loop
      vertex 114.2 58.6 0
      vertex 116 58.6 40
      vertex 114.2 58.6 40
    endloop
  endfacet
  facet normal 0 -1 -0
    outer loop
      vertex 116 58.6 40
      vertex 114.2 58.6 0
      vertex 116 58.6 0
    endloop
  endfacet
  facet normal 0 1 -0
    outer loop
      vertex 116 69.4 0
      vertex 114.2 69.4 40
      vertex 116 69.4 40
    endloop
  endfacet
  facet normal 0 1 0
    outer loop
      vertex 114.2 69.4 40
      vertex 116 69.4 0
      vertex 114.2 69.4 0
    endloop
  endfacet
  facet normal -1 0 0
    outer loop
      vertex 114.2 58.6 0
      vertex 114.2 60.6 40
      vertex 114.2 60.6 0
    endloop
  endfacet
  facet normal -1 -0 0
    outer loop
      vertex 114.2 60.6 40
      vertex 114.2 58.6 0
      vertex 114.2 58.6 40
    endloop
  endfacet
  facet normal -1 0 0
    outer loop
      vertex 114.2 67.4 0
      vertex 114.2 69.4 40
      vertex 114.2 69.4 0
    endloop
  endfacet
  facet normal -1 -0 0
    outer loop
      vertex 114.2 69.4 40
      vertex 114.2 67.4 0
      vertex 114.2 67.4 40
    endloop
  endfacet
  facet normal 1 -0 0
    outer loop
      vertex 116 58.6 40
      vertex 116 69.4 0
      vertex 116 69.4 40
    endloop
  endfacet
  facet normal 1 0 0
    outer loop
      vertex 116 69.4 0
      vertex 116 58.6 40
      vertex 116 58.6 0
    endloop
  endfacet
  facet normal 0 -1 0
    outer loop
      vertex 112 60.6 0
      vertex 114.2 60.6 40
      vertex 112 60.6 40
    endloop
  endfacet
  facet normal 0 -1 -0
    outer loop
      vertex 114.2 60.6 40
      vertex 112 60.6 0
      vertex 114.2 60.6 0
    endloop
  endfacet
  facet normal 0 1 -0
    outer loop
      vertex 114.2 67.4 0
      vertex 112 67.4 40
      vertex 114.2 67.4 40
    endloop
  endfacet
  facet normal 0 1 0
    outer loop
      vertex 112 67.4 40
      vertex 114.2 67.4 0
      vertex 112 67.4 0
    endloop
  endfacet
  facet normal 1 -0 0
    outer loop
      vertex 109.4 86.2 40
      vertex 109.4 88 0
      vertex 109.4 88 40
    endloop
  endfacet
  facet normal 1 0 0
    outer loop
      vertex 109.4 88 0
      vertex 109.4 86.2 40
      vertex 109.4 86.2 0
    endloop
  endfacet
  facet normal -1 0 0
    outer loop
      vertex 98.6 86.2 0
      vertex 98.6 88 40
      vertex 98.6 88 0
    endloop
  endfacet
  facet normal -1 -0 0
    outer loop
      vertex 98.6 88 40
      vertex 98.6 86.2 0
      vertex 98.6 86.2 40
    endloop
  endfacet
  facet normal 0 -1 0
    outer loop
      vertex 107.4 86.2 0
      vertex 109.4 86.2 40
      vertex 107.4 86.2 40
    endloop
  endfacet
  facet normal 0 -1 -0
    outer loop
      vertex 109.4 86.2 40
      vertex 107.4 86.2 0
      vertex 109.4 86.2 0
    endloop
  endfacet
  facet normal 0 -1 0
    outer loop
      vertex 98.6 86.2 0
      vertex 100.6 86.2 40
      vertex 98.6 86.2 40
    endloop
  endfacet
  facet normal 0 -1 -0
    outer loop
      vertex 100.6 86.2 40
      vertex 98.6 86.2 0
      vertex 100.6 86.2 0
    endloop
  endfacet
  facet normal 0 1 -0
    outer loop
      vertex 109.4 88 0
      vertex 98.6 88 40
      vertex 109.4 88 40
    endloop
  endfacet
  facet normal 0 1 0
    outer loop
      vertex 98.6 88 40
      vertex 109.4 88 0
      vertex 98.6 88 0
    endloop
  endfacet
  facet normal 1 -0 0
    outer loop
      vertex 107.4 84 40
      vertex 107.4 86.2 0
      vertex 107.4 86.2 40
    endloop
  endfacet
  facet normal 1 0 0
    outer loop
      vertex 107.4 86.2 0
      vertex 107.4 84 40
      vertex 107.4 84 0
    endloop
  endfacet
  facet normal -1 0 0
    outer loop
      vertex 100.6 84 0
      vertex 100.6 86.2 40
      vertex 100.6 86.2 0
    endloop
  endfacet
  facet normal -1 -0 0
    outer loop
      vertex 100.6 86.2 40
      vertex 100.6 84 0
      vertex 100.6 84 40
    endloop
  endfacet
  facet normal 1 -0 0
    outer loop
      vertex 81.4 86.2 40
      vertex 81.4 88 0
      vertex 81.4 88 40
    endloop
  endfacet
  facet normal 1 0 0
    outer loop
      vertex 81.4 88 0
      vertex 81.4 86.2 40
      vertex 81.4 86.2 0
    endloop
  endfacet
  facet normal -1 0 0
    outer loop
      vertex 70.6 86.2 0
      vertex 70.6 88 40
      vertex 70.6 88 0
    endloop
  endfacet
  facet normal -1 -0 0
    outer loop
      vertex 70.6 88 40
      vertex 70.6 86.2 0
      vertex 70.6 86.2 40
    endloop
  endfacet
  facet normal 0 -1 0
    outer loop
      vertex 79.4 86.2 0
      vertex 81.4 86.2 40
      vertex 79.4 86.2 40
    endloop
  endfacet
  facet normal 0 -1 -0
    outer loop
      vertex 81.4 86.2 40
      vertex 79.4 86.2 0
      vertex 81.4 86.2 0
    endloop
  endfacet
  facet normal 0 -1 0
    outer loop
      vertex 70.6 86.2 0
      vertex 72.6 86.2 40
      vertex 70.6 86.2 40
    endloop
  endfacet
  facet normal 0 -1 -0
    outer loop
      vertex 72.6 86.2 40
      vertex 70.6 86.2 0
      vertex 72.6 86.2 0
    endloop
  endfacet
  facet normal 0 1 -0
    outer loop
      vertex 81.4 88 0
      vertex 70.6 88 40
      vertex 81.4 88 40
    endloop
  endfacet
  facet normal 0 1 0
    outer loop
      vertex 70.6 88 40
      vertex 81.4 88 0
      vertex 70.6 88 0
    endloop
  endfacet
  facet normal 1 -0 0
    outer loop
      vertex 79.4 84 40
      vertex 79.4 86.2 0
      vertex 79.4 86.2 40
    endloop
  endfacet
  facet normal 1 0 0
    outer loop
      vertex 79.4 86.2 0
      vertex 79.4 84 40
      vertex 79.4 84 0
    endloop
  endfacet
  facet normal -1 0 0
    outer loop
      vertex 72.6 84 0
      vertex 72.6 86.2 40
      vertex 72.6 86.2 0
    endloop
  endfacet
  facet normal -1 -0 0
    outer loop
      vertex 72.6 86.2 40
      vertex 72.6 84 0
      vertex 72.6 84 40
    endloop
  endfacet
  facet normal 1 -0 0
    outer loop
      vertex 53.4 86.2 40
      vertex 53.4 88 0
      vertex 53.4 88 40
    endloop
  endfacet
  facet normal 1 0 0
    outer loop
      vertex 53.4 88 0
      vertex 53.4 86.2 40
      vertex 53.4 86.2 0
    endloop
  endfacet
  facet normal -1 0 0
    outer loop
      vertex 42.6 86.2 0
      vertex 42.6 88 40
      vertex 42.6 88 0
    endloop
  endfacet
  facet normal -1 -0 0
    outer loop
      vertex 42.6 88 40
      vertex 42.6 86.2 0
      vertex 42.6 86.2 40
    endloop
  endfacet
  facet normal 0 -1 0
    outer loop
      vertex 51.4 86.2 0
      vertex 53.4 86.2 40
      vertex 51.4 86.2 40
    endloop
  endfacet
  facet normal 0 -1 -0
    outer loop
      vertex 53.4 86.2 40
      vertex 51.4 86.2 0
      vertex 53.4 86.2 0
    endloop
  endfacet
  facet normal 0 -1 0
    outer loop
      vertex 42.6 86.2 0
      vertex 44.6 86.2 40
      vertex 42.6 86.2 40
    endloop
  endfacet
  facet normal 0 -1 -0
    outer loop
      vertex 44.6 86.2 40
      vertex 42.6 86.2 0
      vertex 44.6 86.2 0
    endloop
  endfacet
  facet normal 0 1 -0
    outer loop
      vertex 53.4 88 0
      vertex 42.6 88 40
      vertex 53.4 88 40
    endloop
  endfacet
  facet normal 0 1 0
    outer loop
      vertex 42.6 88 40
      vertex 53.4 88 0
      vertex 42.6 88 0
    endloop
  endfacet
  facet normal 1 -0 0
    outer loop
      vertex 51.4 84 40
      vertex 51.4 86.2 0
      vertex 51.4 86.2 40
    endloop
  endfacet
  facet normal 1 0 0
    outer loop
      vertex 51.4 86.2 0
      vertex 51.4 84 40
      vertex 51.4 84 0
    endloop
  endfacet
  facet normal -1 0 0
    outer loop
      vertex 44.6 84 0
      vertex 44.6 86.2 40
      vertex 44.6 86.2 0
    endloop
  endfacet
  facet normal -1 -0 0
    outer loop
      vertex 44.6 86.2 40
      vertex 44.6 84 0
      vertex 44.6 84 40
    endloop
  endfacet
  facet normal 1 -0 0
    outer loop
      vertex 25.4 86.2 40
      vertex 25.4 88 0
      vertex 25.4 88 40
    endloop
  endfacet
  facet normal 1 0 0
    outer loop
      vertex 25.4 88 0
      vertex 25.4 86.2 40
      vertex 25.4 86.2 0
    endloop
  endfacet
  facet normal -1 0 0
    outer loop
      vertex 14.6 86.2 0
      vertex 14.6 88 40
      vertex 14.6 88 0
    endloop
  endfacet
  facet normal -1 -0 0
    outer loop
      vertex 14.6 88 40
      vertex 14.6 86.2 0
      vertex 14.6 86.2 40
    endloop
  endfacet
  facet normal 0 -1 0
    outer loop
      vertex 23.4 86.2 0
      vertex 25.4 86.2 40
      vertex 23.4 86.2 40
    endloop
  endfacet
  facet normal 0 -1 -0
    outer loop
      vertex 25.4 86.2 40
      vertex 23.4 86.2 0
      vertex 25.4 86.2 0
    endloop
  endfacet
  facet normal 0 -1 0
    outer loop
      vertex 14.6 86.2 0
      vertex 16.6 86.2 40
      vertex 14.6 86.2 40
    endloop
  endfacet
  facet normal 0 -1 -0
    outer loop
      vertex 16.6 86.2 40
      vertex 14.6 86.2 0
      vertex 16.6 86.2 0
    endloop
  endfacet
  facet normal 0 1 -0
    outer loop
      vertex 25.4 88 0
      vertex 14.6 88 40
      vertex 25.4 88 40
    endloop
  endfacet
  facet normal 0 1 0
    outer loop
      vertex 14.6 88 40
      vertex 25.4 88 0
      vertex 14.6 88 0
    endloop
  endfacet
  facet normal 1 -0 0
    outer loop
      vertex 23.4 84 40
      vertex 23.4 86.2 0
      vertex 23.4 86.2 40
    endloop
  endfacet
  facet normal 1 0 0
    outer loop
      vertex 23.4 86.2 0
      vertex 23.4 84 40
      vertex 23.4 84 0
    endloop
  endfacet
  facet normal -1 0 0
    outer loop
      vertex 16.6 84 0
      vertex 16.6 86.2 40
      vertex 16.6 86.2 0
    endloop
  endfacet
  facet normal -1 -0 0
    outer loop
      vertex 16.6 86.2 40
      vertex 16.6 84 0
      vertex 16.6 84 40
    endloop
  endfacet
endsolid OpenSCAD_Model
