solid OpenSCAD_Model
  facet normal 0 1 -0
    outer loop
      vertex 28 16.4 0
      vertex 26.2 16.4 20
      vertex 28 16.4 20
    endloop
  endfacet
  facet normal 0 1 0
    outer loop
      vertex 26.2 16.4 20
      vertex 28 16.4 0
      vertex 26.2 16.4 0
    endloop
  endfacet
  facet normal 0 0 1
    outer loop
      vertex 4.4 140 20
      vertex 2.4 138.2 20
      vertex 4.4 138.2 20
    endloop
  endfacet
  facet normal 0 0 1
    outer loop
      vertex 2.4 138.2 20
      vertex 0 140 20
      vertex 2.4 136 20
    endloop
  endfacet
  facet normal -0 0 1
    outer loop
      vertex 0 140 20
      vertex 2.4 138.2 20
      vertex 4.4 140 20
    endloop
  endfacet
  facet normal -0 0 1
    outer loop
      vertex 11.6 140 20
      vertex 13.6 138.2 20
      vertex 16.6 140 20
    endloop
  endfacet
  facet normal 0 0 1
    outer loop
      vertex 13.6 138.2 20
      vertex 11.6 140 20
      vertex 11.6 138.2 20
    endloop
  endfacet
  facet normal 0 0 1
    outer loop
      vertex 25.4 144 20
      vertex 23.4 142.2 20
      vertex 25.4 142.2 20
    endloop
  endfacet
  facet normal 0 0 1
    outer loop
      vertex 23.4 142.2 20
      vertex 16.6 142.2 20
      vertex 23.4 140 20
    endloop
  endfacet
  facet normal 0 0 1
    outer loop
      vertex 25.4 144 20
      vertex 16.6 142.2 20
      vertex 23.4 142.2 20
    endloop
  endfacet
  facet normal -0 0 1
    outer loop
      vertex 14.6 144 20
      vertex 16.6 142.2 20
      vertex 25.4 144 20
    endloop
  endfacet
  facet normal 0 0 1
    outer loop
      vertex 16.6 142.2 20
      vertex 14.6 144 20
      vertex 14.6 142.2 20
    endloop
  endfacet
  facet normal 0 0 1
    outer loop
      vertex 28 140 20
      vertex 26.2 137.6 20
      vertex 28 135.6 20
    endloop
  endfacet
  facet normal -0 0 1
    outer loop
      vertex 23.4 140 20
      vertex 26.2 137.6 20
      vertex 28 140 20
    endloop
  endfacet
  facet normal -0 0 1
    outer loop
      vertex 13.6 136 20
      vertex 24 126.4 20
      vertex 24 137.6 20
    endloop
  endfacet
  facet normal -0 0 1
    outer loop
      vertex 2.4 136 20
      vertex 24 126.4 20
      vertex 13.6 136 20
    endloop
  endfacet
  facet normal 0 0 1
    outer loop
      vertex 24 126.4 20
      vertex 2.4 136 20
      vertex 24 109.6 20
    endloop
  endfacet
  facet normal 0 0 1
    outer loop
      vertex 24 109.6 20
      vertex 2.4 136 20
      vertex 24 98.4 20
    endloop
  endfacet
  facet normal 0 0 1
    outer loop
      vertex 24 98.4 20
      vertex 2.4 136 20
      vertex 24 81.6 20
    endloop
  endfacet
  facet normal 0 0 1
    outer loop
      vertex 24 81.6 20
      vertex 2.4 136 20
      vertex 24 70.4 20
    endloop
  endfacet
  facet normal 0 0 1
    outer loop
      vertex 0 0 20
      vertex 24 70.4 20
      vertex 2.4 136 20
    endloop
  endfacet
  facet normal 0 0 1
    outer loop
      vertex 24 70.4 20
      vertex 0 0 20
      vertex 24 53.6 20
    endloop
  endfacet
  facet normal -0 0 1
    outer loop
      vertex 16.6 140 20
      vertex 24 137.6 20
      vertex 23.4 140 20
    endloop
  endfacet
  facet normal 0 0 1
    outer loop
      vertex 26.2 137.6 20
      vertex 23.4 140 20
      vertex 24 137.6 20
    endloop
  endfacet
  facet normal 0 0 1
    outer loop
      vertex 28 135.6 20
      vertex 26.2 137.6 20
      vertex 26.2 135.6 20
    endloop
  endfacet
  facet normal 0 0 1
    outer loop
      vertex 24 109.6 20
      vertex 28 116.6 20
      vertex 24 126.4 20
    endloop
  endfacet
  facet normal 0 0 1
    outer loop
      vertex 28 116.6 20
      vertex 24 109.6 20
      vertex 26.2 109.6 20
    endloop
  endfacet
  facet normal -0 0 1
    outer loop
      vertex 26.2 126.4 20
      vertex 28 123.4 20
      vertex 28 128.4 20
    endloop
  endfacet
  facet normal -0 0 1
    outer loop
      vertex 24 126.4 20
      vertex 28 123.4 20
      vertex 26.2 126.4 20
    endloop
  endfacet
  facet normal 0 0 1
    outer loop
      vertex 26.2 126.4 20
      vertex 28 128.4 20
      vertex 26.2 128.4 20
    endloop
  endfacet
  facet normal 0 0 1
    outer loop
      vertex 28 123.4 20
      vertex 24 126.4 20
      vertex 28 116.6 20
    endloop
  endfacet
  facet normal 0 0 1
    outer loop
      vertex 28 116.6 20
      vertex 26.2 109.6 20
      vertex 28 107.6 20
    endloop
  endfacet
  facet normal 0 0 1
    outer loop
      vertex 28 107.6 20
      vertex 26.2 109.6 20
      vertex 26.2 107.6 20
    endloop
  endfacet
  facet normal -0 0 1
    outer loop
      vertex 28 123.4 20
      vertex 30.2 116.6 20
      vertex 30.2 123.4 20
    endloop
  endfacet
  facet normal 0 0 1
    outer loop
      vertex 30.2 116.6 20
      vertex 28 123.4 20
      vertex 28 116.6 20
    endloop
  endfacet
  facet normal 0 0 1
    outer loop
      vertex 30.2 123.4 20
      vertex 32 125.4 20
      vertex 30.2 125.4 20
    endloop
  endfacet
  facet normal 0 0 1
    outer loop
      vertex 32 125.4 20
      vertex 30.2 123.4 20
      vertex 32 114.6 20
    endloop
  endfacet
  facet normal -0 0 1
    outer loop
      vertex 30.2 116.6 20
      vertex 32 114.6 20
      vertex 30.2 123.4 20
    endloop
  endfacet
  facet normal 0 0 1
    outer loop
      vertex 32 114.6 20
      vertex 30.2 116.6 20
      vertex 30.2 114.6 20
    endloop
  endfacet
  facet normal 0 0 1
    outer loop
      vertex 24 81.6 20
      vertex 28 88.6 20
      vertex 24 98.4 20
    endloop
  endfacet
  facet normal 0 0 1
    outer loop
      vertex 28 88.6 20
      vertex 24 81.6 20
      vertex 26.2 81.6 20
    endloop
  endfacet
  facet normal -0 0 1
    outer loop
      vertex 26.2 98.4 20
      vertex 28 95.4 20
      vertex 28 100.4 20
    endloop
  endfacet
  facet normal -0 0 1
    outer loop
      vertex 24 98.4 20
      vertex 28 95.4 20
      vertex 26.2 98.4 20
    endloop
  endfacet
  facet normal 0 0 1
    outer loop
      vertex 26.2 98.4 20
      vertex 28 100.4 20
      vertex 26.2 100.4 20
    endloop
  endfacet
  facet normal 0 0 1
    outer loop
      vertex 28 95.4 20
      vertex 24 98.4 20
      vertex 28 88.6 20
    endloop
  endfacet
  facet normal 0 0 1
    outer loop
      vertex 28 88.6 20
      vertex 26.2 81.6 20
      vertex 28 79.6 20
    endloop
  endfacet
  facet normal 0 0 1
    outer loop
      vertex 28 79.6 20
      vertex 26.2 81.6 20
      vertex 26.2 79.6 20
    endloop
  endfacet
  facet normal -0 0 1
    outer loop
      vertex 28 95.4 20
      vertex 30.2 88.6 20
      vertex 30.2 95.4 20
    endloop
  endfacet
  facet normal 0 0 1
    outer loop
      vertex 30.2 88.6 20
      vertex 28 95.4 20
      vertex 28 88.6 20
    endloop
  endfacet
  facet normal 0 0 1
    outer loop
      vertex 30.2 95.4 20
      vertex 32 97.4 20
      vertex 30.2 97.4 20
    endloop
  endfacet
  facet normal 0 0 1
    outer loop
      vertex 32 97.4 20
      vertex 30.2 95.4 20
      vertex 32 86.6 20
    endloop
  endfacet
  facet normal -0 0 1
    outer loop
      vertex 30.2 88.6 20
      vertex 32 86.6 20
      vertex 30.2 95.4 20
    endloop
  endfacet
  facet normal 0 0 1
    outer loop
      vertex 32 86.6 20
      vertex 30.2 88.6 20
      vertex 30.2 86.6 20
    endloop
  endfacet
  facet normal 0 0 1
    outer loop
      vertex 24 53.6 20
      vertex 28 60.6 20
      vertex 24 70.4 20
    endloop
  endfacet
  facet normal 0 0 1
    outer loop
      vertex 28 60.6 20
      vertex 24 53.6 20
      vertex 26.2 53.6 20
    endloop
  endfacet
  facet normal -0 0 1
    outer loop
      vertex 26.2 70.4 20
      vertex 28 67.4 20
      vertex 28 72.4 20
    endloop
  endfacet
  facet normal -0 0 1
    outer loop
      vertex 24 70.4 20
      vertex 28 67.4 20
      vertex 26.2 70.4 20
    endloop
  endfacet
  facet normal 0 0 1
    outer loop
      vertex 26.2 70.4 20
      vertex 28 72.4 20
      vertex 26.2 72.4 20
    endloop
  endfacet
  facet normal 0 0 1
    outer loop
      vertex 28 67.4 20
      vertex 24 70.4 20
      vertex 28 60.6 20
    endloop
  endfacet
  facet normal 0 0 1
    outer loop
      vertex 28 60.6 20
      vertex 26.2 53.6 20
      vertex 28 51.6 20
    endloop
  endfacet
  facet normal 0 0 1
    outer loop
      vertex 28 51.6 20
      vertex 26.2 53.6 20
      vertex 26.2 51.6 20
    endloop
  endfacet
  facet normal -0 0 1
    outer loop
      vertex 28 67.4 20
      vertex 30.2 60.6 20
      vertex 30.2 67.4 20
    endloop
  endfacet
  facet normal 0 0 1
    outer loop
      vertex 30.2 60.6 20
      vertex 28 67.4 20
      vertex 28 60.6 20
    endloop
  endfacet
  facet normal 0 0 1
    outer loop
      vertex 30.2 67.4 20
      vertex 32 69.4 20
      vertex 30.2 69.4 20
    endloop
  endfacet
  facet normal 0 0 1
    outer loop
      vertex 32 69.4 20
      vertex 30.2 67.4 20
      vertex 32 58.6 20
    endloop
  endfacet
  facet normal -0 0 1
    outer loop
      vertex 30.2 60.6 20
      vertex 32 58.6 20
      vertex 30.2 67.4 20
    endloop
  endfacet
  facet normal 0 0 1
    outer loop
      vertex 32 58.6 20
      vertex 30.2 60.6 20
      vertex 30.2 58.6 20
    endloop
  endfacet
  facet normal 0 0 1
    outer loop
      vertex 24 25.6 20
      vertex 28 32.6 20
      vertex 24 42.4 20
    endloop
  endfacet
  facet normal 0 0 1
    outer loop
      vertex 28 32.6 20
      vertex 24 25.6 20
      vertex 26.2 25.6 20
    endloop
  endfacet
  facet normal -0 0 1
    outer loop
      vertex 26.2 42.4 20
      vertex 28 39.4 20
      vertex 28 44.4 20
    endloop
  endfacet
  facet normal -0 0 1
    outer loop
      vertex 24 42.4 20
      vertex 28 39.4 20
      vertex 26.2 42.4 20
    endloop
  endfacet
  facet normal 0 0 1
    outer loop
      vertex 26.2 42.4 20
      vertex 28 44.4 20
      vertex 26.2 44.4 20
    endloop
  endfacet
  facet normal 0 0 1
    outer loop
      vertex 28 39.4 20
      vertex 24 42.4 20
      vertex 28 32.6 20
    endloop
  endfacet
  facet normal 0 0 1
    outer loop
      vertex 28 32.6 20
      vertex 26.2 25.6 20
      vertex 28 23.6 20
    endloop
  endfacet
  facet normal 0 0 1
    outer loop
      vertex 28 23.6 20
      vertex 26.2 25.6 20
      vertex 26.2 23.6 20
    endloop
  endfacet
  facet normal -0 0 1
    outer loop
      vertex 28 39.4 20
      vertex 30.2 32.6 20
      vertex 30.2 39.4 20
    endloop
  endfacet
  facet normal 0 0 1
    outer loop
      vertex 30.2 32.6 20
      vertex 28 39.4 20
      vertex 28 32.6 20
    endloop
  endfacet
  facet normal 0 0 1
    outer loop
      vertex 30.2 39.4 20
      vertex 32 41.4 20
      vertex 30.2 41.4 20
    endloop
  endfacet
  facet normal 0 0 1
    outer loop
      vertex 32 41.4 20
      vertex 30.2 39.4 20
      vertex 32 30.6 20
    endloop
  endfacet
  facet normal -0 0 1
    outer loop
      vertex 30.2 32.6 20
      vertex 32 30.6 20
      vertex 30.2 39.4 20
    endloop
  endfacet
  facet normal 0 0 1
    outer loop
      vertex 32 30.6 20
      vertex 30.2 32.6 20
      vertex 30.2 30.6 20
    endloop
  endfacet
  facet normal -0 0 1
    outer loop
      vertex 26.2 14.4 20
      vertex 28 11.4 20
      vertex 28 16.4 20
    endloop
  endfacet
  facet normal -0 0 1
    outer loop
      vertex 24 14.4 20
      vertex 28 11.4 20
      vertex 26.2 14.4 20
    endloop
  endfacet
  facet normal 0 0 1
    outer loop
      vertex 26.2 14.4 20
      vertex 28 16.4 20
      vertex 26.2 16.4 20
    endloop
  endfacet
  facet normal 0 0 1
    outer loop
      vertex 28 11.4 20
      vertex 24 14.4 20
      vertex 28 4.6 20
    endloop
  endfacet
  facet normal 0 0 1
    outer loop
      vertex 0 0 20
      vertex 28 4.6 20
      vertex 24 14.4 20
    endloop
  endfacet
  facet normal 0 0 1
    outer loop
      vertex 16.6 140 20
      vertex 23.4 140 20
      vertex 16.6 142.2 20
    endloop
  endfacet
  facet normal 0 0 1
    outer loop
      vertex 24 137.6 20
      vertex 16.6 140 20
      vertex 13.6 136 20
    endloop
  endfacet
  facet normal 0 0 1
    outer loop
      vertex 13.6 136 20
      vertex 16.6 140 20
      vertex 13.6 138.2 20
    endloop
  endfacet
  facet normal 0 0 1
    outer loop
      vertex 24 53.6 20
      vertex 0 0 20
      vertex 24 42.4 20
    endloop
  endfacet
  facet normal 0 0 1
    outer loop
      vertex 24 42.4 20
      vertex 0 0 20
      vertex 24 25.6 20
    endloop
  endfacet
  facet normal 0 0 1
    outer loop
      vertex 0 0 20
      vertex 2.4 136 20
      vertex 0 140 20
    endloop
  endfacet
  facet normal 0 0 1
    outer loop
      vertex 28 4.6 20
      vertex 0 0 20
      vertex 28 0 20
    endloop
  endfacet
  facet normal 0 0 1
    outer loop
      vertex 24 25.6 20
      vertex 0 0 20
      vertex 24 14.4 20
    endloop
  endfacet
  facet normal -0 0 1
    outer loop
      vertex 28 11.4 20
      vertex 30.2 4.6 20
      vertex 30.2 11.4 20
    endloop
  endfacet
  facet normal 0 0 1
    outer loop
      vertex 30.2 4.6 20
      vertex 28 11.4 20
      vertex 28 4.6 20
    endloop
  endfacet
  facet normal 0 0 1
    outer loop
      vertex 30.2 11.4 20
      vertex 32 13.4 20
      vertex 30.2 13.4 20
    endloop
  endfacet
  facet normal 0 0 1
    outer loop
      vertex 32 13.4 20
      vertex 30.2 11.4 20
      vertex 32 2.6 20
    endloop
  endfacet
  facet normal -0 0 1
    outer loop
      vertex 30.2 4.6 20
      vertex 32 2.6 20
      vertex 30.2 11.4 20
    endloop
  endfacet
  facet normal 0 0 1
    outer loop
      vertex 32 2.6 20
      vertex 30.2 4.6 20
      vertex 30.2 2.6 20
    endloop
  endfacet
  facet normal 0 -1 0
    outer loop
      vertex 26.2 23.6 0
      vertex 28 23.6 20
      vertex 26.2 23.6 20
    endloop
  endfacet
  facet normal 0 -1 -0
    outer loop
      vertex 28 23.6 20
      vertex 26.2 23.6 0
      vertex 28 23.6 0
    endloop
  endfacet
  facet normal 0 0 -1
    outer loop
      vertex 0 0 0
      vertex 28 4.6 0
      vertex 28 0 0
    endloop
  endfacet
  facet normal 0 0 -1
    outer loop
      vertex 28 4.6 0
      vertex 24 14.4 0
      vertex 28 11.4 0
    endloop
  endfacet
  facet normal 0 0 -1
    outer loop
      vertex 28 11.4 0
      vertex 26.2 14.4 0
      vertex 28 16.4 0
    endloop
  endfacet
  facet normal 0 0 -1
    outer loop
      vertex 28 11.4 0
      vertex 24 14.4 0
      vertex 26.2 14.4 0
    endloop
  endfacet
  facet normal 0 0 -1
    outer loop
      vertex 0 0 0
      vertex 24 25.6 0
      vertex 24 14.4 0
    endloop
  endfacet
  facet normal -0 0 -1
    outer loop
      vertex 24 25.6 0
      vertex 0 0 0
      vertex 24 42.4 0
    endloop
  endfacet
  facet normal -0 0 -1
    outer loop
      vertex 24 42.4 0
      vertex 0 0 0
      vertex 24 53.6 0
    endloop
  endfacet
  facet normal -0 0 -1
    outer loop
      vertex 24 53.6 0
      vertex 0 0 0
      vertex 24 70.4 0
    endloop
  endfacet
  facet normal 0 -0 -1
    outer loop
      vertex 2.4 136 0
      vertex 24 70.4 0
      vertex 0 0 0
    endloop
  endfacet
  facet normal 0 0 -1
    outer loop
      vertex 24 70.4 0
      vertex 2.4 136 0
      vertex 24 81.6 0
    endloop
  endfacet
  facet normal 0 0 -1
    outer loop
      vertex 24 81.6 0
      vertex 2.4 136 0
      vertex 24 98.4 0
    endloop
  endfacet
  facet normal 0 0 -1
    outer loop
      vertex 24 109.6 0
      vertex 2.4 136 0
      vertex 24 126.4 0
    endloop
  endfacet
  facet normal 0 0 -1
    outer loop
      vertex 24 126.4 0
      vertex 13.6 136 0
      vertex 24 137.6 0
    endloop
  endfacet
  facet normal 0 0 -1
    outer loop
      vertex 23.4 140 0
      vertex 16.6 140 0
      vertex 23.4 142.2 0
    endloop
  endfacet
  facet normal 0 -0 -1
    outer loop
      vertex 16.6 140 0
      vertex 24 137.6 0
      vertex 13.6 136 0
    endloop
  endfacet
  facet normal 0 0 -1
    outer loop
      vertex 24 137.6 0
      vertex 16.6 140 0
      vertex 23.4 140 0
    endloop
  endfacet
  facet normal 0 0 -1
    outer loop
      vertex 24 126.4 0
      vertex 2.4 136 0
      vertex 13.6 136 0
    endloop
  endfacet
  facet normal 0 0 -1
    outer loop
      vertex 0 140 0
      vertex 2.4 136 0
      vertex 0 0 0
    endloop
  endfacet
  facet normal 0 0 -1
    outer loop
      vertex 24 98.4 0
      vertex 2.4 136 0
      vertex 24 109.6 0
    endloop
  endfacet
  facet normal -0 0 -1
    outer loop
      vertex 28 4.6 0
      vertex 0 0 0
      vertex 24 14.4 0
    endloop
  endfacet
  facet normal 0 0 -1
    outer loop
      vertex 28 4.6 0
      vertex 30.2 11.4 0
      vertex 30.2 4.6 0
    endloop
  endfacet
  facet normal -0 0 -1
    outer loop
      vertex 30.2 11.4 0
      vertex 28 4.6 0
      vertex 28 11.4 0
    endloop
  endfacet
  facet normal 0 0 -1
    outer loop
      vertex 30.2 4.6 0
      vertex 32 2.6 0
      vertex 30.2 2.6 0
    endloop
  endfacet
  facet normal 0 0 -1
    outer loop
      vertex 32 2.6 0
      vertex 30.2 4.6 0
      vertex 32 13.4 0
    endloop
  endfacet
  facet normal 0 0 -1
    outer loop
      vertex 30.2 11.4 0
      vertex 32 13.4 0
      vertex 30.2 4.6 0
    endloop
  endfacet
  facet normal -0 0 -1
    outer loop
      vertex 32 13.4 0
      vertex 30.2 11.4 0
      vertex 30.2 13.4 0
    endloop
  endfacet
  facet normal -0 0 -1
    outer loop
      vertex 28 16.4 0
      vertex 26.2 14.4 0
      vertex 26.2 16.4 0
    endloop
  endfacet
  facet normal 0 0 -1
    outer loop
      vertex 24 42.4 0
      vertex 28 32.6 0
      vertex 24 25.6 0
    endloop
  endfacet
  facet normal 0 0 -1
    outer loop
      vertex 28 32.6 0
      vertex 24 42.4 0
      vertex 26.2 42.4 0
    endloop
  endfacet
  facet normal 0 0 -1
    outer loop
      vertex 26.2 25.6 0
      vertex 28 32.6 0
      vertex 28 23.6 0
    endloop
  endfacet
  facet normal 0 0 -1
    outer loop
      vertex 24 25.6 0
      vertex 28 32.6 0
      vertex 26.2 25.6 0
    endloop
  endfacet
  facet normal 0 0 -1
    outer loop
      vertex 26.2 25.6 0
      vertex 28 23.6 0
      vertex 26.2 23.6 0
    endloop
  endfacet
  facet normal 0 0 -1
    outer loop
      vertex 28 32.6 0
      vertex 26.2 42.4 0
      vertex 28 39.4 0
    endloop
  endfacet
  facet normal 0 0 -1
    outer loop
      vertex 28 39.4 0
      vertex 26.2 42.4 0
      vertex 28 44.4 0
    endloop
  endfacet
  facet normal -0 0 -1
    outer loop
      vertex 28 44.4 0
      vertex 26.2 42.4 0
      vertex 26.2 44.4 0
    endloop
  endfacet
  facet normal 0 0 -1
    outer loop
      vertex 28 32.6 0
      vertex 30.2 39.4 0
      vertex 30.2 32.6 0
    endloop
  endfacet
  facet normal -0 0 -1
    outer loop
      vertex 30.2 39.4 0
      vertex 28 32.6 0
      vertex 28 39.4 0
    endloop
  endfacet
  facet normal 0 0 -1
    outer loop
      vertex 30.2 32.6 0
      vertex 32 30.6 0
      vertex 30.2 30.6 0
    endloop
  endfacet
  facet normal 0 0 -1
    outer loop
      vertex 32 30.6 0
      vertex 30.2 32.6 0
      vertex 32 41.4 0
    endloop
  endfacet
  facet normal 0 0 -1
    outer loop
      vertex 30.2 39.4 0
      vertex 32 41.4 0
      vertex 30.2 32.6 0
    endloop
  endfacet
  facet normal -0 0 -1
    outer loop
      vertex 32 41.4 0
      vertex 30.2 39.4 0
      vertex 30.2 41.4 0
    endloop
  endfacet
  facet normal 0 0 -1
    outer loop
      vertex 24 70.4 0
      vertex 28 60.6 0
      vertex 24 53.6 0
    endloop
  endfacet
  facet normal 0 0 -1
    outer loop
      vertex 28 60.6 0
      vertex 24 70.4 0
      vertex 26.2 70.4 0
    endloop
  endfacet
  facet normal 0 0 -1
    outer loop
      vertex 26.2 53.6 0
      vertex 28 60.6 0
      vertex 28 51.6 0
    endloop
  endfacet
  facet normal 0 0 -1
    outer loop
      vertex 24 53.6 0
      vertex 28 60.6 0
      vertex 26.2 53.6 0
    endloop
  endfacet
  facet normal 0 0 -1
    outer loop
      vertex 26.2 53.6 0
      vertex 28 51.6 0
      vertex 26.2 51.6 0
    endloop
  endfacet
  facet normal 0 0 -1
    outer loop
      vertex 28 60.6 0
      vertex 26.2 70.4 0
      vertex 28 67.4 0
    endloop
  endfacet
  facet normal 0 0 -1
    outer loop
      vertex 28 67.4 0
      vertex 26.2 70.4 0
      vertex 28 72.4 0
    endloop
  endfacet
  facet normal -0 0 -1
    outer loop
      vertex 28 72.4 0
      vertex 26.2 70.4 0
      vertex 26.2 72.4 0
    endloop
  endfacet
  facet normal 0 0 -1
    outer loop
      vertex 28 60.6 0
      vertex 30.2 67.4 0
      vertex 30.2 60.6 0
    endloop
  endfacet
  facet normal -0 0 -1
    outer loop
      vertex 30.2 67.4 0
      vertex 28 60.6 0
      vertex 28 67.4 0
    endloop
  endfacet
  facet normal 0 0 -1
    outer loop
      vertex 30.2 60.6 0
      vertex 32 58.6 0
      vertex 30.2 58.6 0
    endloop
  endfacet
  facet normal 0 0 -1
    outer loop
      vertex 32 58.6 0
      vertex 30.2 60.6 0
      vertex 32 69.4 0
    endloop
  endfacet
  facet normal 0 0 -1
    outer loop
      vertex 30.2 67.4 0
      vertex 32 69.4 0
      vertex 30.2 60.6 0
    endloop
  endfacet
  facet normal -0 0 -1
    outer loop
      vertex 32 69.4 0
      vertex 30.2 67.4 0
      vertex 30.2 69.4 0
    endloop
  endfacet
  facet normal 0 0 -1
    outer loop
      vertex 24 98.4 0
      vertex 28 88.6 0
      vertex 24 81.6 0
    endloop
  endfacet
  facet normal 0 0 -1
    outer loop
      vertex 28 88.6 0
      vertex 24 98.4 0
      vertex 26.2 98.4 0
    endloop
  endfacet
  facet normal 0 0 -1
    outer loop
      vertex 26.2 81.6 0
      vertex 28 88.6 0
      vertex 28 79.6 0
    endloop
  endfacet
  facet normal 0 0 -1
    outer loop
      vertex 24 81.6 0
      vertex 28 88.6 0
      vertex 26.2 81.6 0
    endloop
  endfacet
  facet normal 0 0 -1
    outer loop
      vertex 26.2 81.6 0
      vertex 28 79.6 0
      vertex 26.2 79.6 0
    endloop
  endfacet
  facet normal 0 0 -1
    outer loop
      vertex 28 88.6 0
      vertex 26.2 98.4 0
      vertex 28 95.4 0
    endloop
  endfacet
  facet normal 0 0 -1
    outer loop
      vertex 28 95.4 0
      vertex 26.2 98.4 0
      vertex 28 100.4 0
    endloop
  endfacet
  facet normal -0 0 -1
    outer loop
      vertex 28 100.4 0
      vertex 26.2 98.4 0
      vertex 26.2 100.4 0
    endloop
  endfacet
  facet normal 0 0 -1
    outer loop
      vertex 28 88.6 0
      vertex 30.2 95.4 0
      vertex 30.2 88.6 0
    endloop
  endfacet
  facet normal -0 0 -1
    outer loop
      vertex 30.2 95.4 0
      vertex 28 88.6 0
      vertex 28 95.4 0
    endloop
  endfacet
  facet normal 0 0 -1
    outer loop
      vertex 30.2 88.6 0
      vertex 32 86.6 0
      vertex 30.2 86.6 0
    endloop
  endfacet
  facet normal 0 0 -1
    outer loop
      vertex 32 86.6 0
      vertex 30.2 88.6 0
      vertex 32 97.4 0
    endloop
  endfacet
  facet normal 0 0 -1
    outer loop
      vertex 30.2 95.4 0
      vertex 32 97.4 0
      vertex 30.2 88.6 0
    endloop
  endfacet
  facet normal -0 0 -1
    outer loop
      vertex 32 97.4 0
      vertex 30.2 95.4 0
      vertex 30.2 97.4 0
    endloop
  endfacet
  facet normal 0 0 -1
    outer loop
      vertex 24 126.4 0
      vertex 28 116.6 0
      vertex 24 109.6 0
    endloop
  endfacet
  facet normal 0 0 -1
    outer loop
      vertex 28 116.6 0
      vertex 24 126.4 0
      vertex 26.2 126.4 0
    endloop
  endfacet
  facet normal 0 0 -1
    outer loop
      vertex 26.2 109.6 0
      vertex 28 116.6 0
      vertex 28 107.6 0
    endloop
  endfacet
  facet normal 0 0 -1
    outer loop
      vertex 24 109.6 0
      vertex 28 116.6 0
      vertex 26.2 109.6 0
    endloop
  endfacet
  facet normal 0 0 -1
    outer loop
      vertex 26.2 109.6 0
      vertex 28 107.6 0
      vertex 26.2 107.6 0
    endloop
  endfacet
  facet normal 0 0 -1
    outer loop
      vertex 28 116.6 0
      vertex 26.2 126.4 0
      vertex 28 123.4 0
    endloop
  endfacet
  facet normal 0 0 -1
    outer loop
      vertex 28 123.4 0
      vertex 26.2 126.4 0
      vertex 28 128.4 0
    endloop
  endfacet
  facet normal -0 0 -1
    outer loop
      vertex 28 128.4 0
      vertex 26.2 126.4 0
      vertex 26.2 128.4 0
    endloop
  endfacet
  facet normal 0 0 -1
    outer loop
      vertex 28 116.6 0
      vertex 30.2 123.4 0
      vertex 30.2 116.6 0
    endloop
  endfacet
  facet normal -0 0 -1
    outer loop
      vertex 30.2 123.4 0
      vertex 28 116.6 0
      vertex 28 123.4 0
    endloop
  endfacet
  facet normal 0 0 -1
    outer loop
      vertex 30.2 116.6 0
      vertex 32 114.6 0
      vertex 30.2 114.6 0
    endloop
  endfacet
  facet normal 0 0 -1
    outer loop
      vertex 32 114.6 0
      vertex 30.2 116.6 0
      vertex 32 125.4 0
    endloop
  endfacet
  facet normal 0 0 -1
    outer loop
      vertex 30.2 123.4 0
      vertex 32 125.4 0
      vertex 30.2 116.6 0
    endloop
  endfacet
  facet normal -0 0 -1
    outer loop
      vertex 32 125.4 0
      vertex 30.2 123.4 0
      vertex 30.2 125.4 0
    endloop
  endfacet
  facet normal 0 0 -1
    outer loop
      vertex 26.2 137.6 0
      vertex 28 135.6 0
      vertex 26.2 135.6 0
    endloop
  endfacet
  facet normal 0 0 -1
    outer loop
      vertex 28 135.6 0
      vertex 26.2 137.6 0
      vertex 28 140 0
    endloop
  endfacet
  facet normal 0 0 -1
    outer loop
      vertex 23.4 140 0
      vertex 26.2 137.6 0
      vertex 24 137.6 0
    endloop
  endfacet
  facet normal 0 0 -1
    outer loop
      vertex 26.2 137.6 0
      vertex 23.4 140 0
      vertex 28 140 0
    endloop
  endfacet
  facet normal 0 0 -1
    outer loop
      vertex 23.4 142.2 0
      vertex 25.4 144 0
      vertex 25.4 142.2 0
    endloop
  endfacet
  facet normal 0 0 -1
    outer loop
      vertex 16.6 142.2 0
      vertex 23.4 142.2 0
      vertex 16.6 140 0
    endloop
  endfacet
  facet normal 0 0 -1
    outer loop
      vertex 23.4 142.2 0
      vertex 16.6 142.2 0
      vertex 25.4 144 0
    endloop
  endfacet
  facet normal 0 0 -1
    outer loop
      vertex 14.6 144 0
      vertex 16.6 142.2 0
      vertex 14.6 142.2 0
    endloop
  endfacet
  facet normal 0 0 -1
    outer loop
      vertex 16.6 142.2 0
      vertex 14.6 144 0
      vertex 25.4 144 0
    endloop
  endfacet
  facet normal 0 0 -1
    outer loop
      vertex 13.6 138.2 0
      vertex 16.6 140 0
      vertex 13.6 136 0
    endloop
  endfacet
  facet normal 0 0 -1
    outer loop
      vertex 11.6 140 0
      vertex 13.6 138.2 0
      vertex 11.6 138.2 0
    endloop
  endfacet
  facet normal 0 0 -1
    outer loop
      vertex 13.6 138.2 0
      vertex 11.6 140 0
      vertex 16.6 140 0
    endloop
  endfacet
  facet normal 0 0 -1
    outer loop
      vertex 2.4 138.2 0
      vertex 4.4 140 0
      vertex 4.4 138.2 0
    endloop
  endfacet
  facet normal 0 0 -1
    outer loop
      vertex 2.4 138.2 0
      vertex 0 140 0
      vertex 4.4 140 0
    endloop
  endfacet
  facet normal 0 0 -1
    outer loop
      vertex 2.4 136 0
      vertex 0 140 0
      vertex 2.4 138.2 0
    endloop
  endfacet
  facet normal -1 0 0
    outer loop
      vertex 26.2 14.4 0
      vertex 26.2 16.4 20
      vertex 26.2 16.4 0
    endloop
  endfacet
  facet normal -1 -0 0
    outer loop
      vertex 26.2 16.4 20
      vertex 26.2 14.4 0
      vertex 26.2 14.4 20
    endloop
  endfacet
  facet normal -1 0 0
    outer loop
      vertex 26.2 23.6 0
      vertex 26.2 25.6 20
      vertex 26.2 25.6 0
    endloop
  endfacet
  facet normal -1 -0 0
    outer loop
      vertex 26.2 25.6 20
      vertex 26.2 23.6 0
      vertex 26.2 23.6 20
    endloop
  endfacet
  facet normal 0 1 -0
    outer loop
      vertex 26.2 14.4 0
      vertex 24 14.4 20
      vertex 26.2 14.4 20
    endloop
  endfacet
  facet normal 0 1 0
    outer loop
      vertex 24 14.4 20
      vertex 26.2 14.4 0
      vertex 24 14.4 0
    endloop
  endfacet
  facet normal 0 -1 0
    outer loop
      vertex 24 25.6 0
      vertex 26.2 25.6 20
      vertex 24 25.6 20
    endloop
  endfacet
  facet normal 0 -1 -0
    outer loop
      vertex 26.2 25.6 20
      vertex 24 25.6 0
      vertex 26.2 25.6 0
    endloop
  endfacet
  facet normal 1 -0 0
    outer loop
      vertex 24 14.4 20
      vertex 24 25.6 0
      vertex 24 25.6 20
    endloop
  endfacet
  facet normal 1 0 0
    outer loop
      vertex 24 25.6 0
      vertex 24 14.4 20
      vertex 24 14.4 0
    endloop
  endfacet
  facet normal 0 1 -0
    outer loop
      vertex 28 44.4 0
      vertex 26.2 44.4 20
      vertex 28 44.4 20
    endloop
  endfacet
  facet normal 0 1 0
    outer loop
      vertex 26.2 44.4 20
      vertex 28 44.4 0
      vertex 26.2 44.4 0
    endloop
  endfacet
  facet normal 0 -1 0
    outer loop
      vertex 26.2 51.6 0
      vertex 28 51.6 20
      vertex 26.2 51.6 20
    endloop
  endfacet
  facet normal 0 -1 -0
    outer loop
      vertex 28 51.6 20
      vertex 26.2 51.6 0
      vertex 28 51.6 0
    endloop
  endfacet
  facet normal -1 0 0
    outer loop
      vertex 26.2 42.4 0
      vertex 26.2 44.4 20
      vertex 26.2 44.4 0
    endloop
  endfacet
  facet normal -1 -0 0
    outer loop
      vertex 26.2 44.4 20
      vertex 26.2 42.4 0
      vertex 26.2 42.4 20
    endloop
  endfacet
  facet normal -1 0 0
    outer loop
      vertex 26.2 51.6 0
      vertex 26.2 53.6 20
      vertex 26.2 53.6 0
    endloop
  endfacet
  facet normal -1 -0 0
    outer loop
      vertex 26.2 53.6 20
      vertex 26.2 51.6 0
      vertex 26.2 51.6 20
    endloop
  endfacet
  facet normal 0 1 -0
    outer loop
      vertex 26.2 42.4 0
      vertex 24 42.4 20
      vertex 26.2 42.4 20
    endloop
  endfacet
  facet normal 0 1 0
    outer loop
      vertex 24 42.4 20
      vertex 26.2 42.4 0
      vertex 24 42.4 0
    endloop
  endfacet
  facet normal 0 -1 0
    outer loop
      vertex 24 53.6 0
      vertex 26.2 53.6 20
      vertex 24 53.6 20
    endloop
  endfacet
  facet normal 0 -1 -0
    outer loop
      vertex 26.2 53.6 20
      vertex 24 53.6 0
      vertex 26.2 53.6 0
    endloop
  endfacet
  facet normal 1 -0 0
    outer loop
      vertex 24 42.4 20
      vertex 24 53.6 0
      vertex 24 53.6 20
    endloop
  endfacet
  facet normal 1 0 0
    outer loop
      vertex 24 53.6 0
      vertex 24 42.4 20
      vertex 24 42.4 0
    endloop
  endfacet
  facet normal 0 1 -0
    outer loop
      vertex 28 72.4 0
      vertex 26.2 72.4 20
      vertex 28 72.4 20
    endloop
  endfacet
  facet normal 0 1 0
    outer loop
      vertex 26.2 72.4 20
      vertex 28 72.4 0
      vertex 26.2 72.4 0
    endloop
  endfacet
  facet normal 0 -1 0
    outer loop
      vertex 26.2 79.6 0
      vertex 28 79.6 20
      vertex 26.2 79.6 20
    endloop
  endfacet
  facet normal 0 -1 -0
    outer loop
      vertex 28 79.6 20
      vertex 26.2 79.6 0
      vertex 28 79.6 0
    endloop
  endfacet
  facet normal -1 0 0
    outer loop
      vertex 26.2 70.4 0
      vertex 26.2 72.4 20
      vertex 26.2 72.4 0
    endloop
  endfacet
  facet normal -1 -0 0
    outer loop
      vertex 26.2 72.4 20
      vertex 26.2 70.4 0
      vertex 26.2 70.4 20
    endloop
  endfacet
  facet normal -1 0 0
    outer loop
      vertex 26.2 79.6 0
      vertex 26.2 81.6 20
      vertex 26.2 81.6 0
    endloop
  endfacet
  facet normal -1 -0 0
    outer loop
      vertex 26.2 81.6 20
      vertex 26.2 79.6 0
      vertex 26.2 79.6 20
    endloop
  endfacet
  facet normal 0 1 -0
    outer loop
      vertex 26.2 70.4 0
      vertex 24 70.4 20
      vertex 26.2 70.4 20
    endloop
  endfacet
  facet normal 0 1 0
    outer loop
      vertex 24 70.4 20
      vertex 26.2 70.4 0
      vertex 24 70.4 0
    endloop
  endfacet
  facet normal 0 -1 0
    outer loop
      vertex 24 81.6 0
      vertex 26.2 81.6 20
      vertex 24 81.6 20
    endloop
  endfacet
  facet normal 0 -1 -0
    outer loop
      vertex 26.2 81.6 20
      vertex 24 81.6 0
      vertex 26.2 81.6 0
    endloop
  endfacet
  facet normal 1 -0 0
    outer loop
      vertex 24 70.4 20
      vertex 24 81.6 0
      vertex 24 81.6 20
    endloop
  endfacet
  facet normal 1 0 0
    outer loop
      vertex 24 81.6 0
      vertex 24 70.4 20
      vertex 24 70.4 0
    endloop
  endfacet
  facet normal 0 1 -0
    outer loop
      vertex 28 100.4 0
      vertex 26.2 100.4 20
      vertex 28 100.4 20
    endloop
  endfacet
  facet normal 0 1 0
    outer loop
      vertex 26.2 100.4 20
      vertex 28 100.4 0
      vertex 26.2 100.4 0
    endloop
  endfacet
  facet normal 0 -1 0
    outer loop
      vertex 26.2 107.6 0
      vertex 28 107.6 20
      vertex 26.2 107.6 20
    endloop
  endfacet
  facet normal 0 -1 -0
    outer loop
      vertex 28 107.6 20
      vertex 26.2 107.6 0
      vertex 28 107.6 0
    endloop
  endfacet
  facet normal -1 0 0
    outer loop
      vertex 26.2 98.4 0
      vertex 26.2 100.4 20
      vertex 26.2 100.4 0
    endloop
  endfacet
  facet normal -1 -0 0
    outer loop
      vertex 26.2 100.4 20
      vertex 26.2 98.4 0
      vertex 26.2 98.4 20
    endloop
  endfacet
  facet normal -1 0 0
    outer loop
      vertex 26.2 107.6 0
      vertex 26.2 109.6 20
      vertex 26.2 109.6 0
    endloop
  endfacet
  facet normal -1 -0 0
    outer loop
      vertex 26.2 109.6 20
      vertex 26.2 107.6 0
      vertex 26.2 107.6 20
    endloop
  endfacet
  facet normal 0 1 -0
    outer loop
      vertex 26.2 98.4 0
      vertex 24 98.4 20
      vertex 26.2 98.4 20
    endloop
  endfacet
  facet normal 0 1 0
    outer loop
      vertex 24 98.4 20
      vertex 26.2 98.4 0
      vertex 24 98.4 0
    endloop
  endfacet
  facet normal 0 -1 0
    outer loop
      vertex 24 109.6 0
      vertex 26.2 109.6 20
      vertex 24 109.6 20
    endloop
  endfacet
  facet normal 0 -1 -0
    outer loop
      vertex 26.2 109.6 20
      vertex 24 109.6 0
      vertex 26.2 109.6 0
    endloop
  endfacet
  facet normal 1 -0 0
    outer loop
      vertex 24 98.4 20
      vertex 24 109.6 0
      vertex 24 109.6 20
    endloop
  endfacet
  facet normal 1 0 0
    outer loop
      vertex 24 109.6 0
      vertex 24 98.4 20
      vertex 24 98.4 0
    endloop
  endfacet
  facet normal 0 1 -0
    outer loop
      vertex 28 128.4 0
      vertex 26.2 128.4 20
      vertex 28 128.4 20
    endloop
  endfacet
  facet normal 0 1 0
    outer loop
      vertex 26.2 128.4 20
      vertex 28 128.4 0
      vertex 26.2 128.4 0
    endloop
  endfacet
  facet normal 0 -1 0
    outer loop
      vertex 26.2 135.6 0
      vertex 28 135.6 20
      vertex 26.2 135.6 20
    endloop
  endfacet
  facet normal 0 -1 -0
    outer loop
      vertex 28 135.6 20
      vertex 26.2 135.6 0
      vertex 28 135.6 0
    endloop
  endfacet
  facet normal -1 0 0
    outer loop
      vertex 26.2 126.4 0
      vertex 26.2 128.4 20
      vertex 26.2 128.4 0
    endloop
  endfacet
  facet normal -1 -0 0
    outer loop
      vertex 26.2 128.4 20
      vertex 26.2 126.4 0
      vertex 26.2 126.4 20
    endloop
  endfacet
  facet normal -1 0 0
    outer loop
      vertex 26.2 135.6 0
      vertex 26.2 137.6 20
      vertex 26.2 137.6 0
    endloop
  endfacet
  facet normal -1 -0 0
    outer loop
      vertex 26.2 137.6 20
      vertex 26.2 135.6 0
      vertex 26.2 135.6 20
    endloop
  endfacet
  facet normal 0 1 -0
    outer loop
      vertex 26.2 126.4 0
      vertex 24 126.4 20
      vertex 26.2 126.4 20
    endloop
  endfacet
  facet normal 0 1 0
    outer loop
      vertex 24 126.4 20
      vertex 26.2 126.4 0
      vertex 24 126.4 0
    endloop
  endfacet
  facet normal 0 -1 0
    outer loop
      vertex 24 137.6 0
      vertex 26.2 137.6 20
      vertex 24 137.6 20
    endloop
  endfacet
  facet normal 0 -1 -0
    outer loop
      vertex 26.2 137.6 20
      vertex 24 137.6 0
      vertex 26.2 137.6 0
    endloop
  endfacet
  facet normal 1 -0 0
    outer loop
      vertex 24 126.4 20
      vertex 24 137.6 0
      vertex 24 137.6 20
    endloop
  endfacet
  facet normal 1 0 0
    outer loop
      vertex 24 137.6 0
      vertex 24 126.4 20
      vertex 24 126.4 0
    endloop
  endfacet
  facet normal -1 0 0
    outer loop
      vertex 11.6 138.2 0
      vertex 11.6 140 20
      vertex 11.6 140 0
    endloop
  endfacet
  facet normal -1 -0 0
    outer loop
      vertex 11.6 140 20
      vertex 11.6 138.2 0
      vertex 11.6 138.2 20
    endloop
  endfacet
  facet normal 1 -0 0
    outer loop
      vertex 4.4 138.2 20
      vertex 4.4 140 0
      vertex 4.4 140 20
    endloop
  endfacet
  facet normal 1 0 0
    outer loop
      vertex 4.4 140 0
      vertex 4.4 138.2 20
      vertex 4.4 138.2 0
    endloop
  endfacet
  facet normal 0 -1 0
    outer loop
      vertex 11.6 138.2 0
      vertex 13.6 138.2 20
      vertex 11.6 138.2 20
    endloop
  endfacet
  facet normal 0 -1 -0
    outer loop
      vertex 13.6 138.2 20
      vertex 11.6 138.2 0
      vertex 13.6 138.2 0
    endloop
  endfacet
  facet normal 0 -1 0
    outer loop
      vertex 2.4 138.2 0
      vertex 4.4 138.2 20
      vertex 2.4 138.2 20
    endloop
  endfacet
  facet normal 0 -1 -0
    outer loop
      vertex 4.4 138.2 20
      vertex 2.4 138.2 0
      vertex 4.4 138.2 0
    endloop
  endfacet
  facet normal -1 0 0
    outer loop
      vertex 13.6 136 0
      vertex 13.6 138.2 20
      vertex 13.6 138.2 0
    endloop
  endfacet
  facet normal -1 -0 0
    outer loop
      vertex 13.6 138.2 20
      vertex 13.6 136 0
      vertex 13.6 136 20
    endloop
  endfacet
  facet normal 1 -0 0
    outer loop
      vertex 2.4 136 20
      vertex 2.4 138.2 0
      vertex 2.4 138.2 20
    endloop
  endfacet
  facet normal 1 0 0
    outer loop
      vertex 2.4 138.2 0
      vertex 2.4 136 20
      vertex 2.4 136 0
    endloop
  endfacet
  facet normal 0 1 -0
    outer loop
      vertex 13.6 136 0
      vertex 2.4 136 20
      vertex 13.6 136 20
    endloop
  endfacet
  facet normal 0 1 0
    outer loop
      vertex 2.4 136 20
      vertex 13.6 136 0
      vertex 2.4 136 0
    endloop
  endfacet
  facet normal -1 0 0
    outer loop
      vertex 0 0 0
      vertex 0 140 20
      vertex 0 140 0
    endloop
  endfacet
  facet normal -1 -0 0
    outer loop
      vertex 0 140 20
      vertex 0 0 0
      vertex 0 0 20
    endloop
  endfacet
  facet normal 1 -0 0
    outer loop
      vertex 28 0 20
      vertex 28 4.6 0
      vertex 28 4.6 20
    endloop
  endfacet
  facet normal 1 0 0
    outer loop
      vertex 28 4.6 0
      vertex 28 0 20
      vertex 28 0 0
    endloop
  endfacet
  facet normal 1 -0 0
    outer loop
      vertex 28 135.6 20
      vertex 28 140 0
      vertex 28 140 20
    endloop
  endfacet
  facet normal 1 0 0
    outer loop
      vertex 28 140 0
      vertex 28 135.6 20
      vertex 28 135.6 0
    endloop
  endfacet
  facet normal 1 -0 0
    outer loop
      vertex 28 11.4 20
      vertex 28 16.4 0
      vertex 28 16.4 20
    endloop
  endfacet
  facet normal 1 0 0
    outer loop
      vertex 28 16.4 0
      vertex 28 11.4 20
      vertex 28 11.4 0
    endloop
  endfacet
  facet normal 1 -0 0
    outer loop
      vertex 28 23.6 20
      vertex 28 32.6 0
      vertex 28 32.6 20
    endloop
  endfacet
  facet normal 1 0 0
    outer loop
      vertex 28 32.6 0
      vertex 28 23.6 20
      vertex 28 23.6 0
    endloop
  endfacet
  facet normal 1 -0 0
    outer loop
      vertex 28 39.4 20
      vertex 28 44.4 0
      vertex 28 44.4 20
    endloop
  endfacet
  facet normal 1 0 0
    outer loop
      vertex 28 44.4 0
      vertex 28 39.4 20
      vertex 28 39.4 0
    endloop
  endfacet
  facet normal 1 -0 0
    outer loop
      vertex 28 51.6 20
      vertex 28 60.6 0
      vertex 28 60.6 20
    endloop
  endfacet
  facet normal 1 0 0
    outer loop
      vertex 28 60.6 0
      vertex 28 51.6 20
      vertex 28 51.6 0
    endloop
  endfacet
  facet normal 1 -0 0
    outer loop
      vertex 28 67.4 20
      vertex 28 72.4 0
      vertex 28 72.4 20
    endloop
  endfacet
  facet normal 1 0 0
    outer loop
      vertex 28 72.4 0
      vertex 28 67.4 20
      vertex 28 67.4 0
    endloop
  endfacet
  facet normal 1 -0 0
    outer loop
      vertex 28 79.6 20
      vertex 28 88.6 0
      vertex 28 88.6 20
    endloop
  endfacet
  facet normal 1 0 0
    outer loop
      vertex 28 88.6 0
      vertex 28 79.6 20
      vertex 28 79.6 0
    endloop
  endfacet
  facet normal 1 -0 0
    outer loop
      vertex 28 95.4 20
      vertex 28 100.4 0
      vertex 28 100.4 20
    endloop
  endfacet
  facet normal 1 0 0
    outer loop
      vertex 28 100.4 0
      vertex 28 95.4 20
      vertex 28 95.4 0
    endloop
  endfacet
  facet normal 1 -0 0
    outer loop
      vertex 28 107.6 20
      vertex 28 116.6 0
      vertex 28 116.6 20
    endloop
  endfacet
  facet normal 1 0 0
    outer loop
      vertex 28 116.6 0
      vertex 28 107.6 20
      vertex 28 107.6 0
    endloop
  endfacet
  facet normal 1 -0 0
    outer loop
      vertex 28 123.4 20
      vertex 28 128.4 0
      vertex 28 128.4 20
    endloop
  endfacet
  facet normal 1 0 0
    outer loop
      vertex 28 128.4 0
      vertex 28 123.4 20
      vertex 28 123.4 0
    endloop
  endfacet
  facet normal 0 1 -0
    outer loop
      vertex 28 140 0
      vertex 23.4 140 20
      vertex 28 140 20
    endloop
  endfacet
  facet normal 0 1 0
    outer loop
      vertex 23.4 140 20
      vertex 28 140 0
      vertex 23.4 140 0
    endloop
  endfacet
  facet normal 0 1 -0
    outer loop
      vertex 4.4 140 0
      vertex 0 140 20
      vertex 4.4 140 20
    endloop
  endfacet
  facet normal 0 1 0
    outer loop
      vertex 0 140 20
      vertex 4.4 140 0
      vertex 0 140 0
    endloop
  endfacet
  facet normal 0 1 -0
    outer loop
      vertex 16.6 140 0
      vertex 11.6 140 20
      vertex 16.6 140 20
    endloop
  endfacet
  facet normal 0 1 0
    outer loop
      vertex 11.6 140 20
      vertex 16.6 140 0
      vertex 11.6 140 0
    endloop
  endfacet
  facet normal 0 -1 0
    outer loop
      vertex 0 0 0
      vertex 28 0 20
      vertex 0 0 20
    endloop
  endfacet
  facet normal 0 -1 -0
    outer loop
      vertex 28 0 20
      vertex 0 0 0
      vertex 28 0 0
    endloop
  endfacet
  facet normal 0 -1 0
    outer loop
      vertex 30.2 2.6 0
      vertex 32 2.6 20
      vertex 30.2 2.6 20
    endloop
  endfacet
  facet normal 0 -1 -0
    outer loop
      vertex 32 2.6 20
      vertex 30.2 2.6 0
      vertex 32 2.6 0
    endloop
  endfacet
  facet normal 0 1 -0
    outer loop
      vertex 32 13.4 0
      vertex 30.2 13.4 20
      vertex 32 13.4 20
    endloop
  endfacet
  facet normal 0 1 0
    outer loop
      vertex 30.2 13.4 20
      vertex 32 13.4 0
      vertex 30.2 13.4 0
    endloop
  endfacet
  facet normal -1 0 0
    outer loop
      vertex 30.2 2.6 0
      vertex 30.2 4.6 20
      vertex 30.2 4.6 0
    endloop
  endfacet
  facet normal -1 -0 0
    outer loop
      vertex 30.2 4.6 20
      vertex 30.2 2.6 0
      vertex 30.2 2.6 20
    endloop
  endfacet
  facet normal -1 0 0
    outer loop
      vertex 30.2 11.4 0
      vertex 30.2 13.4 20
      vertex 30.2 13.4 0
    endloop
  endfacet
  facet normal -1 -0 0
    outer loop
      vertex 30.2 13.4 20
      vertex 30.2 11.4 0
      vertex 30.2 11.4 20
    endloop
  endfacet
  facet normal 1 -0 0
    outer loop
      vertex 32 2.6 20
      vertex 32 13.4 0
      vertex 32 13.4 20
    endloop
  endfacet
  facet normal 1 0 0
    outer loop
      vertex 32 13.4 0
      vertex 32 2.6 20
      vertex 32 2.6 0
    endloop
  endfacet
  facet normal 0 -1 0
    outer loop
      vertex 28 4.6 0
      vertex 30.2 4.6 20
      vertex 28 4.6 20
    endloop
  endfacet
  facet normal 0 -1 -0
    outer loop
      vertex 30.2 4.6 20
      vertex 28 4.6 0
      vertex 30.2 4.6 0
    endloop
  endfacet
  facet normal 0 1 -0
    outer loop
      vertex 30.2 11.4 0
      vertex 28 11.4 20
      vertex 30.2 11.4 20
    endloop
  endfacet
  facet normal 0 1 0
    outer loop
      vertex 28 11.4 20
      vertex 30.2 11.4 0
      vertex 28 11.4 0
    endloop
  endfacet
  facet normal 0 -1 0
    outer loop
      vertex 30.2 30.6 0
      vertex 32 30.6 20
      vertex 30.2 30.6 20
    endloop
  endfacet
  facet normal 0 -1 -0
    outer loop
      vertex 32 30.6 20
      vertex 30.2 30.6 0
      vertex 32 30.6 0
    endloop
  endfacet
  facet normal 0 1 -0
    outer loop
      vertex 32 41.4 0
      vertex 30.2 41.4 20
      vertex 32 41.4 20
    endloop
  endfacet
  facet normal 0 1 0
    outer loop
      vertex 30.2 41.4 20
      vertex 32 41.4 0
      vertex 30.2 41.4 0
    endloop
  endfacet
  facet normal -1 0 0
    outer loop
      vertex 30.2 30.6 0
      vertex 30.2 32.6 20
      vertex 30.2 32.6 0
    endloop
  endfacet
  facet normal -1 -0 0
    outer loop
      vertex 30.2 32.6 20
      vertex 30.2 30.6 0
      vertex 30.2 30.6 20
    endloop
  endfacet
  facet normal -1 0 0
    outer loop
      vertex 30.2 39.4 0
      vertex 30.2 41.4 20
      vertex 30.2 41.4 0
    endloop
  endfacet
  facet normal -1 -0 0
    outer loop
      vertex 30.2 41.4 20
      vertex 30.2 39.4 0
      vertex 30.2 39.4 20
    endloop
  endfacet
  facet normal 1 -0 0
    outer loop
      vertex 32 30.6 20
      vertex 32 41.4 0
      vertex 32 41.4 20
    endloop
  endfacet
  facet normal 1 0 0
    outer loop
      vertex 32 41.4 0
      vertex 32 30.6 20
      vertex 32 30.6 0
    endloop
  endfacet
  facet normal 0 -1 0
    outer loop
      vertex 28 32.6 0
      vertex 30.2 32.6 20
      vertex 28 32.6 20
    endloop
  endfacet
  facet normal 0 -1 -0
    outer loop
      vertex 30.2 32.6 20
      vertex 28 32.6 0
      vertex 30.2 32.6 0
    endloop
  endfacet
  facet normal 0 1 -0
    outer loop
      vertex 30.2 39.4 0
      vertex 28 39.4 20
      vertex 30.2 39.4 20
    endloop
  endfacet
  facet normal 0 1 0
    outer loop
      vertex 28 39.4 20
      vertex 30.2 39.4 0
      vertex 28 39.4 0
    endloop
  endfacet
  facet normal 0 -1 0
    outer loop
      vertex 30.2 58.6 0
      vertex 32 58.6 20
      vertex 30.2 58.6 20
    endloop
  endfacet
  facet normal 0 -1 -0
    outer loop
      vertex 32 58.6 20
      vertex 30.2 58.6 0
      vertex 32 58.6 0
    endloop
  endfacet
  facet normal 0 1 -0
    outer loop
      vertex 32 69.4 0
      vertex 30.2 69.4 20
      vertex 32 69.4 20
    endloop
  endfacet
  facet normal 0 1 0
    outer loop
      vertex 30.2 69.4 20
      vertex 32 69.4 0
      vertex 30.2 69.4 0
    endloop
  endfacet
  facet normal -1 0 0
    outer loop
      vertex 30.2 58.6 0
      vertex 30.2 60.6 20
      vertex 30.2 60.6 0
    endloop
  endfacet
  facet normal -1 -0 0
    outer loop
      vertex 30.2 60.6 20
      vertex 30.2 58.6 0
      vertex 30.2 58.6 20
    endloop
  endfacet
  facet normal -1 0 0
    outer loop
      vertex 30.2 67.4 0
      vertex 30.2 69.4 20
      vertex 30.2 69.4 0
    endloop
  endfacet
  facet normal -1 -0 0
    outer loop
      vertex 30.2 69.4 20
      vertex 30.2 67.4 0
      vertex 30.2 67.4 20
    endloop
  endfacet
  facet normal 1 -0 0
    outer loop
      vertex 32 58.6 20
      vertex 32 69.4 0
      vertex 32 69.4 20
    endloop
  endfacet
  facet normal 1 0 0
    outer loop
      vertex 32 69.4 0
      vertex 32 58.6 20
      vertex 32 58.6 0
    endloop
  endfacet
  facet normal 0 -1 0
    outer loop
      vertex 28 60.6 0
      vertex 30.2 60.6 20
      vertex 28 60.6 20
    endloop
  endfacet
  facet normal 0 -1 -0
    outer loop
      vertex 30.2 60.6 20
      vertex 28 60.6 0
      vertex 30.2 60.6 0
    endloop
  endfacet
  facet normal 0 1 -0
    outer loop
      vertex 30.2 67.4 0
      vertex 28 67.4 20
      vertex 30.2 67.4 20
    endloop
  endfacet
  facet normal 0 1 0
    outer loop
      vertex 28 67.4 20
      vertex 30.2 67.4 0
      vertex 28 67.4 0
    endloop
  endfacet
  facet normal 0 -1 0
    outer loop
      vertex 30.2 86.6 0
      vertex 32 86.6 20
      vertex 30.2 86.6 20
    endloop
  endfacet
  facet normal 0 -1 -0
    outer loop
      vertex 32 86.6 20
      vertex 30.2 86.6 0
      vertex 32 86.6 0
    endloop
  endfacet
  facet normal 0 1 -0
    outer loop
      vertex 32 97.4 0
      vertex 30.2 97.4 20
      vertex 32 97.4 20
    endloop
  endfacet
  facet normal 0 1 0
    outer loop
      vertex 30.2 97.4 20
      vertex 32 97.4 0
      vertex 30.2 97.4 0
    endloop
  endfacet
  facet normal -1 0 0
    outer loop
      vertex 30.2 86.6 0
      vertex 30.2 88.6 20
      vertex 30.2 88.6 0
    endloop
  endfacet
  facet normal -1 -0 0
    outer loop
      vertex 30.2 88.6 20
      vertex 30.2 86.6 0
      vertex 30.2 86.6 20
    endloop
  endfacet
  facet normal -1 0 0
    outer loop
      vertex 30.2 95.4 0
      vertex 30.2 97.4 20
      vertex 30.2 97.4 0
    endloop
  endfacet
  facet normal -1 -0 0
    outer loop
      vertex 30.2 97.4 20
      vertex 30.2 95.4 0
      vertex 30.2 95.4 20
    endloop
  endfacet
  facet normal 1 -0 0
    outer loop
      vertex 32 86.6 20
      vertex 32 97.4 0
      vertex 32 97.4 20
    endloop
  endfacet
  facet normal 1 0 0
    outer loop
      vertex 32 97.4 0
      vertex 32 86.6 20
      vertex 32 86.6 0
    endloop
  endfacet
  facet normal 0 -1 0
    outer loop
      vertex 28 88.6 0
      vertex 30.2 88.6 20
      vertex 28 88.6 20
    endloop
  endfacet
  facet normal 0 -1 -0
    outer loop
      vertex 30.2 88.6 20
      vertex 28 88.6 0
      vertex 30.2 88.6 0
    endloop
  endfacet
  facet normal 0 1 -0
    outer loop
      vertex 30.2 95.4 0
      vertex 28 95.4 20
      vertex 30.2 95.4 20
    endloop
  endfacet
  facet normal 0 1 0
    outer loop
      vertex 28 95.4 20
      vertex 30.2 95.4 0
      vertex 28 95.4 0
    endloop
  endfacet
  facet normal 0 -1 0
    outer loop
      vertex 30.2 114.6 0
      vertex 32 114.6 20
      vertex 30.2 114.6 20
    endloop
  endfacet
  facet normal 0 -1 -0
    outer loop
      vertex 32 114.6 20
      vertex 30.2 114.6 0
      vertex 32 114.6 0
    endloop
  endfacet
  facet normal 0 1 -0
    outer loop
      vertex 32 125.4 0
      vertex 30.2 125.4 20
      vertex 32 125.4 20
    endloop
  endfacet
  facet normal 0 1 0
    outer loop
      vertex 30.2 125.4 20
      vertex 32 125.4 0
      vertex 30.2 125.4 0
    endloop
  endfacet
  facet normal -1 0 0
    outer loop
      vertex 30.2 114.6 0
      vertex 30.2 116.6 20
      vertex 30.2 116.6 0
    endloop
  endfacet
  facet normal -1 -0 0
    outer loop
      vertex 30.2 116.6 20
      vertex 30.2 114.6 0
      vertex 30.2 114.6 20
    endloop
  endfacet
  facet normal -1 0 0
    outer loop
      vertex 30.2 123.4 0
      vertex 30.2 125.4 20
      vertex 30.2 125.4 0
    endloop
  endfacet
  facet normal -1 -0 0
    outer loop
      vertex 30.2 125.4 20
      vertex 30.2 123.4 0
      vertex 30.2 123.4 20
    endloop
  endfacet
  facet normal 1 -0 0
    outer loop
      vertex 32 114.6 20
      vertex 32 125.4 0
      vertex 32 125.4 20
    endloop
  endfacet
  facet normal 1 0 0
    outer loop
      vertex 32 125.4 0
      vertex 32 114.6 20
      vertex 32 114.6 0
    endloop
  endfacet
  facet normal 0 -1 0
    outer loop
      vertex 28 116.6 0
      vertex 30.2 116.6 20
      vertex 28 116.6 20
    endloop
  endfacet
  facet normal 0 -1 -0
    outer loop
      vertex 30.2 116.6 20
      vertex 28 116.6 0
      vertex 30.2 116.6 0
    endloop
  endfacet
  facet normal 0 1 -0
    outer loop
      vertex 30.2 123.4 0
      vertex 28 123.4 20
      vertex 30.2 123.4 20
    endloop
  endfacet
  facet normal 0 1 0
    outer loop
      vertex 28 123.4 20
      vertex 30.2 123.4 0
      vertex 28 123.4 0
    endloop
  endfacet
  facet normal 1 -0 0
    outer loop
      vertex 25.4 142.2 20
      vertex 25.4 144 0
      vertex 25.4 144 20
    endloop
  endfacet
  facet normal 1 0 0
    outer loop
      vertex 25.4 144 0
      vertex 25.4 142.2 20
      vertex 25.4 142.2 0
    endloop
  endfacet
  facet normal -1 0 0
    outer loop
      vertex 14.6 142.2 0
      vertex 14.6 144 20
      vertex 14.6 144 0
    endloop
  endfacet
  facet normal -1 -0 0
    outer loop
      vertex 14.6 144 20
      vertex 14.6 142.2 0
      vertex 14.6 142.2 20
    endloop
  endfacet
  facet normal 0 -1 0
    outer loop
      vertex 23.4 142.2 0
      vertex 25.4 142.2 20
      vertex 23.4 142.2 20
    endloop
  endfacet
  facet normal 0 -1 -0
    outer loop
      vertex 25.4 142.2 20
      vertex 23.4 142.2 0
      vertex 25.4 142.2 0
    endloop
  endfacet
  facet normal 0 -1 0
    outer loop
      vertex 14.6 142.2 0
      vertex 16.6 142.2 20
      vertex 14.6 142.2 20
    endloop
  endfacet
  facet normal 0 -1 -0
    outer loop
      vertex 16.6 142.2 20
      vertex 14.6 142.2 0
      vertex 16.6 142.2 0
    endloop
  endfacet
  facet normal 0 1 -0
    outer loop
      vertex 25.4 144 0
      vertex 14.6 144 20
      vertex 25.4 144 20
    endloop
  endfacet
  facet normal 0 1 0
    outer loop
      vertex 14.6 144 20
      vertex 25.4 144 0
      vertex 14.6 144 0
    endloop
  endfacet
  facet normal 1 -0 0
    outer loop
      vertex 23.4 140 20
      vertex 23.4 142.2 0
      vertex 23.4 142.2 20
    endloop
  endfacet
  facet normal 1 0 0
    outer loop
      vertex 23.4 142.2 0
      vertex 23.4 140 20
      vertex 23.4 140 0
    endloop
  endfacet
  facet normal -1 0 0
    outer loop
      vertex 16.6 140 0
      vertex 16.6 142.2 20
      vertex 16.6 142.2 0
    endloop
  endfacet
  facet normal -1 -0 0
    outer loop
      vertex 16.6 142.2 20
      vertex 16.6 140 0
      vertex 16.6 140 20
    endloop
  endfacet
endsolid OpenSCAD_Model
