solid OpenSCAD_Model
  facet normal 0 1 -0
    outer loop
      vertex 28 16.4 0
      vertex 26.2 16.4 40
      vertex 28 16.4 40
    endloop
  endfacet
  facet normal 0 1 0
    outer loop
      vertex 26.2 16.4 40
      vertex 28 16.4 0
      vertex 26.2 16.4 0
    endloop
  endfacet
  facet normal 0 0 1
    outer loop
      vertex 1.79999 4.4 40
      vertex 0 4.4 40
      vertex 1.79999 2.4 40
    endloop
  endfacet
  facet normal -0 0 1
    outer loop
      vertex 11.6 112 40
      vertex 13.6 110.2 40
      vertex 16.6 112 40
    endloop
  endfacet
  facet normal 0 0 1
    outer loop
      vertex 13.6 110.2 40
      vertex 11.6 112 40
      vertex 11.6 110.2 40
    endloop
  endfacet
  facet normal 0 0 1
    outer loop
      vertex 25.4 116 40
      vertex 23.4 114.2 40
      vertex 25.4 114.2 40
    endloop
  endfacet
  facet normal 0 0 1
    outer loop
      vertex 23.4 114.2 40
      vertex 16.6 114.2 40
      vertex 23.4 112 40
    endloop
  endfacet
  facet normal 0 0 1
    outer loop
      vertex 25.4 116 40
      vertex 16.6 114.2 40
      vertex 23.4 114.2 40
    endloop
  endfacet
  facet normal -0 0 1
    outer loop
      vertex 14.6 116 40
      vertex 16.6 114.2 40
      vertex 25.4 116 40
    endloop
  endfacet
  facet normal 0 0 1
    outer loop
      vertex 16.6 114.2 40
      vertex 14.6 116 40
      vertex 14.6 114.2 40
    endloop
  endfacet
  facet normal 0 0 1
    outer loop
      vertex 28 112 40
      vertex 26.2 109.6 40
      vertex 28 107.6 40
    endloop
  endfacet
  facet normal -0 0 1
    outer loop
      vertex 23.4 112 40
      vertex 26.2 109.6 40
      vertex 28 112 40
    endloop
  endfacet
  facet normal -0 0 1
    outer loop
      vertex 13.6 108 40
      vertex 24 98.4 40
      vertex 24 109.6 40
    endloop
  endfacet
  facet normal 0 0 1
    outer loop
      vertex 3.99999 97.6 40
      vertex 24 98.4 40
      vertex 13.6 108 40
    endloop
  endfacet
  facet normal 0 0 1
    outer loop
      vertex 3.99999 69.6 40
      vertex 24 81.6 40
      vertex 3.99999 86.4 40
    endloop
  endfacet
  facet normal 0 0 1
    outer loop
      vertex 24 81.6 40
      vertex 3.99999 69.6 40
      vertex 24 70.4 40
    endloop
  endfacet
  facet normal 0 0 1
    outer loop
      vertex 24 70.4 40
      vertex 3.99999 58.4 40
      vertex 24 53.6 40
    endloop
  endfacet
  facet normal 0 0 1
    outer loop
      vertex 3.99999 41.6 40
      vertex 24 53.6 40
      vertex 3.99999 58.4 40
    endloop
  endfacet
  facet normal -0 0 1
    outer loop
      vertex 16.6 112 40
      vertex 24 109.6 40
      vertex 23.4 112 40
    endloop
  endfacet
  facet normal 0 0 1
    outer loop
      vertex 26.2 109.6 40
      vertex 23.4 112 40
      vertex 24 109.6 40
    endloop
  endfacet
  facet normal 0 0 1
    outer loop
      vertex 28 107.6 40
      vertex 26.2 109.6 40
      vertex 26.2 107.6 40
    endloop
  endfacet
  facet normal 0 0 1
    outer loop
      vertex 24 81.6 40
      vertex 28 88.6 40
      vertex 24 98.4 40
    endloop
  endfacet
  facet normal 0 0 1
    outer loop
      vertex 28 88.6 40
      vertex 24 81.6 40
      vertex 26.2 81.6 40
    endloop
  endfacet
  facet normal -0 0 1
    outer loop
      vertex 26.2 98.4 40
      vertex 28 95.4 40
      vertex 28 100.4 40
    endloop
  endfacet
  facet normal -0 0 1
    outer loop
      vertex 24 98.4 40
      vertex 28 95.4 40
      vertex 26.2 98.4 40
    endloop
  endfacet
  facet normal 0 0 1
    outer loop
      vertex 26.2 98.4 40
      vertex 28 100.4 40
      vertex 26.2 100.4 40
    endloop
  endfacet
  facet normal 0 0 1
    outer loop
      vertex 28 95.4 40
      vertex 24 98.4 40
      vertex 28 88.6 40
    endloop
  endfacet
  facet normal 0 0 1
    outer loop
      vertex 28 88.6 40
      vertex 26.2 81.6 40
      vertex 28 79.6 40
    endloop
  endfacet
  facet normal 0 0 1
    outer loop
      vertex 28 79.6 40
      vertex 26.2 81.6 40
      vertex 26.2 79.6 40
    endloop
  endfacet
  facet normal -0 0 1
    outer loop
      vertex 28 95.4 40
      vertex 30.2 88.6 40
      vertex 30.2 95.4 40
    endloop
  endfacet
  facet normal 0 0 1
    outer loop
      vertex 30.2 88.6 40
      vertex 28 95.4 40
      vertex 28 88.6 40
    endloop
  endfacet
  facet normal 0 0 1
    outer loop
      vertex 30.2 95.4 40
      vertex 32 97.4 40
      vertex 30.2 97.4 40
    endloop
  endfacet
  facet normal 0 0 1
    outer loop
      vertex 32 97.4 40
      vertex 30.2 95.4 40
      vertex 32 86.6 40
    endloop
  endfacet
  facet normal -0 0 1
    outer loop
      vertex 30.2 88.6 40
      vertex 32 86.6 40
      vertex 30.2 95.4 40
    endloop
  endfacet
  facet normal 0 0 1
    outer loop
      vertex 32 86.6 40
      vertex 30.2 88.6 40
      vertex 30.2 86.6 40
    endloop
  endfacet
  facet normal 0 0 1
    outer loop
      vertex 24 53.6 40
      vertex 28 60.6 40
      vertex 24 70.4 40
    endloop
  endfacet
  facet normal 0 0 1
    outer loop
      vertex 28 60.6 40
      vertex 24 53.6 40
      vertex 26.2 53.6 40
    endloop
  endfacet
  facet normal -0 0 1
    outer loop
      vertex 26.2 70.4 40
      vertex 28 67.4 40
      vertex 28 72.4 40
    endloop
  endfacet
  facet normal -0 0 1
    outer loop
      vertex 24 70.4 40
      vertex 28 67.4 40
      vertex 26.2 70.4 40
    endloop
  endfacet
  facet normal 0 0 1
    outer loop
      vertex 26.2 70.4 40
      vertex 28 72.4 40
      vertex 26.2 72.4 40
    endloop
  endfacet
  facet normal 0 0 1
    outer loop
      vertex 28 67.4 40
      vertex 24 70.4 40
      vertex 28 60.6 40
    endloop
  endfacet
  facet normal 0 0 1
    outer loop
      vertex 28 60.6 40
      vertex 26.2 53.6 40
      vertex 28 51.6 40
    endloop
  endfacet
  facet normal 0 0 1
    outer loop
      vertex 28 51.6 40
      vertex 26.2 53.6 40
      vertex 26.2 51.6 40
    endloop
  endfacet
  facet normal -0 0 1
    outer loop
      vertex 28 67.4 40
      vertex 30.2 60.6 40
      vertex 30.2 67.4 40
    endloop
  endfacet
  facet normal 0 0 1
    outer loop
      vertex 30.2 60.6 40
      vertex 28 67.4 40
      vertex 28 60.6 40
    endloop
  endfacet
  facet normal 0 0 1
    outer loop
      vertex 30.2 67.4 40
      vertex 32 69.4 40
      vertex 30.2 69.4 40
    endloop
  endfacet
  facet normal 0 0 1
    outer loop
      vertex 32 69.4 40
      vertex 30.2 67.4 40
      vertex 32 58.6 40
    endloop
  endfacet
  facet normal -0 0 1
    outer loop
      vertex 30.2 60.6 40
      vertex 32 58.6 40
      vertex 30.2 67.4 40
    endloop
  endfacet
  facet normal 0 0 1
    outer loop
      vertex 32 58.6 40
      vertex 30.2 60.6 40
      vertex 30.2 58.6 40
    endloop
  endfacet
  facet normal 0 0 1
    outer loop
      vertex 24 25.6 40
      vertex 28 32.6 40
      vertex 24 42.4 40
    endloop
  endfacet
  facet normal 0 0 1
    outer loop
      vertex 28 32.6 40
      vertex 24 25.6 40
      vertex 26.2 25.6 40
    endloop
  endfacet
  facet normal -0 0 1
    outer loop
      vertex 26.2 42.4 40
      vertex 28 39.4 40
      vertex 28 44.4 40
    endloop
  endfacet
  facet normal -0 0 1
    outer loop
      vertex 24 42.4 40
      vertex 28 39.4 40
      vertex 26.2 42.4 40
    endloop
  endfacet
  facet normal 0 0 1
    outer loop
      vertex 26.2 42.4 40
      vertex 28 44.4 40
      vertex 26.2 44.4 40
    endloop
  endfacet
  facet normal 0 0 1
    outer loop
      vertex 28 39.4 40
      vertex 24 42.4 40
      vertex 28 32.6 40
    endloop
  endfacet
  facet normal 0 0 1
    outer loop
      vertex 28 32.6 40
      vertex 26.2 25.6 40
      vertex 28 23.6 40
    endloop
  endfacet
  facet normal 0 0 1
    outer loop
      vertex 28 23.6 40
      vertex 26.2 25.6 40
      vertex 26.2 23.6 40
    endloop
  endfacet
  facet normal -0 0 1
    outer loop
      vertex 28 39.4 40
      vertex 30.2 32.6 40
      vertex 30.2 39.4 40
    endloop
  endfacet
  facet normal 0 0 1
    outer loop
      vertex 30.2 32.6 40
      vertex 28 39.4 40
      vertex 28 32.6 40
    endloop
  endfacet
  facet normal 0 0 1
    outer loop
      vertex 30.2 39.4 40
      vertex 32 41.4 40
      vertex 30.2 41.4 40
    endloop
  endfacet
  facet normal 0 0 1
    outer loop
      vertex 32 41.4 40
      vertex 30.2 39.4 40
      vertex 32 30.6 40
    endloop
  endfacet
  facet normal -0 0 1
    outer loop
      vertex 30.2 32.6 40
      vertex 32 30.6 40
      vertex 30.2 39.4 40
    endloop
  endfacet
  facet normal 0 0 1
    outer loop
      vertex 32 30.6 40
      vertex 30.2 32.6 40
      vertex 30.2 30.6 40
    endloop
  endfacet
  facet normal -0 0 1
    outer loop
      vertex 26.2 14.4 40
      vertex 28 11.4 40
      vertex 28 16.4 40
    endloop
  endfacet
  facet normal -0 0 1
    outer loop
      vertex 24 14.4 40
      vertex 28 11.4 40
      vertex 26.2 14.4 40
    endloop
  endfacet
  facet normal 0 0 1
    outer loop
      vertex 26.2 14.4 40
      vertex 28 16.4 40
      vertex 26.2 16.4 40
    endloop
  endfacet
  facet normal 0 0 1
    outer loop
      vertex 28 11.4 40
      vertex 24 14.4 40
      vertex 28 4.6 40
    endloop
  endfacet
  facet normal 0 0 1
    outer loop
      vertex 3.99999 2.4 40
      vertex 28 4.6 40
      vertex 24 14.4 40
    endloop
  endfacet
  facet normal 0 0 1
    outer loop
      vertex 16.6 112 40
      vertex 23.4 112 40
      vertex 16.6 114.2 40
    endloop
  endfacet
  facet normal 0 0 1
    outer loop
      vertex 24 109.6 40
      vertex 16.6 112 40
      vertex 13.6 108 40
    endloop
  endfacet
  facet normal 0 0 1
    outer loop
      vertex 13.6 108 40
      vertex 16.6 112 40
      vertex 13.6 110.2 40
    endloop
  endfacet
  facet normal 0 0 1
    outer loop
      vertex 3.99999 86.4 40
      vertex 24 98.4 40
      vertex 3.99999 97.6 40
    endloop
  endfacet
  facet normal 0 0 1
    outer loop
      vertex 24 98.4 40
      vertex 3.99999 86.4 40
      vertex 24 81.6 40
    endloop
  endfacet
  facet normal 0 0 1
    outer loop
      vertex 3.99999 58.4 40
      vertex 24 70.4 40
      vertex 3.99999 69.6 40
    endloop
  endfacet
  facet normal 0 0 1
    outer loop
      vertex 24 53.6 40
      vertex 3.99999 41.6 40
      vertex 24 42.4 40
    endloop
  endfacet
  facet normal 0 0 1
    outer loop
      vertex 3.99999 30.4 40
      vertex 24 42.4 40
      vertex 3.99999 41.6 40
    endloop
  endfacet
  facet normal 0 0 1
    outer loop
      vertex 24 42.4 40
      vertex 3.99999 30.4 40
      vertex 24 25.6 40
    endloop
  endfacet
  facet normal 0 0 1
    outer loop
      vertex 3.99999 13.6 40
      vertex 24 25.6 40
      vertex 3.99999 30.4 40
    endloop
  endfacet
  facet normal 0 0 1
    outer loop
      vertex 24 25.6 40
      vertex 3.99999 13.6 40
      vertex 24 14.4 40
    endloop
  endfacet
  facet normal 0 0 1
    outer loop
      vertex 3.99999 2.4 40
      vertex 24 14.4 40
      vertex 3.99999 13.6 40
    endloop
  endfacet
  facet normal 0 0 1
    outer loop
      vertex 28 4.6 40
      vertex 3.99999 2.4 40
      vertex 28 0 40
    endloop
  endfacet
  facet normal 0 0 1
    outer loop
      vertex 0 0 40
      vertex 3.99999 2.4 40
      vertex 1.79999 2.4 40
    endloop
  endfacet
  facet normal 0 0 1
    outer loop
      vertex 3.99999 2.4 40
      vertex 0 0 40
      vertex 28 0 40
    endloop
  endfacet
  facet normal 0 0 1
    outer loop
      vertex 0 0 40
      vertex 1.79999 2.4 40
      vertex 0 4.4 40
    endloop
  endfacet
  facet normal -0 0 1
    outer loop
      vertex 28 11.4 40
      vertex 30.2 4.6 40
      vertex 30.2 11.4 40
    endloop
  endfacet
  facet normal 0 0 1
    outer loop
      vertex 30.2 4.6 40
      vertex 28 11.4 40
      vertex 28 4.6 40
    endloop
  endfacet
  facet normal 0 0 1
    outer loop
      vertex 30.2 11.4 40
      vertex 32 13.4 40
      vertex 30.2 13.4 40
    endloop
  endfacet
  facet normal 0 0 1
    outer loop
      vertex 32 13.4 40
      vertex 30.2 11.4 40
      vertex 32 2.6 40
    endloop
  endfacet
  facet normal -0 0 1
    outer loop
      vertex 30.2 4.6 40
      vertex 32 2.6 40
      vertex 30.2 11.4 40
    endloop
  endfacet
  facet normal 0 0 1
    outer loop
      vertex 32 2.6 40
      vertex 30.2 4.6 40
      vertex 30.2 2.6 40
    endloop
  endfacet
  facet normal -0 0 1
    outer loop
      vertex 0 32.4 40
      vertex 1.79999 30.4 40
      vertex 1.79999 32.4 40
    endloop
  endfacet
  facet normal 0 0 1
    outer loop
      vertex 1.79999 30.4 40
      vertex 0 23.4 40
      vertex 1.79999 13.6 40
    endloop
  endfacet
  facet normal 0 0 1
    outer loop
      vertex 1.79999 30.4 40
      vertex 0 32.4 40
      vertex 0 23.4 40
    endloop
  endfacet
  facet normal -0 0 1
    outer loop
      vertex 0 16.6 40
      vertex 1.79999 13.6 40
      vertex 0 23.4 40
    endloop
  endfacet
  facet normal 0 0 1
    outer loop
      vertex 0 11.6 40
      vertex 1.79999 13.6 40
      vertex 0 16.6 40
    endloop
  endfacet
  facet normal 0 0 1
    outer loop
      vertex 1.79999 13.6 40
      vertex 0 11.6 40
      vertex 1.79999 11.6 40
    endloop
  endfacet
  facet normal -0 0 1
    outer loop
      vertex 0 60.4 40
      vertex 1.79999 58.4 40
      vertex 1.79999 60.4 40
    endloop
  endfacet
  facet normal 0 0 1
    outer loop
      vertex 1.79999 58.4 40
      vertex 0 51.4 40
      vertex 1.79999 41.6 40
    endloop
  endfacet
  facet normal 0 0 1
    outer loop
      vertex 1.79999 58.4 40
      vertex 0 60.4 40
      vertex 0 51.4 40
    endloop
  endfacet
  facet normal -0 0 1
    outer loop
      vertex 0 44.6 40
      vertex 1.79999 41.6 40
      vertex 0 51.4 40
    endloop
  endfacet
  facet normal 0 0 1
    outer loop
      vertex 0 39.6 40
      vertex 1.79999 41.6 40
      vertex 0 44.6 40
    endloop
  endfacet
  facet normal 0 0 1
    outer loop
      vertex 1.79999 41.6 40
      vertex 0 39.6 40
      vertex 1.79999 39.6 40
    endloop
  endfacet
  facet normal -0 0 1
    outer loop
      vertex 0 88.4 40
      vertex 1.79999 86.4 40
      vertex 1.79999 88.4 40
    endloop
  endfacet
  facet normal 0 0 1
    outer loop
      vertex 1.79999 86.4 40
      vertex 0 79.4 40
      vertex 1.79999 69.6 40
    endloop
  endfacet
  facet normal 0 0 1
    outer loop
      vertex 1.79999 86.4 40
      vertex 0 88.4 40
      vertex 0 79.4 40
    endloop
  endfacet
  facet normal -0 0 1
    outer loop
      vertex 0 72.6 40
      vertex 1.79999 69.6 40
      vertex 0 79.4 40
    endloop
  endfacet
  facet normal 0 0 1
    outer loop
      vertex 0 67.6 40
      vertex 1.79999 69.6 40
      vertex 0 72.6 40
    endloop
  endfacet
  facet normal 0 0 1
    outer loop
      vertex 1.79999 69.6 40
      vertex 0 67.6 40
      vertex 1.79999 67.6 40
    endloop
  endfacet
  facet normal 0 0 1
    outer loop
      vertex 4.4 112 40
      vertex 2.4 110.2 40
      vertex 4.4 110.2 40
    endloop
  endfacet
  facet normal 0 0 1
    outer loop
      vertex 0 107.4 40
      vertex 2.4 108 40
      vertex 2.4 110.2 40
    endloop
  endfacet
  facet normal -0 0 1
    outer loop
      vertex 0 112 40
      vertex 2.4 110.2 40
      vertex 4.4 112 40
    endloop
  endfacet
  facet normal 0 0 1
    outer loop
      vertex 0 107.4 40
      vertex 2.4 110.2 40
      vertex 0 112 40
    endloop
  endfacet
  facet normal 0 0 1
    outer loop
      vertex 2.4 108 40
      vertex 0 107.4 40
      vertex 0 100.6 40
    endloop
  endfacet
  facet normal 0 0 1
    outer loop
      vertex 2.4 108 40
      vertex 0 100.6 40
      vertex 1.79999 97.6 40
    endloop
  endfacet
  facet normal 0 0 1
    outer loop
      vertex 0 95.6 40
      vertex 1.79999 97.6 40
      vertex 0 100.6 40
    endloop
  endfacet
  facet normal 0 0 1
    outer loop
      vertex 1.79999 97.6 40
      vertex 0 95.6 40
      vertex 1.79999 95.6 40
    endloop
  endfacet
  facet normal -0 0 1
    outer loop
      vertex 1.79999 30.4 40
      vertex 3.99999 13.6 40
      vertex 3.99999 30.4 40
    endloop
  endfacet
  facet normal 0 0 1
    outer loop
      vertex 3.99999 13.6 40
      vertex 1.79999 30.4 40
      vertex 1.79999 13.6 40
    endloop
  endfacet
  facet normal -0 0 1
    outer loop
      vertex 1.79999 58.4 40
      vertex 3.99999 41.6 40
      vertex 3.99999 58.4 40
    endloop
  endfacet
  facet normal 0 0 1
    outer loop
      vertex 3.99999 41.6 40
      vertex 1.79999 58.4 40
      vertex 1.79999 41.6 40
    endloop
  endfacet
  facet normal -0 0 1
    outer loop
      vertex 1.79999 86.4 40
      vertex 3.99999 69.6 40
      vertex 3.99999 86.4 40
    endloop
  endfacet
  facet normal 0 0 1
    outer loop
      vertex 3.99999 69.6 40
      vertex 1.79999 86.4 40
      vertex 1.79999 69.6 40
    endloop
  endfacet
  facet normal -0 0 1
    outer loop
      vertex 2.4 108 40
      vertex 3.99999 97.6 40
      vertex 13.6 108 40
    endloop
  endfacet
  facet normal 0 0 1
    outer loop
      vertex 3.99999 97.6 40
      vertex 2.4 108 40
      vertex 1.79999 97.6 40
    endloop
  endfacet
  facet normal -0 0 1
    outer loop
      vertex -3.99999 25.4 40
      vertex -2.19999 23.4 40
      vertex -2.19999 25.4 40
    endloop
  endfacet
  facet normal 0 0 1
    outer loop
      vertex -2.19999 23.4 40
      vertex -3.99999 25.4 40
      vertex -2.19999 16.6 40
    endloop
  endfacet
  facet normal 0 0 1
    outer loop
      vertex -3.99999 14.6 40
      vertex -2.19999 16.6 40
      vertex -3.99999 25.4 40
    endloop
  endfacet
  facet normal 0 0 1
    outer loop
      vertex -2.19999 16.6 40
      vertex -3.99999 14.6 40
      vertex -2.19999 14.6 40
    endloop
  endfacet
  facet normal -0 0 1
    outer loop
      vertex -3.99999 53.4 40
      vertex -2.19999 51.4 40
      vertex -2.19999 53.4 40
    endloop
  endfacet
  facet normal 0 0 1
    outer loop
      vertex -2.19999 51.4 40
      vertex -3.99999 53.4 40
      vertex -2.19999 44.6 40
    endloop
  endfacet
  facet normal 0 0 1
    outer loop
      vertex -3.99999 42.6 40
      vertex -2.19999 44.6 40
      vertex -3.99999 53.4 40
    endloop
  endfacet
  facet normal 0 0 1
    outer loop
      vertex -2.19999 44.6 40
      vertex -3.99999 42.6 40
      vertex -2.19999 42.6 40
    endloop
  endfacet
  facet normal -0 0 1
    outer loop
      vertex -3.99999 81.4 40
      vertex -2.19999 79.4 40
      vertex -2.19999 81.4 40
    endloop
  endfacet
  facet normal 0 0 1
    outer loop
      vertex -2.19999 79.4 40
      vertex -3.99999 81.4 40
      vertex -2.19999 72.6 40
    endloop
  endfacet
  facet normal 0 0 1
    outer loop
      vertex -3.99999 70.6 40
      vertex -2.19999 72.6 40
      vertex -3.99999 81.4 40
    endloop
  endfacet
  facet normal 0 0 1
    outer loop
      vertex -2.19999 72.6 40
      vertex -3.99999 70.6 40
      vertex -2.19999 70.6 40
    endloop
  endfacet
  facet normal -0 0 1
    outer loop
      vertex -3.99999 109.4 40
      vertex -2.19999 107.4 40
      vertex -2.19999 109.4 40
    endloop
  endfacet
  facet normal 0 0 1
    outer loop
      vertex -2.19999 107.4 40
      vertex -3.99999 109.4 40
      vertex -2.19999 100.6 40
    endloop
  endfacet
  facet normal 0 0 1
    outer loop
      vertex -3.99999 98.6 40
      vertex -2.19999 100.6 40
      vertex -3.99999 109.4 40
    endloop
  endfacet
  facet normal 0 0 1
    outer loop
      vertex -2.19999 100.6 40
      vertex -3.99999 98.6 40
      vertex -2.19999 98.6 40
    endloop
  endfacet
  facet normal -0 0 1
    outer loop
      vertex -2.19999 23.4 40
      vertex 0 16.6 40
      vertex 0 23.4 40
    endloop
  endfacet
  facet normal 0 0 1
    outer loop
      vertex 0 16.6 40
      vertex -2.19999 23.4 40
      vertex -2.19999 16.6 40
    endloop
  endfacet
  facet normal -0 0 1
    outer loop
      vertex -2.19999 51.4 40
      vertex 0 44.6 40
      vertex 0 51.4 40
    endloop
  endfacet
  facet normal 0 0 1
    outer loop
      vertex 0 44.6 40
      vertex -2.19999 51.4 40
      vertex -2.19999 44.6 40
    endloop
  endfacet
  facet normal -0 0 1
    outer loop
      vertex -2.19999 79.4 40
      vertex 0 72.6 40
      vertex 0 79.4 40
    endloop
  endfacet
  facet normal 0 0 1
    outer loop
      vertex 0 72.6 40
      vertex -2.19999 79.4 40
      vertex -2.19999 72.6 40
    endloop
  endfacet
  facet normal -0 0 1
    outer loop
      vertex -2.19999 107.4 40
      vertex 0 100.6 40
      vertex 0 107.4 40
    endloop
  endfacet
  facet normal 0 0 1
    outer loop
      vertex 0 100.6 40
      vertex -2.19999 107.4 40
      vertex -2.19999 100.6 40
    endloop
  endfacet
  facet normal 0 -1 0
    outer loop
      vertex 26.2 23.6 0
      vertex 28 23.6 40
      vertex 26.2 23.6 40
    endloop
  endfacet
  facet normal 0 -1 -0
    outer loop
      vertex 28 23.6 40
      vertex 26.2 23.6 0
      vertex 28 23.6 0
    endloop
  endfacet
  facet normal -1 0 0
    outer loop
      vertex 26.2 14.4 0
      vertex 26.2 16.4 40
      vertex 26.2 16.4 0
    endloop
  endfacet
  facet normal -1 -0 0
    outer loop
      vertex 26.2 16.4 40
      vertex 26.2 14.4 0
      vertex 26.2 14.4 40
    endloop
  endfacet
  facet normal -1 0 0
    outer loop
      vertex 26.2 23.6 0
      vertex 26.2 25.6 40
      vertex 26.2 25.6 0
    endloop
  endfacet
  facet normal -1 -0 0
    outer loop
      vertex 26.2 25.6 40
      vertex 26.2 23.6 0
      vertex 26.2 23.6 40
    endloop
  endfacet
  facet normal 0 0 -1
    outer loop
      vertex 0 72.6 0
      vertex 3.99999 69.6 0
      vertex 1.79999 69.6 0
    endloop
  endfacet
  facet normal 0 0 -1
    outer loop
      vertex 3.99999 69.6 0
      vertex 0 79.4 0
      vertex 3.99999 86.4 0
    endloop
  endfacet
  facet normal 0 0 -1
    outer loop
      vertex 0 44.6 0
      vertex 3.99999 41.6 0
      vertex 1.79999 41.6 0
    endloop
  endfacet
  facet normal 0 0 -1
    outer loop
      vertex 3.99999 41.6 0
      vertex 0 51.4 0
      vertex 3.99999 58.4 0
    endloop
  endfacet
  facet normal 0 0 -1
    outer loop
      vertex 0 16.6 0
      vertex 3.99999 13.6 0
      vertex 1.79999 13.6 0
    endloop
  endfacet
  facet normal 0 0 -1
    outer loop
      vertex 3.99999 13.6 0
      vertex 0 23.4 0
      vertex 3.99999 30.4 0
    endloop
  endfacet
  facet normal 0 0 -1
    outer loop
      vertex 3.99999 2.4 0
      vertex 28 4.6 0
      vertex 28 0 0
    endloop
  endfacet
  facet normal 0 0 -1
    outer loop
      vertex 28 4.6 0
      vertex 24 14.4 0
      vertex 28 11.4 0
    endloop
  endfacet
  facet normal 0 0 -1
    outer loop
      vertex 28 11.4 0
      vertex 26.2 14.4 0
      vertex 28 16.4 0
    endloop
  endfacet
  facet normal 0 0 -1
    outer loop
      vertex 28 11.4 0
      vertex 24 14.4 0
      vertex 26.2 14.4 0
    endloop
  endfacet
  facet normal 0 0 -1
    outer loop
      vertex 3.99999 13.6 0
      vertex 24 25.6 0
      vertex 24 14.4 0
    endloop
  endfacet
  facet normal 0 0 -1
    outer loop
      vertex 24 25.6 0
      vertex 3.99999 30.4 0
      vertex 24 42.4 0
    endloop
  endfacet
  facet normal 0 0 -1
    outer loop
      vertex 3.99999 41.6 0
      vertex 24 42.4 0
      vertex 3.99999 30.4 0
    endloop
  endfacet
  facet normal 0 0 -1
    outer loop
      vertex 3.99999 58.4 0
      vertex 24 53.6 0
      vertex 3.99999 41.6 0
    endloop
  endfacet
  facet normal 0 0 -1
    outer loop
      vertex 24 53.6 0
      vertex 3.99999 58.4 0
      vertex 24 70.4 0
    endloop
  endfacet
  facet normal -0 0 -1
    outer loop
      vertex 24 70.4 0
      vertex 3.99999 69.6 0
      vertex 24 81.6 0
    endloop
  endfacet
  facet normal 0 0 -1
    outer loop
      vertex 3.99999 86.4 0
      vertex 24 81.6 0
      vertex 3.99999 69.6 0
    endloop
  endfacet
  facet normal 0 0 -1
    outer loop
      vertex 23.4 112 0
      vertex 16.6 112 0
      vertex 23.4 114.2 0
    endloop
  endfacet
  facet normal 0 0 -1
    outer loop
      vertex 3.99999 97.6 0
      vertex 24 98.4 0
      vertex 3.99999 86.4 0
    endloop
  endfacet
  facet normal 0 0 -1
    outer loop
      vertex 24 98.4 0
      vertex 13.6 108 0
      vertex 24 109.6 0
    endloop
  endfacet
  facet normal 0 0 -1
    outer loop
      vertex 3.99999 13.6 0
      vertex 24 14.4 0
      vertex 3.99999 2.4 0
    endloop
  endfacet
  facet normal -0 0 -1
    outer loop
      vertex 28 4.6 0
      vertex 3.99999 2.4 0
      vertex 24 14.4 0
    endloop
  endfacet
  facet normal 0 0 -1
    outer loop
      vertex 0 0 0
      vertex 3.99999 2.4 0
      vertex 28 0 0
    endloop
  endfacet
  facet normal -0 0 -1
    outer loop
      vertex 3.99999 2.4 0
      vertex 0 0 0
      vertex 1.79999 2.4 0
    endloop
  endfacet
  facet normal 0 0 -1
    outer loop
      vertex 0 4.4 0
      vertex 1.79999 2.4 0
      vertex 0 0 0
    endloop
  endfacet
  facet normal 0 0 -1
    outer loop
      vertex 1.79999 2.4 0
      vertex 0 4.4 0
      vertex 1.79999 4.4 0
    endloop
  endfacet
  facet normal 0 0 -1
    outer loop
      vertex 28 4.6 0
      vertex 30.2 11.4 0
      vertex 30.2 4.6 0
    endloop
  endfacet
  facet normal -0 0 -1
    outer loop
      vertex 30.2 11.4 0
      vertex 28 4.6 0
      vertex 28 11.4 0
    endloop
  endfacet
  facet normal 0 0 -1
    outer loop
      vertex 30.2 4.6 0
      vertex 32 2.6 0
      vertex 30.2 2.6 0
    endloop
  endfacet
  facet normal 0 0 -1
    outer loop
      vertex 32 2.6 0
      vertex 30.2 4.6 0
      vertex 32 13.4 0
    endloop
  endfacet
  facet normal 0 0 -1
    outer loop
      vertex 30.2 11.4 0
      vertex 32 13.4 0
      vertex 30.2 4.6 0
    endloop
  endfacet
  facet normal -0 0 -1
    outer loop
      vertex 32 13.4 0
      vertex 30.2 11.4 0
      vertex 30.2 13.4 0
    endloop
  endfacet
  facet normal -0 0 -1
    outer loop
      vertex 28 16.4 0
      vertex 26.2 14.4 0
      vertex 26.2 16.4 0
    endloop
  endfacet
  facet normal 0 0 -1
    outer loop
      vertex 24 42.4 0
      vertex 28 32.6 0
      vertex 24 25.6 0
    endloop
  endfacet
  facet normal 0 0 -1
    outer loop
      vertex 28 32.6 0
      vertex 24 42.4 0
      vertex 26.2 42.4 0
    endloop
  endfacet
  facet normal 0 0 -1
    outer loop
      vertex 26.2 25.6 0
      vertex 28 32.6 0
      vertex 28 23.6 0
    endloop
  endfacet
  facet normal 0 0 -1
    outer loop
      vertex 24 25.6 0
      vertex 28 32.6 0
      vertex 26.2 25.6 0
    endloop
  endfacet
  facet normal 0 0 -1
    outer loop
      vertex 26.2 25.6 0
      vertex 28 23.6 0
      vertex 26.2 23.6 0
    endloop
  endfacet
  facet normal 0 0 -1
    outer loop
      vertex 28 32.6 0
      vertex 26.2 42.4 0
      vertex 28 39.4 0
    endloop
  endfacet
  facet normal 0 0 -1
    outer loop
      vertex 28 39.4 0
      vertex 26.2 42.4 0
      vertex 28 44.4 0
    endloop
  endfacet
  facet normal -0 0 -1
    outer loop
      vertex 28 44.4 0
      vertex 26.2 42.4 0
      vertex 26.2 44.4 0
    endloop
  endfacet
  facet normal 0 0 -1
    outer loop
      vertex 28 32.6 0
      vertex 30.2 39.4 0
      vertex 30.2 32.6 0
    endloop
  endfacet
  facet normal -0 0 -1
    outer loop
      vertex 30.2 39.4 0
      vertex 28 32.6 0
      vertex 28 39.4 0
    endloop
  endfacet
  facet normal 0 0 -1
    outer loop
      vertex 30.2 32.6 0
      vertex 32 30.6 0
      vertex 30.2 30.6 0
    endloop
  endfacet
  facet normal 0 0 -1
    outer loop
      vertex 32 30.6 0
      vertex 30.2 32.6 0
      vertex 32 41.4 0
    endloop
  endfacet
  facet normal 0 0 -1
    outer loop
      vertex 30.2 39.4 0
      vertex 32 41.4 0
      vertex 30.2 32.6 0
    endloop
  endfacet
  facet normal -0 0 -1
    outer loop
      vertex 32 41.4 0
      vertex 30.2 39.4 0
      vertex 30.2 41.4 0
    endloop
  endfacet
  facet normal 0 0 -1
    outer loop
      vertex 24 70.4 0
      vertex 28 60.6 0
      vertex 24 53.6 0
    endloop
  endfacet
  facet normal 0 0 -1
    outer loop
      vertex 28 60.6 0
      vertex 24 70.4 0
      vertex 26.2 70.4 0
    endloop
  endfacet
  facet normal 0 0 -1
    outer loop
      vertex 26.2 53.6 0
      vertex 28 60.6 0
      vertex 28 51.6 0
    endloop
  endfacet
  facet normal 0 0 -1
    outer loop
      vertex 24 53.6 0
      vertex 28 60.6 0
      vertex 26.2 53.6 0
    endloop
  endfacet
  facet normal 0 0 -1
    outer loop
      vertex 26.2 53.6 0
      vertex 28 51.6 0
      vertex 26.2 51.6 0
    endloop
  endfacet
  facet normal 0 0 -1
    outer loop
      vertex 28 60.6 0
      vertex 26.2 70.4 0
      vertex 28 67.4 0
    endloop
  endfacet
  facet normal 0 0 -1
    outer loop
      vertex 28 67.4 0
      vertex 26.2 70.4 0
      vertex 28 72.4 0
    endloop
  endfacet
  facet normal -0 0 -1
    outer loop
      vertex 28 72.4 0
      vertex 26.2 70.4 0
      vertex 26.2 72.4 0
    endloop
  endfacet
  facet normal 0 0 -1
    outer loop
      vertex 28 60.6 0
      vertex 30.2 67.4 0
      vertex 30.2 60.6 0
    endloop
  endfacet
  facet normal -0 0 -1
    outer loop
      vertex 30.2 67.4 0
      vertex 28 60.6 0
      vertex 28 67.4 0
    endloop
  endfacet
  facet normal 0 0 -1
    outer loop
      vertex 30.2 60.6 0
      vertex 32 58.6 0
      vertex 30.2 58.6 0
    endloop
  endfacet
  facet normal 0 0 -1
    outer loop
      vertex 32 58.6 0
      vertex 30.2 60.6 0
      vertex 32 69.4 0
    endloop
  endfacet
  facet normal 0 0 -1
    outer loop
      vertex 30.2 67.4 0
      vertex 32 69.4 0
      vertex 30.2 60.6 0
    endloop
  endfacet
  facet normal -0 0 -1
    outer loop
      vertex 32 69.4 0
      vertex 30.2 67.4 0
      vertex 30.2 69.4 0
    endloop
  endfacet
  facet normal 0 0 -1
    outer loop
      vertex 24 98.4 0
      vertex 28 88.6 0
      vertex 24 81.6 0
    endloop
  endfacet
  facet normal 0 0 -1
    outer loop
      vertex 28 88.6 0
      vertex 24 98.4 0
      vertex 26.2 98.4 0
    endloop
  endfacet
  facet normal 0 0 -1
    outer loop
      vertex 26.2 81.6 0
      vertex 28 88.6 0
      vertex 28 79.6 0
    endloop
  endfacet
  facet normal 0 0 -1
    outer loop
      vertex 24 81.6 0
      vertex 28 88.6 0
      vertex 26.2 81.6 0
    endloop
  endfacet
  facet normal 0 0 -1
    outer loop
      vertex 26.2 81.6 0
      vertex 28 79.6 0
      vertex 26.2 79.6 0
    endloop
  endfacet
  facet normal 0 0 -1
    outer loop
      vertex 28 88.6 0
      vertex 26.2 98.4 0
      vertex 28 95.4 0
    endloop
  endfacet
  facet normal 0 0 -1
    outer loop
      vertex 28 95.4 0
      vertex 26.2 98.4 0
      vertex 28 100.4 0
    endloop
  endfacet
  facet normal -0 0 -1
    outer loop
      vertex 28 100.4 0
      vertex 26.2 98.4 0
      vertex 26.2 100.4 0
    endloop
  endfacet
  facet normal 0 0 -1
    outer loop
      vertex 28 88.6 0
      vertex 30.2 95.4 0
      vertex 30.2 88.6 0
    endloop
  endfacet
  facet normal -0 0 -1
    outer loop
      vertex 30.2 95.4 0
      vertex 28 88.6 0
      vertex 28 95.4 0
    endloop
  endfacet
  facet normal 0 0 -1
    outer loop
      vertex 30.2 88.6 0
      vertex 32 86.6 0
      vertex 30.2 86.6 0
    endloop
  endfacet
  facet normal 0 0 -1
    outer loop
      vertex 32 86.6 0
      vertex 30.2 88.6 0
      vertex 32 97.4 0
    endloop
  endfacet
  facet normal 0 0 -1
    outer loop
      vertex 30.2 95.4 0
      vertex 32 97.4 0
      vertex 30.2 88.6 0
    endloop
  endfacet
  facet normal -0 0 -1
    outer loop
      vertex 32 97.4 0
      vertex 30.2 95.4 0
      vertex 30.2 97.4 0
    endloop
  endfacet
  facet normal 0 0 -1
    outer loop
      vertex 26.2 109.6 0
      vertex 28 107.6 0
      vertex 26.2 107.6 0
    endloop
  endfacet
  facet normal 0 0 -1
    outer loop
      vertex 28 107.6 0
      vertex 26.2 109.6 0
      vertex 28 112 0
    endloop
  endfacet
  facet normal 0 0 -1
    outer loop
      vertex 23.4 112 0
      vertex 26.2 109.6 0
      vertex 24 109.6 0
    endloop
  endfacet
  facet normal 0 0 -1
    outer loop
      vertex 26.2 109.6 0
      vertex 23.4 112 0
      vertex 28 112 0
    endloop
  endfacet
  facet normal 0 0 -1
    outer loop
      vertex 23.4 114.2 0
      vertex 25.4 116 0
      vertex 25.4 114.2 0
    endloop
  endfacet
  facet normal 0 0 -1
    outer loop
      vertex 16.6 114.2 0
      vertex 23.4 114.2 0
      vertex 16.6 112 0
    endloop
  endfacet
  facet normal 0 0 -1
    outer loop
      vertex 23.4 114.2 0
      vertex 16.6 114.2 0
      vertex 25.4 116 0
    endloop
  endfacet
  facet normal 0 0 -1
    outer loop
      vertex 14.6 116 0
      vertex 16.6 114.2 0
      vertex 14.6 114.2 0
    endloop
  endfacet
  facet normal 0 0 -1
    outer loop
      vertex 16.6 114.2 0
      vertex 14.6 116 0
      vertex 25.4 116 0
    endloop
  endfacet
  facet normal 0 0 -1
    outer loop
      vertex 13.6 110.2 0
      vertex 16.6 112 0
      vertex 13.6 108 0
    endloop
  endfacet
  facet normal 0 0 -1
    outer loop
      vertex 11.6 112 0
      vertex 13.6 110.2 0
      vertex 11.6 110.2 0
    endloop
  endfacet
  facet normal 0 0 -1
    outer loop
      vertex 13.6 110.2 0
      vertex 11.6 112 0
      vertex 16.6 112 0
    endloop
  endfacet
  facet normal -0 0 -1
    outer loop
      vertex 24 25.6 0
      vertex 3.99999 13.6 0
      vertex 3.99999 30.4 0
    endloop
  endfacet
  facet normal -0 0 -1
    outer loop
      vertex 24 42.4 0
      vertex 3.99999 41.6 0
      vertex 24 53.6 0
    endloop
  endfacet
  facet normal 0 0 -1
    outer loop
      vertex 3.99999 69.6 0
      vertex 24 70.4 0
      vertex 3.99999 58.4 0
    endloop
  endfacet
  facet normal 0 0 -1
    outer loop
      vertex 24 81.6 0
      vertex 3.99999 86.4 0
      vertex 24 98.4 0
    endloop
  endfacet
  facet normal 0 0 -1
    outer loop
      vertex 24 109.6 0
      vertex 16.6 112 0
      vertex 23.4 112 0
    endloop
  endfacet
  facet normal 0 -0 -1
    outer loop
      vertex 16.6 112 0
      vertex 24 109.6 0
      vertex 13.6 108 0
    endloop
  endfacet
  facet normal -0 0 -1
    outer loop
      vertex 24 98.4 0
      vertex 3.99999 97.6 0
      vertex 13.6 108 0
    endloop
  endfacet
  facet normal 0 0 -1
    outer loop
      vertex 3.99999 97.6 0
      vertex 2.4 108 0
      vertex 13.6 108 0
    endloop
  endfacet
  facet normal 0 0 -1
    outer loop
      vertex 3.99999 97.6 0
      vertex 0 100.6 0
      vertex 2.4 108 0
    endloop
  endfacet
  facet normal 0 0 -1
    outer loop
      vertex 0 100.6 0
      vertex 3.99999 97.6 0
      vertex 1.79999 97.6 0
    endloop
  endfacet
  facet normal 0 0 -1
    outer loop
      vertex 2.4 110.2 0
      vertex 4.4 112 0
      vertex 4.4 110.2 0
    endloop
  endfacet
  facet normal 0 0 -1
    outer loop
      vertex 0 100.6 0
      vertex 1.79999 97.6 0
      vertex 0 95.6 0
    endloop
  endfacet
  facet normal 0 0 -1
    outer loop
      vertex 0 107.4 0
      vertex 2.4 108 0
      vertex 0 100.6 0
    endloop
  endfacet
  facet normal -0 0 -1
    outer loop
      vertex 2.4 108 0
      vertex 0 107.4 0
      vertex 2.4 110.2 0
    endloop
  endfacet
  facet normal 0 0 -1
    outer loop
      vertex 2.4 110.2 0
      vertex 0 112 0
      vertex 4.4 112 0
    endloop
  endfacet
  facet normal 0 0 -1
    outer loop
      vertex 0 112 0
      vertex 2.4 110.2 0
      vertex 0 107.4 0
    endloop
  endfacet
  facet normal 0 0 -1
    outer loop
      vertex 1.79999 95.6 0
      vertex 0 95.6 0
      vertex 1.79999 97.6 0
    endloop
  endfacet
  facet normal 0 0 -1
    outer loop
      vertex 0 67.6 0
      vertex 1.79999 69.6 0
      vertex 1.79999 67.6 0
    endloop
  endfacet
  facet normal -0 0 -1
    outer loop
      vertex 3.99999 86.4 0
      vertex 0 79.4 0
      vertex 1.79999 86.4 0
    endloop
  endfacet
  facet normal -0 0 -1
    outer loop
      vertex 1.79999 69.6 0
      vertex 0 67.6 0
      vertex 0 72.6 0
    endloop
  endfacet
  facet normal 0 0 -1
    outer loop
      vertex 3.99999 69.6 0
      vertex 0 72.6 0
      vertex 0 79.4 0
    endloop
  endfacet
  facet normal 0 0 -1
    outer loop
      vertex 0 88.4 0
      vertex 1.79999 86.4 0
      vertex 0 79.4 0
    endloop
  endfacet
  facet normal 0 0 -1
    outer loop
      vertex 1.79999 86.4 0
      vertex 0 88.4 0
      vertex 1.79999 88.4 0
    endloop
  endfacet
  facet normal 0 0 -1
    outer loop
      vertex 0 39.6 0
      vertex 1.79999 41.6 0
      vertex 1.79999 39.6 0
    endloop
  endfacet
  facet normal -0 0 -1
    outer loop
      vertex 3.99999 58.4 0
      vertex 0 51.4 0
      vertex 1.79999 58.4 0
    endloop
  endfacet
  facet normal -0 0 -1
    outer loop
      vertex 1.79999 41.6 0
      vertex 0 39.6 0
      vertex 0 44.6 0
    endloop
  endfacet
  facet normal 0 0 -1
    outer loop
      vertex 3.99999 41.6 0
      vertex 0 44.6 0
      vertex 0 51.4 0
    endloop
  endfacet
  facet normal 0 0 -1
    outer loop
      vertex 0 60.4 0
      vertex 1.79999 58.4 0
      vertex 0 51.4 0
    endloop
  endfacet
  facet normal 0 0 -1
    outer loop
      vertex 1.79999 58.4 0
      vertex 0 60.4 0
      vertex 1.79999 60.4 0
    endloop
  endfacet
  facet normal 0 0 -1
    outer loop
      vertex 0 11.6 0
      vertex 1.79999 13.6 0
      vertex 1.79999 11.6 0
    endloop
  endfacet
  facet normal -0 0 -1
    outer loop
      vertex 3.99999 30.4 0
      vertex 0 23.4 0
      vertex 1.79999 30.4 0
    endloop
  endfacet
  facet normal -0 0 -1
    outer loop
      vertex 1.79999 13.6 0
      vertex 0 11.6 0
      vertex 0 16.6 0
    endloop
  endfacet
  facet normal 0 0 -1
    outer loop
      vertex 3.99999 13.6 0
      vertex 0 16.6 0
      vertex 0 23.4 0
    endloop
  endfacet
  facet normal 0 0 -1
    outer loop
      vertex 0 32.4 0
      vertex 1.79999 30.4 0
      vertex 0 23.4 0
    endloop
  endfacet
  facet normal 0 0 -1
    outer loop
      vertex 1.79999 30.4 0
      vertex 0 32.4 0
      vertex 1.79999 32.4 0
    endloop
  endfacet
  facet normal 0 0 -1
    outer loop
      vertex -3.99999 98.6 0
      vertex -2.19999 100.6 0
      vertex -2.19999 98.6 0
    endloop
  endfacet
  facet normal -0 0 -1
    outer loop
      vertex -2.19999 100.6 0
      vertex -3.99999 98.6 0
      vertex -2.19999 107.4 0
    endloop
  endfacet
  facet normal 0 0 -1
    outer loop
      vertex -3.99999 109.4 0
      vertex -2.19999 107.4 0
      vertex -3.99999 98.6 0
    endloop
  endfacet
  facet normal 0 0 -1
    outer loop
      vertex -2.19999 107.4 0
      vertex -3.99999 109.4 0
      vertex -2.19999 109.4 0
    endloop
  endfacet
  facet normal 0 0 -1
    outer loop
      vertex -3.99999 70.6 0
      vertex -2.19999 72.6 0
      vertex -2.19999 70.6 0
    endloop
  endfacet
  facet normal -0 0 -1
    outer loop
      vertex -2.19999 72.6 0
      vertex -3.99999 70.6 0
      vertex -2.19999 79.4 0
    endloop
  endfacet
  facet normal 0 0 -1
    outer loop
      vertex -3.99999 81.4 0
      vertex -2.19999 79.4 0
      vertex -3.99999 70.6 0
    endloop
  endfacet
  facet normal 0 0 -1
    outer loop
      vertex -2.19999 79.4 0
      vertex -3.99999 81.4 0
      vertex -2.19999 81.4 0
    endloop
  endfacet
  facet normal 0 0 -1
    outer loop
      vertex -3.99999 42.6 0
      vertex -2.19999 44.6 0
      vertex -2.19999 42.6 0
    endloop
  endfacet
  facet normal -0 0 -1
    outer loop
      vertex -2.19999 44.6 0
      vertex -3.99999 42.6 0
      vertex -2.19999 51.4 0
    endloop
  endfacet
  facet normal 0 0 -1
    outer loop
      vertex -3.99999 53.4 0
      vertex -2.19999 51.4 0
      vertex -3.99999 42.6 0
    endloop
  endfacet
  facet normal 0 0 -1
    outer loop
      vertex -2.19999 51.4 0
      vertex -3.99999 53.4 0
      vertex -2.19999 53.4 0
    endloop
  endfacet
  facet normal 0 0 -1
    outer loop
      vertex -3.99999 14.6 0
      vertex -2.19999 16.6 0
      vertex -2.19999 14.6 0
    endloop
  endfacet
  facet normal -0 0 -1
    outer loop
      vertex -2.19999 16.6 0
      vertex -3.99999 14.6 0
      vertex -2.19999 23.4 0
    endloop
  endfacet
  facet normal 0 0 -1
    outer loop
      vertex -3.99999 25.4 0
      vertex -2.19999 23.4 0
      vertex -3.99999 14.6 0
    endloop
  endfacet
  facet normal 0 0 -1
    outer loop
      vertex -2.19999 23.4 0
      vertex -3.99999 25.4 0
      vertex -2.19999 25.4 0
    endloop
  endfacet
  facet normal 0 0 -1
    outer loop
      vertex -2.19999 100.6 0
      vertex 0 107.4 0
      vertex 0 100.6 0
    endloop
  endfacet
  facet normal -0 0 -1
    outer loop
      vertex 0 107.4 0
      vertex -2.19999 100.6 0
      vertex -2.19999 107.4 0
    endloop
  endfacet
  facet normal 0 0 -1
    outer loop
      vertex -2.19999 72.6 0
      vertex 0 79.4 0
      vertex 0 72.6 0
    endloop
  endfacet
  facet normal -0 0 -1
    outer loop
      vertex 0 79.4 0
      vertex -2.19999 72.6 0
      vertex -2.19999 79.4 0
    endloop
  endfacet
  facet normal 0 0 -1
    outer loop
      vertex -2.19999 44.6 0
      vertex 0 51.4 0
      vertex 0 44.6 0
    endloop
  endfacet
  facet normal -0 0 -1
    outer loop
      vertex 0 51.4 0
      vertex -2.19999 44.6 0
      vertex -2.19999 51.4 0
    endloop
  endfacet
  facet normal 0 0 -1
    outer loop
      vertex -2.19999 16.6 0
      vertex 0 23.4 0
      vertex 0 16.6 0
    endloop
  endfacet
  facet normal -0 0 -1
    outer loop
      vertex 0 23.4 0
      vertex -2.19999 16.6 0
      vertex -2.19999 23.4 0
    endloop
  endfacet
  facet normal 0 1 -0
    outer loop
      vertex 26.2 14.4 0
      vertex 24 14.4 40
      vertex 26.2 14.4 40
    endloop
  endfacet
  facet normal 0 1 0
    outer loop
      vertex 24 14.4 40
      vertex 26.2 14.4 0
      vertex 24 14.4 0
    endloop
  endfacet
  facet normal 0 -1 0
    outer loop
      vertex 24 25.6 0
      vertex 26.2 25.6 40
      vertex 24 25.6 40
    endloop
  endfacet
  facet normal 0 -1 -0
    outer loop
      vertex 26.2 25.6 40
      vertex 24 25.6 0
      vertex 26.2 25.6 0
    endloop
  endfacet
  facet normal 1 -0 0
    outer loop
      vertex 24 14.4 40
      vertex 24 25.6 0
      vertex 24 25.6 40
    endloop
  endfacet
  facet normal 1 0 0
    outer loop
      vertex 24 25.6 0
      vertex 24 14.4 40
      vertex 24 14.4 0
    endloop
  endfacet
  facet normal 0 1 -0
    outer loop
      vertex 28 44.4 0
      vertex 26.2 44.4 40
      vertex 28 44.4 40
    endloop
  endfacet
  facet normal 0 1 0
    outer loop
      vertex 26.2 44.4 40
      vertex 28 44.4 0
      vertex 26.2 44.4 0
    endloop
  endfacet
  facet normal 0 -1 0
    outer loop
      vertex 26.2 51.6 0
      vertex 28 51.6 40
      vertex 26.2 51.6 40
    endloop
  endfacet
  facet normal 0 -1 -0
    outer loop
      vertex 28 51.6 40
      vertex 26.2 51.6 0
      vertex 28 51.6 0
    endloop
  endfacet
  facet normal -1 0 0
    outer loop
      vertex 26.2 42.4 0
      vertex 26.2 44.4 40
      vertex 26.2 44.4 0
    endloop
  endfacet
  facet normal -1 -0 0
    outer loop
      vertex 26.2 44.4 40
      vertex 26.2 42.4 0
      vertex 26.2 42.4 40
    endloop
  endfacet
  facet normal -1 0 0
    outer loop
      vertex 26.2 51.6 0
      vertex 26.2 53.6 40
      vertex 26.2 53.6 0
    endloop
  endfacet
  facet normal -1 -0 0
    outer loop
      vertex 26.2 53.6 40
      vertex 26.2 51.6 0
      vertex 26.2 51.6 40
    endloop
  endfacet
  facet normal 0 1 -0
    outer loop
      vertex 26.2 42.4 0
      vertex 24 42.4 40
      vertex 26.2 42.4 40
    endloop
  endfacet
  facet normal 0 1 0
    outer loop
      vertex 24 42.4 40
      vertex 26.2 42.4 0
      vertex 24 42.4 0
    endloop
  endfacet
  facet normal 0 -1 0
    outer loop
      vertex 24 53.6 0
      vertex 26.2 53.6 40
      vertex 24 53.6 40
    endloop
  endfacet
  facet normal 0 -1 -0
    outer loop
      vertex 26.2 53.6 40
      vertex 24 53.6 0
      vertex 26.2 53.6 0
    endloop
  endfacet
  facet normal 1 -0 0
    outer loop
      vertex 24 42.4 40
      vertex 24 53.6 0
      vertex 24 53.6 40
    endloop
  endfacet
  facet normal 1 0 0
    outer loop
      vertex 24 53.6 0
      vertex 24 42.4 40
      vertex 24 42.4 0
    endloop
  endfacet
  facet normal 0 1 -0
    outer loop
      vertex 28 72.4 0
      vertex 26.2 72.4 40
      vertex 28 72.4 40
    endloop
  endfacet
  facet normal 0 1 0
    outer loop
      vertex 26.2 72.4 40
      vertex 28 72.4 0
      vertex 26.2 72.4 0
    endloop
  endfacet
  facet normal 0 -1 0
    outer loop
      vertex 26.2 79.6 0
      vertex 28 79.6 40
      vertex 26.2 79.6 40
    endloop
  endfacet
  facet normal 0 -1 -0
    outer loop
      vertex 28 79.6 40
      vertex 26.2 79.6 0
      vertex 28 79.6 0
    endloop
  endfacet
  facet normal -1 0 0
    outer loop
      vertex 26.2 70.4 0
      vertex 26.2 72.4 40
      vertex 26.2 72.4 0
    endloop
  endfacet
  facet normal -1 -0 0
    outer loop
      vertex 26.2 72.4 40
      vertex 26.2 70.4 0
      vertex 26.2 70.4 40
    endloop
  endfacet
  facet normal -1 0 0
    outer loop
      vertex 26.2 79.6 0
      vertex 26.2 81.6 40
      vertex 26.2 81.6 0
    endloop
  endfacet
  facet normal -1 -0 0
    outer loop
      vertex 26.2 81.6 40
      vertex 26.2 79.6 0
      vertex 26.2 79.6 40
    endloop
  endfacet
  facet normal 0 1 -0
    outer loop
      vertex 26.2 70.4 0
      vertex 24 70.4 40
      vertex 26.2 70.4 40
    endloop
  endfacet
  facet normal 0 1 0
    outer loop
      vertex 24 70.4 40
      vertex 26.2 70.4 0
      vertex 24 70.4 0
    endloop
  endfacet
  facet normal 0 -1 0
    outer loop
      vertex 24 81.6 0
      vertex 26.2 81.6 40
      vertex 24 81.6 40
    endloop
  endfacet
  facet normal 0 -1 -0
    outer loop
      vertex 26.2 81.6 40
      vertex 24 81.6 0
      vertex 26.2 81.6 0
    endloop
  endfacet
  facet normal 1 -0 0
    outer loop
      vertex 24 70.4 40
      vertex 24 81.6 0
      vertex 24 81.6 40
    endloop
  endfacet
  facet normal 1 0 0
    outer loop
      vertex 24 81.6 0
      vertex 24 70.4 40
      vertex 24 70.4 0
    endloop
  endfacet
  facet normal 0 1 -0
    outer loop
      vertex 28 100.4 0
      vertex 26.2 100.4 40
      vertex 28 100.4 40
    endloop
  endfacet
  facet normal 0 1 0
    outer loop
      vertex 26.2 100.4 40
      vertex 28 100.4 0
      vertex 26.2 100.4 0
    endloop
  endfacet
  facet normal 0 -1 0
    outer loop
      vertex 26.2 107.6 0
      vertex 28 107.6 40
      vertex 26.2 107.6 40
    endloop
  endfacet
  facet normal 0 -1 -0
    outer loop
      vertex 28 107.6 40
      vertex 26.2 107.6 0
      vertex 28 107.6 0
    endloop
  endfacet
  facet normal -1 0 0
    outer loop
      vertex 26.2 98.4 0
      vertex 26.2 100.4 40
      vertex 26.2 100.4 0
    endloop
  endfacet
  facet normal -1 -0 0
    outer loop
      vertex 26.2 100.4 40
      vertex 26.2 98.4 0
      vertex 26.2 98.4 40
    endloop
  endfacet
  facet normal -1 0 0
    outer loop
      vertex 26.2 107.6 0
      vertex 26.2 109.6 40
      vertex 26.2 109.6 0
    endloop
  endfacet
  facet normal -1 -0 0
    outer loop
      vertex 26.2 109.6 40
      vertex 26.2 107.6 0
      vertex 26.2 107.6 40
    endloop
  endfacet
  facet normal 0 1 -0
    outer loop
      vertex 26.2 98.4 0
      vertex 24 98.4 40
      vertex 26.2 98.4 40
    endloop
  endfacet
  facet normal 0 1 0
    outer loop
      vertex 24 98.4 40
      vertex 26.2 98.4 0
      vertex 24 98.4 0
    endloop
  endfacet
  facet normal 0 -1 0
    outer loop
      vertex 24 109.6 0
      vertex 26.2 109.6 40
      vertex 24 109.6 40
    endloop
  endfacet
  facet normal 0 -1 -0
    outer loop
      vertex 26.2 109.6 40
      vertex 24 109.6 0
      vertex 26.2 109.6 0
    endloop
  endfacet
  facet normal 1 -0 0
    outer loop
      vertex 24 98.4 40
      vertex 24 109.6 0
      vertex 24 109.6 40
    endloop
  endfacet
  facet normal 1 0 0
    outer loop
      vertex 24 109.6 0
      vertex 24 98.4 40
      vertex 24 98.4 0
    endloop
  endfacet
  facet normal -1 0 0
    outer loop
      vertex 11.6 110.2 0
      vertex 11.6 112 40
      vertex 11.6 112 0
    endloop
  endfacet
  facet normal -1 -0 0
    outer loop
      vertex 11.6 112 40
      vertex 11.6 110.2 0
      vertex 11.6 110.2 40
    endloop
  endfacet
  facet normal 1 -0 0
    outer loop
      vertex 4.4 110.2 40
      vertex 4.4 112 0
      vertex 4.4 112 40
    endloop
  endfacet
  facet normal 1 0 0
    outer loop
      vertex 4.4 112 0
      vertex 4.4 110.2 40
      vertex 4.4 110.2 0
    endloop
  endfacet
  facet normal 0 -1 0
    outer loop
      vertex 11.6 110.2 0
      vertex 13.6 110.2 40
      vertex 11.6 110.2 40
    endloop
  endfacet
  facet normal 0 -1 -0
    outer loop
      vertex 13.6 110.2 40
      vertex 11.6 110.2 0
      vertex 13.6 110.2 0
    endloop
  endfacet
  facet normal 0 -1 0
    outer loop
      vertex 2.4 110.2 0
      vertex 4.4 110.2 40
      vertex 2.4 110.2 40
    endloop
  endfacet
  facet normal 0 -1 -0
    outer loop
      vertex 4.4 110.2 40
      vertex 2.4 110.2 0
      vertex 4.4 110.2 0
    endloop
  endfacet
  facet normal -1 0 0
    outer loop
      vertex 13.6 108 0
      vertex 13.6 110.2 40
      vertex 13.6 110.2 0
    endloop
  endfacet
  facet normal -1 -0 0
    outer loop
      vertex 13.6 110.2 40
      vertex 13.6 108 0
      vertex 13.6 108 40
    endloop
  endfacet
  facet normal 1 -0 0
    outer loop
      vertex 2.4 108 40
      vertex 2.4 110.2 0
      vertex 2.4 110.2 40
    endloop
  endfacet
  facet normal 1 0 0
    outer loop
      vertex 2.4 110.2 0
      vertex 2.4 108 40
      vertex 2.4 108 0
    endloop
  endfacet
  facet normal 0 1 -0
    outer loop
      vertex 13.6 108 0
      vertex 2.4 108 40
      vertex 13.6 108 40
    endloop
  endfacet
  facet normal 0 1 0
    outer loop
      vertex 2.4 108 40
      vertex 13.6 108 0
      vertex 2.4 108 0
    endloop
  endfacet
  facet normal 0 -1 0
    outer loop
      vertex 0 95.6 0
      vertex 1.79999 95.6 40
      vertex 0 95.6 40
    endloop
  endfacet
  facet normal 0 -1 -0
    outer loop
      vertex 1.79999 95.6 40
      vertex 0 95.6 0
      vertex 1.79999 95.6 0
    endloop
  endfacet
  facet normal 0 1 -0
    outer loop
      vertex 1.79999 88.4 0
      vertex 0 88.4 40
      vertex 1.79999 88.4 40
    endloop
  endfacet
  facet normal 0 1 0
    outer loop
      vertex 0 88.4 40
      vertex 1.79999 88.4 0
      vertex 0 88.4 0
    endloop
  endfacet
  facet normal 1 -0 0
    outer loop
      vertex 1.79999 95.6 40
      vertex 1.79999 97.6 0
      vertex 1.79999 97.6 40
    endloop
  endfacet
  facet normal 1 0 0
    outer loop
      vertex 1.79999 97.6 0
      vertex 1.79999 95.6 40
      vertex 1.79999 95.6 0
    endloop
  endfacet
  facet normal 1 -0 0
    outer loop
      vertex 1.79999 86.4 40
      vertex 1.79999 88.4 0
      vertex 1.79999 88.4 40
    endloop
  endfacet
  facet normal 1 0 0
    outer loop
      vertex 1.79999 88.4 0
      vertex 1.79999 86.4 40
      vertex 1.79999 86.4 0
    endloop
  endfacet
  facet normal 0 -1 0
    outer loop
      vertex 1.79999 97.6 0
      vertex 3.99999 97.6 40
      vertex 1.79999 97.6 40
    endloop
  endfacet
  facet normal 0 -1 -0
    outer loop
      vertex 3.99999 97.6 40
      vertex 1.79999 97.6 0
      vertex 3.99999 97.6 0
    endloop
  endfacet
  facet normal 0 1 -0
    outer loop
      vertex 3.99999 86.4 0
      vertex 1.79999 86.4 40
      vertex 3.99999 86.4 40
    endloop
  endfacet
  facet normal 0 1 0
    outer loop
      vertex 1.79999 86.4 40
      vertex 3.99999 86.4 0
      vertex 1.79999 86.4 0
    endloop
  endfacet
  facet normal -1 0 0
    outer loop
      vertex 3.99999 86.4 0
      vertex 3.99999 97.6 40
      vertex 3.99999 97.6 0
    endloop
  endfacet
  facet normal -1 -0 0
    outer loop
      vertex 3.99999 97.6 40
      vertex 3.99999 86.4 0
      vertex 3.99999 86.4 40
    endloop
  endfacet
  facet normal 0 -1 0
    outer loop
      vertex 0 67.6 0
      vertex 1.79999 67.6 40
      vertex 0 67.6 40
    endloop
  endfacet
  facet normal 0 -1 -0
    outer loop
      vertex 1.79999 67.6 40
      vertex 0 67.6 0
      vertex 1.79999 67.6 0
    endloop
  endfacet
  facet normal 0 1 -0
    outer loop
      vertex 1.79999 60.4 0
      vertex 0 60.4 40
      vertex 1.79999 60.4 40
    endloop
  endfacet
  facet normal 0 1 0
    outer loop
      vertex 0 60.4 40
      vertex 1.79999 60.4 0
      vertex 0 60.4 0
    endloop
  endfacet
  facet normal 1 -0 0
    outer loop
      vertex 1.79999 67.6 40
      vertex 1.79999 69.6 0
      vertex 1.79999 69.6 40
    endloop
  endfacet
  facet normal 1 0 0
    outer loop
      vertex 1.79999 69.6 0
      vertex 1.79999 67.6 40
      vertex 1.79999 67.6 0
    endloop
  endfacet
  facet normal 1 -0 0
    outer loop
      vertex 1.79999 58.4 40
      vertex 1.79999 60.4 0
      vertex 1.79999 60.4 40
    endloop
  endfacet
  facet normal 1 0 0
    outer loop
      vertex 1.79999 60.4 0
      vertex 1.79999 58.4 40
      vertex 1.79999 58.4 0
    endloop
  endfacet
  facet normal 0 -1 0
    outer loop
      vertex 1.79999 69.6 0
      vertex 3.99999 69.6 40
      vertex 1.79999 69.6 40
    endloop
  endfacet
  facet normal 0 -1 -0
    outer loop
      vertex 3.99999 69.6 40
      vertex 1.79999 69.6 0
      vertex 3.99999 69.6 0
    endloop
  endfacet
  facet normal 0 1 -0
    outer loop
      vertex 3.99999 58.4 0
      vertex 1.79999 58.4 40
      vertex 3.99999 58.4 40
    endloop
  endfacet
  facet normal 0 1 0
    outer loop
      vertex 1.79999 58.4 40
      vertex 3.99999 58.4 0
      vertex 1.79999 58.4 0
    endloop
  endfacet
  facet normal -1 0 0
    outer loop
      vertex 3.99999 58.4 0
      vertex 3.99999 69.6 40
      vertex 3.99999 69.6 0
    endloop
  endfacet
  facet normal -1 -0 0
    outer loop
      vertex 3.99999 69.6 40
      vertex 3.99999 58.4 0
      vertex 3.99999 58.4 40
    endloop
  endfacet
  facet normal 0 -1 0
    outer loop
      vertex 0 39.6 0
      vertex 1.79999 39.6 40
      vertex 0 39.6 40
    endloop
  endfacet
  facet normal 0 -1 -0
    outer loop
      vertex 1.79999 39.6 40
      vertex 0 39.6 0
      vertex 1.79999 39.6 0
    endloop
  endfacet
  facet normal 0 1 -0
    outer loop
      vertex 1.79999 32.4 0
      vertex 0 32.4 40
      vertex 1.79999 32.4 40
    endloop
  endfacet
  facet normal 0 1 0
    outer loop
      vertex 0 32.4 40
      vertex 1.79999 32.4 0
      vertex 0 32.4 0
    endloop
  endfacet
  facet normal 1 -0 0
    outer loop
      vertex 1.79999 39.6 40
      vertex 1.79999 41.6 0
      vertex 1.79999 41.6 40
    endloop
  endfacet
  facet normal 1 0 0
    outer loop
      vertex 1.79999 41.6 0
      vertex 1.79999 39.6 40
      vertex 1.79999 39.6 0
    endloop
  endfacet
  facet normal 1 -0 0
    outer loop
      vertex 1.79999 30.4 40
      vertex 1.79999 32.4 0
      vertex 1.79999 32.4 40
    endloop
  endfacet
  facet normal 1 0 0
    outer loop
      vertex 1.79999 32.4 0
      vertex 1.79999 30.4 40
      vertex 1.79999 30.4 0
    endloop
  endfacet
  facet normal 0 -1 0
    outer loop
      vertex 1.79999 41.6 0
      vertex 3.99999 41.6 40
      vertex 1.79999 41.6 40
    endloop
  endfacet
  facet normal 0 -1 -0
    outer loop
      vertex 3.99999 41.6 40
      vertex 1.79999 41.6 0
      vertex 3.99999 41.6 0
    endloop
  endfacet
  facet normal 0 1 -0
    outer loop
      vertex 3.99999 30.4 0
      vertex 1.79999 30.4 40
      vertex 3.99999 30.4 40
    endloop
  endfacet
  facet normal 0 1 0
    outer loop
      vertex 1.79999 30.4 40
      vertex 3.99999 30.4 0
      vertex 1.79999 30.4 0
    endloop
  endfacet
  facet normal -1 0 0
    outer loop
      vertex 3.99999 30.4 0
      vertex 3.99999 41.6 40
      vertex 3.99999 41.6 0
    endloop
  endfacet
  facet normal -1 -0 0
    outer loop
      vertex 3.99999 41.6 40
      vertex 3.99999 30.4 0
      vertex 3.99999 30.4 40
    endloop
  endfacet
  facet normal 0 -1 0
    outer loop
      vertex 0 11.6 0
      vertex 1.79999 11.6 40
      vertex 0 11.6 40
    endloop
  endfacet
  facet normal 0 -1 -0
    outer loop
      vertex 1.79999 11.6 40
      vertex 0 11.6 0
      vertex 1.79999 11.6 0
    endloop
  endfacet
  facet normal 0 1 -0
    outer loop
      vertex 1.79999 4.4 0
      vertex 0 4.4 40
      vertex 1.79999 4.4 40
    endloop
  endfacet
  facet normal 0 1 0
    outer loop
      vertex 0 4.4 40
      vertex 1.79999 4.4 0
      vertex 0 4.4 0
    endloop
  endfacet
  facet normal 1 -0 0
    outer loop
      vertex 1.79999 11.6 40
      vertex 1.79999 13.6 0
      vertex 1.79999 13.6 40
    endloop
  endfacet
  facet normal 1 0 0
    outer loop
      vertex 1.79999 13.6 0
      vertex 1.79999 11.6 40
      vertex 1.79999 11.6 0
    endloop
  endfacet
  facet normal 1 -0 0
    outer loop
      vertex 1.79999 2.4 40
      vertex 1.79999 4.4 0
      vertex 1.79999 4.4 40
    endloop
  endfacet
  facet normal 1 0 0
    outer loop
      vertex 1.79999 4.4 0
      vertex 1.79999 2.4 40
      vertex 1.79999 2.4 0
    endloop
  endfacet
  facet normal 0 -1 0
    outer loop
      vertex 1.79999 13.6 0
      vertex 3.99999 13.6 40
      vertex 1.79999 13.6 40
    endloop
  endfacet
  facet normal 0 -1 -0
    outer loop
      vertex 3.99999 13.6 40
      vertex 1.79999 13.6 0
      vertex 3.99999 13.6 0
    endloop
  endfacet
  facet normal 0 1 -0
    outer loop
      vertex 3.99999 2.4 0
      vertex 1.79999 2.4 40
      vertex 3.99999 2.4 40
    endloop
  endfacet
  facet normal 0 1 0
    outer loop
      vertex 1.79999 2.4 40
      vertex 3.99999 2.4 0
      vertex 1.79999 2.4 0
    endloop
  endfacet
  facet normal -1 0 0
    outer loop
      vertex 3.99999 2.4 0
      vertex 3.99999 13.6 40
      vertex 3.99999 13.6 0
    endloop
  endfacet
  facet normal -1 -0 0
    outer loop
      vertex 3.99999 13.6 40
      vertex 3.99999 2.4 0
      vertex 3.99999 2.4 40
    endloop
  endfacet
  facet normal -1 0 0
    outer loop
      vertex 0 0 0
      vertex 0 4.4 40
      vertex 0 4.4 0
    endloop
  endfacet
  facet normal -1 -0 0
    outer loop
      vertex 0 4.4 40
      vertex 0 0 0
      vertex 0 0 40
    endloop
  endfacet
  facet normal -1 0 0
    outer loop
      vertex 0 107.4 0
      vertex 0 112 40
      vertex 0 112 0
    endloop
  endfacet
  facet normal -1 -0 0
    outer loop
      vertex 0 112 40
      vertex 0 107.4 0
      vertex 0 107.4 40
    endloop
  endfacet
  facet normal -1 0 0
    outer loop
      vertex 0 11.6 0
      vertex 0 16.6 40
      vertex 0 16.6 0
    endloop
  endfacet
  facet normal -1 -0 0
    outer loop
      vertex 0 16.6 40
      vertex 0 11.6 0
      vertex 0 11.6 40
    endloop
  endfacet
  facet normal -1 0 0
    outer loop
      vertex 0 23.4 0
      vertex 0 32.4 40
      vertex 0 32.4 0
    endloop
  endfacet
  facet normal -1 -0 0
    outer loop
      vertex 0 32.4 40
      vertex 0 23.4 0
      vertex 0 23.4 40
    endloop
  endfacet
  facet normal -1 0 0
    outer loop
      vertex 0 39.6 0
      vertex 0 44.6 40
      vertex 0 44.6 0
    endloop
  endfacet
  facet normal -1 -0 0
    outer loop
      vertex 0 44.6 40
      vertex 0 39.6 0
      vertex 0 39.6 40
    endloop
  endfacet
  facet normal -1 0 0
    outer loop
      vertex 0 51.4 0
      vertex 0 60.4 40
      vertex 0 60.4 0
    endloop
  endfacet
  facet normal -1 -0 0
    outer loop
      vertex 0 60.4 40
      vertex 0 51.4 0
      vertex 0 51.4 40
    endloop
  endfacet
  facet normal -1 0 0
    outer loop
      vertex 0 67.6 0
      vertex 0 72.6 40
      vertex 0 72.6 0
    endloop
  endfacet
  facet normal -1 -0 0
    outer loop
      vertex 0 72.6 40
      vertex 0 67.6 0
      vertex 0 67.6 40
    endloop
  endfacet
  facet normal -1 0 0
    outer loop
      vertex 0 79.4 0
      vertex 0 88.4 40
      vertex 0 88.4 0
    endloop
  endfacet
  facet normal -1 -0 0
    outer loop
      vertex 0 88.4 40
      vertex 0 79.4 0
      vertex 0 79.4 40
    endloop
  endfacet
  facet normal -1 0 0
    outer loop
      vertex 0 95.6 0
      vertex 0 100.6 40
      vertex 0 100.6 0
    endloop
  endfacet
  facet normal -1 -0 0
    outer loop
      vertex 0 100.6 40
      vertex 0 95.6 0
      vertex 0 95.6 40
    endloop
  endfacet
  facet normal 1 -0 0
    outer loop
      vertex 28 0 40
      vertex 28 4.6 0
      vertex 28 4.6 40
    endloop
  endfacet
  facet normal 1 0 0
    outer loop
      vertex 28 4.6 0
      vertex 28 0 40
      vertex 28 0 0
    endloop
  endfacet
  facet normal 1 -0 0
    outer loop
      vertex 28 107.6 40
      vertex 28 112 0
      vertex 28 112 40
    endloop
  endfacet
  facet normal 1 0 0
    outer loop
      vertex 28 112 0
      vertex 28 107.6 40
      vertex 28 107.6 0
    endloop
  endfacet
  facet normal 1 -0 0
    outer loop
      vertex 28 11.4 40
      vertex 28 16.4 0
      vertex 28 16.4 40
    endloop
  endfacet
  facet normal 1 0 0
    outer loop
      vertex 28 16.4 0
      vertex 28 11.4 40
      vertex 28 11.4 0
    endloop
  endfacet
  facet normal 1 -0 0
    outer loop
      vertex 28 23.6 40
      vertex 28 32.6 0
      vertex 28 32.6 40
    endloop
  endfacet
  facet normal 1 0 0
    outer loop
      vertex 28 32.6 0
      vertex 28 23.6 40
      vertex 28 23.6 0
    endloop
  endfacet
  facet normal 1 -0 0
    outer loop
      vertex 28 39.4 40
      vertex 28 44.4 0
      vertex 28 44.4 40
    endloop
  endfacet
  facet normal 1 0 0
    outer loop
      vertex 28 44.4 0
      vertex 28 39.4 40
      vertex 28 39.4 0
    endloop
  endfacet
  facet normal 1 -0 0
    outer loop
      vertex 28 51.6 40
      vertex 28 60.6 0
      vertex 28 60.6 40
    endloop
  endfacet
  facet normal 1 0 0
    outer loop
      vertex 28 60.6 0
      vertex 28 51.6 40
      vertex 28 51.6 0
    endloop
  endfacet
  facet normal 1 -0 0
    outer loop
      vertex 28 67.4 40
      vertex 28 72.4 0
      vertex 28 72.4 40
    endloop
  endfacet
  facet normal 1 0 0
    outer loop
      vertex 28 72.4 0
      vertex 28 67.4 40
      vertex 28 67.4 0
    endloop
  endfacet
  facet normal 1 -0 0
    outer loop
      vertex 28 79.6 40
      vertex 28 88.6 0
      vertex 28 88.6 40
    endloop
  endfacet
  facet normal 1 0 0
    outer loop
      vertex 28 88.6 0
      vertex 28 79.6 40
      vertex 28 79.6 0
    endloop
  endfacet
  facet normal 1 -0 0
    outer loop
      vertex 28 95.4 40
      vertex 28 100.4 0
      vertex 28 100.4 40
    endloop
  endfacet
  facet normal 1 0 0
    outer loop
      vertex 28 100.4 0
      vertex 28 95.4 40
      vertex 28 95.4 0
    endloop
  endfacet
  facet normal 0 -1 0
    outer loop
      vertex 0 0 0
      vertex 28 0 40
      vertex 0 0 40
    endloop
  endfacet
  facet normal 0 -1 -0
    outer loop
      vertex 28 0 40
      vertex 0 0 0
      vertex 28 0 0
    endloop
  endfacet
  facet normal 0 1 -0
    outer loop
      vertex 28 112 0
      vertex 23.4 112 40
      vertex 28 112 40
    endloop
  endfacet
  facet normal 0 1 0
    outer loop
      vertex 23.4 112 40
      vertex 28 112 0
      vertex 23.4 112 0
    endloop
  endfacet
  facet normal 0 1 -0
    outer loop
      vertex 4.4 112 0
      vertex 0 112 40
      vertex 4.4 112 40
    endloop
  endfacet
  facet normal 0 1 0
    outer loop
      vertex 0 112 40
      vertex 4.4 112 0
      vertex 0 112 0
    endloop
  endfacet
  facet normal 0 1 -0
    outer loop
      vertex 16.6 112 0
      vertex 11.6 112 40
      vertex 16.6 112 40
    endloop
  endfacet
  facet normal 0 1 0
    outer loop
      vertex 11.6 112 40
      vertex 16.6 112 0
      vertex 11.6 112 0
    endloop
  endfacet
  facet normal 0 -1 0
    outer loop
      vertex 30.2 2.6 0
      vertex 32 2.6 40
      vertex 30.2 2.6 40
    endloop
  endfacet
  facet normal 0 -1 -0
    outer loop
      vertex 32 2.6 40
      vertex 30.2 2.6 0
      vertex 32 2.6 0
    endloop
  endfacet
  facet normal 0 1 -0
    outer loop
      vertex 32 13.4 0
      vertex 30.2 13.4 40
      vertex 32 13.4 40
    endloop
  endfacet
  facet normal 0 1 0
    outer loop
      vertex 30.2 13.4 40
      vertex 32 13.4 0
      vertex 30.2 13.4 0
    endloop
  endfacet
  facet normal 1 -0 0
    outer loop
      vertex 32 2.6 40
      vertex 32 13.4 0
      vertex 32 13.4 40
    endloop
  endfacet
  facet normal 1 0 0
    outer loop
      vertex 32 13.4 0
      vertex 32 2.6 40
      vertex 32 2.6 0
    endloop
  endfacet
  facet normal -1 0 0
    outer loop
      vertex 30.2 2.6 0
      vertex 30.2 4.6 40
      vertex 30.2 4.6 0
    endloop
  endfacet
  facet normal -1 -0 0
    outer loop
      vertex 30.2 4.6 40
      vertex 30.2 2.6 0
      vertex 30.2 2.6 40
    endloop
  endfacet
  facet normal -1 0 0
    outer loop
      vertex 30.2 11.4 0
      vertex 30.2 13.4 40
      vertex 30.2 13.4 0
    endloop
  endfacet
  facet normal -1 -0 0
    outer loop
      vertex 30.2 13.4 40
      vertex 30.2 11.4 0
      vertex 30.2 11.4 40
    endloop
  endfacet
  facet normal 0 -1 0
    outer loop
      vertex 28 4.6 0
      vertex 30.2 4.6 40
      vertex 28 4.6 40
    endloop
  endfacet
  facet normal 0 -1 -0
    outer loop
      vertex 30.2 4.6 40
      vertex 28 4.6 0
      vertex 30.2 4.6 0
    endloop
  endfacet
  facet normal 0 1 -0
    outer loop
      vertex 30.2 11.4 0
      vertex 28 11.4 40
      vertex 30.2 11.4 40
    endloop
  endfacet
  facet normal 0 1 0
    outer loop
      vertex 28 11.4 40
      vertex 30.2 11.4 0
      vertex 28 11.4 0
    endloop
  endfacet
  facet normal 0 -1 0
    outer loop
      vertex 30.2 30.6 0
      vertex 32 30.6 40
      vertex 30.2 30.6 40
    endloop
  endfacet
  facet normal 0 -1 -0
    outer loop
      vertex 32 30.6 40
      vertex 30.2 30.6 0
      vertex 32 30.6 0
    endloop
  endfacet
  facet normal 0 1 -0
    outer loop
      vertex 32 41.4 0
      vertex 30.2 41.4 40
      vertex 32 41.4 40
    endloop
  endfacet
  facet normal 0 1 0
    outer loop
      vertex 30.2 41.4 40
      vertex 32 41.4 0
      vertex 30.2 41.4 0
    endloop
  endfacet
  facet normal 1 -0 0
    outer loop
      vertex 32 30.6 40
      vertex 32 41.4 0
      vertex 32 41.4 40
    endloop
  endfacet
  facet normal 1 0 0
    outer loop
      vertex 32 41.4 0
      vertex 32 30.6 40
      vertex 32 30.6 0
    endloop
  endfacet
  facet normal -1 0 0
    outer loop
      vertex 30.2 30.6 0
      vertex 30.2 32.6 40
      vertex 30.2 32.6 0
    endloop
  endfacet
  facet normal -1 -0 0
    outer loop
      vertex 30.2 32.6 40
      vertex 30.2 30.6 0
      vertex 30.2 30.6 40
    endloop
  endfacet
  facet normal -1 0 0
    outer loop
      vertex 30.2 39.4 0
      vertex 30.2 41.4 40
      vertex 30.2 41.4 0
    endloop
  endfacet
  facet normal -1 -0 0
    outer loop
      vertex 30.2 41.4 40
      vertex 30.2 39.4 0
      vertex 30.2 39.4 40
    endloop
  endfacet
  facet normal 0 -1 0
    outer loop
      vertex 28 32.6 0
      vertex 30.2 32.6 40
      vertex 28 32.6 40
    endloop
  endfacet
  facet normal 0 -1 -0
    outer loop
      vertex 30.2 32.6 40
      vertex 28 32.6 0
      vertex 30.2 32.6 0
    endloop
  endfacet
  facet normal 0 1 -0
    outer loop
      vertex 30.2 39.4 0
      vertex 28 39.4 40
      vertex 30.2 39.4 40
    endloop
  endfacet
  facet normal 0 1 0
    outer loop
      vertex 28 39.4 40
      vertex 30.2 39.4 0
      vertex 28 39.4 0
    endloop
  endfacet
  facet normal 0 -1 0
    outer loop
      vertex 30.2 58.6 0
      vertex 32 58.6 40
      vertex 30.2 58.6 40
    endloop
  endfacet
  facet normal 0 -1 -0
    outer loop
      vertex 32 58.6 40
      vertex 30.2 58.6 0
      vertex 32 58.6 0
    endloop
  endfacet
  facet normal 0 1 -0
    outer loop
      vertex 32 69.4 0
      vertex 30.2 69.4 40
      vertex 32 69.4 40
    endloop
  endfacet
  facet normal 0 1 0
    outer loop
      vertex 30.2 69.4 40
      vertex 32 69.4 0
      vertex 30.2 69.4 0
    endloop
  endfacet
  facet normal 1 -0 0
    outer loop
      vertex 32 58.6 40
      vertex 32 69.4 0
      vertex 32 69.4 40
    endloop
  endfacet
  facet normal 1 0 0
    outer loop
      vertex 32 69.4 0
      vertex 32 58.6 40
      vertex 32 58.6 0
    endloop
  endfacet
  facet normal -1 0 0
    outer loop
      vertex 30.2 58.6 0
      vertex 30.2 60.6 40
      vertex 30.2 60.6 0
    endloop
  endfacet
  facet normal -1 -0 0
    outer loop
      vertex 30.2 60.6 40
      vertex 30.2 58.6 0
      vertex 30.2 58.6 40
    endloop
  endfacet
  facet normal -1 0 0
    outer loop
      vertex 30.2 67.4 0
      vertex 30.2 69.4 40
      vertex 30.2 69.4 0
    endloop
  endfacet
  facet normal -1 -0 0
    outer loop
      vertex 30.2 69.4 40
      vertex 30.2 67.4 0
      vertex 30.2 67.4 40
    endloop
  endfacet
  facet normal 0 -1 0
    outer loop
      vertex 28 60.6 0
      vertex 30.2 60.6 40
      vertex 28 60.6 40
    endloop
  endfacet
  facet normal 0 -1 -0
    outer loop
      vertex 30.2 60.6 40
      vertex 28 60.6 0
      vertex 30.2 60.6 0
    endloop
  endfacet
  facet normal 0 1 -0
    outer loop
      vertex 30.2 67.4 0
      vertex 28 67.4 40
      vertex 30.2 67.4 40
    endloop
  endfacet
  facet normal 0 1 0
    outer loop
      vertex 28 67.4 40
      vertex 30.2 67.4 0
      vertex 28 67.4 0
    endloop
  endfacet
  facet normal 0 -1 0
    outer loop
      vertex 30.2 86.6 0
      vertex 32 86.6 40
      vertex 30.2 86.6 40
    endloop
  endfacet
  facet normal 0 -1 -0
    outer loop
      vertex 32 86.6 40
      vertex 30.2 86.6 0
      vertex 32 86.6 0
    endloop
  endfacet
  facet normal 0 1 -0
    outer loop
      vertex 32 97.4 0
      vertex 30.2 97.4 40
      vertex 32 97.4 40
    endloop
  endfacet
  facet normal 0 1 0
    outer loop
      vertex 30.2 97.4 40
      vertex 32 97.4 0
      vertex 30.2 97.4 0
    endloop
  endfacet
  facet normal 1 -0 0
    outer loop
      vertex 32 86.6 40
      vertex 32 97.4 0
      vertex 32 97.4 40
    endloop
  endfacet
  facet normal 1 0 0
    outer loop
      vertex 32 97.4 0
      vertex 32 86.6 40
      vertex 32 86.6 0
    endloop
  endfacet
  facet normal -1 0 0
    outer loop
      vertex 30.2 86.6 0
      vertex 30.2 88.6 40
      vertex 30.2 88.6 0
    endloop
  endfacet
  facet normal -1 -0 0
    outer loop
      vertex 30.2 88.6 40
      vertex 30.2 86.6 0
      vertex 30.2 86.6 40
    endloop
  endfacet
  facet normal -1 0 0
    outer loop
      vertex 30.2 95.4 0
      vertex 30.2 97.4 40
      vertex 30.2 97.4 0
    endloop
  endfacet
  facet normal -1 -0 0
    outer loop
      vertex 30.2 97.4 40
      vertex 30.2 95.4 0
      vertex 30.2 95.4 40
    endloop
  endfacet
  facet normal 0 -1 0
    outer loop
      vertex 28 88.6 0
      vertex 30.2 88.6 40
      vertex 28 88.6 40
    endloop
  endfacet
  facet normal 0 -1 -0
    outer loop
      vertex 30.2 88.6 40
      vertex 28 88.6 0
      vertex 30.2 88.6 0
    endloop
  endfacet
  facet normal 0 1 -0
    outer loop
      vertex 30.2 95.4 0
      vertex 28 95.4 40
      vertex 30.2 95.4 40
    endloop
  endfacet
  facet normal 0 1 0
    outer loop
      vertex 28 95.4 40
      vertex 30.2 95.4 0
      vertex 28 95.4 0
    endloop
  endfacet
  facet normal 1 -0 0
    outer loop
      vertex 25.4 114.2 40
      vertex 25.4 116 0
      vertex 25.4 116 40
    endloop
  endfacet
  facet normal 1 0 0
    outer loop
      vertex 25.4 116 0
      vertex 25.4 114.2 40
      vertex 25.4 114.2 0
    endloop
  endfacet
  facet normal -1 0 0
    outer loop
      vertex 14.6 114.2 0
      vertex 14.6 116 40
      vertex 14.6 116 0
    endloop
  endfacet
  facet normal -1 -0 0
    outer loop
      vertex 14.6 116 40
      vertex 14.6 114.2 0
      vertex 14.6 114.2 40
    endloop
  endfacet
  facet normal 0 1 -0
    outer loop
      vertex 25.4 116 0
      vertex 14.6 116 40
      vertex 25.4 116 40
    endloop
  endfacet
  facet normal 0 1 0
    outer loop
      vertex 14.6 116 40
      vertex 25.4 116 0
      vertex 14.6 116 0
    endloop
  endfacet
  facet normal 0 -1 0
    outer loop
      vertex 23.4 114.2 0
      vertex 25.4 114.2 40
      vertex 23.4 114.2 40
    endloop
  endfacet
  facet normal 0 -1 -0
    outer loop
      vertex 25.4 114.2 40
      vertex 23.4 114.2 0
      vertex 25.4 114.2 0
    endloop
  endfacet
  facet normal 0 -1 0
    outer loop
      vertex 14.6 114.2 0
      vertex 16.6 114.2 40
      vertex 14.6 114.2 40
    endloop
  endfacet
  facet normal 0 -1 -0
    outer loop
      vertex 16.6 114.2 40
      vertex 14.6 114.2 0
      vertex 16.6 114.2 0
    endloop
  endfacet
  facet normal 1 -0 0
    outer loop
      vertex 23.4 112 40
      vertex 23.4 114.2 0
      vertex 23.4 114.2 40
    endloop
  endfacet
  facet normal 1 0 0
    outer loop
      vertex 23.4 114.2 0
      vertex 23.4 112 40
      vertex 23.4 112 0
    endloop
  endfacet
  facet normal -1 0 0
    outer loop
      vertex 16.6 112 0
      vertex 16.6 114.2 40
      vertex 16.6 114.2 0
    endloop
  endfacet
  facet normal -1 -0 0
    outer loop
      vertex 16.6 114.2 40
      vertex 16.6 112 0
      vertex 16.6 112 40
    endloop
  endfacet
  facet normal 0 1 -0
    outer loop
      vertex -2.19999 109.4 0
      vertex -3.99999 109.4 40
      vertex -2.19999 109.4 40
    endloop
  endfacet
  facet normal 0 1 0
    outer loop
      vertex -3.99999 109.4 40
      vertex -2.19999 109.4 0
      vertex -3.99999 109.4 0
    endloop
  endfacet
  facet normal 0 -1 0
    outer loop
      vertex -3.99999 98.6 0
      vertex -2.19999 98.6 40
      vertex -3.99999 98.6 40
    endloop
  endfacet
  facet normal 0 -1 -0
    outer loop
      vertex -2.19999 98.6 40
      vertex -3.99999 98.6 0
      vertex -2.19999 98.6 0
    endloop
  endfacet
  facet normal -1 0 0
    outer loop
      vertex -3.99999 98.6 0
      vertex -3.99999 109.4 40
      vertex -3.99999 109.4 0
    endloop
  endfacet
  facet normal -1 -0 0
    outer loop
      vertex -3.99999 109.4 40
      vertex -3.99999 98.6 0
      vertex -3.99999 98.6 40
    endloop
  endfacet
  facet normal 1 -0 0
    outer loop
      vertex -2.19999 107.4 40
      vertex -2.19999 109.4 0
      vertex -2.19999 109.4 40
    endloop
  endfacet
  facet normal 1 0 0
    outer loop
      vertex -2.19999 109.4 0
      vertex -2.19999 107.4 40
      vertex -2.19999 107.4 0
    endloop
  endfacet
  facet normal 1 -0 0
    outer loop
      vertex -2.19999 98.6 40
      vertex -2.19999 100.6 0
      vertex -2.19999 100.6 40
    endloop
  endfacet
  facet normal 1 0 0
    outer loop
      vertex -2.19999 100.6 0
      vertex -2.19999 98.6 40
      vertex -2.19999 98.6 0
    endloop
  endfacet
  facet normal 0 1 -0
    outer loop
      vertex 0 107.4 0
      vertex -2.19999 107.4 40
      vertex 0 107.4 40
    endloop
  endfacet
  facet normal 0 1 0
    outer loop
      vertex -2.19999 107.4 40
      vertex 0 107.4 0
      vertex -2.19999 107.4 0
    endloop
  endfacet
  facet normal 0 -1 0
    outer loop
      vertex -2.19999 100.6 0
      vertex 0 100.6 40
      vertex -2.19999 100.6 40
    endloop
  endfacet
  facet normal 0 -1 -0
    outer loop
      vertex 0 100.6 40
      vertex -2.19999 100.6 0
      vertex 0 100.6 0
    endloop
  endfacet
  facet normal 0 1 -0
    outer loop
      vertex -2.19999 81.4 0
      vertex -3.99999 81.4 40
      vertex -2.19999 81.4 40
    endloop
  endfacet
  facet normal 0 1 0
    outer loop
      vertex -3.99999 81.4 40
      vertex -2.19999 81.4 0
      vertex -3.99999 81.4 0
    endloop
  endfacet
  facet normal 0 -1 0
    outer loop
      vertex -3.99999 70.6 0
      vertex -2.19999 70.6 40
      vertex -3.99999 70.6 40
    endloop
  endfacet
  facet normal 0 -1 -0
    outer loop
      vertex -2.19999 70.6 40
      vertex -3.99999 70.6 0
      vertex -2.19999 70.6 0
    endloop
  endfacet
  facet normal -1 0 0
    outer loop
      vertex -3.99999 70.6 0
      vertex -3.99999 81.4 40
      vertex -3.99999 81.4 0
    endloop
  endfacet
  facet normal -1 -0 0
    outer loop
      vertex -3.99999 81.4 40
      vertex -3.99999 70.6 0
      vertex -3.99999 70.6 40
    endloop
  endfacet
  facet normal 1 -0 0
    outer loop
      vertex -2.19999 79.4 40
      vertex -2.19999 81.4 0
      vertex -2.19999 81.4 40
    endloop
  endfacet
  facet normal 1 0 0
    outer loop
      vertex -2.19999 81.4 0
      vertex -2.19999 79.4 40
      vertex -2.19999 79.4 0
    endloop
  endfacet
  facet normal 1 -0 0
    outer loop
      vertex -2.19999 70.6 40
      vertex -2.19999 72.6 0
      vertex -2.19999 72.6 40
    endloop
  endfacet
  facet normal 1 0 0
    outer loop
      vertex -2.19999 72.6 0
      vertex -2.19999 70.6 40
      vertex -2.19999 70.6 0
    endloop
  endfacet
  facet normal 0 1 -0
    outer loop
      vertex 0 79.4 0
      vertex -2.19999 79.4 40
      vertex 0 79.4 40
    endloop
  endfacet
  facet normal 0 1 0
    outer loop
      vertex -2.19999 79.4 40
      vertex 0 79.4 0
      vertex -2.19999 79.4 0
    endloop
  endfacet
  facet normal 0 -1 0
    outer loop
      vertex -2.19999 72.6 0
      vertex 0 72.6 40
      vertex -2.19999 72.6 40
    endloop
  endfacet
  facet normal 0 -1 -0
    outer loop
      vertex 0 72.6 40
      vertex -2.19999 72.6 0
      vertex 0 72.6 0
    endloop
  endfacet
  facet normal 0 1 -0
    outer loop
      vertex -2.19999 53.4 0
      vertex -3.99999 53.4 40
      vertex -2.19999 53.4 40
    endloop
  endfacet
  facet normal 0 1 0
    outer loop
      vertex -3.99999 53.4 40
      vertex -2.19999 53.4 0
      vertex -3.99999 53.4 0
    endloop
  endfacet
  facet normal 0 -1 0
    outer loop
      vertex -3.99999 42.6 0
      vertex -2.19999 42.6 40
      vertex -3.99999 42.6 40
    endloop
  endfacet
  facet normal 0 -1 -0
    outer loop
      vertex -2.19999 42.6 40
      vertex -3.99999 42.6 0
      vertex -2.19999 42.6 0
    endloop
  endfacet
  facet normal -1 0 0
    outer loop
      vertex -3.99999 42.6 0
      vertex -3.99999 53.4 40
      vertex -3.99999 53.4 0
    endloop
  endfacet
  facet normal -1 -0 0
    outer loop
      vertex -3.99999 53.4 40
      vertex -3.99999 42.6 0
      vertex -3.99999 42.6 40
    endloop
  endfacet
  facet normal 1 -0 0
    outer loop
      vertex -2.19999 51.4 40
      vertex -2.19999 53.4 0
      vertex -2.19999 53.4 40
    endloop
  endfacet
  facet normal 1 0 0
    outer loop
      vertex -2.19999 53.4 0
      vertex -2.19999 51.4 40
      vertex -2.19999 51.4 0
    endloop
  endfacet
  facet normal 1 -0 0
    outer loop
      vertex -2.19999 42.6 40
      vertex -2.19999 44.6 0
      vertex -2.19999 44.6 40
    endloop
  endfacet
  facet normal 1 0 0
    outer loop
      vertex -2.19999 44.6 0
      vertex -2.19999 42.6 40
      vertex -2.19999 42.6 0
    endloop
  endfacet
  facet normal 0 1 -0
    outer loop
      vertex 0 51.4 0
      vertex -2.19999 51.4 40
      vertex 0 51.4 40
    endloop
  endfacet
  facet normal 0 1 0
    outer loop
      vertex -2.19999 51.4 40
      vertex 0 51.4 0
      vertex -2.19999 51.4 0
    endloop
  endfacet
  facet normal 0 -1 0
    outer loop
      vertex -2.19999 44.6 0
      vertex 0 44.6 40
      vertex -2.19999 44.6 40
    endloop
  endfacet
  facet normal 0 -1 -0
    outer loop
      vertex 0 44.6 40
      vertex -2.19999 44.6 0
      vertex 0 44.6 0
    endloop
  endfacet
  facet normal 0 1 -0
    outer loop
      vertex -2.19999 25.4 0
      vertex -3.99999 25.4 40
      vertex -2.19999 25.4 40
    endloop
  endfacet
  facet normal 0 1 0
    outer loop
      vertex -3.99999 25.4 40
      vertex -2.19999 25.4 0
      vertex -3.99999 25.4 0
    endloop
  endfacet
  facet normal 0 -1 0
    outer loop
      vertex -3.99999 14.6 0
      vertex -2.19999 14.6 40
      vertex -3.99999 14.6 40
    endloop
  endfacet
  facet normal 0 -1 -0
    outer loop
      vertex -2.19999 14.6 40
      vertex -3.99999 14.6 0
      vertex -2.19999 14.6 0
    endloop
  endfacet
  facet normal -1 0 0
    outer loop
      vertex -3.99999 14.6 0
      vertex -3.99999 25.4 40
      vertex -3.99999 25.4 0
    endloop
  endfacet
  facet normal -1 -0 0
    outer loop
      vertex -3.99999 25.4 40
      vertex -3.99999 14.6 0
      vertex -3.99999 14.6 40
    endloop
  endfacet
  facet normal 1 -0 0
    outer loop
      vertex -2.19999 23.4 40
      vertex -2.19999 25.4 0
      vertex -2.19999 25.4 40
    endloop
  endfacet
  facet normal 1 0 0
    outer loop
      vertex -2.19999 25.4 0
      vertex -2.19999 23.4 40
      vertex -2.19999 23.4 0
    endloop
  endfacet
  facet normal 1 -0 0
    outer loop
      vertex -2.19999 14.6 40
      vertex -2.19999 16.6 0
      vertex -2.19999 16.6 40
    endloop
  endfacet
  facet normal 1 0 0
    outer loop
      vertex -2.19999 16.6 0
      vertex -2.19999 14.6 40
      vertex -2.19999 14.6 0
    endloop
  endfacet
  facet normal 0 1 -0
    outer loop
      vertex 0 23.4 0
      vertex -2.19999 23.4 40
      vertex 0 23.4 40
    endloop
  endfacet
  facet normal 0 1 0
    outer loop
      vertex -2.19999 23.4 40
      vertex 0 23.4 0
      vertex -2.19999 23.4 0
    endloop
  endfacet
  facet normal 0 -1 0
    outer loop
      vertex -2.19999 16.6 0
      vertex 0 16.6 40
      vertex -2.19999 16.6 40
    endloop
  endfacet
  facet normal 0 -1 -0
    outer loop
      vertex 0 16.6 40
      vertex -2.19999 16.6 0
      vertex 0 16.6 0
    endloop
  endfacet
endsolid OpenSCAD_Model
