solid OpenSCAD_Model
  facet normal 0 1 -0
    outer loop
      vertex 56 16.4 0
      vertex 54.2 16.4 20
      vertex 56 16.4 20
    endloop
  endfacet
  facet normal 0 1 0
    outer loop
      vertex 54.2 16.4 20
      vertex 56 16.4 0
      vertex 54.2 16.4 0
    endloop
  endfacet
  facet normal 0 0 1
    outer loop
      vertex 1.79999 4.4 20
      vertex 0 4.4 20
      vertex 1.79999 2.4 20
    endloop
  endfacet
  facet normal -0 0 1
    outer loop
      vertex 11.6 56 20
      vertex 13.6 54.2 20
      vertex 16.6 56 20
    endloop
  endfacet
  facet normal 0 0 1
    outer loop
      vertex 13.6 54.2 20
      vertex 11.6 56 20
      vertex 11.6 54.2 20
    endloop
  endfacet
  facet normal 0 0 1
    outer loop
      vertex 25.4 60 20
      vertex 23.4 58.2 20
      vertex 25.4 58.2 20
    endloop
  endfacet
  facet normal 0 0 1
    outer loop
      vertex 23.4 58.2 20
      vertex 16.6 58.2 20
      vertex 23.4 56 20
    endloop
  endfacet
  facet normal 0 0 1
    outer loop
      vertex 25.4 60 20
      vertex 16.6 58.2 20
      vertex 23.4 58.2 20
    endloop
  endfacet
  facet normal -0 0 1
    outer loop
      vertex 14.6 60 20
      vertex 16.6 58.2 20
      vertex 25.4 60 20
    endloop
  endfacet
  facet normal 0 0 1
    outer loop
      vertex 16.6 58.2 20
      vertex 14.6 60 20
      vertex 14.6 58.2 20
    endloop
  endfacet
  facet normal 0 0 1
    outer loop
      vertex 32.4 56 20
      vertex 30.4 54.2 20
      vertex 32.4 54.2 20
    endloop
  endfacet
  facet normal 0 0 1
    outer loop
      vertex 30.4 54.2 20
      vertex 23.4 56 20
      vertex 30.4 52 20
    endloop
  endfacet
  facet normal -0 0 1
    outer loop
      vertex 23.4 56 20
      vertex 30.4 54.2 20
      vertex 32.4 56 20
    endloop
  endfacet
  facet normal -0 0 1
    outer loop
      vertex 39.6 56 20
      vertex 41.6 54.2 20
      vertex 44.6 56 20
    endloop
  endfacet
  facet normal 0 0 1
    outer loop
      vertex 41.6 54.2 20
      vertex 39.6 56 20
      vertex 39.6 54.2 20
    endloop
  endfacet
  facet normal 0 0 1
    outer loop
      vertex 53.4 60 20
      vertex 51.4 58.2 20
      vertex 53.4 58.2 20
    endloop
  endfacet
  facet normal 0 0 1
    outer loop
      vertex 51.4 58.2 20
      vertex 44.6 58.2 20
      vertex 51.4 56 20
    endloop
  endfacet
  facet normal 0 0 1
    outer loop
      vertex 53.4 60 20
      vertex 44.6 58.2 20
      vertex 51.4 58.2 20
    endloop
  endfacet
  facet normal -0 0 1
    outer loop
      vertex 42.6 60 20
      vertex 44.6 58.2 20
      vertex 53.4 60 20
    endloop
  endfacet
  facet normal 0 0 1
    outer loop
      vertex 44.6 58.2 20
      vertex 42.6 60 20
      vertex 42.6 58.2 20
    endloop
  endfacet
  facet normal 0 0 1
    outer loop
      vertex 56 56 20
      vertex 54.2 53.6 20
      vertex 56 51.6 20
    endloop
  endfacet
  facet normal -0 0 1
    outer loop
      vertex 51.4 56 20
      vertex 54.2 53.6 20
      vertex 56 56 20
    endloop
  endfacet
  facet normal -0 0 1
    outer loop
      vertex 41.6 52 20
      vertex 52 42.4 20
      vertex 52 53.6 20
    endloop
  endfacet
  facet normal -0 0 1
    outer loop
      vertex 30.4 52 20
      vertex 52 42.4 20
      vertex 41.6 52 20
    endloop
  endfacet
  facet normal -0 0 1
    outer loop
      vertex 44.6 56 20
      vertex 52 53.6 20
      vertex 51.4 56 20
    endloop
  endfacet
  facet normal 0 0 1
    outer loop
      vertex 54.2 53.6 20
      vertex 51.4 56 20
      vertex 52 53.6 20
    endloop
  endfacet
  facet normal 0 0 1
    outer loop
      vertex 56 51.6 20
      vertex 54.2 53.6 20
      vertex 54.2 51.6 20
    endloop
  endfacet
  facet normal 0 0 1
    outer loop
      vertex 52 25.6 20
      vertex 56 32.6 20
      vertex 52 42.4 20
    endloop
  endfacet
  facet normal 0 0 1
    outer loop
      vertex 56 32.6 20
      vertex 52 25.6 20
      vertex 54.2 25.6 20
    endloop
  endfacet
  facet normal -0 0 1
    outer loop
      vertex 54.2 42.4 20
      vertex 56 39.4 20
      vertex 56 44.4 20
    endloop
  endfacet
  facet normal -0 0 1
    outer loop
      vertex 52 42.4 20
      vertex 56 39.4 20
      vertex 54.2 42.4 20
    endloop
  endfacet
  facet normal 0 0 1
    outer loop
      vertex 54.2 42.4 20
      vertex 56 44.4 20
      vertex 54.2 44.4 20
    endloop
  endfacet
  facet normal 0 0 1
    outer loop
      vertex 56 39.4 20
      vertex 52 42.4 20
      vertex 56 32.6 20
    endloop
  endfacet
  facet normal 0 0 1
    outer loop
      vertex 56 32.6 20
      vertex 54.2 25.6 20
      vertex 56 23.6 20
    endloop
  endfacet
  facet normal 0 0 1
    outer loop
      vertex 56 23.6 20
      vertex 54.2 25.6 20
      vertex 54.2 23.6 20
    endloop
  endfacet
  facet normal -0 0 1
    outer loop
      vertex 56 39.4 20
      vertex 58.2 32.6 20
      vertex 58.2 39.4 20
    endloop
  endfacet
  facet normal 0 0 1
    outer loop
      vertex 58.2 32.6 20
      vertex 56 39.4 20
      vertex 56 32.6 20
    endloop
  endfacet
  facet normal 0 0 1
    outer loop
      vertex 58.2 39.4 20
      vertex 60 41.4 20
      vertex 58.2 41.4 20
    endloop
  endfacet
  facet normal 0 0 1
    outer loop
      vertex 60 41.4 20
      vertex 58.2 39.4 20
      vertex 60 30.6 20
    endloop
  endfacet
  facet normal -0 0 1
    outer loop
      vertex 58.2 32.6 20
      vertex 60 30.6 20
      vertex 58.2 39.4 20
    endloop
  endfacet
  facet normal 0 0 1
    outer loop
      vertex 60 30.6 20
      vertex 58.2 32.6 20
      vertex 58.2 30.6 20
    endloop
  endfacet
  facet normal -0 0 1
    outer loop
      vertex 54.2 14.4 20
      vertex 56 11.4 20
      vertex 56 16.4 20
    endloop
  endfacet
  facet normal -0 0 1
    outer loop
      vertex 52 14.4 20
      vertex 56 11.4 20
      vertex 54.2 14.4 20
    endloop
  endfacet
  facet normal 0 0 1
    outer loop
      vertex 54.2 14.4 20
      vertex 56 16.4 20
      vertex 54.2 16.4 20
    endloop
  endfacet
  facet normal 0 0 1
    outer loop
      vertex 56 11.4 20
      vertex 52 14.4 20
      vertex 56 4.6 20
    endloop
  endfacet
  facet normal 0 0 1
    outer loop
      vertex 56 4.6 20
      vertex 52 14.4 20
      vertex 56 0 20
    endloop
  endfacet
  facet normal 0 0 1
    outer loop
      vertex 44.6 56 20
      vertex 51.4 56 20
      vertex 44.6 58.2 20
    endloop
  endfacet
  facet normal 0 0 1
    outer loop
      vertex 52 53.6 20
      vertex 44.6 56 20
      vertex 41.6 52 20
    endloop
  endfacet
  facet normal 0 0 1
    outer loop
      vertex 41.6 52 20
      vertex 44.6 56 20
      vertex 41.6 54.2 20
    endloop
  endfacet
  facet normal 0 0 1
    outer loop
      vertex 52 42.4 20
      vertex 30.4 52 20
      vertex 52 25.6 20
    endloop
  endfacet
  facet normal -0 0 1
    outer loop
      vertex 3.99999 30.4 20
      vertex 52 25.6 20
      vertex 30.4 52 20
    endloop
  endfacet
  facet normal 0 0 1
    outer loop
      vertex 3.99999 13.6 20
      vertex 52 25.6 20
      vertex 3.99999 30.4 20
    endloop
  endfacet
  facet normal 0 0 1
    outer loop
      vertex 13.6 52 20
      vertex 30.4 52 20
      vertex 23.4 56 20
    endloop
  endfacet
  facet normal 0 0 1
    outer loop
      vertex 16.6 56 20
      vertex 23.4 56 20
      vertex 16.6 58.2 20
    endloop
  endfacet
  facet normal 0 0 1
    outer loop
      vertex 13.6 52 20
      vertex 23.4 56 20
      vertex 16.6 56 20
    endloop
  endfacet
  facet normal 0 0 1
    outer loop
      vertex 13.6 52 20
      vertex 16.6 56 20
      vertex 13.6 54.2 20
    endloop
  endfacet
  facet normal 0 0 1
    outer loop
      vertex 30.4 52 20
      vertex 13.6 52 20
      vertex 3.99999 30.4 20
    endloop
  endfacet
  facet normal 0 0 1
    outer loop
      vertex 3.99999 30.4 20
      vertex 13.6 52 20
      vertex 3.99999 41.6 20
    endloop
  endfacet
  facet normal 0 0 1
    outer loop
      vertex 52 25.6 20
      vertex 3.99999 13.6 20
      vertex 52 14.4 20
    endloop
  endfacet
  facet normal 0 0 1
    outer loop
      vertex 3.99999 2.4 20
      vertex 52 14.4 20
      vertex 3.99999 13.6 20
    endloop
  endfacet
  facet normal 0 0 1
    outer loop
      vertex 52 14.4 20
      vertex 3.99999 2.4 20
      vertex 56 0 20
    endloop
  endfacet
  facet normal 0 0 1
    outer loop
      vertex 0 0 20
      vertex 3.99999 2.4 20
      vertex 1.79999 2.4 20
    endloop
  endfacet
  facet normal 0 0 1
    outer loop
      vertex 3.99999 2.4 20
      vertex 0 0 20
      vertex 56 0 20
    endloop
  endfacet
  facet normal 0 0 1
    outer loop
      vertex 0 0 20
      vertex 1.79999 2.4 20
      vertex 0 4.4 20
    endloop
  endfacet
  facet normal -0 0 1
    outer loop
      vertex 56 11.4 20
      vertex 58.2 4.6 20
      vertex 58.2 11.4 20
    endloop
  endfacet
  facet normal 0 0 1
    outer loop
      vertex 58.2 4.6 20
      vertex 56 11.4 20
      vertex 56 4.6 20
    endloop
  endfacet
  facet normal 0 0 1
    outer loop
      vertex 58.2 11.4 20
      vertex 60 13.4 20
      vertex 58.2 13.4 20
    endloop
  endfacet
  facet normal 0 0 1
    outer loop
      vertex 60 13.4 20
      vertex 58.2 11.4 20
      vertex 60 2.6 20
    endloop
  endfacet
  facet normal -0 0 1
    outer loop
      vertex 58.2 4.6 20
      vertex 60 2.6 20
      vertex 58.2 11.4 20
    endloop
  endfacet
  facet normal 0 0 1
    outer loop
      vertex 60 2.6 20
      vertex 58.2 4.6 20
      vertex 58.2 2.6 20
    endloop
  endfacet
  facet normal -0 0 1
    outer loop
      vertex 0 32.4 20
      vertex 1.79999 30.4 20
      vertex 1.79999 32.4 20
    endloop
  endfacet
  facet normal 0 0 1
    outer loop
      vertex 1.79999 30.4 20
      vertex 0 23.4 20
      vertex 1.79999 13.6 20
    endloop
  endfacet
  facet normal 0 0 1
    outer loop
      vertex 1.79999 30.4 20
      vertex 0 32.4 20
      vertex 0 23.4 20
    endloop
  endfacet
  facet normal -0 0 1
    outer loop
      vertex 0 16.6 20
      vertex 1.79999 13.6 20
      vertex 0 23.4 20
    endloop
  endfacet
  facet normal 0 0 1
    outer loop
      vertex 0 11.6 20
      vertex 1.79999 13.6 20
      vertex 0 16.6 20
    endloop
  endfacet
  facet normal 0 0 1
    outer loop
      vertex 1.79999 13.6 20
      vertex 0 11.6 20
      vertex 1.79999 11.6 20
    endloop
  endfacet
  facet normal 0 0 1
    outer loop
      vertex 4.4 56 20
      vertex 2.4 54.2 20
      vertex 4.4 54.2 20
    endloop
  endfacet
  facet normal 0 0 1
    outer loop
      vertex 0 51.4 20
      vertex 2.4 52 20
      vertex 2.4 54.2 20
    endloop
  endfacet
  facet normal -0 0 1
    outer loop
      vertex 0 56 20
      vertex 2.4 54.2 20
      vertex 4.4 56 20
    endloop
  endfacet
  facet normal 0 0 1
    outer loop
      vertex 0 51.4 20
      vertex 2.4 54.2 20
      vertex 0 56 20
    endloop
  endfacet
  facet normal 0 0 1
    outer loop
      vertex 2.4 52 20
      vertex 0 51.4 20
      vertex 0 44.6 20
    endloop
  endfacet
  facet normal 0 0 1
    outer loop
      vertex 2.4 52 20
      vertex 0 44.6 20
      vertex 1.79999 41.6 20
    endloop
  endfacet
  facet normal 0 0 1
    outer loop
      vertex 0 39.6 20
      vertex 1.79999 41.6 20
      vertex 0 44.6 20
    endloop
  endfacet
  facet normal 0 0 1
    outer loop
      vertex 1.79999 41.6 20
      vertex 0 39.6 20
      vertex 1.79999 39.6 20
    endloop
  endfacet
  facet normal -0 0 1
    outer loop
      vertex 1.79999 30.4 20
      vertex 3.99999 13.6 20
      vertex 3.99999 30.4 20
    endloop
  endfacet
  facet normal 0 0 1
    outer loop
      vertex 3.99999 13.6 20
      vertex 1.79999 30.4 20
      vertex 1.79999 13.6 20
    endloop
  endfacet
  facet normal -0 0 1
    outer loop
      vertex 2.4 52 20
      vertex 3.99999 41.6 20
      vertex 13.6 52 20
    endloop
  endfacet
  facet normal 0 0 1
    outer loop
      vertex 3.99999 41.6 20
      vertex 2.4 52 20
      vertex 1.79999 41.6 20
    endloop
  endfacet
  facet normal -0 0 1
    outer loop
      vertex -3.99999 25.4 20
      vertex -2.19999 23.4 20
      vertex -2.19999 25.4 20
    endloop
  endfacet
  facet normal 0 0 1
    outer loop
      vertex -2.19999 23.4 20
      vertex -3.99999 25.4 20
      vertex -2.19999 16.6 20
    endloop
  endfacet
  facet normal 0 0 1
    outer loop
      vertex -3.99999 14.6 20
      vertex -2.19999 16.6 20
      vertex -3.99999 25.4 20
    endloop
  endfacet
  facet normal 0 0 1
    outer loop
      vertex -2.19999 16.6 20
      vertex -3.99999 14.6 20
      vertex -2.19999 14.6 20
    endloop
  endfacet
  facet normal -0 0 1
    outer loop
      vertex -3.99999 53.4 20
      vertex -2.19999 51.4 20
      vertex -2.19999 53.4 20
    endloop
  endfacet
  facet normal 0 0 1
    outer loop
      vertex -2.19999 51.4 20
      vertex -3.99999 53.4 20
      vertex -2.19999 44.6 20
    endloop
  endfacet
  facet normal 0 0 1
    outer loop
      vertex -3.99999 42.6 20
      vertex -2.19999 44.6 20
      vertex -3.99999 53.4 20
    endloop
  endfacet
  facet normal 0 0 1
    outer loop
      vertex -2.19999 44.6 20
      vertex -3.99999 42.6 20
      vertex -2.19999 42.6 20
    endloop
  endfacet
  facet normal -0 0 1
    outer loop
      vertex -2.19999 23.4 20
      vertex 0 16.6 20
      vertex 0 23.4 20
    endloop
  endfacet
  facet normal 0 0 1
    outer loop
      vertex 0 16.6 20
      vertex -2.19999 23.4 20
      vertex -2.19999 16.6 20
    endloop
  endfacet
  facet normal -0 0 1
    outer loop
      vertex -2.19999 51.4 20
      vertex 0 44.6 20
      vertex 0 51.4 20
    endloop
  endfacet
  facet normal 0 0 1
    outer loop
      vertex 0 44.6 20
      vertex -2.19999 51.4 20
      vertex -2.19999 44.6 20
    endloop
  endfacet
  facet normal 0 -1 0
    outer loop
      vertex 54.2 23.6 0
      vertex 56 23.6 20
      vertex 54.2 23.6 20
    endloop
  endfacet
  facet normal 0 -1 -0
    outer loop
      vertex 56 23.6 20
      vertex 54.2 23.6 0
      vertex 56 23.6 0
    endloop
  endfacet
  facet normal 0 0 -1
    outer loop
      vertex 0 16.6 0
      vertex 3.99999 13.6 0
      vertex 1.79999 13.6 0
    endloop
  endfacet
  facet normal 0 0 -1
    outer loop
      vertex 3.99999 13.6 0
      vertex 0 23.4 0
      vertex 3.99999 30.4 0
    endloop
  endfacet
  facet normal 0 0 -1
    outer loop
      vertex 52 14.4 0
      vertex 56 4.6 0
      vertex 56 0 0
    endloop
  endfacet
  facet normal 0 0 -1
    outer loop
      vertex 56 4.6 0
      vertex 52 14.4 0
      vertex 56 11.4 0
    endloop
  endfacet
  facet normal 0 0 -1
    outer loop
      vertex 56 11.4 0
      vertex 54.2 14.4 0
      vertex 56 16.4 0
    endloop
  endfacet
  facet normal 0 0 -1
    outer loop
      vertex 56 11.4 0
      vertex 52 14.4 0
      vertex 54.2 14.4 0
    endloop
  endfacet
  facet normal 0 0 -1
    outer loop
      vertex 3.99999 13.6 0
      vertex 52 25.6 0
      vertex 52 14.4 0
    endloop
  endfacet
  facet normal 0 0 -1
    outer loop
      vertex 52 25.6 0
      vertex 30.4 52 0
      vertex 52 42.4 0
    endloop
  endfacet
  facet normal 0 0 -1
    outer loop
      vertex 52 42.4 0
      vertex 41.6 52 0
      vertex 52 53.6 0
    endloop
  endfacet
  facet normal 0 0 -1
    outer loop
      vertex 51.4 56 0
      vertex 44.6 56 0
      vertex 51.4 58.2 0
    endloop
  endfacet
  facet normal 0 -0 -1
    outer loop
      vertex 44.6 56 0
      vertex 52 53.6 0
      vertex 41.6 52 0
    endloop
  endfacet
  facet normal 0 0 -1
    outer loop
      vertex 52 53.6 0
      vertex 44.6 56 0
      vertex 51.4 56 0
    endloop
  endfacet
  facet normal 0 0 -1
    outer loop
      vertex 52 42.4 0
      vertex 30.4 52 0
      vertex 41.6 52 0
    endloop
  endfacet
  facet normal 0 0 -1
    outer loop
      vertex 3.99999 2.4 0
      vertex 52 14.4 0
      vertex 56 0 0
    endloop
  endfacet
  facet normal 0 0 -1
    outer loop
      vertex 30.4 52 0
      vertex 23.4 56 0
      vertex 30.4 54.2 0
    endloop
  endfacet
  facet normal -0 0 -1
    outer loop
      vertex 52 25.6 0
      vertex 3.99999 13.6 0
      vertex 3.99999 30.4 0
    endloop
  endfacet
  facet normal 0 0 -1
    outer loop
      vertex 23.4 56 0
      vertex 16.6 56 0
      vertex 23.4 58.2 0
    endloop
  endfacet
  facet normal 0 -0 -1
    outer loop
      vertex 13.6 52 0
      vertex 30.4 52 0
      vertex 3.99999 30.4 0
    endloop
  endfacet
  facet normal -0 0 -1
    outer loop
      vertex 23.4 56 0
      vertex 13.6 52 0
      vertex 16.6 56 0
    endloop
  endfacet
  facet normal 0 0 -1
    outer loop
      vertex 52 14.4 0
      vertex 3.99999 2.4 0
      vertex 3.99999 13.6 0
    endloop
  endfacet
  facet normal 0 0 -1
    outer loop
      vertex 0 0 0
      vertex 3.99999 2.4 0
      vertex 56 0 0
    endloop
  endfacet
  facet normal -0 0 -1
    outer loop
      vertex 3.99999 2.4 0
      vertex 0 0 0
      vertex 1.79999 2.4 0
    endloop
  endfacet
  facet normal 0 0 -1
    outer loop
      vertex 0 4.4 0
      vertex 1.79999 2.4 0
      vertex 0 0 0
    endloop
  endfacet
  facet normal 0 0 -1
    outer loop
      vertex 1.79999 2.4 0
      vertex 0 4.4 0
      vertex 1.79999 4.4 0
    endloop
  endfacet
  facet normal 0 0 -1
    outer loop
      vertex 56 4.6 0
      vertex 58.2 11.4 0
      vertex 58.2 4.6 0
    endloop
  endfacet
  facet normal -0 0 -1
    outer loop
      vertex 58.2 11.4 0
      vertex 56 4.6 0
      vertex 56 11.4 0
    endloop
  endfacet
  facet normal 0 0 -1
    outer loop
      vertex 58.2 4.6 0
      vertex 60 2.6 0
      vertex 58.2 2.6 0
    endloop
  endfacet
  facet normal 0 0 -1
    outer loop
      vertex 60 2.6 0
      vertex 58.2 4.6 0
      vertex 60 13.4 0
    endloop
  endfacet
  facet normal 0 0 -1
    outer loop
      vertex 58.2 11.4 0
      vertex 60 13.4 0
      vertex 58.2 4.6 0
    endloop
  endfacet
  facet normal -0 0 -1
    outer loop
      vertex 60 13.4 0
      vertex 58.2 11.4 0
      vertex 58.2 13.4 0
    endloop
  endfacet
  facet normal -0 0 -1
    outer loop
      vertex 56 16.4 0
      vertex 54.2 14.4 0
      vertex 54.2 16.4 0
    endloop
  endfacet
  facet normal 0 0 -1
    outer loop
      vertex 52 42.4 0
      vertex 56 32.6 0
      vertex 52 25.6 0
    endloop
  endfacet
  facet normal 0 0 -1
    outer loop
      vertex 56 32.6 0
      vertex 52 42.4 0
      vertex 54.2 42.4 0
    endloop
  endfacet
  facet normal 0 0 -1
    outer loop
      vertex 54.2 25.6 0
      vertex 56 32.6 0
      vertex 56 23.6 0
    endloop
  endfacet
  facet normal 0 0 -1
    outer loop
      vertex 52 25.6 0
      vertex 56 32.6 0
      vertex 54.2 25.6 0
    endloop
  endfacet
  facet normal 0 0 -1
    outer loop
      vertex 54.2 25.6 0
      vertex 56 23.6 0
      vertex 54.2 23.6 0
    endloop
  endfacet
  facet normal 0 0 -1
    outer loop
      vertex 56 32.6 0
      vertex 54.2 42.4 0
      vertex 56 39.4 0
    endloop
  endfacet
  facet normal 0 0 -1
    outer loop
      vertex 56 39.4 0
      vertex 54.2 42.4 0
      vertex 56 44.4 0
    endloop
  endfacet
  facet normal -0 0 -1
    outer loop
      vertex 56 44.4 0
      vertex 54.2 42.4 0
      vertex 54.2 44.4 0
    endloop
  endfacet
  facet normal 0 0 -1
    outer loop
      vertex 56 32.6 0
      vertex 58.2 39.4 0
      vertex 58.2 32.6 0
    endloop
  endfacet
  facet normal -0 0 -1
    outer loop
      vertex 58.2 39.4 0
      vertex 56 32.6 0
      vertex 56 39.4 0
    endloop
  endfacet
  facet normal 0 0 -1
    outer loop
      vertex 58.2 32.6 0
      vertex 60 30.6 0
      vertex 58.2 30.6 0
    endloop
  endfacet
  facet normal 0 0 -1
    outer loop
      vertex 60 30.6 0
      vertex 58.2 32.6 0
      vertex 60 41.4 0
    endloop
  endfacet
  facet normal 0 0 -1
    outer loop
      vertex 58.2 39.4 0
      vertex 60 41.4 0
      vertex 58.2 32.6 0
    endloop
  endfacet
  facet normal -0 0 -1
    outer loop
      vertex 60 41.4 0
      vertex 58.2 39.4 0
      vertex 58.2 41.4 0
    endloop
  endfacet
  facet normal 0 0 -1
    outer loop
      vertex 54.2 53.6 0
      vertex 56 51.6 0
      vertex 54.2 51.6 0
    endloop
  endfacet
  facet normal 0 0 -1
    outer loop
      vertex 56 51.6 0
      vertex 54.2 53.6 0
      vertex 56 56 0
    endloop
  endfacet
  facet normal 0 0 -1
    outer loop
      vertex 51.4 56 0
      vertex 54.2 53.6 0
      vertex 52 53.6 0
    endloop
  endfacet
  facet normal 0 0 -1
    outer loop
      vertex 54.2 53.6 0
      vertex 51.4 56 0
      vertex 56 56 0
    endloop
  endfacet
  facet normal 0 0 -1
    outer loop
      vertex 51.4 58.2 0
      vertex 53.4 60 0
      vertex 53.4 58.2 0
    endloop
  endfacet
  facet normal 0 0 -1
    outer loop
      vertex 44.6 58.2 0
      vertex 51.4 58.2 0
      vertex 44.6 56 0
    endloop
  endfacet
  facet normal 0 0 -1
    outer loop
      vertex 51.4 58.2 0
      vertex 44.6 58.2 0
      vertex 53.4 60 0
    endloop
  endfacet
  facet normal 0 0 -1
    outer loop
      vertex 42.6 60 0
      vertex 44.6 58.2 0
      vertex 42.6 58.2 0
    endloop
  endfacet
  facet normal 0 0 -1
    outer loop
      vertex 44.6 58.2 0
      vertex 42.6 60 0
      vertex 53.4 60 0
    endloop
  endfacet
  facet normal 0 0 -1
    outer loop
      vertex 41.6 54.2 0
      vertex 44.6 56 0
      vertex 41.6 52 0
    endloop
  endfacet
  facet normal 0 0 -1
    outer loop
      vertex 39.6 56 0
      vertex 41.6 54.2 0
      vertex 39.6 54.2 0
    endloop
  endfacet
  facet normal 0 0 -1
    outer loop
      vertex 41.6 54.2 0
      vertex 39.6 56 0
      vertex 44.6 56 0
    endloop
  endfacet
  facet normal 0 0 -1
    outer loop
      vertex 30.4 54.2 0
      vertex 32.4 56 0
      vertex 32.4 54.2 0
    endloop
  endfacet
  facet normal -0 0 -1
    outer loop
      vertex 32.4 56 0
      vertex 30.4 54.2 0
      vertex 23.4 56 0
    endloop
  endfacet
  facet normal 0 0 -1
    outer loop
      vertex 23.4 58.2 0
      vertex 25.4 60 0
      vertex 25.4 58.2 0
    endloop
  endfacet
  facet normal 0 0 -1
    outer loop
      vertex 16.6 58.2 0
      vertex 23.4 58.2 0
      vertex 16.6 56 0
    endloop
  endfacet
  facet normal 0 0 -1
    outer loop
      vertex 23.4 58.2 0
      vertex 16.6 58.2 0
      vertex 25.4 60 0
    endloop
  endfacet
  facet normal 0 0 -1
    outer loop
      vertex 14.6 60 0
      vertex 16.6 58.2 0
      vertex 14.6 58.2 0
    endloop
  endfacet
  facet normal 0 0 -1
    outer loop
      vertex 16.6 58.2 0
      vertex 14.6 60 0
      vertex 25.4 60 0
    endloop
  endfacet
  facet normal 0 0 -1
    outer loop
      vertex 13.6 54.2 0
      vertex 16.6 56 0
      vertex 13.6 52 0
    endloop
  endfacet
  facet normal 0 0 -1
    outer loop
      vertex 11.6 56 0
      vertex 13.6 54.2 0
      vertex 11.6 54.2 0
    endloop
  endfacet
  facet normal 0 0 -1
    outer loop
      vertex 13.6 54.2 0
      vertex 11.6 56 0
      vertex 16.6 56 0
    endloop
  endfacet
  facet normal 0 0 -1
    outer loop
      vertex 52 25.6 0
      vertex 3.99999 30.4 0
      vertex 30.4 52 0
    endloop
  endfacet
  facet normal 0 0 -1
    outer loop
      vertex 30.4 52 0
      vertex 13.6 52 0
      vertex 23.4 56 0
    endloop
  endfacet
  facet normal 0 0 -1
    outer loop
      vertex 3.99999 41.6 0
      vertex 13.6 52 0
      vertex 3.99999 30.4 0
    endloop
  endfacet
  facet normal 0 0 -1
    outer loop
      vertex 3.99999 41.6 0
      vertex 2.4 52 0
      vertex 13.6 52 0
    endloop
  endfacet
  facet normal 0 0 -1
    outer loop
      vertex 3.99999 41.6 0
      vertex 0 44.6 0
      vertex 2.4 52 0
    endloop
  endfacet
  facet normal 0 0 -1
    outer loop
      vertex 0 44.6 0
      vertex 3.99999 41.6 0
      vertex 1.79999 41.6 0
    endloop
  endfacet
  facet normal 0 0 -1
    outer loop
      vertex 2.4 54.2 0
      vertex 4.4 56 0
      vertex 4.4 54.2 0
    endloop
  endfacet
  facet normal 0 0 -1
    outer loop
      vertex 0 44.6 0
      vertex 1.79999 41.6 0
      vertex 0 39.6 0
    endloop
  endfacet
  facet normal 0 0 -1
    outer loop
      vertex 0 51.4 0
      vertex 2.4 52 0
      vertex 0 44.6 0
    endloop
  endfacet
  facet normal -0 0 -1
    outer loop
      vertex 2.4 52 0
      vertex 0 51.4 0
      vertex 2.4 54.2 0
    endloop
  endfacet
  facet normal 0 0 -1
    outer loop
      vertex 2.4 54.2 0
      vertex 0 56 0
      vertex 4.4 56 0
    endloop
  endfacet
  facet normal 0 0 -1
    outer loop
      vertex 0 56 0
      vertex 2.4 54.2 0
      vertex 0 51.4 0
    endloop
  endfacet
  facet normal 0 0 -1
    outer loop
      vertex 1.79999 39.6 0
      vertex 0 39.6 0
      vertex 1.79999 41.6 0
    endloop
  endfacet
  facet normal 0 0 -1
    outer loop
      vertex 0 11.6 0
      vertex 1.79999 13.6 0
      vertex 1.79999 11.6 0
    endloop
  endfacet
  facet normal -0 0 -1
    outer loop
      vertex 3.99999 30.4 0
      vertex 0 23.4 0
      vertex 1.79999 30.4 0
    endloop
  endfacet
  facet normal -0 0 -1
    outer loop
      vertex 1.79999 13.6 0
      vertex 0 11.6 0
      vertex 0 16.6 0
    endloop
  endfacet
  facet normal 0 0 -1
    outer loop
      vertex 3.99999 13.6 0
      vertex 0 16.6 0
      vertex 0 23.4 0
    endloop
  endfacet
  facet normal 0 0 -1
    outer loop
      vertex 0 32.4 0
      vertex 1.79999 30.4 0
      vertex 0 23.4 0
    endloop
  endfacet
  facet normal 0 0 -1
    outer loop
      vertex 1.79999 30.4 0
      vertex 0 32.4 0
      vertex 1.79999 32.4 0
    endloop
  endfacet
  facet normal 0 0 -1
    outer loop
      vertex -3.99999 42.6 0
      vertex -2.19999 44.6 0
      vertex -2.19999 42.6 0
    endloop
  endfacet
  facet normal -0 0 -1
    outer loop
      vertex -2.19999 44.6 0
      vertex -3.99999 42.6 0
      vertex -2.19999 51.4 0
    endloop
  endfacet
  facet normal 0 0 -1
    outer loop
      vertex -3.99999 53.4 0
      vertex -2.19999 51.4 0
      vertex -3.99999 42.6 0
    endloop
  endfacet
  facet normal 0 0 -1
    outer loop
      vertex -2.19999 51.4 0
      vertex -3.99999 53.4 0
      vertex -2.19999 53.4 0
    endloop
  endfacet
  facet normal 0 0 -1
    outer loop
      vertex -3.99999 14.6 0
      vertex -2.19999 16.6 0
      vertex -2.19999 14.6 0
    endloop
  endfacet
  facet normal -0 0 -1
    outer loop
      vertex -2.19999 16.6 0
      vertex -3.99999 14.6 0
      vertex -2.19999 23.4 0
    endloop
  endfacet
  facet normal 0 0 -1
    outer loop
      vertex -3.99999 25.4 0
      vertex -2.19999 23.4 0
      vertex -3.99999 14.6 0
    endloop
  endfacet
  facet normal 0 0 -1
    outer loop
      vertex -2.19999 23.4 0
      vertex -3.99999 25.4 0
      vertex -2.19999 25.4 0
    endloop
  endfacet
  facet normal 0 0 -1
    outer loop
      vertex -2.19999 44.6 0
      vertex 0 51.4 0
      vertex 0 44.6 0
    endloop
  endfacet
  facet normal -0 0 -1
    outer loop
      vertex 0 51.4 0
      vertex -2.19999 44.6 0
      vertex -2.19999 51.4 0
    endloop
  endfacet
  facet normal 0 0 -1
    outer loop
      vertex -2.19999 16.6 0
      vertex 0 23.4 0
      vertex 0 16.6 0
    endloop
  endfacet
  facet normal -0 0 -1
    outer loop
      vertex 0 23.4 0
      vertex -2.19999 16.6 0
      vertex -2.19999 23.4 0
    endloop
  endfacet
  facet normal -1 0 0
    outer loop
      vertex 54.2 14.4 0
      vertex 54.2 16.4 20
      vertex 54.2 16.4 0
    endloop
  endfacet
  facet normal -1 -0 0
    outer loop
      vertex 54.2 16.4 20
      vertex 54.2 14.4 0
      vertex 54.2 14.4 20
    endloop
  endfacet
  facet normal -1 0 0
    outer loop
      vertex 54.2 23.6 0
      vertex 54.2 25.6 20
      vertex 54.2 25.6 0
    endloop
  endfacet
  facet normal -1 -0 0
    outer loop
      vertex 54.2 25.6 20
      vertex 54.2 23.6 0
      vertex 54.2 23.6 20
    endloop
  endfacet
  facet normal 0 1 -0
    outer loop
      vertex 54.2 14.4 0
      vertex 52 14.4 20
      vertex 54.2 14.4 20
    endloop
  endfacet
  facet normal 0 1 0
    outer loop
      vertex 52 14.4 20
      vertex 54.2 14.4 0
      vertex 52 14.4 0
    endloop
  endfacet
  facet normal 0 -1 0
    outer loop
      vertex 52 25.6 0
      vertex 54.2 25.6 20
      vertex 52 25.6 20
    endloop
  endfacet
  facet normal 0 -1 -0
    outer loop
      vertex 54.2 25.6 20
      vertex 52 25.6 0
      vertex 54.2 25.6 0
    endloop
  endfacet
  facet normal 1 -0 0
    outer loop
      vertex 52 14.4 20
      vertex 52 25.6 0
      vertex 52 25.6 20
    endloop
  endfacet
  facet normal 1 0 0
    outer loop
      vertex 52 25.6 0
      vertex 52 14.4 20
      vertex 52 14.4 0
    endloop
  endfacet
  facet normal 0 1 -0
    outer loop
      vertex 56 44.4 0
      vertex 54.2 44.4 20
      vertex 56 44.4 20
    endloop
  endfacet
  facet normal 0 1 0
    outer loop
      vertex 54.2 44.4 20
      vertex 56 44.4 0
      vertex 54.2 44.4 0
    endloop
  endfacet
  facet normal 0 -1 0
    outer loop
      vertex 54.2 51.6 0
      vertex 56 51.6 20
      vertex 54.2 51.6 20
    endloop
  endfacet
  facet normal 0 -1 -0
    outer loop
      vertex 56 51.6 20
      vertex 54.2 51.6 0
      vertex 56 51.6 0
    endloop
  endfacet
  facet normal -1 0 0
    outer loop
      vertex 54.2 42.4 0
      vertex 54.2 44.4 20
      vertex 54.2 44.4 0
    endloop
  endfacet
  facet normal -1 -0 0
    outer loop
      vertex 54.2 44.4 20
      vertex 54.2 42.4 0
      vertex 54.2 42.4 20
    endloop
  endfacet
  facet normal -1 0 0
    outer loop
      vertex 54.2 51.6 0
      vertex 54.2 53.6 20
      vertex 54.2 53.6 0
    endloop
  endfacet
  facet normal -1 -0 0
    outer loop
      vertex 54.2 53.6 20
      vertex 54.2 51.6 0
      vertex 54.2 51.6 20
    endloop
  endfacet
  facet normal 0 1 -0
    outer loop
      vertex 54.2 42.4 0
      vertex 52 42.4 20
      vertex 54.2 42.4 20
    endloop
  endfacet
  facet normal 0 1 0
    outer loop
      vertex 52 42.4 20
      vertex 54.2 42.4 0
      vertex 52 42.4 0
    endloop
  endfacet
  facet normal 0 -1 0
    outer loop
      vertex 52 53.6 0
      vertex 54.2 53.6 20
      vertex 52 53.6 20
    endloop
  endfacet
  facet normal 0 -1 -0
    outer loop
      vertex 54.2 53.6 20
      vertex 52 53.6 0
      vertex 54.2 53.6 0
    endloop
  endfacet
  facet normal 1 -0 0
    outer loop
      vertex 52 42.4 20
      vertex 52 53.6 0
      vertex 52 53.6 20
    endloop
  endfacet
  facet normal 1 0 0
    outer loop
      vertex 52 53.6 0
      vertex 52 42.4 20
      vertex 52 42.4 0
    endloop
  endfacet
  facet normal -1 0 0
    outer loop
      vertex 39.6 54.2 0
      vertex 39.6 56 20
      vertex 39.6 56 0
    endloop
  endfacet
  facet normal -1 -0 0
    outer loop
      vertex 39.6 56 20
      vertex 39.6 54.2 0
      vertex 39.6 54.2 20
    endloop
  endfacet
  facet normal 1 -0 0
    outer loop
      vertex 32.4 54.2 20
      vertex 32.4 56 0
      vertex 32.4 56 20
    endloop
  endfacet
  facet normal 1 0 0
    outer loop
      vertex 32.4 56 0
      vertex 32.4 54.2 20
      vertex 32.4 54.2 0
    endloop
  endfacet
  facet normal 0 -1 0
    outer loop
      vertex 39.6 54.2 0
      vertex 41.6 54.2 20
      vertex 39.6 54.2 20
    endloop
  endfacet
  facet normal 0 -1 -0
    outer loop
      vertex 41.6 54.2 20
      vertex 39.6 54.2 0
      vertex 41.6 54.2 0
    endloop
  endfacet
  facet normal 0 -1 0
    outer loop
      vertex 30.4 54.2 0
      vertex 32.4 54.2 20
      vertex 30.4 54.2 20
    endloop
  endfacet
  facet normal 0 -1 -0
    outer loop
      vertex 32.4 54.2 20
      vertex 30.4 54.2 0
      vertex 32.4 54.2 0
    endloop
  endfacet
  facet normal -1 0 0
    outer loop
      vertex 41.6 52 0
      vertex 41.6 54.2 20
      vertex 41.6 54.2 0
    endloop
  endfacet
  facet normal -1 -0 0
    outer loop
      vertex 41.6 54.2 20
      vertex 41.6 52 0
      vertex 41.6 52 20
    endloop
  endfacet
  facet normal 1 -0 0
    outer loop
      vertex 30.4 52 20
      vertex 30.4 54.2 0
      vertex 30.4 54.2 20
    endloop
  endfacet
  facet normal 1 0 0
    outer loop
      vertex 30.4 54.2 0
      vertex 30.4 52 20
      vertex 30.4 52 0
    endloop
  endfacet
  facet normal 0 1 -0
    outer loop
      vertex 41.6 52 0
      vertex 30.4 52 20
      vertex 41.6 52 20
    endloop
  endfacet
  facet normal 0 1 0
    outer loop
      vertex 30.4 52 20
      vertex 41.6 52 0
      vertex 30.4 52 0
    endloop
  endfacet
  facet normal -1 0 0
    outer loop
      vertex 11.6 54.2 0
      vertex 11.6 56 20
      vertex 11.6 56 0
    endloop
  endfacet
  facet normal -1 -0 0
    outer loop
      vertex 11.6 56 20
      vertex 11.6 54.2 0
      vertex 11.6 54.2 20
    endloop
  endfacet
  facet normal 1 -0 0
    outer loop
      vertex 4.4 54.2 20
      vertex 4.4 56 0
      vertex 4.4 56 20
    endloop
  endfacet
  facet normal 1 0 0
    outer loop
      vertex 4.4 56 0
      vertex 4.4 54.2 20
      vertex 4.4 54.2 0
    endloop
  endfacet
  facet normal 0 -1 0
    outer loop
      vertex 11.6 54.2 0
      vertex 13.6 54.2 20
      vertex 11.6 54.2 20
    endloop
  endfacet
  facet normal 0 -1 -0
    outer loop
      vertex 13.6 54.2 20
      vertex 11.6 54.2 0
      vertex 13.6 54.2 0
    endloop
  endfacet
  facet normal 0 -1 0
    outer loop
      vertex 2.4 54.2 0
      vertex 4.4 54.2 20
      vertex 2.4 54.2 20
    endloop
  endfacet
  facet normal 0 -1 -0
    outer loop
      vertex 4.4 54.2 20
      vertex 2.4 54.2 0
      vertex 4.4 54.2 0
    endloop
  endfacet
  facet normal -1 0 0
    outer loop
      vertex 13.6 52 0
      vertex 13.6 54.2 20
      vertex 13.6 54.2 0
    endloop
  endfacet
  facet normal -1 -0 0
    outer loop
      vertex 13.6 54.2 20
      vertex 13.6 52 0
      vertex 13.6 52 20
    endloop
  endfacet
  facet normal 1 -0 0
    outer loop
      vertex 2.4 52 20
      vertex 2.4 54.2 0
      vertex 2.4 54.2 20
    endloop
  endfacet
  facet normal 1 0 0
    outer loop
      vertex 2.4 54.2 0
      vertex 2.4 52 20
      vertex 2.4 52 0
    endloop
  endfacet
  facet normal 0 1 -0
    outer loop
      vertex 13.6 52 0
      vertex 2.4 52 20
      vertex 13.6 52 20
    endloop
  endfacet
  facet normal 0 1 0
    outer loop
      vertex 2.4 52 20
      vertex 13.6 52 0
      vertex 2.4 52 0
    endloop
  endfacet
  facet normal 0 -1 0
    outer loop
      vertex 0 39.6 0
      vertex 1.79999 39.6 20
      vertex 0 39.6 20
    endloop
  endfacet
  facet normal 0 -1 -0
    outer loop
      vertex 1.79999 39.6 20
      vertex 0 39.6 0
      vertex 1.79999 39.6 0
    endloop
  endfacet
  facet normal 0 1 -0
    outer loop
      vertex 1.79999 32.4 0
      vertex 0 32.4 20
      vertex 1.79999 32.4 20
    endloop
  endfacet
  facet normal 0 1 0
    outer loop
      vertex 0 32.4 20
      vertex 1.79999 32.4 0
      vertex 0 32.4 0
    endloop
  endfacet
  facet normal 1 -0 0
    outer loop
      vertex 1.79999 39.6 20
      vertex 1.79999 41.6 0
      vertex 1.79999 41.6 20
    endloop
  endfacet
  facet normal 1 0 0
    outer loop
      vertex 1.79999 41.6 0
      vertex 1.79999 39.6 20
      vertex 1.79999 39.6 0
    endloop
  endfacet
  facet normal 1 -0 0
    outer loop
      vertex 1.79999 30.4 20
      vertex 1.79999 32.4 0
      vertex 1.79999 32.4 20
    endloop
  endfacet
  facet normal 1 0 0
    outer loop
      vertex 1.79999 32.4 0
      vertex 1.79999 30.4 20
      vertex 1.79999 30.4 0
    endloop
  endfacet
  facet normal 0 -1 0
    outer loop
      vertex 1.79999 41.6 0
      vertex 3.99999 41.6 20
      vertex 1.79999 41.6 20
    endloop
  endfacet
  facet normal 0 -1 -0
    outer loop
      vertex 3.99999 41.6 20
      vertex 1.79999 41.6 0
      vertex 3.99999 41.6 0
    endloop
  endfacet
  facet normal 0 1 -0
    outer loop
      vertex 3.99999 30.4 0
      vertex 1.79999 30.4 20
      vertex 3.99999 30.4 20
    endloop
  endfacet
  facet normal 0 1 0
    outer loop
      vertex 1.79999 30.4 20
      vertex 3.99999 30.4 0
      vertex 1.79999 30.4 0
    endloop
  endfacet
  facet normal -1 0 0
    outer loop
      vertex 3.99999 30.4 0
      vertex 3.99999 41.6 20
      vertex 3.99999 41.6 0
    endloop
  endfacet
  facet normal -1 -0 0
    outer loop
      vertex 3.99999 41.6 20
      vertex 3.99999 30.4 0
      vertex 3.99999 30.4 20
    endloop
  endfacet
  facet normal 0 -1 0
    outer loop
      vertex 0 11.6 0
      vertex 1.79999 11.6 20
      vertex 0 11.6 20
    endloop
  endfacet
  facet normal 0 -1 -0
    outer loop
      vertex 1.79999 11.6 20
      vertex 0 11.6 0
      vertex 1.79999 11.6 0
    endloop
  endfacet
  facet normal 0 1 -0
    outer loop
      vertex 1.79999 4.4 0
      vertex 0 4.4 20
      vertex 1.79999 4.4 20
    endloop
  endfacet
  facet normal 0 1 0
    outer loop
      vertex 0 4.4 20
      vertex 1.79999 4.4 0
      vertex 0 4.4 0
    endloop
  endfacet
  facet normal 1 -0 0
    outer loop
      vertex 1.79999 11.6 20
      vertex 1.79999 13.6 0
      vertex 1.79999 13.6 20
    endloop
  endfacet
  facet normal 1 0 0
    outer loop
      vertex 1.79999 13.6 0
      vertex 1.79999 11.6 20
      vertex 1.79999 11.6 0
    endloop
  endfacet
  facet normal 1 -0 0
    outer loop
      vertex 1.79999 2.4 20
      vertex 1.79999 4.4 0
      vertex 1.79999 4.4 20
    endloop
  endfacet
  facet normal 1 0 0
    outer loop
      vertex 1.79999 4.4 0
      vertex 1.79999 2.4 20
      vertex 1.79999 2.4 0
    endloop
  endfacet
  facet normal 0 -1 0
    outer loop
      vertex 1.79999 13.6 0
      vertex 3.99999 13.6 20
      vertex 1.79999 13.6 20
    endloop
  endfacet
  facet normal 0 -1 -0
    outer loop
      vertex 3.99999 13.6 20
      vertex 1.79999 13.6 0
      vertex 3.99999 13.6 0
    endloop
  endfacet
  facet normal 0 1 -0
    outer loop
      vertex 3.99999 2.4 0
      vertex 1.79999 2.4 20
      vertex 3.99999 2.4 20
    endloop
  endfacet
  facet normal 0 1 0
    outer loop
      vertex 1.79999 2.4 20
      vertex 3.99999 2.4 0
      vertex 1.79999 2.4 0
    endloop
  endfacet
  facet normal -1 0 0
    outer loop
      vertex 3.99999 2.4 0
      vertex 3.99999 13.6 20
      vertex 3.99999 13.6 0
    endloop
  endfacet
  facet normal -1 -0 0
    outer loop
      vertex 3.99999 13.6 20
      vertex 3.99999 2.4 0
      vertex 3.99999 2.4 20
    endloop
  endfacet
  facet normal -1 0 0
    outer loop
      vertex 0 0 0
      vertex 0 4.4 20
      vertex 0 4.4 0
    endloop
  endfacet
  facet normal -1 -0 0
    outer loop
      vertex 0 4.4 20
      vertex 0 0 0
      vertex 0 0 20
    endloop
  endfacet
  facet normal -1 0 0
    outer loop
      vertex 0 51.4 0
      vertex 0 56 20
      vertex 0 56 0
    endloop
  endfacet
  facet normal -1 -0 0
    outer loop
      vertex 0 56 20
      vertex 0 51.4 0
      vertex 0 51.4 20
    endloop
  endfacet
  facet normal -1 0 0
    outer loop
      vertex 0 11.6 0
      vertex 0 16.6 20
      vertex 0 16.6 0
    endloop
  endfacet
  facet normal -1 -0 0
    outer loop
      vertex 0 16.6 20
      vertex 0 11.6 0
      vertex 0 11.6 20
    endloop
  endfacet
  facet normal -1 0 0
    outer loop
      vertex 0 23.4 0
      vertex 0 32.4 20
      vertex 0 32.4 0
    endloop
  endfacet
  facet normal -1 -0 0
    outer loop
      vertex 0 32.4 20
      vertex 0 23.4 0
      vertex 0 23.4 20
    endloop
  endfacet
  facet normal -1 0 0
    outer loop
      vertex 0 39.6 0
      vertex 0 44.6 20
      vertex 0 44.6 0
    endloop
  endfacet
  facet normal -1 -0 0
    outer loop
      vertex 0 44.6 20
      vertex 0 39.6 0
      vertex 0 39.6 20
    endloop
  endfacet
  facet normal 1 -0 0
    outer loop
      vertex 56 0 20
      vertex 56 4.6 0
      vertex 56 4.6 20
    endloop
  endfacet
  facet normal 1 0 0
    outer loop
      vertex 56 4.6 0
      vertex 56 0 20
      vertex 56 0 0
    endloop
  endfacet
  facet normal 1 -0 0
    outer loop
      vertex 56 51.6 20
      vertex 56 56 0
      vertex 56 56 20
    endloop
  endfacet
  facet normal 1 0 0
    outer loop
      vertex 56 56 0
      vertex 56 51.6 20
      vertex 56 51.6 0
    endloop
  endfacet
  facet normal 1 -0 0
    outer loop
      vertex 56 39.4 20
      vertex 56 44.4 0
      vertex 56 44.4 20
    endloop
  endfacet
  facet normal 1 0 0
    outer loop
      vertex 56 44.4 0
      vertex 56 39.4 20
      vertex 56 39.4 0
    endloop
  endfacet
  facet normal 1 -0 0
    outer loop
      vertex 56 11.4 20
      vertex 56 16.4 0
      vertex 56 16.4 20
    endloop
  endfacet
  facet normal 1 0 0
    outer loop
      vertex 56 16.4 0
      vertex 56 11.4 20
      vertex 56 11.4 0
    endloop
  endfacet
  facet normal 1 -0 0
    outer loop
      vertex 56 23.6 20
      vertex 56 32.6 0
      vertex 56 32.6 20
    endloop
  endfacet
  facet normal 1 0 0
    outer loop
      vertex 56 32.6 0
      vertex 56 23.6 20
      vertex 56 23.6 0
    endloop
  endfacet
  facet normal 0 -1 0
    outer loop
      vertex 0 0 0
      vertex 56 0 20
      vertex 0 0 20
    endloop
  endfacet
  facet normal 0 -1 -0
    outer loop
      vertex 56 0 20
      vertex 0 0 0
      vertex 56 0 0
    endloop
  endfacet
  facet normal 0 1 -0
    outer loop
      vertex 56 56 0
      vertex 51.4 56 20
      vertex 56 56 20
    endloop
  endfacet
  facet normal 0 1 0
    outer loop
      vertex 51.4 56 20
      vertex 56 56 0
      vertex 51.4 56 0
    endloop
  endfacet
  facet normal 0 1 -0
    outer loop
      vertex 4.4 56 0
      vertex 0 56 20
      vertex 4.4 56 20
    endloop
  endfacet
  facet normal 0 1 0
    outer loop
      vertex 0 56 20
      vertex 4.4 56 0
      vertex 0 56 0
    endloop
  endfacet
  facet normal 0 1 -0
    outer loop
      vertex 16.6 56 0
      vertex 11.6 56 20
      vertex 16.6 56 20
    endloop
  endfacet
  facet normal 0 1 0
    outer loop
      vertex 11.6 56 20
      vertex 16.6 56 0
      vertex 11.6 56 0
    endloop
  endfacet
  facet normal 0 1 -0
    outer loop
      vertex 32.4 56 0
      vertex 23.4 56 20
      vertex 32.4 56 20
    endloop
  endfacet
  facet normal 0 1 0
    outer loop
      vertex 23.4 56 20
      vertex 32.4 56 0
      vertex 23.4 56 0
    endloop
  endfacet
  facet normal 0 1 -0
    outer loop
      vertex 44.6 56 0
      vertex 39.6 56 20
      vertex 44.6 56 20
    endloop
  endfacet
  facet normal 0 1 0
    outer loop
      vertex 39.6 56 20
      vertex 44.6 56 0
      vertex 39.6 56 0
    endloop
  endfacet
  facet normal 0 -1 0
    outer loop
      vertex 58.2 2.6 0
      vertex 60 2.6 20
      vertex 58.2 2.6 20
    endloop
  endfacet
  facet normal 0 -1 -0
    outer loop
      vertex 60 2.6 20
      vertex 58.2 2.6 0
      vertex 60 2.6 0
    endloop
  endfacet
  facet normal 0 1 -0
    outer loop
      vertex 60 13.4 0
      vertex 58.2 13.4 20
      vertex 60 13.4 20
    endloop
  endfacet
  facet normal 0 1 0
    outer loop
      vertex 58.2 13.4 20
      vertex 60 13.4 0
      vertex 58.2 13.4 0
    endloop
  endfacet
  facet normal 1 -0 0
    outer loop
      vertex 60 2.6 20
      vertex 60 13.4 0
      vertex 60 13.4 20
    endloop
  endfacet
  facet normal 1 0 0
    outer loop
      vertex 60 13.4 0
      vertex 60 2.6 20
      vertex 60 2.6 0
    endloop
  endfacet
  facet normal -1 0 0
    outer loop
      vertex 58.2 2.6 0
      vertex 58.2 4.6 20
      vertex 58.2 4.6 0
    endloop
  endfacet
  facet normal -1 -0 0
    outer loop
      vertex 58.2 4.6 20
      vertex 58.2 2.6 0
      vertex 58.2 2.6 20
    endloop
  endfacet
  facet normal -1 0 0
    outer loop
      vertex 58.2 11.4 0
      vertex 58.2 13.4 20
      vertex 58.2 13.4 0
    endloop
  endfacet
  facet normal -1 -0 0
    outer loop
      vertex 58.2 13.4 20
      vertex 58.2 11.4 0
      vertex 58.2 11.4 20
    endloop
  endfacet
  facet normal 0 -1 0
    outer loop
      vertex 56 4.6 0
      vertex 58.2 4.6 20
      vertex 56 4.6 20
    endloop
  endfacet
  facet normal 0 -1 -0
    outer loop
      vertex 58.2 4.6 20
      vertex 56 4.6 0
      vertex 58.2 4.6 0
    endloop
  endfacet
  facet normal 0 1 -0
    outer loop
      vertex 58.2 11.4 0
      vertex 56 11.4 20
      vertex 58.2 11.4 20
    endloop
  endfacet
  facet normal 0 1 0
    outer loop
      vertex 56 11.4 20
      vertex 58.2 11.4 0
      vertex 56 11.4 0
    endloop
  endfacet
  facet normal 0 -1 0
    outer loop
      vertex 58.2 30.6 0
      vertex 60 30.6 20
      vertex 58.2 30.6 20
    endloop
  endfacet
  facet normal 0 -1 -0
    outer loop
      vertex 60 30.6 20
      vertex 58.2 30.6 0
      vertex 60 30.6 0
    endloop
  endfacet
  facet normal 0 1 -0
    outer loop
      vertex 60 41.4 0
      vertex 58.2 41.4 20
      vertex 60 41.4 20
    endloop
  endfacet
  facet normal 0 1 0
    outer loop
      vertex 58.2 41.4 20
      vertex 60 41.4 0
      vertex 58.2 41.4 0
    endloop
  endfacet
  facet normal 1 -0 0
    outer loop
      vertex 60 30.6 20
      vertex 60 41.4 0
      vertex 60 41.4 20
    endloop
  endfacet
  facet normal 1 0 0
    outer loop
      vertex 60 41.4 0
      vertex 60 30.6 20
      vertex 60 30.6 0
    endloop
  endfacet
  facet normal -1 0 0
    outer loop
      vertex 58.2 30.6 0
      vertex 58.2 32.6 20
      vertex 58.2 32.6 0
    endloop
  endfacet
  facet normal -1 -0 0
    outer loop
      vertex 58.2 32.6 20
      vertex 58.2 30.6 0
      vertex 58.2 30.6 20
    endloop
  endfacet
  facet normal -1 0 0
    outer loop
      vertex 58.2 39.4 0
      vertex 58.2 41.4 20
      vertex 58.2 41.4 0
    endloop
  endfacet
  facet normal -1 -0 0
    outer loop
      vertex 58.2 41.4 20
      vertex 58.2 39.4 0
      vertex 58.2 39.4 20
    endloop
  endfacet
  facet normal 0 -1 0
    outer loop
      vertex 56 32.6 0
      vertex 58.2 32.6 20
      vertex 56 32.6 20
    endloop
  endfacet
  facet normal 0 -1 -0
    outer loop
      vertex 58.2 32.6 20
      vertex 56 32.6 0
      vertex 58.2 32.6 0
    endloop
  endfacet
  facet normal 0 1 -0
    outer loop
      vertex 58.2 39.4 0
      vertex 56 39.4 20
      vertex 58.2 39.4 20
    endloop
  endfacet
  facet normal 0 1 0
    outer loop
      vertex 56 39.4 20
      vertex 58.2 39.4 0
      vertex 56 39.4 0
    endloop
  endfacet
  facet normal 1 -0 0
    outer loop
      vertex 53.4 58.2 20
      vertex 53.4 60 0
      vertex 53.4 60 20
    endloop
  endfacet
  facet normal 1 0 0
    outer loop
      vertex 53.4 60 0
      vertex 53.4 58.2 20
      vertex 53.4 58.2 0
    endloop
  endfacet
  facet normal -1 0 0
    outer loop
      vertex 42.6 58.2 0
      vertex 42.6 60 20
      vertex 42.6 60 0
    endloop
  endfacet
  facet normal -1 -0 0
    outer loop
      vertex 42.6 60 20
      vertex 42.6 58.2 0
      vertex 42.6 58.2 20
    endloop
  endfacet
  facet normal 0 1 -0
    outer loop
      vertex 53.4 60 0
      vertex 42.6 60 20
      vertex 53.4 60 20
    endloop
  endfacet
  facet normal 0 1 0
    outer loop
      vertex 42.6 60 20
      vertex 53.4 60 0
      vertex 42.6 60 0
    endloop
  endfacet
  facet normal 0 -1 0
    outer loop
      vertex 51.4 58.2 0
      vertex 53.4 58.2 20
      vertex 51.4 58.2 20
    endloop
  endfacet
  facet normal 0 -1 -0
    outer loop
      vertex 53.4 58.2 20
      vertex 51.4 58.2 0
      vertex 53.4 58.2 0
    endloop
  endfacet
  facet normal 0 -1 0
    outer loop
      vertex 42.6 58.2 0
      vertex 44.6 58.2 20
      vertex 42.6 58.2 20
    endloop
  endfacet
  facet normal 0 -1 -0
    outer loop
      vertex 44.6 58.2 20
      vertex 42.6 58.2 0
      vertex 44.6 58.2 0
    endloop
  endfacet
  facet normal 1 -0 0
    outer loop
      vertex 51.4 56 20
      vertex 51.4 58.2 0
      vertex 51.4 58.2 20
    endloop
  endfacet
  facet normal 1 0 0
    outer loop
      vertex 51.4 58.2 0
      vertex 51.4 56 20
      vertex 51.4 56 0
    endloop
  endfacet
  facet normal -1 0 0
    outer loop
      vertex 44.6 56 0
      vertex 44.6 58.2 20
      vertex 44.6 58.2 0
    endloop
  endfacet
  facet normal -1 -0 0
    outer loop
      vertex 44.6 58.2 20
      vertex 44.6 56 0
      vertex 44.6 56 20
    endloop
  endfacet
  facet normal 1 -0 0
    outer loop
      vertex 25.4 58.2 20
      vertex 25.4 60 0
      vertex 25.4 60 20
    endloop
  endfacet
  facet normal 1 0 0
    outer loop
      vertex 25.4 60 0
      vertex 25.4 58.2 20
      vertex 25.4 58.2 0
    endloop
  endfacet
  facet normal -1 0 0
    outer loop
      vertex 14.6 58.2 0
      vertex 14.6 60 20
      vertex 14.6 60 0
    endloop
  endfacet
  facet normal -1 -0 0
    outer loop
      vertex 14.6 60 20
      vertex 14.6 58.2 0
      vertex 14.6 58.2 20
    endloop
  endfacet
  facet normal 0 1 -0
    outer loop
      vertex 25.4 60 0
      vertex 14.6 60 20
      vertex 25.4 60 20
    endloop
  endfacet
  facet normal 0 1 0
    outer loop
      vertex 14.6 60 20
      vertex 25.4 60 0
      vertex 14.6 60 0
    endloop
  endfacet
  facet normal 0 -1 0
    outer loop
      vertex 23.4 58.2 0
      vertex 25.4 58.2 20
      vertex 23.4 58.2 20
    endloop
  endfacet
  facet normal 0 -1 -0
    outer loop
      vertex 25.4 58.2 20
      vertex 23.4 58.2 0
      vertex 25.4 58.2 0
    endloop
  endfacet
  facet normal 0 -1 0
    outer loop
      vertex 14.6 58.2 0
      vertex 16.6 58.2 20
      vertex 14.6 58.2 20
    endloop
  endfacet
  facet normal 0 -1 -0
    outer loop
      vertex 16.6 58.2 20
      vertex 14.6 58.2 0
      vertex 16.6 58.2 0
    endloop
  endfacet
  facet normal 1 -0 0
    outer loop
      vertex 23.4 56 20
      vertex 23.4 58.2 0
      vertex 23.4 58.2 20
    endloop
  endfacet
  facet normal 1 0 0
    outer loop
      vertex 23.4 58.2 0
      vertex 23.4 56 20
      vertex 23.4 56 0
    endloop
  endfacet
  facet normal -1 0 0
    outer loop
      vertex 16.6 56 0
      vertex 16.6 58.2 20
      vertex 16.6 58.2 0
    endloop
  endfacet
  facet normal -1 -0 0
    outer loop
      vertex 16.6 58.2 20
      vertex 16.6 56 0
      vertex 16.6 56 20
    endloop
  endfacet
  facet normal 0 1 -0
    outer loop
      vertex -2.19999 53.4 0
      vertex -3.99999 53.4 20
      vertex -2.19999 53.4 20
    endloop
  endfacet
  facet normal 0 1 0
    outer loop
      vertex -3.99999 53.4 20
      vertex -2.19999 53.4 0
      vertex -3.99999 53.4 0
    endloop
  endfacet
  facet normal 0 -1 0
    outer loop
      vertex -3.99999 42.6 0
      vertex -2.19999 42.6 20
      vertex -3.99999 42.6 20
    endloop
  endfacet
  facet normal 0 -1 -0
    outer loop
      vertex -2.19999 42.6 20
      vertex -3.99999 42.6 0
      vertex -2.19999 42.6 0
    endloop
  endfacet
  facet normal -1 0 0
    outer loop
      vertex -3.99999 42.6 0
      vertex -3.99999 53.4 20
      vertex -3.99999 53.4 0
    endloop
  endfacet
  facet normal -1 -0 0
    outer loop
      vertex -3.99999 53.4 20
      vertex -3.99999 42.6 0
      vertex -3.99999 42.6 20
    endloop
  endfacet
  facet normal 1 -0 0
    outer loop
      vertex -2.19999 51.4 20
      vertex -2.19999 53.4 0
      vertex -2.19999 53.4 20
    endloop
  endfacet
  facet normal 1 0 0
    outer loop
      vertex -2.19999 53.4 0
      vertex -2.19999 51.4 20
      vertex -2.19999 51.4 0
    endloop
  endfacet
  facet normal 1 -0 0
    outer loop
      vertex -2.19999 42.6 20
      vertex -2.19999 44.6 0
      vertex -2.19999 44.6 20
    endloop
  endfacet
  facet normal 1 0 0
    outer loop
      vertex -2.19999 44.6 0
      vertex -2.19999 42.6 20
      vertex -2.19999 42.6 0
    endloop
  endfacet
  facet normal 0 1 -0
    outer loop
      vertex 0 51.4 0
      vertex -2.19999 51.4 20
      vertex 0 51.4 20
    endloop
  endfacet
  facet normal 0 1 0
    outer loop
      vertex -2.19999 51.4 20
      vertex 0 51.4 0
      vertex -2.19999 51.4 0
    endloop
  endfacet
  facet normal 0 -1 0
    outer loop
      vertex -2.19999 44.6 0
      vertex 0 44.6 20
      vertex -2.19999 44.6 20
    endloop
  endfacet
  facet normal 0 -1 -0
    outer loop
      vertex 0 44.6 20
      vertex -2.19999 44.6 0
      vertex 0 44.6 0
    endloop
  endfacet
  facet normal 0 1 -0
    outer loop
      vertex -2.19999 25.4 0
      vertex -3.99999 25.4 20
      vertex -2.19999 25.4 20
    endloop
  endfacet
  facet normal 0 1 0
    outer loop
      vertex -3.99999 25.4 20
      vertex -2.19999 25.4 0
      vertex -3.99999 25.4 0
    endloop
  endfacet
  facet normal 0 -1 0
    outer loop
      vertex -3.99999 14.6 0
      vertex -2.19999 14.6 20
      vertex -3.99999 14.6 20
    endloop
  endfacet
  facet normal 0 -1 -0
    outer loop
      vertex -2.19999 14.6 20
      vertex -3.99999 14.6 0
      vertex -2.19999 14.6 0
    endloop
  endfacet
  facet normal -1 0 0
    outer loop
      vertex -3.99999 14.6 0
      vertex -3.99999 25.4 20
      vertex -3.99999 25.4 0
    endloop
  endfacet
  facet normal -1 -0 0
    outer loop
      vertex -3.99999 25.4 20
      vertex -3.99999 14.6 0
      vertex -3.99999 14.6 20
    endloop
  endfacet
  facet normal 1 -0 0
    outer loop
      vertex -2.19999 23.4 20
      vertex -2.19999 25.4 0
      vertex -2.19999 25.4 20
    endloop
  endfacet
  facet normal 1 0 0
    outer loop
      vertex -2.19999 25.4 0
      vertex -2.19999 23.4 20
      vertex -2.19999 23.4 0
    endloop
  endfacet
  facet normal 1 -0 0
    outer loop
      vertex -2.19999 14.6 20
      vertex -2.19999 16.6 0
      vertex -2.19999 16.6 20
    endloop
  endfacet
  facet normal 1 0 0
    outer loop
      vertex -2.19999 16.6 0
      vertex -2.19999 14.6 20
      vertex -2.19999 14.6 0
    endloop
  endfacet
  facet normal 0 1 -0
    outer loop
      vertex 0 23.4 0
      vertex -2.19999 23.4 20
      vertex 0 23.4 20
    endloop
  endfacet
  facet normal 0 1 0
    outer loop
      vertex -2.19999 23.4 20
      vertex 0 23.4 0
      vertex -2.19999 23.4 0
    endloop
  endfacet
  facet normal 0 -1 0
    outer loop
      vertex -2.19999 16.6 0
      vertex 0 16.6 20
      vertex -2.19999 16.6 20
    endloop
  endfacet
  facet normal 0 -1 -0
    outer loop
      vertex 0 16.6 20
      vertex -2.19999 16.6 0
      vertex 0 16.6 0
    endloop
  endfacet
endsolid OpenSCAD_Model
