solid OpenSCAD_Model
  facet normal 0 1 -0
    outer loop
      vertex 140 16.4 0
      vertex 138.2 16.4 20
      vertex 140 16.4 20
    endloop
  endfacet
  facet normal 0 1 0
    outer loop
      vertex 138.2 16.4 20
      vertex 140 16.4 0
      vertex 138.2 16.4 0
    endloop
  endfacet
  facet normal 0 0 1
    outer loop
      vertex 1.79999 4.4 20
      vertex 0 4.4 20
      vertex 1.79999 2.4 20
    endloop
  endfacet
  facet normal -0 0 1
    outer loop
      vertex 11.6 84 20
      vertex 13.6 82.2 20
      vertex 16.6 84 20
    endloop
  endfacet
  facet normal 0 0 1
    outer loop
      vertex 13.6 82.2 20
      vertex 11.6 84 20
      vertex 11.6 82.2 20
    endloop
  endfacet
  facet normal 0 0 1
    outer loop
      vertex 25.4 88 20
      vertex 23.4 86.2 20
      vertex 25.4 86.2 20
    endloop
  endfacet
  facet normal 0 0 1
    outer loop
      vertex 23.4 86.2 20
      vertex 16.6 86.2 20
      vertex 23.4 84 20
    endloop
  endfacet
  facet normal 0 0 1
    outer loop
      vertex 25.4 88 20
      vertex 16.6 86.2 20
      vertex 23.4 86.2 20
    endloop
  endfacet
  facet normal -0 0 1
    outer loop
      vertex 14.6 88 20
      vertex 16.6 86.2 20
      vertex 25.4 88 20
    endloop
  endfacet
  facet normal 0 0 1
    outer loop
      vertex 16.6 86.2 20
      vertex 14.6 88 20
      vertex 14.6 86.2 20
    endloop
  endfacet
  facet normal 0 0 1
    outer loop
      vertex 32.4 84 20
      vertex 30.4 82.2 20
      vertex 32.4 82.2 20
    endloop
  endfacet
  facet normal 0 0 1
    outer loop
      vertex 30.4 82.2 20
      vertex 23.4 84 20
      vertex 30.4 80 20
    endloop
  endfacet
  facet normal -0 0 1
    outer loop
      vertex 23.4 84 20
      vertex 30.4 82.2 20
      vertex 32.4 84 20
    endloop
  endfacet
  facet normal -0 0 1
    outer loop
      vertex 39.6 84 20
      vertex 41.6 82.2 20
      vertex 44.6 84 20
    endloop
  endfacet
  facet normal 0 0 1
    outer loop
      vertex 41.6 82.2 20
      vertex 39.6 84 20
      vertex 39.6 82.2 20
    endloop
  endfacet
  facet normal 0 0 1
    outer loop
      vertex 53.4 88 20
      vertex 51.4 86.2 20
      vertex 53.4 86.2 20
    endloop
  endfacet
  facet normal 0 0 1
    outer loop
      vertex 51.4 86.2 20
      vertex 44.6 86.2 20
      vertex 51.4 84 20
    endloop
  endfacet
  facet normal 0 0 1
    outer loop
      vertex 53.4 88 20
      vertex 44.6 86.2 20
      vertex 51.4 86.2 20
    endloop
  endfacet
  facet normal -0 0 1
    outer loop
      vertex 42.6 88 20
      vertex 44.6 86.2 20
      vertex 53.4 88 20
    endloop
  endfacet
  facet normal 0 0 1
    outer loop
      vertex 44.6 86.2 20
      vertex 42.6 88 20
      vertex 42.6 86.2 20
    endloop
  endfacet
  facet normal 0 0 1
    outer loop
      vertex 60.4 84 20
      vertex 58.4 82.2 20
      vertex 60.4 82.2 20
    endloop
  endfacet
  facet normal 0 0 1
    outer loop
      vertex 58.4 82.2 20
      vertex 51.4 84 20
      vertex 58.4 80 20
    endloop
  endfacet
  facet normal -0 0 1
    outer loop
      vertex 51.4 84 20
      vertex 58.4 82.2 20
      vertex 60.4 84 20
    endloop
  endfacet
  facet normal -0 0 1
    outer loop
      vertex 67.6 84 20
      vertex 69.6 82.2 20
      vertex 72.6 84 20
    endloop
  endfacet
  facet normal 0 0 1
    outer loop
      vertex 69.6 82.2 20
      vertex 67.6 84 20
      vertex 67.6 82.2 20
    endloop
  endfacet
  facet normal 0 0 1
    outer loop
      vertex 81.4 88 20
      vertex 79.4 86.2 20
      vertex 81.4 86.2 20
    endloop
  endfacet
  facet normal 0 0 1
    outer loop
      vertex 79.4 86.2 20
      vertex 72.6 86.2 20
      vertex 79.4 84 20
    endloop
  endfacet
  facet normal 0 0 1
    outer loop
      vertex 81.4 88 20
      vertex 72.6 86.2 20
      vertex 79.4 86.2 20
    endloop
  endfacet
  facet normal -0 0 1
    outer loop
      vertex 70.6 88 20
      vertex 72.6 86.2 20
      vertex 81.4 88 20
    endloop
  endfacet
  facet normal 0 0 1
    outer loop
      vertex 72.6 86.2 20
      vertex 70.6 88 20
      vertex 70.6 86.2 20
    endloop
  endfacet
  facet normal 0 0 1
    outer loop
      vertex 88.4 84 20
      vertex 86.4 82.2 20
      vertex 88.4 82.2 20
    endloop
  endfacet
  facet normal 0 0 1
    outer loop
      vertex 86.4 82.2 20
      vertex 79.4 84 20
      vertex 86.4 80 20
    endloop
  endfacet
  facet normal -0 0 1
    outer loop
      vertex 79.4 84 20
      vertex 86.4 82.2 20
      vertex 88.4 84 20
    endloop
  endfacet
  facet normal -0 0 1
    outer loop
      vertex 95.6 84 20
      vertex 97.6 82.2 20
      vertex 100.6 84 20
    endloop
  endfacet
  facet normal 0 0 1
    outer loop
      vertex 97.6 82.2 20
      vertex 95.6 84 20
      vertex 95.6 82.2 20
    endloop
  endfacet
  facet normal 0 0 1
    outer loop
      vertex 109.4 88 20
      vertex 107.4 86.2 20
      vertex 109.4 86.2 20
    endloop
  endfacet
  facet normal 0 0 1
    outer loop
      vertex 107.4 86.2 20
      vertex 100.6 86.2 20
      vertex 107.4 84 20
    endloop
  endfacet
  facet normal 0 0 1
    outer loop
      vertex 109.4 88 20
      vertex 100.6 86.2 20
      vertex 107.4 86.2 20
    endloop
  endfacet
  facet normal -0 0 1
    outer loop
      vertex 98.6 88 20
      vertex 100.6 86.2 20
      vertex 109.4 88 20
    endloop
  endfacet
  facet normal 0 0 1
    outer loop
      vertex 100.6 86.2 20
      vertex 98.6 88 20
      vertex 98.6 86.2 20
    endloop
  endfacet
  facet normal 0 0 1
    outer loop
      vertex 116.4 84 20
      vertex 114.4 82.2 20
      vertex 116.4 82.2 20
    endloop
  endfacet
  facet normal 0 0 1
    outer loop
      vertex 114.4 82.2 20
      vertex 107.4 84 20
      vertex 114.4 80 20
    endloop
  endfacet
  facet normal -0 0 1
    outer loop
      vertex 107.4 84 20
      vertex 114.4 82.2 20
      vertex 116.4 84 20
    endloop
  endfacet
  facet normal -0 0 1
    outer loop
      vertex 123.6 84 20
      vertex 125.6 82.2 20
      vertex 128.6 84 20
    endloop
  endfacet
  facet normal 0 0 1
    outer loop
      vertex 125.6 82.2 20
      vertex 123.6 84 20
      vertex 123.6 82.2 20
    endloop
  endfacet
  facet normal 0 0 1
    outer loop
      vertex 137.4 88 20
      vertex 135.4 86.2 20
      vertex 137.4 86.2 20
    endloop
  endfacet
  facet normal 0 0 1
    outer loop
      vertex 135.4 86.2 20
      vertex 128.6 86.2 20
      vertex 135.4 84 20
    endloop
  endfacet
  facet normal 0 0 1
    outer loop
      vertex 137.4 88 20
      vertex 128.6 86.2 20
      vertex 135.4 86.2 20
    endloop
  endfacet
  facet normal -0 0 1
    outer loop
      vertex 126.6 88 20
      vertex 128.6 86.2 20
      vertex 137.4 88 20
    endloop
  endfacet
  facet normal 0 0 1
    outer loop
      vertex 128.6 86.2 20
      vertex 126.6 88 20
      vertex 126.6 86.2 20
    endloop
  endfacet
  facet normal 0 0 1
    outer loop
      vertex 140 84 20
      vertex 138.2 81.6 20
      vertex 140 79.6 20
    endloop
  endfacet
  facet normal -0 0 1
    outer loop
      vertex 135.4 84 20
      vertex 138.2 81.6 20
      vertex 140 84 20
    endloop
  endfacet
  facet normal -0 0 1
    outer loop
      vertex 125.6 80 20
      vertex 136 70.4 20
      vertex 136 81.6 20
    endloop
  endfacet
  facet normal -0 0 1
    outer loop
      vertex 114.4 80 20
      vertex 136 70.4 20
      vertex 125.6 80 20
    endloop
  endfacet
  facet normal 0 0 1
    outer loop
      vertex 136 70.4 20
      vertex 114.4 80 20
      vertex 136 53.6 20
    endloop
  endfacet
  facet normal -0 0 1
    outer loop
      vertex 97.6 80 20
      vertex 136 53.6 20
      vertex 114.4 80 20
    endloop
  endfacet
  facet normal -0 0 1
    outer loop
      vertex 128.6 84 20
      vertex 136 81.6 20
      vertex 135.4 84 20
    endloop
  endfacet
  facet normal 0 0 1
    outer loop
      vertex 138.2 81.6 20
      vertex 135.4 84 20
      vertex 136 81.6 20
    endloop
  endfacet
  facet normal 0 0 1
    outer loop
      vertex 140 79.6 20
      vertex 138.2 81.6 20
      vertex 138.2 79.6 20
    endloop
  endfacet
  facet normal 0 0 1
    outer loop
      vertex 136 53.6 20
      vertex 140 60.6 20
      vertex 136 70.4 20
    endloop
  endfacet
  facet normal 0 0 1
    outer loop
      vertex 140 60.6 20
      vertex 136 53.6 20
      vertex 138.2 53.6 20
    endloop
  endfacet
  facet normal -0 0 1
    outer loop
      vertex 138.2 70.4 20
      vertex 140 67.4 20
      vertex 140 72.4 20
    endloop
  endfacet
  facet normal -0 0 1
    outer loop
      vertex 136 70.4 20
      vertex 140 67.4 20
      vertex 138.2 70.4 20
    endloop
  endfacet
  facet normal 0 0 1
    outer loop
      vertex 138.2 70.4 20
      vertex 140 72.4 20
      vertex 138.2 72.4 20
    endloop
  endfacet
  facet normal 0 0 1
    outer loop
      vertex 140 67.4 20
      vertex 136 70.4 20
      vertex 140 60.6 20
    endloop
  endfacet
  facet normal 0 0 1
    outer loop
      vertex 140 60.6 20
      vertex 138.2 53.6 20
      vertex 140 51.6 20
    endloop
  endfacet
  facet normal 0 0 1
    outer loop
      vertex 140 51.6 20
      vertex 138.2 53.6 20
      vertex 138.2 51.6 20
    endloop
  endfacet
  facet normal -0 0 1
    outer loop
      vertex 140 67.4 20
      vertex 142.2 60.6 20
      vertex 142.2 67.4 20
    endloop
  endfacet
  facet normal 0 0 1
    outer loop
      vertex 142.2 60.6 20
      vertex 140 67.4 20
      vertex 140 60.6 20
    endloop
  endfacet
  facet normal 0 0 1
    outer loop
      vertex 142.2 67.4 20
      vertex 144 69.4 20
      vertex 142.2 69.4 20
    endloop
  endfacet
  facet normal 0 0 1
    outer loop
      vertex 144 69.4 20
      vertex 142.2 67.4 20
      vertex 144 58.6 20
    endloop
  endfacet
  facet normal -0 0 1
    outer loop
      vertex 142.2 60.6 20
      vertex 144 58.6 20
      vertex 142.2 67.4 20
    endloop
  endfacet
  facet normal 0 0 1
    outer loop
      vertex 144 58.6 20
      vertex 142.2 60.6 20
      vertex 142.2 58.6 20
    endloop
  endfacet
  facet normal 0 0 1
    outer loop
      vertex 136 25.6 20
      vertex 140 32.6 20
      vertex 136 42.4 20
    endloop
  endfacet
  facet normal 0 0 1
    outer loop
      vertex 140 32.6 20
      vertex 136 25.6 20
      vertex 138.2 25.6 20
    endloop
  endfacet
  facet normal -0 0 1
    outer loop
      vertex 138.2 42.4 20
      vertex 140 39.4 20
      vertex 140 44.4 20
    endloop
  endfacet
  facet normal -0 0 1
    outer loop
      vertex 136 42.4 20
      vertex 140 39.4 20
      vertex 138.2 42.4 20
    endloop
  endfacet
  facet normal 0 0 1
    outer loop
      vertex 138.2 42.4 20
      vertex 140 44.4 20
      vertex 138.2 44.4 20
    endloop
  endfacet
  facet normal 0 0 1
    outer loop
      vertex 140 39.4 20
      vertex 136 42.4 20
      vertex 140 32.6 20
    endloop
  endfacet
  facet normal 0 0 1
    outer loop
      vertex 140 32.6 20
      vertex 138.2 25.6 20
      vertex 140 23.6 20
    endloop
  endfacet
  facet normal 0 0 1
    outer loop
      vertex 140 23.6 20
      vertex 138.2 25.6 20
      vertex 138.2 23.6 20
    endloop
  endfacet
  facet normal -0 0 1
    outer loop
      vertex 140 39.4 20
      vertex 142.2 32.6 20
      vertex 142.2 39.4 20
    endloop
  endfacet
  facet normal 0 0 1
    outer loop
      vertex 142.2 32.6 20
      vertex 140 39.4 20
      vertex 140 32.6 20
    endloop
  endfacet
  facet normal 0 0 1
    outer loop
      vertex 142.2 39.4 20
      vertex 144 41.4 20
      vertex 142.2 41.4 20
    endloop
  endfacet
  facet normal 0 0 1
    outer loop
      vertex 144 41.4 20
      vertex 142.2 39.4 20
      vertex 144 30.6 20
    endloop
  endfacet
  facet normal -0 0 1
    outer loop
      vertex 142.2 32.6 20
      vertex 144 30.6 20
      vertex 142.2 39.4 20
    endloop
  endfacet
  facet normal 0 0 1
    outer loop
      vertex 144 30.6 20
      vertex 142.2 32.6 20
      vertex 142.2 30.6 20
    endloop
  endfacet
  facet normal -0 0 1
    outer loop
      vertex 138.2 14.4 20
      vertex 140 11.4 20
      vertex 140 16.4 20
    endloop
  endfacet
  facet normal -0 0 1
    outer loop
      vertex 136 14.4 20
      vertex 140 11.4 20
      vertex 138.2 14.4 20
    endloop
  endfacet
  facet normal 0 0 1
    outer loop
      vertex 138.2 14.4 20
      vertex 140 16.4 20
      vertex 138.2 16.4 20
    endloop
  endfacet
  facet normal 0 0 1
    outer loop
      vertex 140 11.4 20
      vertex 136 14.4 20
      vertex 140 4.6 20
    endloop
  endfacet
  facet normal 0 0 1
    outer loop
      vertex 140 4.6 20
      vertex 136 14.4 20
      vertex 140 0 20
    endloop
  endfacet
  facet normal 0 0 1
    outer loop
      vertex 128.6 84 20
      vertex 135.4 84 20
      vertex 128.6 86.2 20
    endloop
  endfacet
  facet normal 0 0 1
    outer loop
      vertex 136 81.6 20
      vertex 128.6 84 20
      vertex 125.6 80 20
    endloop
  endfacet
  facet normal 0 0 1
    outer loop
      vertex 125.6 80 20
      vertex 128.6 84 20
      vertex 125.6 82.2 20
    endloop
  endfacet
  facet normal 0 0 1
    outer loop
      vertex 136 53.6 20
      vertex 97.6 80 20
      vertex 136 42.4 20
    endloop
  endfacet
  facet normal -0 0 1
    outer loop
      vertex 86.4 80 20
      vertex 136 42.4 20
      vertex 97.6 80 20
    endloop
  endfacet
  facet normal 0 0 1
    outer loop
      vertex 136 42.4 20
      vertex 86.4 80 20
      vertex 136 25.6 20
    endloop
  endfacet
  facet normal 0 0 1
    outer loop
      vertex 97.6 80 20
      vertex 114.4 80 20
      vertex 107.4 84 20
    endloop
  endfacet
  facet normal 0 0 1
    outer loop
      vertex 100.6 84 20
      vertex 107.4 84 20
      vertex 100.6 86.2 20
    endloop
  endfacet
  facet normal 0 0 1
    outer loop
      vertex 97.6 80 20
      vertex 107.4 84 20
      vertex 100.6 84 20
    endloop
  endfacet
  facet normal 0 0 1
    outer loop
      vertex 97.6 80 20
      vertex 100.6 84 20
      vertex 97.6 82.2 20
    endloop
  endfacet
  facet normal -0 0 1
    outer loop
      vertex 69.6 80 20
      vertex 136 25.6 20
      vertex 86.4 80 20
    endloop
  endfacet
  facet normal 0 0 1
    outer loop
      vertex 136 25.6 20
      vertex 69.6 80 20
      vertex 136 14.4 20
    endloop
  endfacet
  facet normal 0 0 1
    outer loop
      vertex 69.6 80 20
      vertex 86.4 80 20
      vertex 79.4 84 20
    endloop
  endfacet
  facet normal 0 0 1
    outer loop
      vertex 72.6 84 20
      vertex 79.4 84 20
      vertex 72.6 86.2 20
    endloop
  endfacet
  facet normal 0 0 1
    outer loop
      vertex 69.6 80 20
      vertex 79.4 84 20
      vertex 72.6 84 20
    endloop
  endfacet
  facet normal 0 0 1
    outer loop
      vertex 69.6 80 20
      vertex 72.6 84 20
      vertex 69.6 82.2 20
    endloop
  endfacet
  facet normal 0 0 1
    outer loop
      vertex 3.99999 13.6 20
      vertex 136 14.4 20
      vertex 69.6 80 20
    endloop
  endfacet
  facet normal 0 0 1
    outer loop
      vertex 3.99999 13.6 20
      vertex 69.6 80 20
      vertex 58.4 80 20
    endloop
  endfacet
  facet normal 0 0 1
    outer loop
      vertex 41.6 80 20
      vertex 58.4 80 20
      vertex 51.4 84 20
    endloop
  endfacet
  facet normal 0 0 1
    outer loop
      vertex 44.6 84 20
      vertex 51.4 84 20
      vertex 44.6 86.2 20
    endloop
  endfacet
  facet normal 0 0 1
    outer loop
      vertex 41.6 80 20
      vertex 51.4 84 20
      vertex 44.6 84 20
    endloop
  endfacet
  facet normal 0 0 1
    outer loop
      vertex 41.6 80 20
      vertex 44.6 84 20
      vertex 41.6 82.2 20
    endloop
  endfacet
  facet normal 0 0 1
    outer loop
      vertex 3.99999 30.4 20
      vertex 58.4 80 20
      vertex 41.6 80 20
    endloop
  endfacet
  facet normal 0 0 1
    outer loop
      vertex 3.99999 41.6 20
      vertex 41.6 80 20
      vertex 30.4 80 20
    endloop
  endfacet
  facet normal 0 0 1
    outer loop
      vertex 13.6 80 20
      vertex 30.4 80 20
      vertex 23.4 84 20
    endloop
  endfacet
  facet normal 0 0 1
    outer loop
      vertex 16.6 84 20
      vertex 23.4 84 20
      vertex 16.6 86.2 20
    endloop
  endfacet
  facet normal 0 0 1
    outer loop
      vertex 13.6 80 20
      vertex 23.4 84 20
      vertex 16.6 84 20
    endloop
  endfacet
  facet normal 0 0 1
    outer loop
      vertex 13.6 80 20
      vertex 16.6 84 20
      vertex 13.6 82.2 20
    endloop
  endfacet
  facet normal 0 0 1
    outer loop
      vertex 30.4 80 20
      vertex 13.6 80 20
      vertex 3.99999 58.4 20
    endloop
  endfacet
  facet normal 0 0 1
    outer loop
      vertex 3.99999 58.4 20
      vertex 13.6 80 20
      vertex 3.99999 69.6 20
    endloop
  endfacet
  facet normal 0 0 1
    outer loop
      vertex 30.4 80 20
      vertex 3.99999 58.4 20
      vertex 3.99999 41.6 20
    endloop
  endfacet
  facet normal 0 0 1
    outer loop
      vertex 41.6 80 20
      vertex 3.99999 41.6 20
      vertex 3.99999 30.4 20
    endloop
  endfacet
  facet normal 0 0 1
    outer loop
      vertex 58.4 80 20
      vertex 3.99999 30.4 20
      vertex 3.99999 13.6 20
    endloop
  endfacet
  facet normal 0 0 1
    outer loop
      vertex 3.99999 2.4 20
      vertex 136 14.4 20
      vertex 3.99999 13.6 20
    endloop
  endfacet
  facet normal 0 0 1
    outer loop
      vertex 136 14.4 20
      vertex 3.99999 2.4 20
      vertex 140 0 20
    endloop
  endfacet
  facet normal 0 0 1
    outer loop
      vertex 0 0 20
      vertex 3.99999 2.4 20
      vertex 1.79999 2.4 20
    endloop
  endfacet
  facet normal 0 0 1
    outer loop
      vertex 3.99999 2.4 20
      vertex 0 0 20
      vertex 140 0 20
    endloop
  endfacet
  facet normal 0 0 1
    outer loop
      vertex 0 0 20
      vertex 1.79999 2.4 20
      vertex 0 4.4 20
    endloop
  endfacet
  facet normal -0 0 1
    outer loop
      vertex 140 11.4 20
      vertex 142.2 4.6 20
      vertex 142.2 11.4 20
    endloop
  endfacet
  facet normal 0 0 1
    outer loop
      vertex 142.2 4.6 20
      vertex 140 11.4 20
      vertex 140 4.6 20
    endloop
  endfacet
  facet normal 0 0 1
    outer loop
      vertex 142.2 11.4 20
      vertex 144 13.4 20
      vertex 142.2 13.4 20
    endloop
  endfacet
  facet normal 0 0 1
    outer loop
      vertex 144 13.4 20
      vertex 142.2 11.4 20
      vertex 144 2.6 20
    endloop
  endfacet
  facet normal -0 0 1
    outer loop
      vertex 142.2 4.6 20
      vertex 144 2.6 20
      vertex 142.2 11.4 20
    endloop
  endfacet
  facet normal 0 0 1
    outer loop
      vertex 144 2.6 20
      vertex 142.2 4.6 20
      vertex 142.2 2.6 20
    endloop
  endfacet
  facet normal -0 0 1
    outer loop
      vertex 0 32.4 20
      vertex 1.79999 30.4 20
      vertex 1.79999 32.4 20
    endloop
  endfacet
  facet normal 0 0 1
    outer loop
      vertex 1.79999 30.4 20
      vertex 0 23.4 20
      vertex 1.79999 13.6 20
    endloop
  endfacet
  facet normal 0 0 1
    outer loop
      vertex 1.79999 30.4 20
      vertex 0 32.4 20
      vertex 0 23.4 20
    endloop
  endfacet
  facet normal -0 0 1
    outer loop
      vertex 0 16.6 20
      vertex 1.79999 13.6 20
      vertex 0 23.4 20
    endloop
  endfacet
  facet normal 0 0 1
    outer loop
      vertex 0 11.6 20
      vertex 1.79999 13.6 20
      vertex 0 16.6 20
    endloop
  endfacet
  facet normal 0 0 1
    outer loop
      vertex 1.79999 13.6 20
      vertex 0 11.6 20
      vertex 1.79999 11.6 20
    endloop
  endfacet
  facet normal -0 0 1
    outer loop
      vertex 0 60.4 20
      vertex 1.79999 58.4 20
      vertex 1.79999 60.4 20
    endloop
  endfacet
  facet normal 0 0 1
    outer loop
      vertex 1.79999 58.4 20
      vertex 0 51.4 20
      vertex 1.79999 41.6 20
    endloop
  endfacet
  facet normal 0 0 1
    outer loop
      vertex 1.79999 58.4 20
      vertex 0 60.4 20
      vertex 0 51.4 20
    endloop
  endfacet
  facet normal -0 0 1
    outer loop
      vertex 0 44.6 20
      vertex 1.79999 41.6 20
      vertex 0 51.4 20
    endloop
  endfacet
  facet normal 0 0 1
    outer loop
      vertex 0 39.6 20
      vertex 1.79999 41.6 20
      vertex 0 44.6 20
    endloop
  endfacet
  facet normal 0 0 1
    outer loop
      vertex 1.79999 41.6 20
      vertex 0 39.6 20
      vertex 1.79999 39.6 20
    endloop
  endfacet
  facet normal 0 0 1
    outer loop
      vertex 4.4 84 20
      vertex 2.4 82.2 20
      vertex 4.4 82.2 20
    endloop
  endfacet
  facet normal 0 0 1
    outer loop
      vertex 0 79.4 20
      vertex 2.4 80 20
      vertex 2.4 82.2 20
    endloop
  endfacet
  facet normal -0 0 1
    outer loop
      vertex 0 84 20
      vertex 2.4 82.2 20
      vertex 4.4 84 20
    endloop
  endfacet
  facet normal 0 0 1
    outer loop
      vertex 0 79.4 20
      vertex 2.4 82.2 20
      vertex 0 84 20
    endloop
  endfacet
  facet normal 0 0 1
    outer loop
      vertex 2.4 80 20
      vertex 0 79.4 20
      vertex 0 72.6 20
    endloop
  endfacet
  facet normal 0 0 1
    outer loop
      vertex 2.4 80 20
      vertex 0 72.6 20
      vertex 1.79999 69.6 20
    endloop
  endfacet
  facet normal 0 0 1
    outer loop
      vertex 0 67.6 20
      vertex 1.79999 69.6 20
      vertex 0 72.6 20
    endloop
  endfacet
  facet normal 0 0 1
    outer loop
      vertex 1.79999 69.6 20
      vertex 0 67.6 20
      vertex 1.79999 67.6 20
    endloop
  endfacet
  facet normal -0 0 1
    outer loop
      vertex 1.79999 30.4 20
      vertex 3.99999 13.6 20
      vertex 3.99999 30.4 20
    endloop
  endfacet
  facet normal 0 0 1
    outer loop
      vertex 3.99999 13.6 20
      vertex 1.79999 30.4 20
      vertex 1.79999 13.6 20
    endloop
  endfacet
  facet normal -0 0 1
    outer loop
      vertex 1.79999 58.4 20
      vertex 3.99999 41.6 20
      vertex 3.99999 58.4 20
    endloop
  endfacet
  facet normal 0 0 1
    outer loop
      vertex 3.99999 41.6 20
      vertex 1.79999 58.4 20
      vertex 1.79999 41.6 20
    endloop
  endfacet
  facet normal -0 0 1
    outer loop
      vertex 2.4 80 20
      vertex 3.99999 69.6 20
      vertex 13.6 80 20
    endloop
  endfacet
  facet normal 0 0 1
    outer loop
      vertex 3.99999 69.6 20
      vertex 2.4 80 20
      vertex 1.79999 69.6 20
    endloop
  endfacet
  facet normal -0 0 1
    outer loop
      vertex -3.99999 25.4 20
      vertex -2.19999 23.4 20
      vertex -2.19999 25.4 20
    endloop
  endfacet
  facet normal 0 0 1
    outer loop
      vertex -2.19999 23.4 20
      vertex -3.99999 25.4 20
      vertex -2.19999 16.6 20
    endloop
  endfacet
  facet normal 0 0 1
    outer loop
      vertex -3.99999 14.6 20
      vertex -2.19999 16.6 20
      vertex -3.99999 25.4 20
    endloop
  endfacet
  facet normal 0 0 1
    outer loop
      vertex -2.19999 16.6 20
      vertex -3.99999 14.6 20
      vertex -2.19999 14.6 20
    endloop
  endfacet
  facet normal -0 0 1
    outer loop
      vertex -3.99999 53.4 20
      vertex -2.19999 51.4 20
      vertex -2.19999 53.4 20
    endloop
  endfacet
  facet normal 0 0 1
    outer loop
      vertex -2.19999 51.4 20
      vertex -3.99999 53.4 20
      vertex -2.19999 44.6 20
    endloop
  endfacet
  facet normal 0 0 1
    outer loop
      vertex -3.99999 42.6 20
      vertex -2.19999 44.6 20
      vertex -3.99999 53.4 20
    endloop
  endfacet
  facet normal 0 0 1
    outer loop
      vertex -2.19999 44.6 20
      vertex -3.99999 42.6 20
      vertex -2.19999 42.6 20
    endloop
  endfacet
  facet normal -0 0 1
    outer loop
      vertex -3.99999 81.4 20
      vertex -2.19999 79.4 20
      vertex -2.19999 81.4 20
    endloop
  endfacet
  facet normal 0 0 1
    outer loop
      vertex -2.19999 79.4 20
      vertex -3.99999 81.4 20
      vertex -2.19999 72.6 20
    endloop
  endfacet
  facet normal 0 0 1
    outer loop
      vertex -3.99999 70.6 20
      vertex -2.19999 72.6 20
      vertex -3.99999 81.4 20
    endloop
  endfacet
  facet normal 0 0 1
    outer loop
      vertex -2.19999 72.6 20
      vertex -3.99999 70.6 20
      vertex -2.19999 70.6 20
    endloop
  endfacet
  facet normal -0 0 1
    outer loop
      vertex -2.19999 23.4 20
      vertex 0 16.6 20
      vertex 0 23.4 20
    endloop
  endfacet
  facet normal 0 0 1
    outer loop
      vertex 0 16.6 20
      vertex -2.19999 23.4 20
      vertex -2.19999 16.6 20
    endloop
  endfacet
  facet normal -0 0 1
    outer loop
      vertex -2.19999 51.4 20
      vertex 0 44.6 20
      vertex 0 51.4 20
    endloop
  endfacet
  facet normal 0 0 1
    outer loop
      vertex 0 44.6 20
      vertex -2.19999 51.4 20
      vertex -2.19999 44.6 20
    endloop
  endfacet
  facet normal -0 0 1
    outer loop
      vertex -2.19999 79.4 20
      vertex 0 72.6 20
      vertex 0 79.4 20
    endloop
  endfacet
  facet normal 0 0 1
    outer loop
      vertex 0 72.6 20
      vertex -2.19999 79.4 20
      vertex -2.19999 72.6 20
    endloop
  endfacet
  facet normal 0 -1 0
    outer loop
      vertex 138.2 23.6 0
      vertex 140 23.6 20
      vertex 138.2 23.6 20
    endloop
  endfacet
  facet normal 0 -1 -0
    outer loop
      vertex 140 23.6 20
      vertex 138.2 23.6 0
      vertex 140 23.6 0
    endloop
  endfacet
  facet normal -1 0 0
    outer loop
      vertex 138.2 14.4 0
      vertex 138.2 16.4 20
      vertex 138.2 16.4 0
    endloop
  endfacet
  facet normal -1 -0 0
    outer loop
      vertex 138.2 16.4 20
      vertex 138.2 14.4 0
      vertex 138.2 14.4 20
    endloop
  endfacet
  facet normal -1 0 0
    outer loop
      vertex 138.2 23.6 0
      vertex 138.2 25.6 20
      vertex 138.2 25.6 0
    endloop
  endfacet
  facet normal -1 -0 0
    outer loop
      vertex 138.2 25.6 20
      vertex 138.2 23.6 0
      vertex 138.2 23.6 20
    endloop
  endfacet
  facet normal 0 0 -1
    outer loop
      vertex 0 44.6 0
      vertex 3.99999 41.6 0
      vertex 1.79999 41.6 0
    endloop
  endfacet
  facet normal 0 0 -1
    outer loop
      vertex 3.99999 41.6 0
      vertex 0 51.4 0
      vertex 3.99999 58.4 0
    endloop
  endfacet
  facet normal 0 0 -1
    outer loop
      vertex 0 16.6 0
      vertex 3.99999 13.6 0
      vertex 1.79999 13.6 0
    endloop
  endfacet
  facet normal 0 0 -1
    outer loop
      vertex 3.99999 13.6 0
      vertex 0 23.4 0
      vertex 3.99999 30.4 0
    endloop
  endfacet
  facet normal 0 0 -1
    outer loop
      vertex 136 14.4 0
      vertex 140 4.6 0
      vertex 140 0 0
    endloop
  endfacet
  facet normal 0 0 -1
    outer loop
      vertex 140 4.6 0
      vertex 136 14.4 0
      vertex 140 11.4 0
    endloop
  endfacet
  facet normal 0 0 -1
    outer loop
      vertex 140 11.4 0
      vertex 138.2 14.4 0
      vertex 140 16.4 0
    endloop
  endfacet
  facet normal 0 0 -1
    outer loop
      vertex 140 11.4 0
      vertex 136 14.4 0
      vertex 138.2 14.4 0
    endloop
  endfacet
  facet normal 0 0 -1
    outer loop
      vertex 69.6 80 0
      vertex 136 25.6 0
      vertex 136 14.4 0
    endloop
  endfacet
  facet normal 0 0 -1
    outer loop
      vertex 136 25.6 0
      vertex 86.4 80 0
      vertex 136 42.4 0
    endloop
  endfacet
  facet normal 0 0 -1
    outer loop
      vertex 136 42.4 0
      vertex 97.6 80 0
      vertex 136 53.6 0
    endloop
  endfacet
  facet normal 0 0 -1
    outer loop
      vertex 136 53.6 0
      vertex 114.4 80 0
      vertex 136 70.4 0
    endloop
  endfacet
  facet normal 0 0 -1
    outer loop
      vertex 136 70.4 0
      vertex 125.6 80 0
      vertex 136 81.6 0
    endloop
  endfacet
  facet normal 0 0 -1
    outer loop
      vertex 135.4 84 0
      vertex 128.6 84 0
      vertex 135.4 86.2 0
    endloop
  endfacet
  facet normal 0 -0 -1
    outer loop
      vertex 128.6 84 0
      vertex 136 81.6 0
      vertex 125.6 80 0
    endloop
  endfacet
  facet normal 0 0 -1
    outer loop
      vertex 136 81.6 0
      vertex 128.6 84 0
      vertex 135.4 84 0
    endloop
  endfacet
  facet normal 0 0 -1
    outer loop
      vertex 136 70.4 0
      vertex 114.4 80 0
      vertex 125.6 80 0
    endloop
  endfacet
  facet normal 0 0 -1
    outer loop
      vertex 3.99999 2.4 0
      vertex 136 14.4 0
      vertex 140 0 0
    endloop
  endfacet
  facet normal 0 0 -1
    outer loop
      vertex 114.4 80 0
      vertex 107.4 84 0
      vertex 114.4 82.2 0
    endloop
  endfacet
  facet normal 0 0 -1
    outer loop
      vertex 136 53.6 0
      vertex 97.6 80 0
      vertex 114.4 80 0
    endloop
  endfacet
  facet normal 0 0 -1
    outer loop
      vertex 107.4 84 0
      vertex 100.6 84 0
      vertex 107.4 86.2 0
    endloop
  endfacet
  facet normal 0 0 -1
    outer loop
      vertex 114.4 80 0
      vertex 97.6 80 0
      vertex 107.4 84 0
    endloop
  endfacet
  facet normal -0 0 -1
    outer loop
      vertex 107.4 84 0
      vertex 97.6 80 0
      vertex 100.6 84 0
    endloop
  endfacet
  facet normal 0 0 -1
    outer loop
      vertex 136 42.4 0
      vertex 86.4 80 0
      vertex 97.6 80 0
    endloop
  endfacet
  facet normal 0 0 -1
    outer loop
      vertex 86.4 80 0
      vertex 79.4 84 0
      vertex 86.4 82.2 0
    endloop
  endfacet
  facet normal 0 0 -1
    outer loop
      vertex 136 25.6 0
      vertex 69.6 80 0
      vertex 86.4 80 0
    endloop
  endfacet
  facet normal 0 0 -1
    outer loop
      vertex 79.4 84 0
      vertex 72.6 84 0
      vertex 79.4 86.2 0
    endloop
  endfacet
  facet normal 0 0 -1
    outer loop
      vertex 86.4 80 0
      vertex 69.6 80 0
      vertex 79.4 84 0
    endloop
  endfacet
  facet normal -0 0 -1
    outer loop
      vertex 79.4 84 0
      vertex 69.6 80 0
      vertex 72.6 84 0
    endloop
  endfacet
  facet normal -0 0 -1
    outer loop
      vertex 136 14.4 0
      vertex 3.99999 13.6 0
      vertex 69.6 80 0
    endloop
  endfacet
  facet normal 0 0 -1
    outer loop
      vertex 58.4 80 0
      vertex 51.4 84 0
      vertex 58.4 82.2 0
    endloop
  endfacet
  facet normal -0 0 -1
    outer loop
      vertex 69.6 80 0
      vertex 3.99999 13.6 0
      vertex 58.4 80 0
    endloop
  endfacet
  facet normal 0 0 -1
    outer loop
      vertex 51.4 84 0
      vertex 44.6 84 0
      vertex 51.4 86.2 0
    endloop
  endfacet
  facet normal 0 0 -1
    outer loop
      vertex 58.4 80 0
      vertex 41.6 80 0
      vertex 51.4 84 0
    endloop
  endfacet
  facet normal -0 0 -1
    outer loop
      vertex 51.4 84 0
      vertex 41.6 80 0
      vertex 44.6 84 0
    endloop
  endfacet
  facet normal 0 0 -1
    outer loop
      vertex 3.99999 30.4 0
      vertex 58.4 80 0
      vertex 3.99999 13.6 0
    endloop
  endfacet
  facet normal 0 0 -1
    outer loop
      vertex 30.4 80 0
      vertex 23.4 84 0
      vertex 30.4 82.2 0
    endloop
  endfacet
  facet normal 0 0 -1
    outer loop
      vertex 3.99999 41.6 0
      vertex 41.6 80 0
      vertex 3.99999 30.4 0
    endloop
  endfacet
  facet normal 0 0 -1
    outer loop
      vertex 23.4 84 0
      vertex 16.6 84 0
      vertex 23.4 86.2 0
    endloop
  endfacet
  facet normal -0 0 -1
    outer loop
      vertex 41.6 80 0
      vertex 3.99999 41.6 0
      vertex 30.4 80 0
    endloop
  endfacet
  facet normal 0 -0 -1
    outer loop
      vertex 13.6 80 0
      vertex 30.4 80 0
      vertex 3.99999 58.4 0
    endloop
  endfacet
  facet normal 0 0 -1
    outer loop
      vertex 136 14.4 0
      vertex 3.99999 2.4 0
      vertex 3.99999 13.6 0
    endloop
  endfacet
  facet normal 0 0 -1
    outer loop
      vertex 0 0 0
      vertex 3.99999 2.4 0
      vertex 140 0 0
    endloop
  endfacet
  facet normal -0 0 -1
    outer loop
      vertex 3.99999 2.4 0
      vertex 0 0 0
      vertex 1.79999 2.4 0
    endloop
  endfacet
  facet normal 0 0 -1
    outer loop
      vertex 0 4.4 0
      vertex 1.79999 2.4 0
      vertex 0 0 0
    endloop
  endfacet
  facet normal 0 0 -1
    outer loop
      vertex 1.79999 2.4 0
      vertex 0 4.4 0
      vertex 1.79999 4.4 0
    endloop
  endfacet
  facet normal 0 0 -1
    outer loop
      vertex 140 4.6 0
      vertex 142.2 11.4 0
      vertex 142.2 4.6 0
    endloop
  endfacet
  facet normal -0 0 -1
    outer loop
      vertex 142.2 11.4 0
      vertex 140 4.6 0
      vertex 140 11.4 0
    endloop
  endfacet
  facet normal 0 0 -1
    outer loop
      vertex 142.2 4.6 0
      vertex 144 2.6 0
      vertex 142.2 2.6 0
    endloop
  endfacet
  facet normal 0 0 -1
    outer loop
      vertex 144 2.6 0
      vertex 142.2 4.6 0
      vertex 144 13.4 0
    endloop
  endfacet
  facet normal 0 0 -1
    outer loop
      vertex 142.2 11.4 0
      vertex 144 13.4 0
      vertex 142.2 4.6 0
    endloop
  endfacet
  facet normal -0 0 -1
    outer loop
      vertex 144 13.4 0
      vertex 142.2 11.4 0
      vertex 142.2 13.4 0
    endloop
  endfacet
  facet normal -0 0 -1
    outer loop
      vertex 140 16.4 0
      vertex 138.2 14.4 0
      vertex 138.2 16.4 0
    endloop
  endfacet
  facet normal 0 0 -1
    outer loop
      vertex 136 42.4 0
      vertex 140 32.6 0
      vertex 136 25.6 0
    endloop
  endfacet
  facet normal 0 0 -1
    outer loop
      vertex 140 32.6 0
      vertex 136 42.4 0
      vertex 138.2 42.4 0
    endloop
  endfacet
  facet normal 0 0 -1
    outer loop
      vertex 138.2 25.6 0
      vertex 140 32.6 0
      vertex 140 23.6 0
    endloop
  endfacet
  facet normal 0 0 -1
    outer loop
      vertex 136 25.6 0
      vertex 140 32.6 0
      vertex 138.2 25.6 0
    endloop
  endfacet
  facet normal 0 0 -1
    outer loop
      vertex 138.2 25.6 0
      vertex 140 23.6 0
      vertex 138.2 23.6 0
    endloop
  endfacet
  facet normal 0 0 -1
    outer loop
      vertex 140 32.6 0
      vertex 138.2 42.4 0
      vertex 140 39.4 0
    endloop
  endfacet
  facet normal 0 0 -1
    outer loop
      vertex 140 39.4 0
      vertex 138.2 42.4 0
      vertex 140 44.4 0
    endloop
  endfacet
  facet normal -0 0 -1
    outer loop
      vertex 140 44.4 0
      vertex 138.2 42.4 0
      vertex 138.2 44.4 0
    endloop
  endfacet
  facet normal 0 0 -1
    outer loop
      vertex 140 32.6 0
      vertex 142.2 39.4 0
      vertex 142.2 32.6 0
    endloop
  endfacet
  facet normal -0 0 -1
    outer loop
      vertex 142.2 39.4 0
      vertex 140 32.6 0
      vertex 140 39.4 0
    endloop
  endfacet
  facet normal 0 0 -1
    outer loop
      vertex 142.2 32.6 0
      vertex 144 30.6 0
      vertex 142.2 30.6 0
    endloop
  endfacet
  facet normal 0 0 -1
    outer loop
      vertex 144 30.6 0
      vertex 142.2 32.6 0
      vertex 144 41.4 0
    endloop
  endfacet
  facet normal 0 0 -1
    outer loop
      vertex 142.2 39.4 0
      vertex 144 41.4 0
      vertex 142.2 32.6 0
    endloop
  endfacet
  facet normal -0 0 -1
    outer loop
      vertex 144 41.4 0
      vertex 142.2 39.4 0
      vertex 142.2 41.4 0
    endloop
  endfacet
  facet normal 0 0 -1
    outer loop
      vertex 136 70.4 0
      vertex 140 60.6 0
      vertex 136 53.6 0
    endloop
  endfacet
  facet normal 0 0 -1
    outer loop
      vertex 140 60.6 0
      vertex 136 70.4 0
      vertex 138.2 70.4 0
    endloop
  endfacet
  facet normal 0 0 -1
    outer loop
      vertex 138.2 53.6 0
      vertex 140 60.6 0
      vertex 140 51.6 0
    endloop
  endfacet
  facet normal 0 0 -1
    outer loop
      vertex 136 53.6 0
      vertex 140 60.6 0
      vertex 138.2 53.6 0
    endloop
  endfacet
  facet normal 0 0 -1
    outer loop
      vertex 138.2 53.6 0
      vertex 140 51.6 0
      vertex 138.2 51.6 0
    endloop
  endfacet
  facet normal 0 0 -1
    outer loop
      vertex 140 60.6 0
      vertex 138.2 70.4 0
      vertex 140 67.4 0
    endloop
  endfacet
  facet normal 0 0 -1
    outer loop
      vertex 140 67.4 0
      vertex 138.2 70.4 0
      vertex 140 72.4 0
    endloop
  endfacet
  facet normal -0 0 -1
    outer loop
      vertex 140 72.4 0
      vertex 138.2 70.4 0
      vertex 138.2 72.4 0
    endloop
  endfacet
  facet normal 0 0 -1
    outer loop
      vertex 140 60.6 0
      vertex 142.2 67.4 0
      vertex 142.2 60.6 0
    endloop
  endfacet
  facet normal -0 0 -1
    outer loop
      vertex 142.2 67.4 0
      vertex 140 60.6 0
      vertex 140 67.4 0
    endloop
  endfacet
  facet normal 0 0 -1
    outer loop
      vertex 142.2 60.6 0
      vertex 144 58.6 0
      vertex 142.2 58.6 0
    endloop
  endfacet
  facet normal 0 0 -1
    outer loop
      vertex 144 58.6 0
      vertex 142.2 60.6 0
      vertex 144 69.4 0
    endloop
  endfacet
  facet normal 0 0 -1
    outer loop
      vertex 142.2 67.4 0
      vertex 144 69.4 0
      vertex 142.2 60.6 0
    endloop
  endfacet
  facet normal -0 0 -1
    outer loop
      vertex 144 69.4 0
      vertex 142.2 67.4 0
      vertex 142.2 69.4 0
    endloop
  endfacet
  facet normal 0 0 -1
    outer loop
      vertex 138.2 81.6 0
      vertex 140 79.6 0
      vertex 138.2 79.6 0
    endloop
  endfacet
  facet normal 0 0 -1
    outer loop
      vertex 140 79.6 0
      vertex 138.2 81.6 0
      vertex 140 84 0
    endloop
  endfacet
  facet normal 0 0 -1
    outer loop
      vertex 135.4 84 0
      vertex 138.2 81.6 0
      vertex 136 81.6 0
    endloop
  endfacet
  facet normal 0 0 -1
    outer loop
      vertex 138.2 81.6 0
      vertex 135.4 84 0
      vertex 140 84 0
    endloop
  endfacet
  facet normal 0 0 -1
    outer loop
      vertex 135.4 86.2 0
      vertex 137.4 88 0
      vertex 137.4 86.2 0
    endloop
  endfacet
  facet normal 0 0 -1
    outer loop
      vertex 128.6 86.2 0
      vertex 135.4 86.2 0
      vertex 128.6 84 0
    endloop
  endfacet
  facet normal 0 0 -1
    outer loop
      vertex 135.4 86.2 0
      vertex 128.6 86.2 0
      vertex 137.4 88 0
    endloop
  endfacet
  facet normal 0 0 -1
    outer loop
      vertex 126.6 88 0
      vertex 128.6 86.2 0
      vertex 126.6 86.2 0
    endloop
  endfacet
  facet normal 0 0 -1
    outer loop
      vertex 128.6 86.2 0
      vertex 126.6 88 0
      vertex 137.4 88 0
    endloop
  endfacet
  facet normal 0 0 -1
    outer loop
      vertex 125.6 82.2 0
      vertex 128.6 84 0
      vertex 125.6 80 0
    endloop
  endfacet
  facet normal 0 0 -1
    outer loop
      vertex 123.6 84 0
      vertex 125.6 82.2 0
      vertex 123.6 82.2 0
    endloop
  endfacet
  facet normal 0 0 -1
    outer loop
      vertex 125.6 82.2 0
      vertex 123.6 84 0
      vertex 128.6 84 0
    endloop
  endfacet
  facet normal 0 0 -1
    outer loop
      vertex 114.4 82.2 0
      vertex 116.4 84 0
      vertex 116.4 82.2 0
    endloop
  endfacet
  facet normal -0 0 -1
    outer loop
      vertex 116.4 84 0
      vertex 114.4 82.2 0
      vertex 107.4 84 0
    endloop
  endfacet
  facet normal 0 0 -1
    outer loop
      vertex 107.4 86.2 0
      vertex 109.4 88 0
      vertex 109.4 86.2 0
    endloop
  endfacet
  facet normal 0 0 -1
    outer loop
      vertex 100.6 86.2 0
      vertex 107.4 86.2 0
      vertex 100.6 84 0
    endloop
  endfacet
  facet normal 0 0 -1
    outer loop
      vertex 107.4 86.2 0
      vertex 100.6 86.2 0
      vertex 109.4 88 0
    endloop
  endfacet
  facet normal 0 0 -1
    outer loop
      vertex 98.6 88 0
      vertex 100.6 86.2 0
      vertex 98.6 86.2 0
    endloop
  endfacet
  facet normal 0 0 -1
    outer loop
      vertex 100.6 86.2 0
      vertex 98.6 88 0
      vertex 109.4 88 0
    endloop
  endfacet
  facet normal 0 0 -1
    outer loop
      vertex 97.6 82.2 0
      vertex 100.6 84 0
      vertex 97.6 80 0
    endloop
  endfacet
  facet normal 0 0 -1
    outer loop
      vertex 95.6 84 0
      vertex 97.6 82.2 0
      vertex 95.6 82.2 0
    endloop
  endfacet
  facet normal 0 0 -1
    outer loop
      vertex 97.6 82.2 0
      vertex 95.6 84 0
      vertex 100.6 84 0
    endloop
  endfacet
  facet normal 0 0 -1
    outer loop
      vertex 86.4 82.2 0
      vertex 88.4 84 0
      vertex 88.4 82.2 0
    endloop
  endfacet
  facet normal -0 0 -1
    outer loop
      vertex 88.4 84 0
      vertex 86.4 82.2 0
      vertex 79.4 84 0
    endloop
  endfacet
  facet normal 0 0 -1
    outer loop
      vertex 79.4 86.2 0
      vertex 81.4 88 0
      vertex 81.4 86.2 0
    endloop
  endfacet
  facet normal 0 0 -1
    outer loop
      vertex 72.6 86.2 0
      vertex 79.4 86.2 0
      vertex 72.6 84 0
    endloop
  endfacet
  facet normal 0 0 -1
    outer loop
      vertex 79.4 86.2 0
      vertex 72.6 86.2 0
      vertex 81.4 88 0
    endloop
  endfacet
  facet normal 0 0 -1
    outer loop
      vertex 70.6 88 0
      vertex 72.6 86.2 0
      vertex 70.6 86.2 0
    endloop
  endfacet
  facet normal 0 0 -1
    outer loop
      vertex 72.6 86.2 0
      vertex 70.6 88 0
      vertex 81.4 88 0
    endloop
  endfacet
  facet normal 0 0 -1
    outer loop
      vertex 69.6 82.2 0
      vertex 72.6 84 0
      vertex 69.6 80 0
    endloop
  endfacet
  facet normal 0 0 -1
    outer loop
      vertex 67.6 84 0
      vertex 69.6 82.2 0
      vertex 67.6 82.2 0
    endloop
  endfacet
  facet normal 0 0 -1
    outer loop
      vertex 69.6 82.2 0
      vertex 67.6 84 0
      vertex 72.6 84 0
    endloop
  endfacet
  facet normal 0 0 -1
    outer loop
      vertex 58.4 82.2 0
      vertex 60.4 84 0
      vertex 60.4 82.2 0
    endloop
  endfacet
  facet normal -0 0 -1
    outer loop
      vertex 60.4 84 0
      vertex 58.4 82.2 0
      vertex 51.4 84 0
    endloop
  endfacet
  facet normal 0 0 -1
    outer loop
      vertex 51.4 86.2 0
      vertex 53.4 88 0
      vertex 53.4 86.2 0
    endloop
  endfacet
  facet normal 0 0 -1
    outer loop
      vertex 44.6 86.2 0
      vertex 51.4 86.2 0
      vertex 44.6 84 0
    endloop
  endfacet
  facet normal 0 0 -1
    outer loop
      vertex 51.4 86.2 0
      vertex 44.6 86.2 0
      vertex 53.4 88 0
    endloop
  endfacet
  facet normal 0 0 -1
    outer loop
      vertex 42.6 88 0
      vertex 44.6 86.2 0
      vertex 42.6 86.2 0
    endloop
  endfacet
  facet normal 0 0 -1
    outer loop
      vertex 44.6 86.2 0
      vertex 42.6 88 0
      vertex 53.4 88 0
    endloop
  endfacet
  facet normal 0 0 -1
    outer loop
      vertex 41.6 82.2 0
      vertex 44.6 84 0
      vertex 41.6 80 0
    endloop
  endfacet
  facet normal 0 0 -1
    outer loop
      vertex 39.6 84 0
      vertex 41.6 82.2 0
      vertex 39.6 82.2 0
    endloop
  endfacet
  facet normal 0 0 -1
    outer loop
      vertex 41.6 82.2 0
      vertex 39.6 84 0
      vertex 44.6 84 0
    endloop
  endfacet
  facet normal 0 0 -1
    outer loop
      vertex 30.4 82.2 0
      vertex 32.4 84 0
      vertex 32.4 82.2 0
    endloop
  endfacet
  facet normal -0 0 -1
    outer loop
      vertex 32.4 84 0
      vertex 30.4 82.2 0
      vertex 23.4 84 0
    endloop
  endfacet
  facet normal 0 0 -1
    outer loop
      vertex 23.4 86.2 0
      vertex 25.4 88 0
      vertex 25.4 86.2 0
    endloop
  endfacet
  facet normal 0 0 -1
    outer loop
      vertex 16.6 86.2 0
      vertex 23.4 86.2 0
      vertex 16.6 84 0
    endloop
  endfacet
  facet normal 0 0 -1
    outer loop
      vertex 23.4 86.2 0
      vertex 16.6 86.2 0
      vertex 25.4 88 0
    endloop
  endfacet
  facet normal 0 0 -1
    outer loop
      vertex 14.6 88 0
      vertex 16.6 86.2 0
      vertex 14.6 86.2 0
    endloop
  endfacet
  facet normal 0 0 -1
    outer loop
      vertex 16.6 86.2 0
      vertex 14.6 88 0
      vertex 25.4 88 0
    endloop
  endfacet
  facet normal 0 0 -1
    outer loop
      vertex 13.6 82.2 0
      vertex 16.6 84 0
      vertex 13.6 80 0
    endloop
  endfacet
  facet normal 0 0 -1
    outer loop
      vertex 11.6 84 0
      vertex 13.6 82.2 0
      vertex 11.6 82.2 0
    endloop
  endfacet
  facet normal 0 0 -1
    outer loop
      vertex 13.6 82.2 0
      vertex 11.6 84 0
      vertex 16.6 84 0
    endloop
  endfacet
  facet normal -0 0 -1
    outer loop
      vertex 58.4 80 0
      vertex 3.99999 30.4 0
      vertex 41.6 80 0
    endloop
  endfacet
  facet normal 0 0 -1
    outer loop
      vertex 3.99999 58.4 0
      vertex 30.4 80 0
      vertex 3.99999 41.6 0
    endloop
  endfacet
  facet normal -0 0 -1
    outer loop
      vertex 23.4 84 0
      vertex 13.6 80 0
      vertex 16.6 84 0
    endloop
  endfacet
  facet normal 0 0 -1
    outer loop
      vertex 30.4 80 0
      vertex 13.6 80 0
      vertex 23.4 84 0
    endloop
  endfacet
  facet normal 0 0 -1
    outer loop
      vertex 3.99999 69.6 0
      vertex 13.6 80 0
      vertex 3.99999 58.4 0
    endloop
  endfacet
  facet normal 0 0 -1
    outer loop
      vertex 3.99999 69.6 0
      vertex 2.4 80 0
      vertex 13.6 80 0
    endloop
  endfacet
  facet normal 0 0 -1
    outer loop
      vertex 3.99999 69.6 0
      vertex 0 72.6 0
      vertex 2.4 80 0
    endloop
  endfacet
  facet normal 0 0 -1
    outer loop
      vertex 0 72.6 0
      vertex 3.99999 69.6 0
      vertex 1.79999 69.6 0
    endloop
  endfacet
  facet normal 0 0 -1
    outer loop
      vertex 2.4 82.2 0
      vertex 4.4 84 0
      vertex 4.4 82.2 0
    endloop
  endfacet
  facet normal 0 0 -1
    outer loop
      vertex 0 72.6 0
      vertex 1.79999 69.6 0
      vertex 0 67.6 0
    endloop
  endfacet
  facet normal 0 0 -1
    outer loop
      vertex 0 79.4 0
      vertex 2.4 80 0
      vertex 0 72.6 0
    endloop
  endfacet
  facet normal -0 0 -1
    outer loop
      vertex 2.4 80 0
      vertex 0 79.4 0
      vertex 2.4 82.2 0
    endloop
  endfacet
  facet normal 0 0 -1
    outer loop
      vertex 2.4 82.2 0
      vertex 0 84 0
      vertex 4.4 84 0
    endloop
  endfacet
  facet normal 0 0 -1
    outer loop
      vertex 0 84 0
      vertex 2.4 82.2 0
      vertex 0 79.4 0
    endloop
  endfacet
  facet normal 0 0 -1
    outer loop
      vertex 1.79999 67.6 0
      vertex 0 67.6 0
      vertex 1.79999 69.6 0
    endloop
  endfacet
  facet normal 0 0 -1
    outer loop
      vertex 0 39.6 0
      vertex 1.79999 41.6 0
      vertex 1.79999 39.6 0
    endloop
  endfacet
  facet normal -0 0 -1
    outer loop
      vertex 3.99999 58.4 0
      vertex 0 51.4 0
      vertex 1.79999 58.4 0
    endloop
  endfacet
  facet normal -0 0 -1
    outer loop
      vertex 1.79999 41.6 0
      vertex 0 39.6 0
      vertex 0 44.6 0
    endloop
  endfacet
  facet normal 0 0 -1
    outer loop
      vertex 3.99999 41.6 0
      vertex 0 44.6 0
      vertex 0 51.4 0
    endloop
  endfacet
  facet normal 0 0 -1
    outer loop
      vertex 0 60.4 0
      vertex 1.79999 58.4 0
      vertex 0 51.4 0
    endloop
  endfacet
  facet normal 0 0 -1
    outer loop
      vertex 1.79999 58.4 0
      vertex 0 60.4 0
      vertex 1.79999 60.4 0
    endloop
  endfacet
  facet normal 0 0 -1
    outer loop
      vertex 0 11.6 0
      vertex 1.79999 13.6 0
      vertex 1.79999 11.6 0
    endloop
  endfacet
  facet normal -0 0 -1
    outer loop
      vertex 3.99999 30.4 0
      vertex 0 23.4 0
      vertex 1.79999 30.4 0
    endloop
  endfacet
  facet normal -0 0 -1
    outer loop
      vertex 1.79999 13.6 0
      vertex 0 11.6 0
      vertex 0 16.6 0
    endloop
  endfacet
  facet normal 0 0 -1
    outer loop
      vertex 3.99999 13.6 0
      vertex 0 16.6 0
      vertex 0 23.4 0
    endloop
  endfacet
  facet normal 0 0 -1
    outer loop
      vertex 0 32.4 0
      vertex 1.79999 30.4 0
      vertex 0 23.4 0
    endloop
  endfacet
  facet normal 0 0 -1
    outer loop
      vertex 1.79999 30.4 0
      vertex 0 32.4 0
      vertex 1.79999 32.4 0
    endloop
  endfacet
  facet normal 0 0 -1
    outer loop
      vertex -3.99999 70.6 0
      vertex -2.19999 72.6 0
      vertex -2.19999 70.6 0
    endloop
  endfacet
  facet normal -0 0 -1
    outer loop
      vertex -2.19999 72.6 0
      vertex -3.99999 70.6 0
      vertex -2.19999 79.4 0
    endloop
  endfacet
  facet normal 0 0 -1
    outer loop
      vertex -3.99999 81.4 0
      vertex -2.19999 79.4 0
      vertex -3.99999 70.6 0
    endloop
  endfacet
  facet normal 0 0 -1
    outer loop
      vertex -2.19999 79.4 0
      vertex -3.99999 81.4 0
      vertex -2.19999 81.4 0
    endloop
  endfacet
  facet normal 0 0 -1
    outer loop
      vertex -3.99999 42.6 0
      vertex -2.19999 44.6 0
      vertex -2.19999 42.6 0
    endloop
  endfacet
  facet normal -0 0 -1
    outer loop
      vertex -2.19999 44.6 0
      vertex -3.99999 42.6 0
      vertex -2.19999 51.4 0
    endloop
  endfacet
  facet normal 0 0 -1
    outer loop
      vertex -3.99999 53.4 0
      vertex -2.19999 51.4 0
      vertex -3.99999 42.6 0
    endloop
  endfacet
  facet normal 0 0 -1
    outer loop
      vertex -2.19999 51.4 0
      vertex -3.99999 53.4 0
      vertex -2.19999 53.4 0
    endloop
  endfacet
  facet normal 0 0 -1
    outer loop
      vertex -3.99999 14.6 0
      vertex -2.19999 16.6 0
      vertex -2.19999 14.6 0
    endloop
  endfacet
  facet normal -0 0 -1
    outer loop
      vertex -2.19999 16.6 0
      vertex -3.99999 14.6 0
      vertex -2.19999 23.4 0
    endloop
  endfacet
  facet normal 0 0 -1
    outer loop
      vertex -3.99999 25.4 0
      vertex -2.19999 23.4 0
      vertex -3.99999 14.6 0
    endloop
  endfacet
  facet normal 0 0 -1
    outer loop
      vertex -2.19999 23.4 0
      vertex -3.99999 25.4 0
      vertex -2.19999 25.4 0
    endloop
  endfacet
  facet normal 0 0 -1
    outer loop
      vertex -2.19999 72.6 0
      vertex 0 79.4 0
      vertex 0 72.6 0
    endloop
  endfacet
  facet normal -0 0 -1
    outer loop
      vertex 0 79.4 0
      vertex -2.19999 72.6 0
      vertex -2.19999 79.4 0
    endloop
  endfacet
  facet normal 0 0 -1
    outer loop
      vertex -2.19999 44.6 0
      vertex 0 51.4 0
      vertex 0 44.6 0
    endloop
  endfacet
  facet normal -0 0 -1
    outer loop
      vertex 0 51.4 0
      vertex -2.19999 44.6 0
      vertex -2.19999 51.4 0
    endloop
  endfacet
  facet normal 0 0 -1
    outer loop
      vertex -2.19999 16.6 0
      vertex 0 23.4 0
      vertex 0 16.6 0
    endloop
  endfacet
  facet normal -0 0 -1
    outer loop
      vertex 0 23.4 0
      vertex -2.19999 16.6 0
      vertex -2.19999 23.4 0
    endloop
  endfacet
  facet normal 0 1 -0
    outer loop
      vertex 138.2 14.4 0
      vertex 136 14.4 20
      vertex 138.2 14.4 20
    endloop
  endfacet
  facet normal 0 1 0
    outer loop
      vertex 136 14.4 20
      vertex 138.2 14.4 0
      vertex 136 14.4 0
    endloop
  endfacet
  facet normal 0 -1 0
    outer loop
      vertex 136 25.6 0
      vertex 138.2 25.6 20
      vertex 136 25.6 20
    endloop
  endfacet
  facet normal 0 -1 -0
    outer loop
      vertex 138.2 25.6 20
      vertex 136 25.6 0
      vertex 138.2 25.6 0
    endloop
  endfacet
  facet normal 1 -0 0
    outer loop
      vertex 136 14.4 20
      vertex 136 25.6 0
      vertex 136 25.6 20
    endloop
  endfacet
  facet normal 1 0 0
    outer loop
      vertex 136 25.6 0
      vertex 136 14.4 20
      vertex 136 14.4 0
    endloop
  endfacet
  facet normal 0 1 -0
    outer loop
      vertex 140 44.4 0
      vertex 138.2 44.4 20
      vertex 140 44.4 20
    endloop
  endfacet
  facet normal 0 1 0
    outer loop
      vertex 138.2 44.4 20
      vertex 140 44.4 0
      vertex 138.2 44.4 0
    endloop
  endfacet
  facet normal 0 -1 0
    outer loop
      vertex 138.2 51.6 0
      vertex 140 51.6 20
      vertex 138.2 51.6 20
    endloop
  endfacet
  facet normal 0 -1 -0
    outer loop
      vertex 140 51.6 20
      vertex 138.2 51.6 0
      vertex 140 51.6 0
    endloop
  endfacet
  facet normal -1 0 0
    outer loop
      vertex 138.2 42.4 0
      vertex 138.2 44.4 20
      vertex 138.2 44.4 0
    endloop
  endfacet
  facet normal -1 -0 0
    outer loop
      vertex 138.2 44.4 20
      vertex 138.2 42.4 0
      vertex 138.2 42.4 20
    endloop
  endfacet
  facet normal -1 0 0
    outer loop
      vertex 138.2 51.6 0
      vertex 138.2 53.6 20
      vertex 138.2 53.6 0
    endloop
  endfacet
  facet normal -1 -0 0
    outer loop
      vertex 138.2 53.6 20
      vertex 138.2 51.6 0
      vertex 138.2 51.6 20
    endloop
  endfacet
  facet normal 0 1 -0
    outer loop
      vertex 138.2 42.4 0
      vertex 136 42.4 20
      vertex 138.2 42.4 20
    endloop
  endfacet
  facet normal 0 1 0
    outer loop
      vertex 136 42.4 20
      vertex 138.2 42.4 0
      vertex 136 42.4 0
    endloop
  endfacet
  facet normal 0 -1 0
    outer loop
      vertex 136 53.6 0
      vertex 138.2 53.6 20
      vertex 136 53.6 20
    endloop
  endfacet
  facet normal 0 -1 -0
    outer loop
      vertex 138.2 53.6 20
      vertex 136 53.6 0
      vertex 138.2 53.6 0
    endloop
  endfacet
  facet normal 1 -0 0
    outer loop
      vertex 136 42.4 20
      vertex 136 53.6 0
      vertex 136 53.6 20
    endloop
  endfacet
  facet normal 1 0 0
    outer loop
      vertex 136 53.6 0
      vertex 136 42.4 20
      vertex 136 42.4 0
    endloop
  endfacet
  facet normal 0 1 -0
    outer loop
      vertex 140 72.4 0
      vertex 138.2 72.4 20
      vertex 140 72.4 20
    endloop
  endfacet
  facet normal 0 1 0
    outer loop
      vertex 138.2 72.4 20
      vertex 140 72.4 0
      vertex 138.2 72.4 0
    endloop
  endfacet
  facet normal 0 -1 0
    outer loop
      vertex 138.2 79.6 0
      vertex 140 79.6 20
      vertex 138.2 79.6 20
    endloop
  endfacet
  facet normal 0 -1 -0
    outer loop
      vertex 140 79.6 20
      vertex 138.2 79.6 0
      vertex 140 79.6 0
    endloop
  endfacet
  facet normal -1 0 0
    outer loop
      vertex 138.2 70.4 0
      vertex 138.2 72.4 20
      vertex 138.2 72.4 0
    endloop
  endfacet
  facet normal -1 -0 0
    outer loop
      vertex 138.2 72.4 20
      vertex 138.2 70.4 0
      vertex 138.2 70.4 20
    endloop
  endfacet
  facet normal -1 0 0
    outer loop
      vertex 138.2 79.6 0
      vertex 138.2 81.6 20
      vertex 138.2 81.6 0
    endloop
  endfacet
  facet normal -1 -0 0
    outer loop
      vertex 138.2 81.6 20
      vertex 138.2 79.6 0
      vertex 138.2 79.6 20
    endloop
  endfacet
  facet normal 0 1 -0
    outer loop
      vertex 138.2 70.4 0
      vertex 136 70.4 20
      vertex 138.2 70.4 20
    endloop
  endfacet
  facet normal 0 1 0
    outer loop
      vertex 136 70.4 20
      vertex 138.2 70.4 0
      vertex 136 70.4 0
    endloop
  endfacet
  facet normal 0 -1 0
    outer loop
      vertex 136 81.6 0
      vertex 138.2 81.6 20
      vertex 136 81.6 20
    endloop
  endfacet
  facet normal 0 -1 -0
    outer loop
      vertex 138.2 81.6 20
      vertex 136 81.6 0
      vertex 138.2 81.6 0
    endloop
  endfacet
  facet normal 1 -0 0
    outer loop
      vertex 136 70.4 20
      vertex 136 81.6 0
      vertex 136 81.6 20
    endloop
  endfacet
  facet normal 1 0 0
    outer loop
      vertex 136 81.6 0
      vertex 136 70.4 20
      vertex 136 70.4 0
    endloop
  endfacet
  facet normal -1 0 0
    outer loop
      vertex 123.6 82.2 0
      vertex 123.6 84 20
      vertex 123.6 84 0
    endloop
  endfacet
  facet normal -1 -0 0
    outer loop
      vertex 123.6 84 20
      vertex 123.6 82.2 0
      vertex 123.6 82.2 20
    endloop
  endfacet
  facet normal 1 -0 0
    outer loop
      vertex 116.4 82.2 20
      vertex 116.4 84 0
      vertex 116.4 84 20
    endloop
  endfacet
  facet normal 1 0 0
    outer loop
      vertex 116.4 84 0
      vertex 116.4 82.2 20
      vertex 116.4 82.2 0
    endloop
  endfacet
  facet normal 0 -1 0
    outer loop
      vertex 123.6 82.2 0
      vertex 125.6 82.2 20
      vertex 123.6 82.2 20
    endloop
  endfacet
  facet normal 0 -1 -0
    outer loop
      vertex 125.6 82.2 20
      vertex 123.6 82.2 0
      vertex 125.6 82.2 0
    endloop
  endfacet
  facet normal 0 -1 0
    outer loop
      vertex 114.4 82.2 0
      vertex 116.4 82.2 20
      vertex 114.4 82.2 20
    endloop
  endfacet
  facet normal 0 -1 -0
    outer loop
      vertex 116.4 82.2 20
      vertex 114.4 82.2 0
      vertex 116.4 82.2 0
    endloop
  endfacet
  facet normal -1 0 0
    outer loop
      vertex 125.6 80 0
      vertex 125.6 82.2 20
      vertex 125.6 82.2 0
    endloop
  endfacet
  facet normal -1 -0 0
    outer loop
      vertex 125.6 82.2 20
      vertex 125.6 80 0
      vertex 125.6 80 20
    endloop
  endfacet
  facet normal 1 -0 0
    outer loop
      vertex 114.4 80 20
      vertex 114.4 82.2 0
      vertex 114.4 82.2 20
    endloop
  endfacet
  facet normal 1 0 0
    outer loop
      vertex 114.4 82.2 0
      vertex 114.4 80 20
      vertex 114.4 80 0
    endloop
  endfacet
  facet normal 0 1 -0
    outer loop
      vertex 125.6 80 0
      vertex 114.4 80 20
      vertex 125.6 80 20
    endloop
  endfacet
  facet normal 0 1 0
    outer loop
      vertex 114.4 80 20
      vertex 125.6 80 0
      vertex 114.4 80 0
    endloop
  endfacet
  facet normal -1 0 0
    outer loop
      vertex 95.6 82.2 0
      vertex 95.6 84 20
      vertex 95.6 84 0
    endloop
  endfacet
  facet normal -1 -0 0
    outer loop
      vertex 95.6 84 20
      vertex 95.6 82.2 0
      vertex 95.6 82.2 20
    endloop
  endfacet
  facet normal 1 -0 0
    outer loop
      vertex 88.4 82.2 20
      vertex 88.4 84 0
      vertex 88.4 84 20
    endloop
  endfacet
  facet normal 1 0 0
    outer loop
      vertex 88.4 84 0
      vertex 88.4 82.2 20
      vertex 88.4 82.2 0
    endloop
  endfacet
  facet normal 0 -1 0
    outer loop
      vertex 95.6 82.2 0
      vertex 97.6 82.2 20
      vertex 95.6 82.2 20
    endloop
  endfacet
  facet normal 0 -1 -0
    outer loop
      vertex 97.6 82.2 20
      vertex 95.6 82.2 0
      vertex 97.6 82.2 0
    endloop
  endfacet
  facet normal 0 -1 0
    outer loop
      vertex 86.4 82.2 0
      vertex 88.4 82.2 20
      vertex 86.4 82.2 20
    endloop
  endfacet
  facet normal 0 -1 -0
    outer loop
      vertex 88.4 82.2 20
      vertex 86.4 82.2 0
      vertex 88.4 82.2 0
    endloop
  endfacet
  facet normal -1 0 0
    outer loop
      vertex 97.6 80 0
      vertex 97.6 82.2 20
      vertex 97.6 82.2 0
    endloop
  endfacet
  facet normal -1 -0 0
    outer loop
      vertex 97.6 82.2 20
      vertex 97.6 80 0
      vertex 97.6 80 20
    endloop
  endfacet
  facet normal 1 -0 0
    outer loop
      vertex 86.4 80 20
      vertex 86.4 82.2 0
      vertex 86.4 82.2 20
    endloop
  endfacet
  facet normal 1 0 0
    outer loop
      vertex 86.4 82.2 0
      vertex 86.4 80 20
      vertex 86.4 80 0
    endloop
  endfacet
  facet normal 0 1 -0
    outer loop
      vertex 97.6 80 0
      vertex 86.4 80 20
      vertex 97.6 80 20
    endloop
  endfacet
  facet normal 0 1 0
    outer loop
      vertex 86.4 80 20
      vertex 97.6 80 0
      vertex 86.4 80 0
    endloop
  endfacet
  facet normal -1 0 0
    outer loop
      vertex 67.6 82.2 0
      vertex 67.6 84 20
      vertex 67.6 84 0
    endloop
  endfacet
  facet normal -1 -0 0
    outer loop
      vertex 67.6 84 20
      vertex 67.6 82.2 0
      vertex 67.6 82.2 20
    endloop
  endfacet
  facet normal 1 -0 0
    outer loop
      vertex 60.4 82.2 20
      vertex 60.4 84 0
      vertex 60.4 84 20
    endloop
  endfacet
  facet normal 1 0 0
    outer loop
      vertex 60.4 84 0
      vertex 60.4 82.2 20
      vertex 60.4 82.2 0
    endloop
  endfacet
  facet normal 0 -1 0
    outer loop
      vertex 67.6 82.2 0
      vertex 69.6 82.2 20
      vertex 67.6 82.2 20
    endloop
  endfacet
  facet normal 0 -1 -0
    outer loop
      vertex 69.6 82.2 20
      vertex 67.6 82.2 0
      vertex 69.6 82.2 0
    endloop
  endfacet
  facet normal 0 -1 0
    outer loop
      vertex 58.4 82.2 0
      vertex 60.4 82.2 20
      vertex 58.4 82.2 20
    endloop
  endfacet
  facet normal 0 -1 -0
    outer loop
      vertex 60.4 82.2 20
      vertex 58.4 82.2 0
      vertex 60.4 82.2 0
    endloop
  endfacet
  facet normal -1 0 0
    outer loop
      vertex 69.6 80 0
      vertex 69.6 82.2 20
      vertex 69.6 82.2 0
    endloop
  endfacet
  facet normal -1 -0 0
    outer loop
      vertex 69.6 82.2 20
      vertex 69.6 80 0
      vertex 69.6 80 20
    endloop
  endfacet
  facet normal 1 -0 0
    outer loop
      vertex 58.4 80 20
      vertex 58.4 82.2 0
      vertex 58.4 82.2 20
    endloop
  endfacet
  facet normal 1 0 0
    outer loop
      vertex 58.4 82.2 0
      vertex 58.4 80 20
      vertex 58.4 80 0
    endloop
  endfacet
  facet normal 0 1 -0
    outer loop
      vertex 69.6 80 0
      vertex 58.4 80 20
      vertex 69.6 80 20
    endloop
  endfacet
  facet normal 0 1 0
    outer loop
      vertex 58.4 80 20
      vertex 69.6 80 0
      vertex 58.4 80 0
    endloop
  endfacet
  facet normal -1 0 0
    outer loop
      vertex 39.6 82.2 0
      vertex 39.6 84 20
      vertex 39.6 84 0
    endloop
  endfacet
  facet normal -1 -0 0
    outer loop
      vertex 39.6 84 20
      vertex 39.6 82.2 0
      vertex 39.6 82.2 20
    endloop
  endfacet
  facet normal 1 -0 0
    outer loop
      vertex 32.4 82.2 20
      vertex 32.4 84 0
      vertex 32.4 84 20
    endloop
  endfacet
  facet normal 1 0 0
    outer loop
      vertex 32.4 84 0
      vertex 32.4 82.2 20
      vertex 32.4 82.2 0
    endloop
  endfacet
  facet normal 0 -1 0
    outer loop
      vertex 39.6 82.2 0
      vertex 41.6 82.2 20
      vertex 39.6 82.2 20
    endloop
  endfacet
  facet normal 0 -1 -0
    outer loop
      vertex 41.6 82.2 20
      vertex 39.6 82.2 0
      vertex 41.6 82.2 0
    endloop
  endfacet
  facet normal 0 -1 0
    outer loop
      vertex 30.4 82.2 0
      vertex 32.4 82.2 20
      vertex 30.4 82.2 20
    endloop
  endfacet
  facet normal 0 -1 -0
    outer loop
      vertex 32.4 82.2 20
      vertex 30.4 82.2 0
      vertex 32.4 82.2 0
    endloop
  endfacet
  facet normal -1 0 0
    outer loop
      vertex 41.6 80 0
      vertex 41.6 82.2 20
      vertex 41.6 82.2 0
    endloop
  endfacet
  facet normal -1 -0 0
    outer loop
      vertex 41.6 82.2 20
      vertex 41.6 80 0
      vertex 41.6 80 20
    endloop
  endfacet
  facet normal 1 -0 0
    outer loop
      vertex 30.4 80 20
      vertex 30.4 82.2 0
      vertex 30.4 82.2 20
    endloop
  endfacet
  facet normal 1 0 0
    outer loop
      vertex 30.4 82.2 0
      vertex 30.4 80 20
      vertex 30.4 80 0
    endloop
  endfacet
  facet normal 0 1 -0
    outer loop
      vertex 41.6 80 0
      vertex 30.4 80 20
      vertex 41.6 80 20
    endloop
  endfacet
  facet normal 0 1 0
    outer loop
      vertex 30.4 80 20
      vertex 41.6 80 0
      vertex 30.4 80 0
    endloop
  endfacet
  facet normal -1 0 0
    outer loop
      vertex 11.6 82.2 0
      vertex 11.6 84 20
      vertex 11.6 84 0
    endloop
  endfacet
  facet normal -1 -0 0
    outer loop
      vertex 11.6 84 20
      vertex 11.6 82.2 0
      vertex 11.6 82.2 20
    endloop
  endfacet
  facet normal 1 -0 0
    outer loop
      vertex 4.4 82.2 20
      vertex 4.4 84 0
      vertex 4.4 84 20
    endloop
  endfacet
  facet normal 1 0 0
    outer loop
      vertex 4.4 84 0
      vertex 4.4 82.2 20
      vertex 4.4 82.2 0
    endloop
  endfacet
  facet normal 0 -1 0
    outer loop
      vertex 11.6 82.2 0
      vertex 13.6 82.2 20
      vertex 11.6 82.2 20
    endloop
  endfacet
  facet normal 0 -1 -0
    outer loop
      vertex 13.6 82.2 20
      vertex 11.6 82.2 0
      vertex 13.6 82.2 0
    endloop
  endfacet
  facet normal 0 -1 0
    outer loop
      vertex 2.4 82.2 0
      vertex 4.4 82.2 20
      vertex 2.4 82.2 20
    endloop
  endfacet
  facet normal 0 -1 -0
    outer loop
      vertex 4.4 82.2 20
      vertex 2.4 82.2 0
      vertex 4.4 82.2 0
    endloop
  endfacet
  facet normal -1 0 0
    outer loop
      vertex 13.6 80 0
      vertex 13.6 82.2 20
      vertex 13.6 82.2 0
    endloop
  endfacet
  facet normal -1 -0 0
    outer loop
      vertex 13.6 82.2 20
      vertex 13.6 80 0
      vertex 13.6 80 20
    endloop
  endfacet
  facet normal 1 -0 0
    outer loop
      vertex 2.4 80 20
      vertex 2.4 82.2 0
      vertex 2.4 82.2 20
    endloop
  endfacet
  facet normal 1 0 0
    outer loop
      vertex 2.4 82.2 0
      vertex 2.4 80 20
      vertex 2.4 80 0
    endloop
  endfacet
  facet normal 0 1 -0
    outer loop
      vertex 13.6 80 0
      vertex 2.4 80 20
      vertex 13.6 80 20
    endloop
  endfacet
  facet normal 0 1 0
    outer loop
      vertex 2.4 80 20
      vertex 13.6 80 0
      vertex 2.4 80 0
    endloop
  endfacet
  facet normal 0 -1 0
    outer loop
      vertex 0 67.6 0
      vertex 1.79999 67.6 20
      vertex 0 67.6 20
    endloop
  endfacet
  facet normal 0 -1 -0
    outer loop
      vertex 1.79999 67.6 20
      vertex 0 67.6 0
      vertex 1.79999 67.6 0
    endloop
  endfacet
  facet normal 0 1 -0
    outer loop
      vertex 1.79999 60.4 0
      vertex 0 60.4 20
      vertex 1.79999 60.4 20
    endloop
  endfacet
  facet normal 0 1 0
    outer loop
      vertex 0 60.4 20
      vertex 1.79999 60.4 0
      vertex 0 60.4 0
    endloop
  endfacet
  facet normal 1 -0 0
    outer loop
      vertex 1.79999 67.6 20
      vertex 1.79999 69.6 0
      vertex 1.79999 69.6 20
    endloop
  endfacet
  facet normal 1 0 0
    outer loop
      vertex 1.79999 69.6 0
      vertex 1.79999 67.6 20
      vertex 1.79999 67.6 0
    endloop
  endfacet
  facet normal 1 -0 0
    outer loop
      vertex 1.79999 58.4 20
      vertex 1.79999 60.4 0
      vertex 1.79999 60.4 20
    endloop
  endfacet
  facet normal 1 0 0
    outer loop
      vertex 1.79999 60.4 0
      vertex 1.79999 58.4 20
      vertex 1.79999 58.4 0
    endloop
  endfacet
  facet normal 0 -1 0
    outer loop
      vertex 1.79999 69.6 0
      vertex 3.99999 69.6 20
      vertex 1.79999 69.6 20
    endloop
  endfacet
  facet normal 0 -1 -0
    outer loop
      vertex 3.99999 69.6 20
      vertex 1.79999 69.6 0
      vertex 3.99999 69.6 0
    endloop
  endfacet
  facet normal 0 1 -0
    outer loop
      vertex 3.99999 58.4 0
      vertex 1.79999 58.4 20
      vertex 3.99999 58.4 20
    endloop
  endfacet
  facet normal 0 1 0
    outer loop
      vertex 1.79999 58.4 20
      vertex 3.99999 58.4 0
      vertex 1.79999 58.4 0
    endloop
  endfacet
  facet normal -1 0 0
    outer loop
      vertex 3.99999 58.4 0
      vertex 3.99999 69.6 20
      vertex 3.99999 69.6 0
    endloop
  endfacet
  facet normal -1 -0 0
    outer loop
      vertex 3.99999 69.6 20
      vertex 3.99999 58.4 0
      vertex 3.99999 58.4 20
    endloop
  endfacet
  facet normal 0 -1 0
    outer loop
      vertex 0 39.6 0
      vertex 1.79999 39.6 20
      vertex 0 39.6 20
    endloop
  endfacet
  facet normal 0 -1 -0
    outer loop
      vertex 1.79999 39.6 20
      vertex 0 39.6 0
      vertex 1.79999 39.6 0
    endloop
  endfacet
  facet normal 0 1 -0
    outer loop
      vertex 1.79999 32.4 0
      vertex 0 32.4 20
      vertex 1.79999 32.4 20
    endloop
  endfacet
  facet normal 0 1 0
    outer loop
      vertex 0 32.4 20
      vertex 1.79999 32.4 0
      vertex 0 32.4 0
    endloop
  endfacet
  facet normal 1 -0 0
    outer loop
      vertex 1.79999 39.6 20
      vertex 1.79999 41.6 0
      vertex 1.79999 41.6 20
    endloop
  endfacet
  facet normal 1 0 0
    outer loop
      vertex 1.79999 41.6 0
      vertex 1.79999 39.6 20
      vertex 1.79999 39.6 0
    endloop
  endfacet
  facet normal 1 -0 0
    outer loop
      vertex 1.79999 30.4 20
      vertex 1.79999 32.4 0
      vertex 1.79999 32.4 20
    endloop
  endfacet
  facet normal 1 0 0
    outer loop
      vertex 1.79999 32.4 0
      vertex 1.79999 30.4 20
      vertex 1.79999 30.4 0
    endloop
  endfacet
  facet normal 0 -1 0
    outer loop
      vertex 1.79999 41.6 0
      vertex 3.99999 41.6 20
      vertex 1.79999 41.6 20
    endloop
  endfacet
  facet normal 0 -1 -0
    outer loop
      vertex 3.99999 41.6 20
      vertex 1.79999 41.6 0
      vertex 3.99999 41.6 0
    endloop
  endfacet
  facet normal 0 1 -0
    outer loop
      vertex 3.99999 30.4 0
      vertex 1.79999 30.4 20
      vertex 3.99999 30.4 20
    endloop
  endfacet
  facet normal 0 1 0
    outer loop
      vertex 1.79999 30.4 20
      vertex 3.99999 30.4 0
      vertex 1.79999 30.4 0
    endloop
  endfacet
  facet normal -1 0 0
    outer loop
      vertex 3.99999 30.4 0
      vertex 3.99999 41.6 20
      vertex 3.99999 41.6 0
    endloop
  endfacet
  facet normal -1 -0 0
    outer loop
      vertex 3.99999 41.6 20
      vertex 3.99999 30.4 0
      vertex 3.99999 30.4 20
    endloop
  endfacet
  facet normal 0 -1 0
    outer loop
      vertex 0 11.6 0
      vertex 1.79999 11.6 20
      vertex 0 11.6 20
    endloop
  endfacet
  facet normal 0 -1 -0
    outer loop
      vertex 1.79999 11.6 20
      vertex 0 11.6 0
      vertex 1.79999 11.6 0
    endloop
  endfacet
  facet normal 0 1 -0
    outer loop
      vertex 1.79999 4.4 0
      vertex 0 4.4 20
      vertex 1.79999 4.4 20
    endloop
  endfacet
  facet normal 0 1 0
    outer loop
      vertex 0 4.4 20
      vertex 1.79999 4.4 0
      vertex 0 4.4 0
    endloop
  endfacet
  facet normal 1 -0 0
    outer loop
      vertex 1.79999 11.6 20
      vertex 1.79999 13.6 0
      vertex 1.79999 13.6 20
    endloop
  endfacet
  facet normal 1 0 0
    outer loop
      vertex 1.79999 13.6 0
      vertex 1.79999 11.6 20
      vertex 1.79999 11.6 0
    endloop
  endfacet
  facet normal 1 -0 0
    outer loop
      vertex 1.79999 2.4 20
      vertex 1.79999 4.4 0
      vertex 1.79999 4.4 20
    endloop
  endfacet
  facet normal 1 0 0
    outer loop
      vertex 1.79999 4.4 0
      vertex 1.79999 2.4 20
      vertex 1.79999 2.4 0
    endloop
  endfacet
  facet normal 0 -1 0
    outer loop
      vertex 1.79999 13.6 0
      vertex 3.99999 13.6 20
      vertex 1.79999 13.6 20
    endloop
  endfacet
  facet normal 0 -1 -0
    outer loop
      vertex 3.99999 13.6 20
      vertex 1.79999 13.6 0
      vertex 3.99999 13.6 0
    endloop
  endfacet
  facet normal 0 1 -0
    outer loop
      vertex 3.99999 2.4 0
      vertex 1.79999 2.4 20
      vertex 3.99999 2.4 20
    endloop
  endfacet
  facet normal 0 1 0
    outer loop
      vertex 1.79999 2.4 20
      vertex 3.99999 2.4 0
      vertex 1.79999 2.4 0
    endloop
  endfacet
  facet normal -1 0 0
    outer loop
      vertex 3.99999 2.4 0
      vertex 3.99999 13.6 20
      vertex 3.99999 13.6 0
    endloop
  endfacet
  facet normal -1 -0 0
    outer loop
      vertex 3.99999 13.6 20
      vertex 3.99999 2.4 0
      vertex 3.99999 2.4 20
    endloop
  endfacet
  facet normal -1 0 0
    outer loop
      vertex 0 0 0
      vertex 0 4.4 20
      vertex 0 4.4 0
    endloop
  endfacet
  facet normal -1 -0 0
    outer loop
      vertex 0 4.4 20
      vertex 0 0 0
      vertex 0 0 20
    endloop
  endfacet
  facet normal -1 0 0
    outer loop
      vertex 0 79.4 0
      vertex 0 84 20
      vertex 0 84 0
    endloop
  endfacet
  facet normal -1 -0 0
    outer loop
      vertex 0 84 20
      vertex 0 79.4 0
      vertex 0 79.4 20
    endloop
  endfacet
  facet normal -1 0 0
    outer loop
      vertex 0 11.6 0
      vertex 0 16.6 20
      vertex 0 16.6 0
    endloop
  endfacet
  facet normal -1 -0 0
    outer loop
      vertex 0 16.6 20
      vertex 0 11.6 0
      vertex 0 11.6 20
    endloop
  endfacet
  facet normal -1 0 0
    outer loop
      vertex 0 23.4 0
      vertex 0 32.4 20
      vertex 0 32.4 0
    endloop
  endfacet
  facet normal -1 -0 0
    outer loop
      vertex 0 32.4 20
      vertex 0 23.4 0
      vertex 0 23.4 20
    endloop
  endfacet
  facet normal -1 0 0
    outer loop
      vertex 0 39.6 0
      vertex 0 44.6 20
      vertex 0 44.6 0
    endloop
  endfacet
  facet normal -1 -0 0
    outer loop
      vertex 0 44.6 20
      vertex 0 39.6 0
      vertex 0 39.6 20
    endloop
  endfacet
  facet normal -1 0 0
    outer loop
      vertex 0 51.4 0
      vertex 0 60.4 20
      vertex 0 60.4 0
    endloop
  endfacet
  facet normal -1 -0 0
    outer loop
      vertex 0 60.4 20
      vertex 0 51.4 0
      vertex 0 51.4 20
    endloop
  endfacet
  facet normal -1 0 0
    outer loop
      vertex 0 67.6 0
      vertex 0 72.6 20
      vertex 0 72.6 0
    endloop
  endfacet
  facet normal -1 -0 0
    outer loop
      vertex 0 72.6 20
      vertex 0 67.6 0
      vertex 0 67.6 20
    endloop
  endfacet
  facet normal 1 -0 0
    outer loop
      vertex 140 0 20
      vertex 140 4.6 0
      vertex 140 4.6 20
    endloop
  endfacet
  facet normal 1 0 0
    outer loop
      vertex 140 4.6 0
      vertex 140 0 20
      vertex 140 0 0
    endloop
  endfacet
  facet normal 1 -0 0
    outer loop
      vertex 140 79.6 20
      vertex 140 84 0
      vertex 140 84 20
    endloop
  endfacet
  facet normal 1 0 0
    outer loop
      vertex 140 84 0
      vertex 140 79.6 20
      vertex 140 79.6 0
    endloop
  endfacet
  facet normal 1 -0 0
    outer loop
      vertex 140 67.4 20
      vertex 140 72.4 0
      vertex 140 72.4 20
    endloop
  endfacet
  facet normal 1 0 0
    outer loop
      vertex 140 72.4 0
      vertex 140 67.4 20
      vertex 140 67.4 0
    endloop
  endfacet
  facet normal 1 -0 0
    outer loop
      vertex 140 39.4 20
      vertex 140 44.4 0
      vertex 140 44.4 20
    endloop
  endfacet
  facet normal 1 0 0
    outer loop
      vertex 140 44.4 0
      vertex 140 39.4 20
      vertex 140 39.4 0
    endloop
  endfacet
  facet normal 1 -0 0
    outer loop
      vertex 140 51.6 20
      vertex 140 60.6 0
      vertex 140 60.6 20
    endloop
  endfacet
  facet normal 1 0 0
    outer loop
      vertex 140 60.6 0
      vertex 140 51.6 20
      vertex 140 51.6 0
    endloop
  endfacet
  facet normal 1 -0 0
    outer loop
      vertex 140 11.4 20
      vertex 140 16.4 0
      vertex 140 16.4 20
    endloop
  endfacet
  facet normal 1 0 0
    outer loop
      vertex 140 16.4 0
      vertex 140 11.4 20
      vertex 140 11.4 0
    endloop
  endfacet
  facet normal 1 -0 0
    outer loop
      vertex 140 23.6 20
      vertex 140 32.6 0
      vertex 140 32.6 20
    endloop
  endfacet
  facet normal 1 0 0
    outer loop
      vertex 140 32.6 0
      vertex 140 23.6 20
      vertex 140 23.6 0
    endloop
  endfacet
  facet normal 0 -1 0
    outer loop
      vertex 0 0 0
      vertex 140 0 20
      vertex 0 0 20
    endloop
  endfacet
  facet normal 0 -1 -0
    outer loop
      vertex 140 0 20
      vertex 0 0 0
      vertex 140 0 0
    endloop
  endfacet
  facet normal 0 1 -0
    outer loop
      vertex 140 84 0
      vertex 135.4 84 20
      vertex 140 84 20
    endloop
  endfacet
  facet normal 0 1 0
    outer loop
      vertex 135.4 84 20
      vertex 140 84 0
      vertex 135.4 84 0
    endloop
  endfacet
  facet normal 0 1 -0
    outer loop
      vertex 4.4 84 0
      vertex 0 84 20
      vertex 4.4 84 20
    endloop
  endfacet
  facet normal 0 1 0
    outer loop
      vertex 0 84 20
      vertex 4.4 84 0
      vertex 0 84 0
    endloop
  endfacet
  facet normal 0 1 -0
    outer loop
      vertex 16.6 84 0
      vertex 11.6 84 20
      vertex 16.6 84 20
    endloop
  endfacet
  facet normal 0 1 0
    outer loop
      vertex 11.6 84 20
      vertex 16.6 84 0
      vertex 11.6 84 0
    endloop
  endfacet
  facet normal 0 1 -0
    outer loop
      vertex 32.4 84 0
      vertex 23.4 84 20
      vertex 32.4 84 20
    endloop
  endfacet
  facet normal 0 1 0
    outer loop
      vertex 23.4 84 20
      vertex 32.4 84 0
      vertex 23.4 84 0
    endloop
  endfacet
  facet normal 0 1 -0
    outer loop
      vertex 44.6 84 0
      vertex 39.6 84 20
      vertex 44.6 84 20
    endloop
  endfacet
  facet normal 0 1 0
    outer loop
      vertex 39.6 84 20
      vertex 44.6 84 0
      vertex 39.6 84 0
    endloop
  endfacet
  facet normal 0 1 -0
    outer loop
      vertex 60.4 84 0
      vertex 51.4 84 20
      vertex 60.4 84 20
    endloop
  endfacet
  facet normal 0 1 0
    outer loop
      vertex 51.4 84 20
      vertex 60.4 84 0
      vertex 51.4 84 0
    endloop
  endfacet
  facet normal 0 1 -0
    outer loop
      vertex 72.6 84 0
      vertex 67.6 84 20
      vertex 72.6 84 20
    endloop
  endfacet
  facet normal 0 1 0
    outer loop
      vertex 67.6 84 20
      vertex 72.6 84 0
      vertex 67.6 84 0
    endloop
  endfacet
  facet normal 0 1 -0
    outer loop
      vertex 88.4 84 0
      vertex 79.4 84 20
      vertex 88.4 84 20
    endloop
  endfacet
  facet normal 0 1 0
    outer loop
      vertex 79.4 84 20
      vertex 88.4 84 0
      vertex 79.4 84 0
    endloop
  endfacet
  facet normal 0 1 -0
    outer loop
      vertex 100.6 84 0
      vertex 95.6 84 20
      vertex 100.6 84 20
    endloop
  endfacet
  facet normal 0 1 0
    outer loop
      vertex 95.6 84 20
      vertex 100.6 84 0
      vertex 95.6 84 0
    endloop
  endfacet
  facet normal 0 1 -0
    outer loop
      vertex 116.4 84 0
      vertex 107.4 84 20
      vertex 116.4 84 20
    endloop
  endfacet
  facet normal 0 1 0
    outer loop
      vertex 107.4 84 20
      vertex 116.4 84 0
      vertex 107.4 84 0
    endloop
  endfacet
  facet normal 0 1 -0
    outer loop
      vertex 128.6 84 0
      vertex 123.6 84 20
      vertex 128.6 84 20
    endloop
  endfacet
  facet normal 0 1 0
    outer loop
      vertex 123.6 84 20
      vertex 128.6 84 0
      vertex 123.6 84 0
    endloop
  endfacet
  facet normal 0 -1 0
    outer loop
      vertex 142.2 2.6 0
      vertex 144 2.6 20
      vertex 142.2 2.6 20
    endloop
  endfacet
  facet normal 0 -1 -0
    outer loop
      vertex 144 2.6 20
      vertex 142.2 2.6 0
      vertex 144 2.6 0
    endloop
  endfacet
  facet normal 0 1 -0
    outer loop
      vertex 144 13.4 0
      vertex 142.2 13.4 20
      vertex 144 13.4 20
    endloop
  endfacet
  facet normal 0 1 0
    outer loop
      vertex 142.2 13.4 20
      vertex 144 13.4 0
      vertex 142.2 13.4 0
    endloop
  endfacet
  facet normal -1 0 0
    outer loop
      vertex 142.2 2.6 0
      vertex 142.2 4.6 20
      vertex 142.2 4.6 0
    endloop
  endfacet
  facet normal -1 -0 0
    outer loop
      vertex 142.2 4.6 20
      vertex 142.2 2.6 0
      vertex 142.2 2.6 20
    endloop
  endfacet
  facet normal -1 0 0
    outer loop
      vertex 142.2 11.4 0
      vertex 142.2 13.4 20
      vertex 142.2 13.4 0
    endloop
  endfacet
  facet normal -1 -0 0
    outer loop
      vertex 142.2 13.4 20
      vertex 142.2 11.4 0
      vertex 142.2 11.4 20
    endloop
  endfacet
  facet normal 1 -0 0
    outer loop
      vertex 144 2.6 20
      vertex 144 13.4 0
      vertex 144 13.4 20
    endloop
  endfacet
  facet normal 1 0 0
    outer loop
      vertex 144 13.4 0
      vertex 144 2.6 20
      vertex 144 2.6 0
    endloop
  endfacet
  facet normal 0 -1 0
    outer loop
      vertex 140 4.6 0
      vertex 142.2 4.6 20
      vertex 140 4.6 20
    endloop
  endfacet
  facet normal 0 -1 -0
    outer loop
      vertex 142.2 4.6 20
      vertex 140 4.6 0
      vertex 142.2 4.6 0
    endloop
  endfacet
  facet normal 0 1 -0
    outer loop
      vertex 142.2 11.4 0
      vertex 140 11.4 20
      vertex 142.2 11.4 20
    endloop
  endfacet
  facet normal 0 1 0
    outer loop
      vertex 140 11.4 20
      vertex 142.2 11.4 0
      vertex 140 11.4 0
    endloop
  endfacet
  facet normal 0 -1 0
    outer loop
      vertex 142.2 30.6 0
      vertex 144 30.6 20
      vertex 142.2 30.6 20
    endloop
  endfacet
  facet normal 0 -1 -0
    outer loop
      vertex 144 30.6 20
      vertex 142.2 30.6 0
      vertex 144 30.6 0
    endloop
  endfacet
  facet normal 0 1 -0
    outer loop
      vertex 144 41.4 0
      vertex 142.2 41.4 20
      vertex 144 41.4 20
    endloop
  endfacet
  facet normal 0 1 0
    outer loop
      vertex 142.2 41.4 20
      vertex 144 41.4 0
      vertex 142.2 41.4 0
    endloop
  endfacet
  facet normal -1 0 0
    outer loop
      vertex 142.2 30.6 0
      vertex 142.2 32.6 20
      vertex 142.2 32.6 0
    endloop
  endfacet
  facet normal -1 -0 0
    outer loop
      vertex 142.2 32.6 20
      vertex 142.2 30.6 0
      vertex 142.2 30.6 20
    endloop
  endfacet
  facet normal -1 0 0
    outer loop
      vertex 142.2 39.4 0
      vertex 142.2 41.4 20
      vertex 142.2 41.4 0
    endloop
  endfacet
  facet normal -1 -0 0
    outer loop
      vertex 142.2 41.4 20
      vertex 142.2 39.4 0
      vertex 142.2 39.4 20
    endloop
  endfacet
  facet normal 1 -0 0
    outer loop
      vertex 144 30.6 20
      vertex 144 41.4 0
      vertex 144 41.4 20
    endloop
  endfacet
  facet normal 1 0 0
    outer loop
      vertex 144 41.4 0
      vertex 144 30.6 20
      vertex 144 30.6 0
    endloop
  endfacet
  facet normal 0 -1 0
    outer loop
      vertex 140 32.6 0
      vertex 142.2 32.6 20
      vertex 140 32.6 20
    endloop
  endfacet
  facet normal 0 -1 -0
    outer loop
      vertex 142.2 32.6 20
      vertex 140 32.6 0
      vertex 142.2 32.6 0
    endloop
  endfacet
  facet normal 0 1 -0
    outer loop
      vertex 142.2 39.4 0
      vertex 140 39.4 20
      vertex 142.2 39.4 20
    endloop
  endfacet
  facet normal 0 1 0
    outer loop
      vertex 140 39.4 20
      vertex 142.2 39.4 0
      vertex 140 39.4 0
    endloop
  endfacet
  facet normal 0 -1 0
    outer loop
      vertex 142.2 58.6 0
      vertex 144 58.6 20
      vertex 142.2 58.6 20
    endloop
  endfacet
  facet normal 0 -1 -0
    outer loop
      vertex 144 58.6 20
      vertex 142.2 58.6 0
      vertex 144 58.6 0
    endloop
  endfacet
  facet normal 0 1 -0
    outer loop
      vertex 144 69.4 0
      vertex 142.2 69.4 20
      vertex 144 69.4 20
    endloop
  endfacet
  facet normal 0 1 0
    outer loop
      vertex 142.2 69.4 20
      vertex 144 69.4 0
      vertex 142.2 69.4 0
    endloop
  endfacet
  facet normal -1 0 0
    outer loop
      vertex 142.2 58.6 0
      vertex 142.2 60.6 20
      vertex 142.2 60.6 0
    endloop
  endfacet
  facet normal -1 -0 0
    outer loop
      vertex 142.2 60.6 20
      vertex 142.2 58.6 0
      vertex 142.2 58.6 20
    endloop
  endfacet
  facet normal -1 0 0
    outer loop
      vertex 142.2 67.4 0
      vertex 142.2 69.4 20
      vertex 142.2 69.4 0
    endloop
  endfacet
  facet normal -1 -0 0
    outer loop
      vertex 142.2 69.4 20
      vertex 142.2 67.4 0
      vertex 142.2 67.4 20
    endloop
  endfacet
  facet normal 1 -0 0
    outer loop
      vertex 144 58.6 20
      vertex 144 69.4 0
      vertex 144 69.4 20
    endloop
  endfacet
  facet normal 1 0 0
    outer loop
      vertex 144 69.4 0
      vertex 144 58.6 20
      vertex 144 58.6 0
    endloop
  endfacet
  facet normal 0 -1 0
    outer loop
      vertex 140 60.6 0
      vertex 142.2 60.6 20
      vertex 140 60.6 20
    endloop
  endfacet
  facet normal 0 -1 -0
    outer loop
      vertex 142.2 60.6 20
      vertex 140 60.6 0
      vertex 142.2 60.6 0
    endloop
  endfacet
  facet normal 0 1 -0
    outer loop
      vertex 142.2 67.4 0
      vertex 140 67.4 20
      vertex 142.2 67.4 20
    endloop
  endfacet
  facet normal 0 1 0
    outer loop
      vertex 140 67.4 20
      vertex 142.2 67.4 0
      vertex 140 67.4 0
    endloop
  endfacet
  facet normal 1 -0 0
    outer loop
      vertex 137.4 86.2 20
      vertex 137.4 88 0
      vertex 137.4 88 20
    endloop
  endfacet
  facet normal 1 0 0
    outer loop
      vertex 137.4 88 0
      vertex 137.4 86.2 20
      vertex 137.4 86.2 0
    endloop
  endfacet
  facet normal -1 0 0
    outer loop
      vertex 126.6 86.2 0
      vertex 126.6 88 20
      vertex 126.6 88 0
    endloop
  endfacet
  facet normal -1 -0 0
    outer loop
      vertex 126.6 88 20
      vertex 126.6 86.2 0
      vertex 126.6 86.2 20
    endloop
  endfacet
  facet normal 0 -1 0
    outer loop
      vertex 135.4 86.2 0
      vertex 137.4 86.2 20
      vertex 135.4 86.2 20
    endloop
  endfacet
  facet normal 0 -1 -0
    outer loop
      vertex 137.4 86.2 20
      vertex 135.4 86.2 0
      vertex 137.4 86.2 0
    endloop
  endfacet
  facet normal 0 -1 0
    outer loop
      vertex 126.6 86.2 0
      vertex 128.6 86.2 20
      vertex 126.6 86.2 20
    endloop
  endfacet
  facet normal 0 -1 -0
    outer loop
      vertex 128.6 86.2 20
      vertex 126.6 86.2 0
      vertex 128.6 86.2 0
    endloop
  endfacet
  facet normal 0 1 -0
    outer loop
      vertex 137.4 88 0
      vertex 126.6 88 20
      vertex 137.4 88 20
    endloop
  endfacet
  facet normal 0 1 0
    outer loop
      vertex 126.6 88 20
      vertex 137.4 88 0
      vertex 126.6 88 0
    endloop
  endfacet
  facet normal 1 -0 0
    outer loop
      vertex 135.4 84 20
      vertex 135.4 86.2 0
      vertex 135.4 86.2 20
    endloop
  endfacet
  facet normal 1 0 0
    outer loop
      vertex 135.4 86.2 0
      vertex 135.4 84 20
      vertex 135.4 84 0
    endloop
  endfacet
  facet normal -1 0 0
    outer loop
      vertex 128.6 84 0
      vertex 128.6 86.2 20
      vertex 128.6 86.2 0
    endloop
  endfacet
  facet normal -1 -0 0
    outer loop
      vertex 128.6 86.2 20
      vertex 128.6 84 0
      vertex 128.6 84 20
    endloop
  endfacet
  facet normal 1 -0 0
    outer loop
      vertex 109.4 86.2 20
      vertex 109.4 88 0
      vertex 109.4 88 20
    endloop
  endfacet
  facet normal 1 0 0
    outer loop
      vertex 109.4 88 0
      vertex 109.4 86.2 20
      vertex 109.4 86.2 0
    endloop
  endfacet
  facet normal -1 0 0
    outer loop
      vertex 98.6 86.2 0
      vertex 98.6 88 20
      vertex 98.6 88 0
    endloop
  endfacet
  facet normal -1 -0 0
    outer loop
      vertex 98.6 88 20
      vertex 98.6 86.2 0
      vertex 98.6 86.2 20
    endloop
  endfacet
  facet normal 0 -1 0
    outer loop
      vertex 107.4 86.2 0
      vertex 109.4 86.2 20
      vertex 107.4 86.2 20
    endloop
  endfacet
  facet normal 0 -1 -0
    outer loop
      vertex 109.4 86.2 20
      vertex 107.4 86.2 0
      vertex 109.4 86.2 0
    endloop
  endfacet
  facet normal 0 -1 0
    outer loop
      vertex 98.6 86.2 0
      vertex 100.6 86.2 20
      vertex 98.6 86.2 20
    endloop
  endfacet
  facet normal 0 -1 -0
    outer loop
      vertex 100.6 86.2 20
      vertex 98.6 86.2 0
      vertex 100.6 86.2 0
    endloop
  endfacet
  facet normal 0 1 -0
    outer loop
      vertex 109.4 88 0
      vertex 98.6 88 20
      vertex 109.4 88 20
    endloop
  endfacet
  facet normal 0 1 0
    outer loop
      vertex 98.6 88 20
      vertex 109.4 88 0
      vertex 98.6 88 0
    endloop
  endfacet
  facet normal 1 -0 0
    outer loop
      vertex 107.4 84 20
      vertex 107.4 86.2 0
      vertex 107.4 86.2 20
    endloop
  endfacet
  facet normal 1 0 0
    outer loop
      vertex 107.4 86.2 0
      vertex 107.4 84 20
      vertex 107.4 84 0
    endloop
  endfacet
  facet normal -1 0 0
    outer loop
      vertex 100.6 84 0
      vertex 100.6 86.2 20
      vertex 100.6 86.2 0
    endloop
  endfacet
  facet normal -1 -0 0
    outer loop
      vertex 100.6 86.2 20
      vertex 100.6 84 0
      vertex 100.6 84 20
    endloop
  endfacet
  facet normal 1 -0 0
    outer loop
      vertex 81.4 86.2 20
      vertex 81.4 88 0
      vertex 81.4 88 20
    endloop
  endfacet
  facet normal 1 0 0
    outer loop
      vertex 81.4 88 0
      vertex 81.4 86.2 20
      vertex 81.4 86.2 0
    endloop
  endfacet
  facet normal -1 0 0
    outer loop
      vertex 70.6 86.2 0
      vertex 70.6 88 20
      vertex 70.6 88 0
    endloop
  endfacet
  facet normal -1 -0 0
    outer loop
      vertex 70.6 88 20
      vertex 70.6 86.2 0
      vertex 70.6 86.2 20
    endloop
  endfacet
  facet normal 0 -1 0
    outer loop
      vertex 79.4 86.2 0
      vertex 81.4 86.2 20
      vertex 79.4 86.2 20
    endloop
  endfacet
  facet normal 0 -1 -0
    outer loop
      vertex 81.4 86.2 20
      vertex 79.4 86.2 0
      vertex 81.4 86.2 0
    endloop
  endfacet
  facet normal 0 -1 0
    outer loop
      vertex 70.6 86.2 0
      vertex 72.6 86.2 20
      vertex 70.6 86.2 20
    endloop
  endfacet
  facet normal 0 -1 -0
    outer loop
      vertex 72.6 86.2 20
      vertex 70.6 86.2 0
      vertex 72.6 86.2 0
    endloop
  endfacet
  facet normal 0 1 -0
    outer loop
      vertex 81.4 88 0
      vertex 70.6 88 20
      vertex 81.4 88 20
    endloop
  endfacet
  facet normal 0 1 0
    outer loop
      vertex 70.6 88 20
      vertex 81.4 88 0
      vertex 70.6 88 0
    endloop
  endfacet
  facet normal 1 -0 0
    outer loop
      vertex 79.4 84 20
      vertex 79.4 86.2 0
      vertex 79.4 86.2 20
    endloop
  endfacet
  facet normal 1 0 0
    outer loop
      vertex 79.4 86.2 0
      vertex 79.4 84 20
      vertex 79.4 84 0
    endloop
  endfacet
  facet normal -1 0 0
    outer loop
      vertex 72.6 84 0
      vertex 72.6 86.2 20
      vertex 72.6 86.2 0
    endloop
  endfacet
  facet normal -1 -0 0
    outer loop
      vertex 72.6 86.2 20
      vertex 72.6 84 0
      vertex 72.6 84 20
    endloop
  endfacet
  facet normal 1 -0 0
    outer loop
      vertex 53.4 86.2 20
      vertex 53.4 88 0
      vertex 53.4 88 20
    endloop
  endfacet
  facet normal 1 0 0
    outer loop
      vertex 53.4 88 0
      vertex 53.4 86.2 20
      vertex 53.4 86.2 0
    endloop
  endfacet
  facet normal -1 0 0
    outer loop
      vertex 42.6 86.2 0
      vertex 42.6 88 20
      vertex 42.6 88 0
    endloop
  endfacet
  facet normal -1 -0 0
    outer loop
      vertex 42.6 88 20
      vertex 42.6 86.2 0
      vertex 42.6 86.2 20
    endloop
  endfacet
  facet normal 0 -1 0
    outer loop
      vertex 51.4 86.2 0
      vertex 53.4 86.2 20
      vertex 51.4 86.2 20
    endloop
  endfacet
  facet normal 0 -1 -0
    outer loop
      vertex 53.4 86.2 20
      vertex 51.4 86.2 0
      vertex 53.4 86.2 0
    endloop
  endfacet
  facet normal 0 -1 0
    outer loop
      vertex 42.6 86.2 0
      vertex 44.6 86.2 20
      vertex 42.6 86.2 20
    endloop
  endfacet
  facet normal 0 -1 -0
    outer loop
      vertex 44.6 86.2 20
      vertex 42.6 86.2 0
      vertex 44.6 86.2 0
    endloop
  endfacet
  facet normal 0 1 -0
    outer loop
      vertex 53.4 88 0
      vertex 42.6 88 20
      vertex 53.4 88 20
    endloop
  endfacet
  facet normal 0 1 0
    outer loop
      vertex 42.6 88 20
      vertex 53.4 88 0
      vertex 42.6 88 0
    endloop
  endfacet
  facet normal 1 -0 0
    outer loop
      vertex 51.4 84 20
      vertex 51.4 86.2 0
      vertex 51.4 86.2 20
    endloop
  endfacet
  facet normal 1 0 0
    outer loop
      vertex 51.4 86.2 0
      vertex 51.4 84 20
      vertex 51.4 84 0
    endloop
  endfacet
  facet normal -1 0 0
    outer loop
      vertex 44.6 84 0
      vertex 44.6 86.2 20
      vertex 44.6 86.2 0
    endloop
  endfacet
  facet normal -1 -0 0
    outer loop
      vertex 44.6 86.2 20
      vertex 44.6 84 0
      vertex 44.6 84 20
    endloop
  endfacet
  facet normal 1 -0 0
    outer loop
      vertex 25.4 86.2 20
      vertex 25.4 88 0
      vertex 25.4 88 20
    endloop
  endfacet
  facet normal 1 0 0
    outer loop
      vertex 25.4 88 0
      vertex 25.4 86.2 20
      vertex 25.4 86.2 0
    endloop
  endfacet
  facet normal -1 0 0
    outer loop
      vertex 14.6 86.2 0
      vertex 14.6 88 20
      vertex 14.6 88 0
    endloop
  endfacet
  facet normal -1 -0 0
    outer loop
      vertex 14.6 88 20
      vertex 14.6 86.2 0
      vertex 14.6 86.2 20
    endloop
  endfacet
  facet normal 0 -1 0
    outer loop
      vertex 23.4 86.2 0
      vertex 25.4 86.2 20
      vertex 23.4 86.2 20
    endloop
  endfacet
  facet normal 0 -1 -0
    outer loop
      vertex 25.4 86.2 20
      vertex 23.4 86.2 0
      vertex 25.4 86.2 0
    endloop
  endfacet
  facet normal 0 -1 0
    outer loop
      vertex 14.6 86.2 0
      vertex 16.6 86.2 20
      vertex 14.6 86.2 20
    endloop
  endfacet
  facet normal 0 -1 -0
    outer loop
      vertex 16.6 86.2 20
      vertex 14.6 86.2 0
      vertex 16.6 86.2 0
    endloop
  endfacet
  facet normal 0 1 -0
    outer loop
      vertex 25.4 88 0
      vertex 14.6 88 20
      vertex 25.4 88 20
    endloop
  endfacet
  facet normal 0 1 0
    outer loop
      vertex 14.6 88 20
      vertex 25.4 88 0
      vertex 14.6 88 0
    endloop
  endfacet
  facet normal 1 -0 0
    outer loop
      vertex 23.4 84 20
      vertex 23.4 86.2 0
      vertex 23.4 86.2 20
    endloop
  endfacet
  facet normal 1 0 0
    outer loop
      vertex 23.4 86.2 0
      vertex 23.4 84 20
      vertex 23.4 84 0
    endloop
  endfacet
  facet normal -1 0 0
    outer loop
      vertex 16.6 84 0
      vertex 16.6 86.2 20
      vertex 16.6 86.2 0
    endloop
  endfacet
  facet normal -1 -0 0
    outer loop
      vertex 16.6 86.2 20
      vertex 16.6 84 0
      vertex 16.6 84 20
    endloop
  endfacet
  facet normal 0 1 -0
    outer loop
      vertex -2.19999 81.4 0
      vertex -3.99999 81.4 20
      vertex -2.19999 81.4 20
    endloop
  endfacet
  facet normal 0 1 0
    outer loop
      vertex -3.99999 81.4 20
      vertex -2.19999 81.4 0
      vertex -3.99999 81.4 0
    endloop
  endfacet
  facet normal 0 -1 0
    outer loop
      vertex -3.99999 70.6 0
      vertex -2.19999 70.6 20
      vertex -3.99999 70.6 20
    endloop
  endfacet
  facet normal 0 -1 -0
    outer loop
      vertex -2.19999 70.6 20
      vertex -3.99999 70.6 0
      vertex -2.19999 70.6 0
    endloop
  endfacet
  facet normal 1 -0 0
    outer loop
      vertex -2.19999 79.4 20
      vertex -2.19999 81.4 0
      vertex -2.19999 81.4 20
    endloop
  endfacet
  facet normal 1 0 0
    outer loop
      vertex -2.19999 81.4 0
      vertex -2.19999 79.4 20
      vertex -2.19999 79.4 0
    endloop
  endfacet
  facet normal 1 -0 0
    outer loop
      vertex -2.19999 70.6 20
      vertex -2.19999 72.6 0
      vertex -2.19999 72.6 20
    endloop
  endfacet
  facet normal 1 0 0
    outer loop
      vertex -2.19999 72.6 0
      vertex -2.19999 70.6 20
      vertex -2.19999 70.6 0
    endloop
  endfacet
  facet normal -1 0 0
    outer loop
      vertex -3.99999 70.6 0
      vertex -3.99999 81.4 20
      vertex -3.99999 81.4 0
    endloop
  endfacet
  facet normal -1 -0 0
    outer loop
      vertex -3.99999 81.4 20
      vertex -3.99999 70.6 0
      vertex -3.99999 70.6 20
    endloop
  endfacet
  facet normal 0 1 -0
    outer loop
      vertex 0 79.4 0
      vertex -2.19999 79.4 20
      vertex 0 79.4 20
    endloop
  endfacet
  facet normal 0 1 0
    outer loop
      vertex -2.19999 79.4 20
      vertex 0 79.4 0
      vertex -2.19999 79.4 0
    endloop
  endfacet
  facet normal 0 -1 0
    outer loop
      vertex -2.19999 72.6 0
      vertex 0 72.6 20
      vertex -2.19999 72.6 20
    endloop
  endfacet
  facet normal 0 -1 -0
    outer loop
      vertex 0 72.6 20
      vertex -2.19999 72.6 0
      vertex 0 72.6 0
    endloop
  endfacet
  facet normal 0 1 -0
    outer loop
      vertex -2.19999 53.4 0
      vertex -3.99999 53.4 20
      vertex -2.19999 53.4 20
    endloop
  endfacet
  facet normal 0 1 0
    outer loop
      vertex -3.99999 53.4 20
      vertex -2.19999 53.4 0
      vertex -3.99999 53.4 0
    endloop
  endfacet
  facet normal 0 -1 0
    outer loop
      vertex -3.99999 42.6 0
      vertex -2.19999 42.6 20
      vertex -3.99999 42.6 20
    endloop
  endfacet
  facet normal 0 -1 -0
    outer loop
      vertex -2.19999 42.6 20
      vertex -3.99999 42.6 0
      vertex -2.19999 42.6 0
    endloop
  endfacet
  facet normal 1 -0 0
    outer loop
      vertex -2.19999 51.4 20
      vertex -2.19999 53.4 0
      vertex -2.19999 53.4 20
    endloop
  endfacet
  facet normal 1 0 0
    outer loop
      vertex -2.19999 53.4 0
      vertex -2.19999 51.4 20
      vertex -2.19999 51.4 0
    endloop
  endfacet
  facet normal 1 -0 0
    outer loop
      vertex -2.19999 42.6 20
      vertex -2.19999 44.6 0
      vertex -2.19999 44.6 20
    endloop
  endfacet
  facet normal 1 0 0
    outer loop
      vertex -2.19999 44.6 0
      vertex -2.19999 42.6 20
      vertex -2.19999 42.6 0
    endloop
  endfacet
  facet normal -1 0 0
    outer loop
      vertex -3.99999 42.6 0
      vertex -3.99999 53.4 20
      vertex -3.99999 53.4 0
    endloop
  endfacet
  facet normal -1 -0 0
    outer loop
      vertex -3.99999 53.4 20
      vertex -3.99999 42.6 0
      vertex -3.99999 42.6 20
    endloop
  endfacet
  facet normal 0 1 -0
    outer loop
      vertex 0 51.4 0
      vertex -2.19999 51.4 20
      vertex 0 51.4 20
    endloop
  endfacet
  facet normal 0 1 0
    outer loop
      vertex -2.19999 51.4 20
      vertex 0 51.4 0
      vertex -2.19999 51.4 0
    endloop
  endfacet
  facet normal 0 -1 0
    outer loop
      vertex -2.19999 44.6 0
      vertex 0 44.6 20
      vertex -2.19999 44.6 20
    endloop
  endfacet
  facet normal 0 -1 -0
    outer loop
      vertex 0 44.6 20
      vertex -2.19999 44.6 0
      vertex 0 44.6 0
    endloop
  endfacet
  facet normal 0 1 -0
    outer loop
      vertex -2.19999 25.4 0
      vertex -3.99999 25.4 20
      vertex -2.19999 25.4 20
    endloop
  endfacet
  facet normal 0 1 0
    outer loop
      vertex -3.99999 25.4 20
      vertex -2.19999 25.4 0
      vertex -3.99999 25.4 0
    endloop
  endfacet
  facet normal 0 -1 0
    outer loop
      vertex -3.99999 14.6 0
      vertex -2.19999 14.6 20
      vertex -3.99999 14.6 20
    endloop
  endfacet
  facet normal 0 -1 -0
    outer loop
      vertex -2.19999 14.6 20
      vertex -3.99999 14.6 0
      vertex -2.19999 14.6 0
    endloop
  endfacet
  facet normal 1 -0 0
    outer loop
      vertex -2.19999 23.4 20
      vertex -2.19999 25.4 0
      vertex -2.19999 25.4 20
    endloop
  endfacet
  facet normal 1 0 0
    outer loop
      vertex -2.19999 25.4 0
      vertex -2.19999 23.4 20
      vertex -2.19999 23.4 0
    endloop
  endfacet
  facet normal 1 -0 0
    outer loop
      vertex -2.19999 14.6 20
      vertex -2.19999 16.6 0
      vertex -2.19999 16.6 20
    endloop
  endfacet
  facet normal 1 0 0
    outer loop
      vertex -2.19999 16.6 0
      vertex -2.19999 14.6 20
      vertex -2.19999 14.6 0
    endloop
  endfacet
  facet normal -1 0 0
    outer loop
      vertex -3.99999 14.6 0
      vertex -3.99999 25.4 20
      vertex -3.99999 25.4 0
    endloop
  endfacet
  facet normal -1 -0 0
    outer loop
      vertex -3.99999 25.4 20
      vertex -3.99999 14.6 0
      vertex -3.99999 14.6 20
    endloop
  endfacet
  facet normal 0 1 -0
    outer loop
      vertex 0 23.4 0
      vertex -2.19999 23.4 20
      vertex 0 23.4 20
    endloop
  endfacet
  facet normal 0 1 0
    outer loop
      vertex -2.19999 23.4 20
      vertex 0 23.4 0
      vertex -2.19999 23.4 0
    endloop
  endfacet
  facet normal 0 -1 0
    outer loop
      vertex -2.19999 16.6 0
      vertex 0 16.6 20
      vertex -2.19999 16.6 20
    endloop
  endfacet
  facet normal 0 -1 -0
    outer loop
      vertex 0 16.6 20
      vertex -2.19999 16.6 0
      vertex 0 16.6 0
    endloop
  endfacet
endsolid OpenSCAD_Model
